<svg width="41" height="53" viewBox="0 0 41 53" fill="none" xmlns="http://www.w3.org/2000/svg">
<g style="mix-blend-mode:multiply" opacity="0.6">
<path d="M37.2305 31.0379C36.0921 28.5724 34.544 26.3424 32.6596 24.4537C31.2655 23.1273 28.2258 20.5467 28.5686 20.185C29.5285 19.2203 30.4427 18.1832 31.3112 17.1461C32.785 15.5345 34.0527 13.7265 35.0822 11.7679C35.4707 11.4303 31.5854 8.80145 31.2883 8.22263C30.8635 7.57393 30.3097 7.03072 29.6657 6.63086C28.0202 5.30439 26.0775 5.90735 25.0948 5.18383C24.5103 4.86172 23.857 4.7039 23.1979 4.72559C22.1466 5.03911 22.8322 5.7144 21.5981 5.47322C20.591 5.16034 19.5198 5.16034 18.5127 5.47322C18.0943 5.63962 17.6892 5.84125 17.3015 6.07616C16.6363 6.36377 15.9116 6.46351 15.1989 6.36556C14.0578 6.1824 12.8921 6.2815 11.7935 6.655C11.3064 7.00997 10.7129 7.16438 10.1252 7.0891L8.31968 6.77559C7.16988 6.5705 5.99561 6.5705 4.84581 6.77559C4.1858 6.9111 3.57109 7.2271 3.06317 7.69204C2.40039 8.24674 2.92605 9.11499 3.26886 9.6697C3.61168 10.2244 4.20588 11.1891 4.68583 12.0815C5.16577 12.9738 5.44002 13.215 5.82854 13.7938C6.21707 14.3726 6.65131 14.9756 7.08554 15.5544C8.38896 17.6144 10.086 19.3641 12.0678 20.6914L11.8393 20.9085C9.91951 22.5806 8.15899 24.4466 6.58274 26.4796C4.54267 28.5291 2.70491 30.7916 1.09769 33.2325C0.475749 34.3991 0.109766 35.6981 0.026703 37.0338C-0.0563595 38.3695 0.145617 39.7078 0.617748 40.9502C2.19234 43.5453 4.27249 45.7569 6.71986 47.4378C11.7185 50.5381 17.4001 52.2013 23.1979 52.2613C25.5962 52.2475 27.9672 51.7225 30.1685 50.7178C31.4106 50.1267 32.5903 49.3991 33.688 48.5472C36.4285 46.2102 38.2522 42.8854 38.8074 39.2137C39.1239 36.3806 38.5712 33.515 37.2305 31.0379V31.0379Z" fill="#8A7D63"/>
</g>
<path d="M22.5551 18.7211C23.9955 17.4438 25.3628 16.0461 26.6812 14.6242C28.2734 13.0025 29.6515 11.1888 30.7829 9.22593C31.1979 8.88854 31.5153 8.52705 31.1735 7.94866C30.7865 7.23188 30.1677 6.66346 29.4156 6.33396C28.2981 6.11656 27.2199 5.73475 26.2173 5.20128C25.824 4.89324 25.3256 4.74653 24.8257 4.79159C24.7617 4.77414 24.6942 4.77414 24.6303 4.79159C23.3551 5.11538 22.0402 5.26141 20.7239 5.2254C19.6233 4.91207 18.4554 4.91207 17.3547 5.2254C16.9018 5.39622 16.4613 5.59753 16.0363 5.82789C15.3205 6.12757 14.5352 6.22759 13.7658 6.11707C12.5145 5.93374 11.2373 6.0326 10.0303 6.40626C9.50019 6.76131 8.86142 6.92321 8.22359 6.86415L6.2704 6.52676C5.01664 6.33259 3.73988 6.33259 2.48612 6.52676C1.77391 6.68411 1.10648 6.99705 0.532932 7.44256C-0.175097 7.99685 0.532928 8.88853 0.777076 9.44282L2.31522 11.8528C2.70586 12.4312 3.12089 13.0096 3.56036 13.5879L4.9276 15.3472C6.35465 17.4234 8.19967 19.1872 10.3477 20.5286L10.1035 20.7455C14.2541 21.9987 18.4778 20.4322 22.5551 18.7211Z" fill="url(#paint0_linear_155_1303)"/>
<path style="mix-blend-mode:multiply" opacity="0.8" d="M30.418 8.14181C29.5879 7.61163 28.4893 6.62356 27.415 6.71996C26.9023 7.58754 26.414 8.47923 25.999 9.37091C25.7707 9.94338 25.4211 10.461 24.9735 10.8892C24.0946 11.4916 25.3153 8.21414 24.9735 7.68396C24.705 7.68396 23.0692 6.98504 22.825 6.86455C23.0122 8.13477 22.8258 9.43133 22.2879 10.6C21.8728 11.7808 21.4578 13.0099 21.0672 14.1667C19.7976 18.0708 19.5779 17.2996 19.5779 16.4562C19.5779 13.8293 20.3836 9.08171 20.3591 7.51524C19.9197 7.51524 17.405 7.63574 16.9655 7.51524C16.1783 7.38118 15.3721 7.40158 14.5929 7.57526C13.8137 7.74893 13.0768 8.07248 12.4243 8.52742C14.1334 9.85289 13.8648 9.68419 14.2799 11.7326C14.5972 13.2027 15.5983 17.0827 16.0622 18.5287C16.3063 19.2517 16.404 19.9265 16.6969 20.6494C18.743 20.1513 20.7374 19.4656 22.6541 18.601C24.0946 17.3237 25.4618 15.9259 26.7802 14.5041C28.3724 12.8824 29.7506 11.0686 30.8819 9.10582C31.1142 8.94365 31.2926 8.71723 31.3946 8.45512C31.0584 8.38649 30.7309 8.28141 30.418 8.14181V8.14181Z" fill="url(#paint1_linear_155_1303)"/>
<path style="mix-blend-mode:multiply" opacity="0.7" d="M27.0453 7.4416L26.679 7.6344C26.4235 9.97062 25.4815 12.1821 23.969 13.9967C23.9344 14.0226 23.8934 14.039 23.8502 14.044C23.8071 14.0491 23.7633 14.0427 23.7235 14.0255C23.6837 14.0083 23.6492 13.9809 23.6237 13.9462C23.5982 13.9115 23.5825 13.8707 23.5784 13.828C23.574 13.0157 23.6725 12.2062 23.8714 11.418C23.9922 10.2643 23.9922 9.10141 23.8714 7.94771C23.4596 7.7296 23.0882 7.44441 22.7727 7.10421C22.5205 8.84703 22.1452 10.5703 21.6496 12.2615C21.4299 12.9845 20.3068 18.3105 19.2081 18.19C18.6954 18.19 18.4513 17.3706 18.3048 16.985C17.8653 15.6837 17.377 11.2252 16.9375 9.89976C16.4981 8.57429 16.8155 7.87538 15.3017 7.99588C14.3074 8.02732 13.3322 8.27414 12.4452 8.71887C13.2265 9.39366 13.9345 10.5022 12.6161 10.8396C12.7626 11.5385 12.8603 12.2374 13.0068 12.9122C13.3514 13.9424 13.5646 15.011 13.6416 16.0933C13.6374 16.136 13.6217 16.1769 13.5962 16.2116C13.5707 16.2463 13.5362 16.2737 13.4964 16.2909C13.4566 16.3081 13.4128 16.3145 13.3697 16.3094C13.3265 16.3043 13.2855 16.288 13.2509 16.262C12.03 14.7558 10.9512 13.1424 10.0282 11.4421C9.56521 10.7855 9.00564 10.2007 8.36796 9.70696L9.05157 11.6831C9.4216 12.5341 9.72367 13.4125 9.95494 14.31C10.1747 15.7319 8.88066 15.1534 8.24588 14.7438C6.29761 13.4702 4.43793 12.0693 2.67931 10.5504C1.80665 9.86832 0.990261 9.1189 0.237835 8.30919C0.356952 8.68925 0.538404 9.04747 0.774963 9.36957L2.31311 11.7795C2.70374 12.3579 3.11878 12.9363 3.55825 13.5147L4.92549 15.2739C6.35253 17.3502 8.19755 19.1139 10.3455 20.4553L10.1014 20.6722C14.3496 22.1664 18.5733 20.6722 22.6506 18.8889C24.0911 17.6116 25.4583 16.2138 26.7767 14.792C28.3689 13.1703 29.747 11.3565 30.8784 9.39366C30.996 9.30161 31.1025 9.19647 31.1958 9.08035C29.6577 8.38147 28.7055 6.71862 27.0453 7.4416Z" fill="url(#paint2_linear_155_1303)"/>
<path style="mix-blend-mode:multiply" opacity="0.8" d="M15.5484 14.6234C14.8406 12.4876 14.2858 10.3052 13.8882 8.09251C13.3961 8.21193 12.9207 8.38997 12.4722 8.62271C12.7645 8.81829 13.0275 9.05355 13.2534 9.32157C13.7159 9.88016 13.974 10.5764 13.9859 11.2977C14.3033 14.0933 15.524 16.5996 15.9879 19.347C16.0025 19.3934 16.001 19.4433 15.9835 19.4888C15.9659 19.5342 15.9334 19.5725 15.8912 19.5976C15.8489 19.6226 15.7994 19.6328 15.7505 19.6267C15.7016 19.6206 15.6562 19.5985 15.6217 19.5638C13.0587 16.7197 10.77 13.6457 8.7855 10.382C9.46911 12.0448 9.95743 13.7559 10.7143 15.3946C10.8852 15.7802 12.1059 17.8046 11.1782 18.0697C10.2504 18.3348 9.34706 17.4431 8.73669 17.0575C7.49154 16.2863 6.29519 15.4429 5.1477 14.6476C4.25562 13.9254 3.43783 13.1182 2.70621 12.2376C2.95036 12.5991 3.24335 12.9606 3.51191 13.3462L4.87913 15.1054C6.30618 17.1816 8.15124 18.9454 10.2992 20.2868L10.0551 20.5037C12.5764 21.3239 15.2977 21.3239 17.819 20.5037C16.8666 18.6227 16.1061 16.6529 15.5484 14.6234Z" fill="url(#paint3_linear_155_1303)"/>
<path style="mix-blend-mode:multiply" opacity="0.8" d="M25.7559 13.6352C26.8866 11.7102 27.4766 9.52225 27.465 7.29709H27.1476C26.9651 8.52307 26.6033 9.7164 26.0733 10.8397C25.0751 12.6927 23.8267 14.4033 22.3622 15.9247C23.226 13.4391 23.599 10.813 23.4609 8.18876C23.1847 9.97541 22.7182 11.7283 22.0693 13.4183C21.4616 15.6961 20.5329 17.8783 19.3104 19.9011C20.409 19.5155 21.4833 19.0817 22.5576 18.6238C23.998 17.3465 25.3653 15.9488 26.6837 14.5269C28.2759 12.9053 29.654 11.0915 30.7854 9.12863C30.903 9.03659 31.0095 8.93145 31.1027 8.81533L30.7365 8.64665C29.3128 10.5244 27.6372 12.2026 25.7559 13.6352V13.6352Z" fill="url(#paint4_linear_155_1303)"/>
<path d="M33.4771 28.5332C32.3029 26.0167 30.6806 23.7642 28.6994 21.8996C27.2456 20.4283 25.4944 19.3271 23.5787 18.6796C19.761 20.4228 15.8062 21.9722 11.8286 20.4712C9.87348 22.1503 8.08152 24.0319 6.4793 26.088C4.63007 28.2513 2.99823 30.6123 1.61009 33.1331C0.310969 35.2885 -0.223694 37.8623 0.101308 40.3961C0.661259 42.4776 1.93245 44.264 3.66749 45.4076C8.27414 48.5328 13.6778 50.0797 19.1438 49.8381C21.5885 49.8157 24.0048 49.2808 26.2533 48.2644C27.5181 47.6777 28.7148 46.9385 29.8195 46.0613C32.6131 43.7239 34.4804 40.3647 35.0545 36.6436C35.3641 33.8309 34.8111 30.9873 33.4771 28.5332V28.5332Z" fill="url(#paint5_radial_155_1303)"/>
<path style="mix-blend-mode:multiply" opacity="0.8" d="M33.4771 28.5332C32.3029 26.0167 30.6806 23.7642 28.6994 21.8996C27.2456 20.4283 25.4944 19.3271 23.5787 18.6796C19.761 20.4228 15.8062 21.9722 11.8286 20.4712C9.87348 22.1503 8.08152 24.0319 6.4793 26.088C4.63007 28.2513 2.99823 30.6123 1.61009 33.1331C0.310969 35.2885 -0.223694 37.8623 0.101308 40.3961C0.661259 42.4776 1.93245 44.264 3.66749 45.4076C8.27414 48.5328 13.6778 50.0797 19.1438 49.8381C21.5885 49.8157 24.0048 49.2808 26.2533 48.2644C27.5181 47.6777 28.7148 46.9385 29.8195 46.0613C32.6131 43.7239 34.4804 40.3647 35.0545 36.6436C35.3641 33.8309 34.8111 30.9873 33.4771 28.5332V28.5332ZM19.9439 41.4613C19.5859 42.3435 18.9884 43.093 18.2272 43.6146C17.466 44.1362 16.5756 44.4064 15.6691 44.3908C13.4289 44.4618 11.2022 43.9984 9.15393 43.035C7.26706 42.3671 5.59559 41.1506 4.33044 39.5245C3.82257 38.7002 3.48648 37.7708 3.34457 36.798C3.20266 35.8253 3.25819 34.8318 3.50747 33.8836C4.3868 31.5094 5.64748 29.3142 7.23369 27.3953C7.66803 26.79 11.0513 23.4248 10.2969 25.3132C9.13107 28.17 9.03963 28.9689 7.69088 29.2352C7.45001 29.2915 7.22682 29.4123 7.04269 29.5861C6.85856 29.7599 6.71967 29.9809 6.63932 30.2279C6.25069 31.1478 5.6106 33.1573 6.20497 34.1015C7.23368 35.7236 9.61114 32.5036 10.0912 31.6805C10.8753 30.1913 11.5775 28.6555 12.1943 27.0805C13.2916 24.6595 14.1146 26.4511 13.3373 29.7679C13.059 30.9709 12.9511 32.2111 13.0173 33.4478C13.0173 34.6341 13.2688 36.3288 14.7775 35.8688C16.2863 35.4088 17.3836 33.0605 17.7951 31.4868C18.4809 28.8479 18.7324 25.5311 18.9152 24.708C18.9152 24.5869 19.2124 23.4732 19.2581 25.5311C19.3132 27.5426 19.2522 29.5558 19.0752 31.5594C18.961 32.0279 18.961 32.5194 19.0752 32.9878C19.281 33.4236 19.441 33.3026 19.8296 33.4962C21.8185 34.5615 20.6983 39.7666 19.9439 41.4613V41.4613Z" fill="url(#paint6_radial_155_1303)"/>
<path style="mix-blend-mode:multiply" opacity="0.7" d="M33.4771 28.5332C32.3029 26.0167 30.6806 23.7642 28.6994 21.8996C27.2456 20.4283 25.4944 19.3271 23.5787 18.6796C19.761 20.4228 15.8062 21.9722 11.8286 20.4712C9.87348 22.1503 8.08152 24.0319 6.4793 26.088C4.63007 28.2513 2.99823 30.6123 1.61009 33.1331C0.310969 35.2885 -0.223694 37.8623 0.101308 40.3961C0.661259 42.4776 1.93245 44.264 3.66749 45.4076C8.27414 48.5328 13.6778 50.0797 19.1438 49.8381C21.5885 49.8157 24.0048 49.2808 26.2533 48.2644C27.5181 47.6777 28.7148 46.9385 29.8195 46.0613C32.6131 43.7239 34.4804 40.3647 35.0545 36.6436C35.3641 33.8309 34.8111 30.9873 33.4771 28.5332V28.5332ZM30.9854 37.0309C30.1295 39.2164 28.7287 41.1143 26.9328 42.5215C25.1368 43.9288 23.0134 44.7925 20.7897 45.0202C15.8763 45.6331 10.9011 44.7072 6.4793 42.3571C5.49862 41.7427 4.64993 40.918 3.98755 39.9361C3.3076 38.8356 2.90614 37.5684 2.82167 36.2562C2.80515 33.9113 3.51144 31.6248 4.83336 29.7437C5.5823 28.5446 6.4398 27.4256 7.39371 26.4027C8.23953 25.5069 9.42826 23.9817 10.6627 23.8122C10.6933 23.8048 10.725 23.8049 10.7555 23.8125C10.786 23.8201 10.8145 23.835 10.8388 23.856C10.863 23.877 10.8824 23.9036 10.8955 23.9338C10.9086 23.9639 10.915 23.9969 10.9142 24.0301C10.8238 25.0946 10.5199 26.1263 10.0226 27.0563C9.65687 27.8553 9.10822 29.4774 8.35383 30.01C7.59944 30.5426 7.2794 28.7268 7.02794 30.01C7.02794 30.591 6.54787 32.431 7.02794 32.7941C8.85675 34.3194 11.1199 29.0174 11.6 27.9521C11.9341 26.875 12.3547 25.8301 12.8573 24.829C12.9122 24.6938 12.9955 24.5736 13.1008 24.4776C13.2062 24.3816 13.3308 24.3123 13.4653 24.275C13.5997 24.2376 13.7404 24.2332 13.8767 24.2621C14.013 24.291 14.1412 24.3524 14.2517 24.4416C14.7089 24.8774 14.5947 25.6522 14.5261 26.2332C14.2289 28.1458 13.3145 32.0194 15.2347 33.2784C16.2406 33.9562 17.1779 31.9952 17.3836 31.3173C17.8637 29.7437 17.9322 27.6132 18.2523 25.9911C18.3644 25.0195 18.5949 24.0674 18.9381 23.1585C18.9521 23.1158 18.9784 23.0787 19.0132 23.0525C19.048 23.0263 19.0897 23.0122 19.1324 23.0122C19.1751 23.0122 19.2168 23.0263 19.2516 23.0525C19.2864 23.0787 19.3127 23.1158 19.3267 23.1585C19.8753 25.5795 19.2124 28.291 20.1497 30.6394C20.4926 31.5352 20.8355 30.7605 20.9955 30.1794C21.1616 29.4786 21.2837 28.7669 21.3613 28.049C21.4779 26.3729 21.6994 24.7068 22.0242 23.0617C22.0242 22.8196 22.87 24.6595 22.87 24.9258C22.585 27.0436 22.1649 29.1386 21.6127 31.1963C21.4901 31.9455 21.5941 32.7165 21.9099 33.3994C22.4128 34.2952 23.8759 34.7551 24.4017 33.6657C24.9274 32.5762 24.5846 30.6637 24.7446 29.2595C24.8783 28.2004 24.9317 27.1318 24.9046 26.0637C24.9046 24.9985 24.5845 23.9816 24.6074 22.9164C24.6251 22.8882 24.6488 22.8648 24.6766 22.8479C24.7044 22.8311 24.7355 22.8214 24.7674 22.8196C26.6877 23.9575 26.3219 26.9595 26.3448 28.9447C26.2963 29.6302 26.366 30.3193 26.5505 30.9784C27.2135 32.7457 27.9221 31.1236 28.5851 30.8089C28.8948 30.6441 29.2513 30.6074 29.5852 30.7059C29.919 30.8044 30.2063 31.031 30.391 31.3415C30.9201 32.1669 31.2508 33.1166 31.3543 34.1082C31.4579 35.0997 31.3313 36.103 30.9854 37.0309V37.0309Z" fill="url(#paint7_radial_155_1303)"/>
<g style="mix-blend-mode:multiply">
<path d="M28.6843 21.8873C30.6644 23.7399 32.2859 25.9779 33.4595 28.4781C34.832 30.9712 35.3861 33.8708 35.036 36.7287C34.4622 40.4258 32.5959 43.7634 29.8038 46.0857C28.6997 46.9573 27.5036 47.6918 26.2395 48.2747C23.9922 49.2846 21.5771 49.816 19.1337 49.8382C13.6706 50.0783 8.26978 48.5414 3.66556 45.4363C1.93143 44.3001 0.660915 42.5252 0.101259 40.4571C-0.223572 37.9396 0.31081 35.3824 1.60924 33.2408C4.4174 28.4149 7.94272 24.0944 12.0508 20.444C10.0407 19.1052 8.31402 17.3447 6.97855 15.2724L5.69906 13.5164C5.28779 12.9391 4.89937 12.3618 4.5338 11.7845L3.09436 9.37912C2.86588 8.82587 2.20328 7.93586 2.86588 7.38262C3.40262 6.93795 4.02723 6.62563 4.69374 6.46858C5.86705 6.27478 7.06188 6.27478 8.23519 6.46858L10.0631 6.80534C10.66 6.86428 11.2577 6.70269 11.7538 6.34831C12.8834 5.97536 14.0786 5.87664 15.2496 6.05963C15.9696 6.16994 16.7046 6.07011 17.3745 5.77099C17.7722 5.54106 18.1844 5.34014 18.6082 5.16964C19.6383 4.8569 20.7313 4.8569 21.7613 5.16964C22.9931 5.20558 24.2236 5.05986 25.417 4.73668C25.4768 4.71926 25.54 4.71926 25.5998 4.73668C26.0677 4.69171 26.5341 4.83814 26.9021 5.1456C27.8404 5.67806 28.8494 6.05916 29.8952 6.27615C30.599 6.60503 31.1781 7.17234 31.5403 7.88777C31.8602 8.46507 31.5631 8.82588 31.1747 9.16264C30.116 11.1218 28.8263 12.9322 27.3362 14.5508C26.1024 15.97 24.8229 17.3651 23.4749 18.64C25.4241 19.2895 27.2061 20.4003 28.6843 21.8873Z" fill="#AE8A65"/>
</g>
<path d="M27.7574 20.4311C27.482 19.8747 27.0945 19.3797 26.6187 18.9761C26.1428 18.5726 25.5886 18.2691 24.9899 18.0842C24.3913 17.8992 23.7606 17.8367 23.1366 17.9004C22.5126 17.9642 21.9084 18.1528 21.3608 18.4549V18.4549H21.1898C19.9804 19.0674 18.723 19.5832 17.43 19.9973C16.3903 20.2513 15.3265 20.3966 14.2561 20.4311C13.5124 20.4566 12.7681 20.4082 12.0343 20.2865C11.4573 20.2523 10.889 20.1303 10.3497 19.925C9.72131 19.6796 9.12336 19.3642 8.5674 18.9851H8.42092L8.07912 18.7682C5.85737 20.8166 10.252 22.8892 11.9367 23.2989C13.9694 23.6462 16.0608 23.386 17.9427 22.5518C19.1172 22.1342 20.1492 21.3994 20.9213 20.4311C22.7524 22.3831 22.3373 26.3113 21.8002 28.6008C21.5072 29.9504 20.6772 31.4446 21.6293 32.7218C22.142 33.3966 23.2651 33.8063 23.8511 33.1074C23.8637 33.0519 23.8637 32.9943 23.8511 32.9387V32.9387C23.8645 32.8833 23.8645 32.8255 23.8511 32.77C24.6844 29.1289 24.7757 25.3605 24.1196 21.6842C23.9174 21.0204 23.6389 20.3816 23.2895 19.7804C23.8139 19.9849 24.2883 20.297 24.6812 20.6962C25.2179 21.3352 25.6391 22.0608 25.9263 22.841C26.5431 24.4542 26.777 26.1856 26.6099 27.9019C26.6099 28.8418 26.4634 30.3119 27.6354 30.7216C28.2213 30.9144 28.6364 30.4806 28.8561 29.9986C28.8931 29.9787 28.9254 29.9512 28.9506 29.918C28.9759 29.8847 28.9936 29.8464 29.0026 29.8058C29.833 26.6396 29.3867 23.2789 27.7574 20.4311V20.4311Z" fill="url(#paint8_radial_155_1303)"/>
<path style="mix-blend-mode:multiply" d="M30.0239 8.57393C30.1273 8.68863 30.2558 8.77859 30.3996 8.83704C30.5434 8.89549 30.6988 8.92091 30.8541 8.91132H30.9761C31.098 8.77486 31.1652 8.59919 31.1652 8.41728C31.1652 8.23536 31.098 8.05969 30.9761 7.92323C30.5891 7.20645 29.9704 6.63807 29.2183 6.30857C28.1007 6.09117 27.0226 5.70935 26.0199 5.17589C25.6266 4.86785 25.1283 4.72114 24.6283 4.7662C24.5644 4.74875 24.4969 4.74875 24.433 4.7662C23.1577 5.08999 21.8428 5.23598 20.5266 5.19998C19.4259 4.88665 18.258 4.88665 17.1574 5.19998C16.7045 5.3708 16.2639 5.5721 15.839 5.80246C15.1232 6.10215 14.3378 6.2022 13.5684 6.09168C12.3171 5.90835 11.04 6.00721 9.83294 6.38087C9.30284 6.73592 8.66406 6.89781 8.02624 6.83876L6.07307 6.50137C4.81931 6.3072 3.54253 6.3072 2.28877 6.50137C1.57656 6.65871 0.909128 6.97166 0.335583 7.41716C0.176577 7.54399 0.0658603 7.72029 0.0215134 7.91728C-0.0228336 8.11426 0.00181511 8.32027 0.0914391 8.50163C0.0914391 8.74263 0.628571 9.10411 1.43426 9.4656C1.9823 9.68325 2.55686 9.82911 3.14328 9.89941C4.80844 10.1766 6.51418 10.1027 8.14832 9.68249C8.12184 9.76892 8.12184 9.86115 8.14832 9.94758C8.71115 10.5723 9.50049 10.9532 10.3456 11.008C11.2587 11.2323 12.2217 11.1475 13.0801 10.767C14.1299 10.1886 13.4952 9.36922 12.8115 8.83903C14.3495 8.18522 16.0525 8.00869 17.6945 8.33292C19.2184 8.55115 20.7709 8.21727 22.0647 7.39304C22.0647 7.39304 22.553 7.39305 22.9681 7.70635C23.3494 8.03864 23.7992 8.28532 24.2865 8.42934C24.9216 8.50538 25.5616 8.33232 26.0687 7.94736C26.3273 7.67674 26.6727 7.50253 27.0463 7.45423C27.42 7.40593 27.7991 7.48649 28.1196 7.68226C28.5086 7.84593 28.8841 8.03929 29.2427 8.26062L30.0239 8.57393Z" fill="url(#paint9_linear_155_1303)"/>
<g style="mix-blend-mode:multiply">
<path d="M27.7574 20.4311C27.482 19.8747 27.0945 19.3797 26.6187 18.9761C26.1428 18.5726 25.5886 18.2691 24.9899 18.0842C24.3913 17.8992 23.7606 17.8367 23.1366 17.9004C22.5126 17.9642 21.9084 18.1528 21.3608 18.4549V18.4549H21.1898C19.9804 19.0674 18.723 19.5832 17.43 19.9973C16.3903 20.2513 15.3265 20.3966 14.2561 20.4311C13.5124 20.4566 12.7681 20.4082 12.0343 20.2865C11.4573 20.2523 10.889 20.1303 10.3497 19.925C9.72131 19.6796 9.12336 19.3642 8.5674 18.9851H8.42092L8.07912 18.7682C5.85737 20.8166 10.252 22.8892 11.9367 23.2989C13.9694 23.6462 16.0608 23.386 17.9427 22.5518C19.1172 22.1342 20.1492 21.3994 20.9213 20.4311C22.7524 22.3831 22.3373 26.3113 21.8002 28.6008C21.5072 29.9504 20.6772 31.4446 21.6293 32.7218C22.142 33.3966 23.2651 33.8063 23.8511 33.1074C23.8637 33.0519 23.8637 32.9943 23.8511 32.9387V32.9387C23.8645 32.8833 23.8645 32.8255 23.8511 32.77C24.6844 29.1289 24.7757 25.3605 24.1196 21.6842C23.9174 21.0204 23.6389 20.3816 23.2895 19.7804C23.8139 19.9849 24.2883 20.297 24.6812 20.6962C25.2179 21.3352 25.6391 22.0608 25.9263 22.841C26.5431 24.4542 26.777 26.1856 26.6099 27.9019C26.6099 28.8418 26.4634 30.3119 27.6354 30.7216C28.2213 30.9144 28.6364 30.4806 28.8561 29.9986C28.8931 29.9787 28.9254 29.9512 28.9506 29.918C28.9759 29.8847 28.9936 29.8464 29.0026 29.8058C29.833 26.6396 29.3867 23.2789 27.7574 20.4311V20.4311ZM13.8898 21.1781C14.4508 21.2128 15.0134 21.2128 15.5744 21.1781C15.6907 21.4858 15.9049 21.7479 16.1848 21.9252C16.4979 22.1612 16.8929 22.2653 17.2835 22.2144C16.5845 22.4532 15.8656 22.6306 15.135 22.7446V22.7446C14.3781 22.4072 13.5236 22.118 13.2794 21.2746L13.8898 21.1781ZM11.1065 20.8648C11.0936 21.172 11.1456 21.4784 11.259 21.7647C11.3725 22.051 11.5451 22.3108 11.7657 22.5277C11.2629 22.3828 10.773 22.1974 10.3009 21.9734C10.3009 21.9734 10.3009 21.9734 10.3009 21.9734C10.0653 21.7698 9.85981 21.5346 9.6905 21.2746C9.55722 20.9884 9.5065 20.6715 9.54398 20.3588C10.0468 20.5552 10.5712 20.6927 11.1065 20.7684V20.8648ZM8.29884 19.2984C8.58957 19.651 8.94593 19.9455 9.34869 20.166C9.25575 20.4083 9.23162 20.671 9.27896 20.9259C9.32629 21.1807 9.44324 21.418 9.61722 21.6119V21.6119C9.13489 21.4417 8.73342 21.1013 8.49003 20.6564C8.24663 20.2115 8.17853 19.6935 8.29884 19.202V19.2984ZM12.5714 22.6723C12.2852 22.5064 12.0225 22.3038 11.7902 22.0698C11.5263 21.7222 11.3505 21.3173 11.2774 20.889C11.8701 21.0283 12.4753 21.109 13.0842 21.1299C13.0842 22.0457 13.8654 22.5518 14.6955 22.6964C13.9851 22.7418 13.2718 22.7013 12.5714 22.5759V22.6723ZM17.3079 22.0939C17.3079 22.0939 17.3079 22.0939 17.3079 21.9734C17.3079 21.8529 16.6731 21.8047 16.3801 21.6601C16.119 21.4994 15.8877 21.2956 15.6965 21.0576C16.3153 20.9835 16.9275 20.8626 17.5276 20.6962C17.7108 20.9135 17.9519 21.0761 18.2236 21.1655C18.4954 21.2549 18.7871 21.2677 19.0658 21.2023C18.5213 21.5488 17.9293 21.8166 17.3079 21.9975V22.0939ZM19.5541 20.8407C19.2572 20.9425 18.9412 20.978 18.6288 20.9447C18.3164 20.9114 18.0153 20.81 17.7474 20.6479C18.7267 20.3968 19.6642 20.0072 20.5306 19.4912C20.2856 19.9644 19.9546 20.3892 19.5541 20.7444V20.8407ZM28.5631 27.4199C28.4184 28.1218 28.019 28.7474 27.44 29.1792C27.4159 28.8664 27.4159 28.5522 27.44 28.2393V27.9019C27.9572 27.5408 28.3561 27.0381 28.5875 26.4559C28.5981 26.4083 28.5981 26.359 28.5875 26.3114C28.7096 26.5764 28.7096 26.962 28.5631 27.3235V27.4199ZM27.4645 26.1908V25.6607C28.0071 24.9606 28.3449 24.1271 28.441 23.2507C28.582 23.7949 28.6639 24.3523 28.6852 24.9136C28.6379 25.4903 28.4628 26.0497 28.1725 26.5523C28.0016 26.8897 27.7086 27.1307 27.5133 27.444C27.4644 26.962 27.4645 26.5283 27.4645 26.0945V26.1908ZM27.9283 22.0939C28.1115 22.7239 28.1115 23.392 27.9283 24.0219C27.7809 24.4251 27.5928 24.8127 27.3668 25.1787C27.2893 24.5877 27.1503 24.0062 26.9517 23.4435C27.3227 22.6953 27.491 21.865 27.44 21.0335L27.733 21.5155L27.9283 22.0939ZM21.0678 20.0455C21.2194 19.7272 21.3104 19.3841 21.3363 19.0333V19.0333C21.5294 19.0388 21.7199 19.0797 21.8979 19.1538C22.0735 19.4698 22.1419 19.8329 22.0932 20.19C22.1049 20.4229 22.1049 20.6561 22.0932 20.889C22.008 20.6644 21.871 20.4625 21.693 20.2994C21.515 20.1362 21.3009 20.0163 21.0678 19.9491V20.0455ZM22.142 21.1781C22.2799 20.8835 22.3513 20.5628 22.3513 20.2383C22.3513 19.9137 22.2799 19.593 22.142 19.2984C22.643 19.7927 23.0048 20.4074 23.1919 21.0818C23.1814 21.4709 23.0986 21.8548 22.9477 22.2144C22.7852 22.475 22.6464 22.7492 22.5327 23.0338C22.4876 22.3693 22.3563 21.7133 22.142 21.0818V21.1781ZM23.9243 23.9978C23.9486 24.4473 23.9486 24.8978 23.9243 25.3473C23.7903 26.2748 23.3327 27.1271 22.6303 27.7573C22.7446 27.0078 22.7854 26.2492 22.7524 25.492C23.2221 25.0348 23.5883 24.4844 23.8267 23.8773L23.9243 23.9978ZM23.3139 24.3352L22.8012 25.2028C22.8012 24.9618 22.8012 24.7208 22.8012 24.4798C22.8012 24.2388 22.8012 23.805 22.8012 23.3712C23.2568 22.9229 23.5488 22.338 23.6313 21.7083C23.7616 22.1685 23.8675 22.6351 23.9487 23.1061C23.7837 23.5073 23.5706 23.8876 23.3139 24.2388V24.3352ZM22.6059 28.3839C22.5959 28.2797 22.5959 28.1748 22.6059 28.0706C23.2011 27.681 23.6678 27.1281 23.9487 26.48C23.9487 26.9861 23.9487 27.4922 23.9487 27.9742C23.8151 28.464 23.5443 28.9067 23.1674 29.2515C22.8162 29.5375 22.4821 29.8433 22.1665 30.1673C22.2641 29.4925 22.4594 28.89 22.6059 28.2875V28.3839ZM21.9955 30.7939C21.9838 30.6978 21.9838 30.6007 21.9955 30.5046C22.6778 30.2255 23.2631 29.7566 23.6802 29.1551L23.5337 30.3119C23.3653 30.772 23.0988 31.1911 22.7524 31.5409C22.525 31.7464 22.28 31.9318 22.0199 32.0952C21.8682 31.6096 21.8597 31.0913 21.9955 30.6011V30.7939ZM22.2153 32.3844C22.5675 32.2131 22.8826 31.9757 23.143 31.6855C23.2786 31.5409 23.3936 31.3788 23.4848 31.2036C23.4848 31.7096 23.3384 32.2157 23.2895 32.7218C23.0758 32.7907 22.8432 32.7737 22.6421 32.6744C22.441 32.5752 22.2877 32.4017 22.2153 32.1916V32.3844ZM23.0942 19.4912C22.8618 19.1226 22.5328 18.8228 22.142 18.6236L23.2651 18.479C23.602 18.6202 23.9024 18.8343 24.1441 19.1056C24.3638 19.3707 24.5347 19.6599 24.73 19.925C24.5323 19.6937 24.2789 19.5152 23.9931 19.4057C23.7073 19.2962 23.3982 19.2593 23.0942 19.2984V19.4912ZM24.9986 20.166C24.8446 19.551 24.4935 19.0016 23.9976 18.5995C24.3271 18.6514 24.6476 18.7488 24.9497 18.8887L25.2183 19.0333C25.8394 19.7947 26.1525 20.7564 26.0972 21.7324C25.8236 21.0943 25.4532 20.5011 24.9986 19.9732V20.166ZM26.6343 22.7446L26.2681 21.9493C26.4095 21.4574 26.4162 20.9372 26.2875 20.4419C26.1588 19.9466 25.8994 19.4938 25.5357 19.1297C26.0536 19.4962 26.5072 19.9439 26.8785 20.4551C27.2208 21.4391 27.2208 22.5077 26.8785 23.4917C26.8198 23.1731 26.7382 22.859 26.6343 22.5518V22.7446ZM28.3922 29.6612C28.2457 30.0468 27.9528 29.9986 27.4889 29.5166C27.8938 29.2972 28.2376 28.9827 28.4899 28.6008V29.5889L28.3922 29.6612Z" fill="#620800"/>
</g>
<path style="mix-blend-mode:screen" d="M9.00254 20.2393C10.2743 20.9052 11.6891 21.2606 13.1286 21.2757C15.4006 21.3425 17.6595 20.9146 19.745 20.0225C17.858 21.3518 15.5644 21.9986 13.2507 21.854C9.73499 21.854 9.00254 20.2393 9.00254 20.2393Z" fill="url(#paint10_radial_155_1303)"/>
<path style="mix-blend-mode:screen" d="M21.7526 19.2998C21.7526 19.2998 23.9988 20.7457 23.7546 25.662C23.8564 27.8889 23.4037 30.1065 22.4362 32.1207C23.1864 29.3578 23.41 26.4813 23.0954 23.6377C22.4362 19.854 21.7526 19.2998 21.7526 19.2998Z" fill="url(#paint11_radial_155_1303)"/>
<path style="mix-blend-mode:screen" d="M23.8231 18.7446C23.8231 18.7446 24.995 18.2385 26.6064 20.07C27.4839 21.3568 28.0598 22.8205 28.2921 24.3547C28.5244 25.8888 28.4072 27.4548 27.9492 28.9386C28.3229 26.1028 27.7939 23.2224 26.4355 20.6966C24.3114 17.7806 23.8231 18.7446 23.8231 18.7446Z" fill="url(#paint12_radial_155_1303)"/>
<path d="M39.9607 6.60665C41.9565 4.41618 40.5957 2.71825 38.0945 1.26658C36.3967 0.255596 35.347 1.03328 34.2065 2.42014C32.768 4.26065 31.1869 6.41224 30.1761 7.92871C28.569 6.15301 26.8584 4.44211 25.1347 2.74417C24.2923 1.91465 23.3204 0.812933 22.0373 0.942547C20.197 1.11104 17.5662 4.05328 18.1494 5.93267C18.5641 7.22881 20.0934 8.22683 21.0265 9.03044L24.9144 12.3874L22.2447 15.4593C21.3634 16.4832 19.6527 17.0794 19.3806 18.4274C19.0307 20.0087 21.3505 21.5641 22.5687 21.9918C24.6682 22.7565 25.4717 21.59 26.7936 20.2031C27.9081 19.0236 29.0874 17.909 30.2668 16.7813C32.4354 17.9133 34.5953 19.0539 36.7467 20.2031C38.7684 21.253 39.8052 20.0087 38.1852 17.8053C36.5652 15.6018 35.4118 14.526 33.8437 12.6207C36.1635 10.1581 38.2889 8.44716 39.9607 6.60665Z" fill="#5D0700"/>
<path d="M39.1684 5.84165C41.0864 3.72895 40.1015 2.35505 37.691 0.91634C37.3735 0.697136 37.0143 0.54561 36.6358 0.47117C36.2573 0.396729 35.8675 0.400962 35.4906 0.48363C35.1138 0.566297 34.758 0.725635 34.4454 0.951702C34.1328 1.17777 33.87 1.46574 33.6734 1.79772C32.2868 3.57342 30.7575 5.68611 29.7855 7.11186C28.2433 5.40096 26.5974 3.75487 24.9386 2.14766C24.1221 1.35702 23.189 0.294197 21.9449 0.410849C20.1694 0.579346 17.7718 3.59935 18.368 5.40097C18.7697 6.60638 20.1175 7.44886 20.9599 8.21358C22.2559 9.30233 23.5519 10.3911 24.7701 11.4669C23.9018 12.4519 23.0465 13.437 22.1781 14.435C21.3098 15.433 19.7806 16.7033 19.5084 17.9994C19.1715 19.5288 21.0247 20.5916 22.2041 20.9805C24.2258 21.7193 25.2885 20.3454 26.5585 18.9974C27.6342 17.8568 28.7747 16.781 29.9022 15.7052C31.9887 16.794 34.0622 17.8827 36.1358 18.9974C38.2094 20.1121 39.3239 19.5029 37.7687 17.3772C36.2136 15.2516 34.8398 13.4888 33.3365 11.6354C35.5137 9.26345 37.5484 7.63032 39.1684 5.84165Z" fill="url(#paint13_radial_155_1303)"/>
<path style="mix-blend-mode:multiply" opacity="0.8" d="M39.1684 5.84165C41.0864 3.72895 40.1015 2.35505 37.691 0.91634C37.3735 0.697136 37.0143 0.54561 36.6358 0.47117C36.2573 0.396729 35.8675 0.400962 35.4906 0.48363C35.1138 0.566297 34.758 0.725635 34.4454 0.951702C34.1328 1.17777 33.87 1.46574 33.6734 1.79772C32.2868 3.57342 30.7575 5.68611 29.7855 7.11186C28.2433 5.40096 26.5974 3.75487 24.9386 2.14766C24.1221 1.35702 23.189 0.294197 21.9449 0.410849C20.1694 0.579346 17.7718 3.59935 18.368 5.40097C18.7697 6.60638 20.1175 7.44886 20.9599 8.21358C22.2559 9.30233 23.5519 10.3911 24.7701 11.4669C23.9018 12.4519 23.0465 13.437 22.1781 14.435C21.3098 15.433 19.7806 16.7033 19.5084 17.9994C19.1715 19.5288 21.0247 20.5916 22.2041 20.9805C24.2258 21.7193 25.2885 20.3454 26.5585 18.9974C27.6342 17.8568 28.7747 16.781 29.9022 15.7052C31.9887 16.794 34.0622 17.8827 36.1358 18.9974C38.2094 20.1121 39.3239 19.5029 37.7687 17.3772C36.2136 15.2516 34.8398 13.4888 33.3365 11.6354C35.5137 9.26345 37.5484 7.63032 39.1684 5.84165ZM32.6885 11.4928C32.4682 11.7261 36.2006 15.8089 36.6671 16.3922C36.7967 16.5477 39.1295 19.5029 37.7558 19.127C35.6977 18.3162 33.7265 17.3001 31.872 16.0941C31.0426 15.6275 30.0447 15.109 30.0447 15.109C30.0447 15.109 29.5263 15.5497 29.1505 15.8996C28.1655 16.781 27.1677 17.6494 26.2216 18.5826C25.2755 19.5159 24.4979 20.7472 23.202 20.475C22.18 20.2505 21.2655 19.6835 20.61 18.8678C20.0398 17.8827 21.569 16.6514 22.1522 15.9904C23.4482 14.448 24.5887 13.0482 25.9365 11.5058C23.837 9.47082 22.0486 7.86362 19.8324 5.9583C17.9014 4.27333 21.271 -0.0168628 23.3964 1.39592C25.768 2.96424 27.8416 5.8287 29.8762 7.87659C31.2858 5.76931 32.8087 3.74004 34.4381 1.79772C34.6857 1.50823 35.0058 1.28968 35.3655 1.16443C35.7253 1.03918 36.1119 1.01172 36.4857 1.08484C38.3908 1.46072 40.5291 3.46973 39.5183 4.54552C38.846 5.51081 38.0485 6.38252 37.1467 7.13779L32.6885 11.4928Z" fill="url(#paint14_radial_155_1303)"/>
<path style="mix-blend-mode:screen" d="M34.5172 1.78495C33.2212 3.22366 32.1585 4.70126 32.5603 5.11602C32.962 5.53079 33.0916 6.2307 34.1932 4.67534C35.2948 3.11998 36.2927 1.88866 35.9039 1.43501C35.5151 0.981365 34.9319 1.33131 34.5172 1.78495Z" fill="url(#paint15_linear_155_1303)"/>
<path style="mix-blend-mode:screen" d="M32.687 6.43847C32.7204 6.33212 32.7316 6.22006 32.72 6.10922C32.7083 5.99837 32.6742 5.89106 32.6195 5.79392C32.5649 5.69678 32.491 5.61187 32.4023 5.54439C32.3136 5.47691 32.212 5.4283 32.1038 5.40156C31.0152 5.27194 31.2615 7.11245 32.1038 6.96988C32.246 6.95785 32.3802 6.89925 32.4856 6.80317C32.5911 6.70709 32.6619 6.5789 32.687 6.43847Z" fill="url(#paint16_linear_155_1303)"/>
<path style="mix-blend-mode:screen" d="M26.8045 4.89602C25.7937 3.898 23.759 1.46126 23.0203 1.24092C21.7243 0.852076 20.6487 1.87602 19.897 2.75739C19.3656 3.36657 19.0028 5.57001 19.897 4.9349C20.6018 4.57071 21.3807 4.37313 22.1738 4.3574C22.967 4.34167 23.7531 4.5082 24.4718 4.84416C25.8585 5.60888 31.8977 9.9639 26.8045 4.89602Z" fill="url(#paint17_linear_155_1303)"/>
<path style="mix-blend-mode:screen" opacity="0.7" d="M21.467 18.4789C21.8458 18.8212 22.2854 19.0894 22.763 19.2696C23.5406 19.5158 24.383 19.4251 25.6012 18.2975C34.673 9.85968 26.6509 18.4789 25.7567 19.1659C24.8625 19.8528 23.9942 21.2267 21.5448 19.5806C20.2618 18.7122 19.9896 17.1828 21.467 18.4789Z" fill="url(#paint18_radial_155_1303)"/>
<path style="mix-blend-mode:screen" opacity="0.7" d="M37.4565 17.6884C36.964 17.0144 36.1605 16.3145 37.1454 17.6107C38.1304 18.9068 37.1454 18.5957 36.5104 18.2458C35.8754 17.8958 32.1559 15.6535 30.8599 14.9018C29.888 14.3056 29.9268 15.0055 31.1062 15.7183C33.1698 17.0289 35.337 18.169 37.5861 19.1271C38.8431 19.4512 37.9748 18.3495 37.4565 17.6884Z" fill="url(#paint19_radial_155_1303)"/>
<defs>
<linearGradient id="paint0_linear_155_1303" x1="3954.47" y1="3352.66" x2="4159.9" y2="3212.11" gradientUnits="userSpaceOnUse">
<stop offset="0.1" stop-color="#D3975B"/>
<stop offset="0.27" stop-color="#EDC383"/>
<stop offset="0.41" stop-color="#FFE3BA"/>
<stop offset="0.49" stop-color="#FEE4BD"/>
<stop offset="0.56" stop-color="#FBE6C7"/>
<stop offset="0.6" stop-color="#F8E9D4"/>
<stop offset="0.76" stop-color="#F7E0C1"/>
<stop offset="0.81" stop-color="#F5D6A9"/>
<stop offset="0.85" stop-color="#F4D099"/>
<stop offset="1" stop-color="#EDC383"/>
</linearGradient>
<linearGradient id="paint1_linear_155_1303" x1="18.5525" y1="9.58779" x2="25.3277" y2="16.1585" gradientUnits="userSpaceOnUse">
<stop offset="0.09" stop-color="#EDC383"/>
<stop offset="1" stop-color="#B2845B"/>
</linearGradient>
<linearGradient id="paint2_linear_155_1303" x1="15.5459" y1="7.4898" x2="15.9265" y2="19.0338" gradientUnits="userSpaceOnUse">
<stop offset="0.09" stop-color="#F6E3C8"/>
<stop offset="0.54" stop-color="#EDC383"/>
<stop offset="1" stop-color="#B2845B"/>
</linearGradient>
<linearGradient id="paint3_linear_155_1303" x1="1956.79" y1="2622.61" x2="1958.58" y2="2685.02" gradientUnits="userSpaceOnUse">
<stop offset="0.09" stop-color="#EDC383"/>
<stop offset="1" stop-color="#B2845B"/>
</linearGradient>
<linearGradient id="paint4_linear_155_1303" x1="1616.47" y1="2534.27" x2="1618.76" y2="2594.76" gradientUnits="userSpaceOnUse">
<stop offset="0.09" stop-color="#EDC383"/>
<stop offset="1" stop-color="#B2845B"/>
</linearGradient>
<radialGradient id="paint5_radial_155_1303" cx="0" cy="0" r="1" gradientUnits="userSpaceOnUse" gradientTransform="translate(18.1149 33.1888) scale(16.1621 17.286)">
<stop stop-color="#F8E9D4"/>
<stop offset="0.18" stop-color="#FDE5C1"/>
<stop offset="0.31" stop-color="#FFE3BA"/>
<stop offset="0.67" stop-color="#EDC383"/>
<stop offset="0.9" stop-color="#D3975B"/>
</radialGradient>
<radialGradient id="paint6_radial_155_1303" cx="0" cy="0" r="1" gradientUnits="userSpaceOnUse" gradientTransform="translate(18.1149 33.1888) scale(16.1621 17.286)">
<stop offset="0.38" stop-color="#F6E3C8"/>
<stop offset="0.5" stop-color="#EDC383"/>
<stop offset="0.66" stop-color="#B2845B"/>
</radialGradient>
<radialGradient id="paint7_radial_155_1303" cx="0" cy="0" r="1" gradientUnits="userSpaceOnUse" gradientTransform="translate(18.1149 36.3496) scale(13.5069 14.4462)">
<stop offset="0.52" stop-color="#F6E3C8"/>
<stop offset="0.76" stop-color="#EDC383"/>
<stop offset="1" stop-color="#B2845B"/>
</radialGradient>
<radialGradient id="paint8_radial_155_1303" cx="0" cy="0" r="1" gradientUnits="userSpaceOnUse" gradientTransform="translate(18.2752 20.4788) scale(13.3405 13.2986)">
<stop offset="0.09" stop-color="#FFFB52"/>
<stop offset="0.61" stop-color="#DEA337"/>
<stop offset="1" stop-color="#826C00"/>
</radialGradient>
<linearGradient id="paint9_linear_155_1303" x1="15.0821" y1="4.18781" x2="15.9627" y2="10.481" gradientUnits="userSpaceOnUse">
<stop offset="0.09" stop-color="#EDC383"/>
<stop offset="0.36" stop-color="#B2845B"/>
<stop offset="0.99" stop-color="#493000"/>
</linearGradient>
<radialGradient id="paint10_radial_155_1303" cx="0" cy="0" r="1" gradientUnits="userSpaceOnUse" gradientTransform="translate(1449.56 407.716) scale(16.9259 2.94604)">
<stop offset="0.15" stop-color="white"/>
<stop offset="1" stop-color="#FFFB62"/>
</radialGradient>
<radialGradient id="paint11_radial_155_1303" cx="0" cy="0" r="1" gradientUnits="userSpaceOnUse" gradientTransform="translate(295.912 2736.26) scale(3.7959 24.324)">
<stop offset="0.15" stop-color="white"/>
<stop offset="1" stop-color="#FFFB62"/>
</radialGradient>
<radialGradient id="paint12_radial_155_1303" cx="0" cy="0" r="1" gradientUnits="userSpaceOnUse" gradientTransform="translate(658.24 2202.64) scale(7.50222 17.097)">
<stop offset="0.15" stop-color="white"/>
<stop offset="1" stop-color="#FFFB62"/>
</radialGradient>
<radialGradient id="paint13_radial_155_1303" cx="0" cy="0" r="1" gradientUnits="userSpaceOnUse" gradientTransform="translate(2084.66 3843.16) scale(236.066 226.217)">
<stop stop-color="#F17C75"/>
<stop offset="0.34" stop-color="#F22300"/>
<stop offset="0.44" stop-color="#ED2200"/>
<stop offset="0.54" stop-color="#E02000"/>
<stop offset="0.66" stop-color="#C91C00"/>
<stop offset="0.77" stop-color="#A91600"/>
<stop offset="0.88" stop-color="#830F00"/>
</radialGradient>
<radialGradient id="paint14_radial_155_1303" cx="0" cy="0" r="1" gradientUnits="userSpaceOnUse" gradientTransform="translate(29.3847 9.90736) scale(10.6155 10.7219)">
<stop offset="0.11" stop-color="#C21A00"/>
<stop offset="0.79" stop-color="#830F00"/>
</radialGradient>
<linearGradient id="paint15_linear_155_1303" x1="33.5601" y1="2.77618" x2="35.4131" y2="4.30262" gradientUnits="userSpaceOnUse">
<stop stop-color="#FFF6FF"/>
<stop offset="0.13" stop-color="#FCD9B5"/>
<stop offset="0.64" stop-color="#E12100"/>
</linearGradient>
<linearGradient id="paint16_linear_155_1303" x1="138.793" y1="526.134" x2="141.911" y2="527.566" gradientUnits="userSpaceOnUse">
<stop stop-color="#FFF6FF"/>
<stop offset="0.13" stop-color="#FCD9B5"/>
<stop offset="0.64" stop-color="#E12100"/>
</linearGradient>
<linearGradient id="paint17_linear_155_1303" x1="25.6497" y1="-0.653773" x2="24.909" y2="4.29445" gradientUnits="userSpaceOnUse">
<stop stop-color="#FFF6FF"/>
<stop offset="0.13" stop-color="#FCD9B5"/>
<stop offset="0.92" stop-color="#E12100"/>
</linearGradient>
<radialGradient id="paint18_radial_155_1303" cx="0" cy="0" r="1" gradientUnits="userSpaceOnUse" gradientTransform="translate(221.383 2140.33) rotate(14.8603) scale(48.0262 29.5549)">
<stop offset="0.04" stop-color="#FFF6FF"/>
<stop offset="0.17" stop-color="#FCD9B5"/>
<stop offset="0.95" stop-color="#E12100"/>
</radialGradient>
<radialGradient id="paint19_radial_155_1303" cx="0" cy="0" r="1" gradientUnits="userSpaceOnUse" gradientTransform="translate(821.677 875.9) scale(31.1842 17.6129)">
<stop offset="0.04" stop-color="#FFF6FF"/>
<stop offset="0.17" stop-color="#FCD9B5"/>
<stop offset="0.95" stop-color="#E12100"/>
</radialGradient>
</defs>
</svg>
