<svg width="41" height="52" viewBox="0 0 41 52" fill="none" xmlns="http://www.w3.org/2000/svg">
<g style="mix-blend-mode:multiply" opacity="0.5">
<g style="mix-blend-mode:multiply" opacity="0.6">
<path d="M37.2305 30.6359C36.0921 28.1704 34.544 25.9404 32.6596 24.0517C31.2655 22.7253 28.2258 20.1447 28.5686 19.783C29.5285 18.8182 30.4427 17.7812 31.3112 16.7441C32.785 15.1325 34.0527 13.3245 35.0822 11.3659C35.4707 11.0283 31.5854 8.39944 31.2883 7.82062C30.8635 7.17192 30.3097 6.62872 29.6657 6.22885C28.0202 4.90238 26.0775 5.50534 25.0948 4.78182C24.5103 4.45971 23.857 4.30189 23.1979 4.32358C22.1466 4.63711 22.8322 5.31239 21.5981 5.07122C20.591 4.75833 19.5198 4.75833 18.5127 5.07122C18.0943 5.23761 17.6892 5.43924 17.3014 5.67416C16.6363 5.96177 15.9116 6.0615 15.1989 5.96356C14.0578 5.78039 12.8921 5.87949 11.7935 6.25299C11.3064 6.60796 10.7129 6.76237 10.1252 6.68709L8.31968 6.37359C7.16988 6.16849 5.9956 6.16849 4.8458 6.37359C4.18579 6.50909 3.57108 6.82509 3.06316 7.29003C2.40039 7.84473 2.92605 8.71298 3.26886 9.26769C3.61168 9.82239 4.20588 10.7871 4.68582 11.6794C5.16576 12.5718 5.44002 12.813 5.82854 13.3918C6.21706 13.9706 6.65131 14.5736 7.08554 15.1524C8.38896 17.2124 10.086 18.9621 12.0678 20.2894L11.8393 20.5065C9.91951 22.1786 8.15899 24.0446 6.58274 26.0776C4.54267 28.1271 2.7049 30.3896 1.09768 32.8305C0.475745 33.9971 0.109762 35.2961 0.0266992 36.6318C-0.0563633 37.9675 0.145614 39.3058 0.617745 40.5482C2.19233 43.1433 4.27249 45.3548 6.71986 47.0358C11.7185 50.1361 17.4001 51.7993 23.1979 51.8593C25.5962 51.8455 27.9672 51.3205 30.1685 50.3158C31.4106 49.7247 32.5903 48.9971 33.688 48.1452C36.4285 45.8082 38.2522 42.4834 38.8074 38.8117C39.1239 35.9786 38.5712 33.113 37.2305 30.6359V30.6359Z" fill="#8A7D63"/>
</g>
<path d="M22.5551 18.3191C23.9955 17.0418 25.3628 15.6441 26.6812 14.2222C28.2734 12.6005 29.6515 10.7868 30.7829 8.82393C31.1979 8.48653 31.5153 8.12504 31.1735 7.54665C30.7865 6.82987 30.1677 6.26145 29.4156 5.93195C28.2981 5.71456 27.2199 5.33274 26.2173 4.79927C25.824 4.49123 25.3256 4.34452 24.8256 4.38959C24.7617 4.37213 24.6942 4.37213 24.6303 4.38959C23.3551 4.71337 22.0402 4.8594 20.7239 4.8234C19.6233 4.51006 18.4554 4.51006 17.3547 4.8234C16.9018 4.99422 16.4613 5.19552 16.0363 5.42588C15.3205 5.72557 14.5352 5.82559 13.7658 5.71507C12.5145 5.53173 11.2373 5.63059 10.0303 6.00425C9.50019 6.3593 8.86141 6.5212 8.22359 6.46215L6.2704 6.12475C5.01664 5.93058 3.73988 5.93058 2.48612 6.12475C1.7739 6.2821 1.10647 6.59504 0.532928 7.04055C-0.1751 7.59484 0.532925 8.48652 0.777072 9.04081L2.31522 11.4508C2.70585 12.0292 3.12089 12.6075 3.56036 13.1859L4.9276 14.9452C6.35464 17.0214 8.19966 18.7852 10.3477 20.1266L10.1035 20.3435C14.2541 21.5967 18.4778 20.0302 22.5551 18.3191Z" fill="url(#paint0_linear_155_738)"/>
<path style="mix-blend-mode:multiply" opacity="0.8" d="M30.418 7.73981C29.5879 7.20962 28.4893 6.22155 27.415 6.31795C26.9023 7.18553 26.414 8.07722 25.999 8.9689C25.7707 9.54138 25.4211 10.059 24.9735 10.4871C24.0946 11.0896 25.3153 7.81214 24.9735 7.28195C24.705 7.28195 23.0692 6.58304 22.825 6.46254C23.0122 7.73276 22.8258 9.02932 22.2879 10.198C21.8728 11.3788 21.4578 12.6079 21.0672 13.7647C19.7976 17.6688 19.5779 16.8976 19.5779 16.0542C19.5779 13.4273 20.3836 8.6797 20.3591 7.11323C19.9197 7.11323 17.405 7.23373 16.9655 7.11323C16.1783 6.97917 15.3721 6.99957 14.5929 7.17325C13.8137 7.34692 13.0768 7.67047 12.4243 8.12541C14.1334 9.45088 13.8648 9.28219 14.2799 11.3306C14.5972 12.8007 15.5983 16.6807 16.0622 18.1267C16.3063 18.8497 16.404 19.5244 16.6969 20.2474C18.743 19.7493 20.7374 19.0636 22.6541 18.199C24.0946 16.9217 25.4618 15.5239 26.7802 14.1021C28.3724 12.4804 29.7506 10.6666 30.8819 8.70381C31.1142 8.54164 31.2926 8.31522 31.3946 8.05311C31.0584 7.98449 30.7309 7.87941 30.418 7.73981V7.73981Z" fill="url(#paint1_linear_155_738)"/>
<path style="mix-blend-mode:multiply" opacity="0.7" d="M27.0453 7.03959L26.679 7.23239C26.4235 9.56861 25.4815 11.7801 23.969 13.5947C23.9344 13.6206 23.8934 13.637 23.8502 13.642C23.8071 13.6471 23.7633 13.6407 23.7235 13.6235C23.6837 13.6063 23.6492 13.5789 23.6237 13.5442C23.5982 13.5095 23.5825 13.4686 23.5783 13.426C23.574 12.6137 23.6725 11.8042 23.8714 11.016C23.9922 9.8623 23.9922 8.6994 23.8714 7.5457C23.4596 7.32759 23.0882 7.0424 22.7727 6.7022C22.5205 8.44503 22.1452 10.1683 21.6496 11.8595C21.4299 12.5825 20.3068 17.9085 19.2081 17.788C18.6954 17.788 18.4513 16.9686 18.3048 16.583C17.8653 15.2816 17.377 10.8232 16.9375 9.49775C16.4981 8.17228 16.8155 7.47337 15.3017 7.59387C14.3074 7.62531 13.3322 7.87214 12.4452 8.31687C13.2265 8.99165 13.9345 10.1002 12.6161 10.4376C12.7626 11.1365 12.8603 11.8354 13.0068 12.5102C13.3514 13.5404 13.5646 14.609 13.6416 15.6913C13.6374 15.734 13.6217 15.7748 13.5962 15.8096C13.5707 15.8443 13.5362 15.8717 13.4964 15.8889C13.4566 15.9061 13.4128 15.9125 13.3697 15.9074C13.3265 15.9023 13.2855 15.886 13.2509 15.86C12.03 14.3538 10.9512 12.7404 10.0282 11.0401C9.56521 10.3835 9.00564 9.79869 8.36795 9.30495L9.05157 11.2811C9.4216 12.1321 9.72366 13.0104 9.95494 13.908C10.1747 15.3298 8.88066 14.7514 8.24587 14.3417C6.29761 13.0682 4.43793 11.6673 2.67931 10.1484C1.80665 9.46632 0.990257 8.71689 0.237831 7.90718C0.356948 8.28724 0.5384 8.64546 0.774959 8.96756L2.3131 11.3775C2.70374 11.9559 3.11878 12.5343 3.55824 13.1127L4.92548 14.8719C6.35253 16.9481 8.19755 18.7119 10.3455 20.0533L10.1014 20.2702C14.3496 21.7644 18.5733 20.2702 22.6506 18.4869C24.0911 17.2096 25.4583 15.8118 26.7767 14.39C28.3689 12.7683 29.747 10.9545 30.8784 8.99165C30.996 8.8996 31.1025 8.79447 31.1958 8.67834C29.6577 7.97946 28.7055 6.31661 27.0453 7.03959Z" fill="url(#paint2_linear_155_738)"/>
<path style="mix-blend-mode:multiply" opacity="0.8" d="M15.5484 14.2214C14.8406 12.0856 14.2858 9.90321 13.8882 7.69051C13.3961 7.80992 12.9207 7.98796 12.4722 8.2207C12.7645 8.41628 13.0275 8.65154 13.2534 8.91957C13.7159 9.47815 13.974 10.1744 13.9859 10.8957C14.3033 13.6913 15.524 16.1976 15.9879 18.9449C16.0025 18.9914 16.001 19.0413 15.9835 19.0867C15.9659 19.1322 15.9334 19.1705 15.8912 19.1956C15.8489 19.2206 15.7994 19.2308 15.7505 19.2247C15.7016 19.2186 15.6562 19.1965 15.6217 19.1618C13.0587 16.3177 10.77 13.2437 8.7855 9.97995C9.46911 11.6428 9.95743 13.3539 10.7143 14.9926C10.8852 15.3782 12.1059 17.4026 11.1782 17.6677C10.2504 17.9328 9.34706 17.0411 8.73669 16.6555C7.49154 15.8843 6.29519 15.0408 5.1477 14.2456C4.25562 13.5234 3.43783 12.7162 2.70621 11.8356C2.95036 12.1971 3.24335 12.5586 3.51191 12.9442L4.87913 14.7034C6.30618 16.7796 8.15124 18.5434 10.2992 19.8848L10.0551 20.1017C12.5764 20.9219 15.2977 20.9219 17.819 20.1017C16.8666 18.2207 16.1061 16.2509 15.5484 14.2214Z" fill="url(#paint3_linear_155_738)"/>
<path style="mix-blend-mode:multiply" opacity="0.8" d="M25.7559 13.2332C26.8866 11.3082 27.4766 9.12024 27.465 6.89508H27.1476C26.9651 8.12106 26.6033 9.31439 26.0733 10.4377C25.0751 12.2907 23.8267 14.0013 22.3622 15.5227C23.226 13.0371 23.599 10.411 23.4609 7.78675C23.1847 9.57341 22.7182 11.3263 22.0693 13.0163C21.4616 15.2941 20.5329 17.4763 19.3104 19.4991C20.409 19.1135 21.4833 18.6797 22.5576 18.2218C23.998 16.9445 25.3653 15.5468 26.6837 14.1249C28.2759 12.5033 29.654 10.6894 30.7854 8.72662C30.903 8.63458 31.0095 8.52944 31.1027 8.41332L30.7365 8.24464C29.3128 10.1224 27.6372 11.8006 25.7559 13.2332V13.2332Z" fill="url(#paint4_linear_155_738)"/>
<path d="M33.4771 28.1312C32.3029 25.6147 30.6806 23.3622 28.6994 21.4976C27.2456 20.0262 25.4944 18.9251 23.5787 18.2776C19.761 20.0208 15.8062 21.5702 11.8286 20.0692C9.87348 21.7483 8.08152 23.6299 6.47929 25.6859C4.63007 27.8493 2.99823 30.2103 1.61008 32.7311C0.310965 34.8865 -0.223698 37.4602 0.101305 39.9941C0.661255 42.0756 1.93244 43.862 3.66748 45.0056C8.27414 48.1308 13.6778 49.6777 19.1438 49.436C21.5885 49.4137 24.0048 48.8788 26.2533 47.8624C27.5181 47.2757 28.7148 46.5365 29.8195 45.6593C32.6131 43.3219 34.4804 39.9627 35.0545 36.2416C35.3641 33.4289 34.8111 30.5853 33.4771 28.1312V28.1312Z" fill="url(#paint5_radial_155_738)"/>
<path style="mix-blend-mode:multiply" opacity="0.8" d="M33.4771 28.1312C32.3029 25.6147 30.6806 23.3622 28.6994 21.4976C27.2456 20.0262 25.4944 18.9251 23.5787 18.2776C19.761 20.0208 15.8062 21.5702 11.8286 20.0692C9.87348 21.7483 8.08152 23.6299 6.47929 25.6859C4.63007 27.8493 2.99823 30.2103 1.61008 32.7311C0.310965 34.8865 -0.223698 37.4602 0.101305 39.9941C0.661255 42.0756 1.93244 43.862 3.66748 45.0056C8.27414 48.1308 13.6778 49.6777 19.1438 49.436C21.5885 49.4137 24.0048 48.8788 26.2533 47.8624C27.5181 47.2757 28.7148 46.5365 29.8195 45.6593C32.6131 43.3219 34.4804 39.9627 35.0545 36.2416C35.3641 33.4289 34.8111 30.5853 33.4771 28.1312V28.1312ZM19.9439 41.0593C19.5859 41.9415 18.9884 42.691 18.2272 43.2126C17.466 43.7342 16.5756 44.0044 15.6691 43.9888C13.4289 44.0597 11.2022 43.5964 9.15393 42.633C7.26706 41.9651 5.59559 40.7486 4.33043 39.1225C3.82257 38.2982 3.48648 37.3687 3.34457 36.396C3.20266 35.4233 3.25819 34.4298 3.50746 33.4816C4.38679 31.1074 5.64748 28.9122 7.23368 26.9933C7.66803 26.388 11.0513 23.0228 10.2969 24.9112C9.13107 27.768 9.03963 28.5669 7.69088 28.8332C7.45001 28.8895 7.22682 29.0103 7.04269 29.1841C6.85856 29.3579 6.71966 29.5789 6.63931 29.8259C6.25069 30.7458 5.6106 32.7553 6.20496 33.6995C7.23367 35.3216 9.61114 32.1016 10.0912 31.2785C10.8753 29.7893 11.5775 28.2534 12.1943 26.6785C13.2916 24.2575 14.1146 26.0491 13.3373 29.3659C13.059 30.5689 12.9511 31.8091 13.0173 33.0458C13.0173 34.2321 13.2688 35.9268 14.7775 35.4668C16.2863 35.0068 17.3836 32.6584 17.7951 31.0848C18.4809 28.4459 18.7323 25.1291 18.9152 24.306C18.9152 24.1849 19.2124 23.0712 19.2581 25.1291C19.3132 27.1406 19.2522 29.1538 19.0752 31.1574C18.961 31.6259 18.961 32.1174 19.0752 32.5858C19.281 33.0216 19.441 32.9006 19.8296 33.0942C21.8185 34.1595 20.6983 39.3646 19.9439 41.0593V41.0593Z" fill="url(#paint6_radial_155_738)"/>
<path style="mix-blend-mode:multiply" opacity="0.7" d="M33.4771 28.1312C32.3029 25.6147 30.6806 23.3622 28.6994 21.4976C27.2456 20.0262 25.4944 18.9251 23.5787 18.2776C19.761 20.0208 15.8062 21.5702 11.8286 20.0692C9.87348 21.7483 8.08152 23.6299 6.47929 25.6859C4.63007 27.8493 2.99823 30.2103 1.61008 32.7311C0.310965 34.8865 -0.223698 37.4602 0.101305 39.9941C0.661255 42.0756 1.93244 43.862 3.66748 45.0056C8.27414 48.1308 13.6778 49.6777 19.1438 49.436C21.5885 49.4137 24.0048 48.8788 26.2533 47.8624C27.5181 47.2757 28.7148 46.5365 29.8195 45.6593C32.6131 43.3219 34.4804 39.9627 35.0545 36.2416C35.3641 33.4289 34.8111 30.5853 33.4771 28.1312V28.1312ZM30.9854 36.6289C30.1295 38.8143 28.7287 40.7122 26.9328 42.1195C25.1368 43.5268 23.0134 44.3905 20.7897 44.6182C15.8763 45.2311 10.9011 44.3052 6.47929 41.9551C5.49862 41.3406 4.64993 40.516 3.98754 39.5341C3.3076 38.4335 2.90613 37.1664 2.82167 35.8542C2.80514 33.5093 3.51144 31.2228 4.83336 29.3417C5.5823 28.1426 6.4398 27.0236 7.3937 26.0007C8.23953 25.1049 9.42826 23.5797 10.6627 23.4102C10.6933 23.4028 10.725 23.4029 10.7555 23.4105C10.786 23.4181 10.8145 23.4329 10.8388 23.454C10.863 23.475 10.8824 23.5016 10.8955 23.5318C10.9086 23.5619 10.915 23.5949 10.9142 23.6281C10.8238 24.6925 10.5199 25.7243 10.0226 26.6543C9.65686 27.4533 9.10821 29.0753 8.35383 29.608C7.59944 30.1406 7.27939 28.3248 7.02793 29.608C7.02793 30.189 6.54787 32.029 7.02793 32.3921C8.85675 33.9174 11.1199 28.6153 11.6 27.5501C11.9341 26.473 12.3547 25.4281 12.8573 24.427C12.9122 24.2918 12.9955 24.1716 13.1008 24.0756C13.2062 23.9796 13.3308 23.9103 13.4653 23.873C13.5997 23.8356 13.7404 23.8312 13.8767 23.8601C14.013 23.889 14.1412 23.9504 14.2517 24.0396C14.7089 24.4754 14.5947 25.2502 14.5261 25.8312C14.2289 27.7438 13.3145 31.6174 15.2347 32.8763C16.2406 33.5542 17.1779 31.5932 17.3836 30.9153C17.8637 29.3416 17.9322 27.2112 18.2523 25.5891C18.3644 24.6175 18.5949 23.6654 18.9381 22.7565C18.9521 22.7138 18.9784 22.6767 19.0132 22.6505C19.048 22.6243 19.0897 22.6102 19.1324 22.6102C19.1751 22.6102 19.2168 22.6243 19.2516 22.6505C19.2864 22.6767 19.3127 22.7138 19.3267 22.7565C19.8753 25.1775 19.2124 27.889 20.1497 30.2374C20.4926 31.1332 20.8355 30.3585 20.9955 29.7774C21.1616 29.0766 21.2837 28.3649 21.3612 27.647C21.4779 25.9708 21.6994 24.3048 22.0242 22.6597C22.0242 22.4176 22.87 24.2575 22.87 24.5238C22.585 26.6416 22.1649 28.7366 21.6127 30.7943C21.4901 31.5435 21.5941 32.3145 21.9099 32.9974C22.4128 33.8931 23.8759 34.3531 24.4017 33.2637C24.9274 32.1742 24.5846 30.2616 24.7446 28.8575C24.8783 27.7984 24.9317 26.7298 24.9046 25.6617C24.9046 24.5965 24.5845 23.5796 24.6074 22.5144C24.6251 22.4862 24.6488 22.4628 24.6766 22.4459C24.7044 22.4291 24.7355 22.4194 24.7674 22.4176C26.6877 23.5554 26.3219 26.5575 26.3448 28.5427C26.2963 29.2282 26.366 29.9173 26.5505 30.5764C27.2135 32.3437 27.9221 30.7216 28.5851 30.4069C28.8948 30.2421 29.2513 30.2054 29.5852 30.3039C29.919 30.4023 30.2063 30.629 30.391 30.9395C30.9201 31.7649 31.2508 32.7146 31.3543 33.7062C31.4579 34.6977 31.3313 35.701 30.9854 36.6289V36.6289Z" fill="url(#paint7_radial_155_738)"/>
<g style="mix-blend-mode:multiply">
<path d="M28.6843 21.4853C30.6644 23.3379 32.2859 25.5759 33.4595 28.0761C34.832 30.5692 35.3861 33.4688 35.036 36.3267C34.4622 40.0238 32.5959 43.3614 29.8038 45.6837C28.6997 46.5553 27.5036 47.2898 26.2395 47.8727C23.9922 48.8826 21.5771 49.414 19.1337 49.4362C13.6706 49.6763 8.26978 48.1394 3.66556 45.0343C1.93143 43.898 0.660911 42.1231 0.101256 40.0551C-0.223576 37.5376 0.310806 34.9804 1.60924 32.8388C4.4174 28.0128 7.94271 23.6924 12.0508 20.042C10.0407 18.7032 8.31402 16.9427 6.97855 14.8704L5.69906 13.1144C5.28779 12.5371 4.89937 11.9598 4.5338 11.3825L3.09435 8.97711C2.86587 8.42386 2.20328 7.53386 2.86588 6.98061C3.40262 6.53594 4.02722 6.22362 4.69373 6.06658C5.86704 5.87277 7.06187 5.87277 8.23518 6.06658L10.0631 6.40333C10.66 6.46227 11.2577 6.30068 11.7538 5.9463C12.8834 5.57335 14.0785 5.47464 15.2496 5.65762C15.9696 5.76793 16.7046 5.6681 17.3744 5.36899C17.7722 5.13905 18.1844 4.93813 18.6082 4.76763C19.6383 4.45489 20.7313 4.45489 21.7613 4.76763C22.9931 4.80357 24.2236 4.65785 25.417 4.33467C25.4768 4.31725 25.5399 4.31725 25.5998 4.33467C26.0677 4.2897 26.5341 4.43613 26.9021 4.74359C27.8404 5.27605 28.8494 5.65715 29.8952 5.87414C30.599 6.20302 31.1781 6.77033 31.5403 7.48576C31.8602 8.06306 31.5631 8.42387 31.1747 8.76063C30.116 10.7198 28.8263 12.5302 27.3362 14.1488C26.1024 15.568 24.8229 16.9631 23.4749 18.238C25.4241 18.8875 27.2061 19.9983 28.6843 21.4853Z" fill="#AE8A65"/>
</g>
<path d="M27.7574 20.029C27.482 19.4727 27.0945 18.9776 26.6187 18.5741C26.1428 18.1706 25.5886 17.8671 24.9899 17.6822C24.3913 17.4972 23.7606 17.4347 23.1366 17.4984C22.5126 17.5622 21.9084 17.7508 21.3608 18.0529V18.0529H21.1898C19.9804 18.6654 18.723 19.1812 17.43 19.5953C16.3903 19.8492 15.3265 19.9946 14.2561 20.029C13.5124 20.0546 12.7681 20.0061 12.0343 19.8845C11.4573 19.8503 10.889 19.7283 10.3497 19.5229C9.72131 19.2776 9.12336 18.9622 8.5674 18.5831H8.42092L8.07912 18.3662C5.85737 20.4146 10.252 22.4872 11.9367 22.8969C13.9694 23.2441 16.0608 22.984 17.9427 22.1498C19.1172 21.7322 20.1492 20.9974 20.9213 20.029C22.7524 21.9811 22.3373 25.9093 21.8002 28.1988C21.5072 29.5484 20.6772 31.0426 21.6293 32.3198C22.142 32.9946 23.2651 33.4043 23.8511 32.7054C23.8637 32.6498 23.8637 32.5923 23.8511 32.5367V32.5367C23.8645 32.4813 23.8645 32.4234 23.8511 32.368C24.6844 28.7269 24.7757 24.9585 24.1196 21.2822C23.9174 20.6184 23.6389 19.9796 23.2895 19.3784C23.8139 19.5829 24.2883 19.895 24.6812 20.2941C25.2179 20.9332 25.6391 21.6588 25.9263 22.439C26.5431 24.0522 26.777 25.7836 26.6099 27.4999C26.6099 28.4398 26.4634 29.9099 27.6354 30.3196C28.2213 30.5124 28.6364 30.0786 28.8561 29.5966C28.8931 29.5767 28.9254 29.5492 28.9506 29.516C28.9759 29.4827 28.9936 29.4444 29.0026 29.4038C29.833 26.2376 29.3867 22.8769 27.7574 20.029V20.029Z" fill="url(#paint8_radial_155_738)"/>
<path style="mix-blend-mode:multiply" d="M30.0239 8.17192C30.1273 8.28662 30.2558 8.37658 30.3996 8.43503C30.5434 8.49349 30.6988 8.5189 30.8541 8.50931H30.9761C31.098 8.37285 31.1652 8.19718 31.1652 8.01527C31.1652 7.83335 31.098 7.65768 30.9761 7.52122C30.5891 6.80444 29.9704 6.23606 29.2183 5.90656C28.1007 5.68916 27.0226 5.30735 26.0199 4.77388C25.6266 4.46584 25.1283 4.31913 24.6283 4.36419C24.5644 4.34674 24.4969 4.34674 24.433 4.36419C23.1577 4.68798 21.8428 4.83398 20.5266 4.79797C19.4259 4.48464 18.258 4.48464 17.1574 4.79797C16.7045 4.96879 16.2639 5.17009 15.839 5.40046C15.1232 5.70014 14.3378 5.80019 13.5684 5.68968C12.3171 5.50634 11.04 5.6052 9.83294 5.97886C9.30284 6.33391 8.66406 6.49581 8.02624 6.43675L6.07307 6.09936C4.81931 5.90519 3.54253 5.90519 2.28877 6.09936C1.57656 6.25671 0.909128 6.56965 0.335583 7.01516C0.176577 7.14198 0.0658603 7.31828 0.0215134 7.51527C-0.0228336 7.71225 0.00181511 7.91826 0.0914391 8.09963C0.0914391 8.34062 0.628571 8.7021 1.43426 9.06359C1.9823 9.28125 2.55686 9.4271 3.14328 9.4974C4.80844 9.77459 6.51418 9.70065 8.14832 9.28048C8.12184 9.36691 8.12184 9.45914 8.14832 9.54557C8.71115 10.1703 9.50049 10.5512 10.3456 10.606C11.2587 10.8303 12.2217 10.7455 13.0801 10.365C14.1299 9.7866 13.4952 8.96721 12.8115 8.43702C14.3495 7.78321 16.0525 7.60668 17.6945 7.93091C19.2184 8.14914 20.7709 7.81527 22.0647 6.99103C22.0647 6.99103 22.553 6.99104 22.9681 7.30434C23.3494 7.63664 23.7992 7.88331 24.2865 8.02733C24.9216 8.10338 25.5616 7.93031 26.0687 7.54535C26.3273 7.27473 26.6727 7.10052 27.0463 7.05222C27.42 7.00392 27.7991 7.08448 28.1196 7.28025C28.5086 7.44392 28.8841 7.63728 29.2427 7.85862L30.0239 8.17192Z" fill="url(#paint9_linear_155_738)"/>
<g style="mix-blend-mode:multiply">
<path d="M27.7574 20.029C27.482 19.4727 27.0945 18.9776 26.6187 18.5741C26.1428 18.1706 25.5886 17.8671 24.9899 17.6822C24.3913 17.4972 23.7606 17.4347 23.1366 17.4984C22.5126 17.5622 21.9084 17.7508 21.3608 18.0529V18.0529H21.1898C19.9804 18.6654 18.723 19.1812 17.43 19.5953C16.3903 19.8492 15.3265 19.9946 14.2561 20.029C13.5124 20.0546 12.7681 20.0061 12.0343 19.8845C11.4573 19.8503 10.889 19.7283 10.3497 19.5229C9.72131 19.2776 9.12336 18.9622 8.5674 18.5831H8.42092L8.07912 18.3662C5.85737 20.4146 10.252 22.4872 11.9367 22.8969C13.9694 23.2441 16.0608 22.984 17.9427 22.1498C19.1172 21.7322 20.1492 20.9974 20.9213 20.029C22.7524 21.9811 22.3373 25.9093 21.8002 28.1988C21.5072 29.5484 20.6772 31.0426 21.6293 32.3198C22.142 32.9946 23.2651 33.4043 23.8511 32.7054C23.8637 32.6498 23.8637 32.5923 23.8511 32.5367V32.5367C23.8645 32.4813 23.8645 32.4234 23.8511 32.368C24.6844 28.7269 24.7757 24.9585 24.1196 21.2822C23.9174 20.6184 23.6389 19.9796 23.2895 19.3784C23.8139 19.5829 24.2883 19.895 24.6812 20.2941C25.2179 20.9332 25.6391 21.6588 25.9263 22.439C26.5431 24.0522 26.777 25.7836 26.6099 27.4999C26.6099 28.4398 26.4634 29.9099 27.6354 30.3196C28.2213 30.5124 28.6364 30.0786 28.8561 29.5966C28.8931 29.5767 28.9254 29.5492 28.9506 29.516C28.9759 29.4827 28.9936 29.4444 29.0026 29.4038C29.833 26.2376 29.3867 22.8769 27.7574 20.029V20.029ZM13.8898 20.7761C14.4508 20.8107 15.0134 20.8107 15.5744 20.7761C15.6907 21.0838 15.9049 21.3459 16.1848 21.5232C16.4979 21.7592 16.8929 21.8633 17.2835 21.8124C16.5845 22.0512 15.8656 22.2286 15.135 22.3426V22.3426C14.3781 22.0052 13.5236 21.716 13.2794 20.8725L13.8898 20.7761ZM11.1065 20.4628C11.0936 20.77 11.1456 21.0764 11.259 21.3627C11.3725 21.649 11.5451 21.9088 11.7657 22.1257C11.2629 21.9808 10.773 21.7954 10.3009 21.5714C10.3009 21.5714 10.3009 21.5714 10.3009 21.5714C10.0653 21.3678 9.85981 21.1326 9.6905 20.8725C9.55722 20.5864 9.5065 20.2695 9.54398 19.9568C10.0468 20.1532 10.5712 20.2907 11.1065 20.3664V20.4628ZM8.29884 18.8964C8.58957 19.249 8.94593 19.5434 9.34869 19.764C9.25575 20.0063 9.23162 20.269 9.27896 20.5239C9.32629 20.7787 9.44324 21.0159 9.61722 21.2099V21.2099C9.13489 21.0397 8.73342 20.6993 8.49003 20.2544C8.24663 19.8095 8.17853 19.2915 8.29884 18.8V18.8964ZM12.5714 22.2703C12.2852 22.1044 12.0225 21.9018 11.7902 21.6678C11.5263 21.3202 11.3505 20.9153 11.2774 20.4869C11.8701 20.6263 12.4753 20.707 13.0842 20.7279C13.0842 21.6437 13.8654 22.1498 14.6955 22.2944C13.9851 22.3398 13.2718 22.2993 12.5714 22.1739V22.2703ZM17.3079 21.6919C17.3079 21.6919 17.3079 21.6919 17.3079 21.5714C17.3079 21.4509 16.6731 21.4027 16.3801 21.2581C16.119 21.0974 15.8877 20.8936 15.6965 20.6556C16.3153 20.5815 16.9275 20.4606 17.5276 20.2941C17.7108 20.5115 17.9519 20.6741 18.2236 20.7635C18.4954 20.8529 18.7871 20.8656 19.0658 20.8003C18.5213 21.1468 17.9293 21.4146 17.3079 21.5955V21.6919ZM19.5541 20.4387C19.2572 20.5405 18.9412 20.576 18.6288 20.5427C18.3164 20.5094 18.0153 20.408 17.7474 20.2459C18.7267 19.9948 19.6642 19.6052 20.5306 19.0892C20.2856 19.5624 19.9546 19.9872 19.5541 20.3424V20.4387ZM28.5631 27.0179C28.4184 27.7198 28.019 28.3454 27.44 28.7772C27.4159 28.4644 27.4159 28.1502 27.44 27.8373V27.4999C27.9572 27.1387 28.3561 26.6361 28.5875 26.0539C28.5981 26.0063 28.5981 25.957 28.5875 25.9093C28.7096 26.1744 28.7096 26.56 28.5631 26.9215V27.0179ZM27.4645 25.7888V25.2586C28.0071 24.5586 28.3449 23.725 28.441 22.8487C28.582 23.3928 28.6639 23.9503 28.6852 24.5116C28.6379 25.0883 28.4628 25.6477 28.1725 26.1503C28.0016 26.4877 27.7086 26.7287 27.5133 27.042C27.4644 26.56 27.4645 26.1262 27.4645 25.6925V25.7888ZM27.9283 21.6919C28.1115 22.3219 28.1115 22.99 27.9283 23.6199C27.7809 24.0231 27.5928 24.4106 27.3668 24.7767C27.2893 24.1857 27.1503 23.6042 26.9517 23.0415C27.3227 22.2933 27.491 21.463 27.44 20.6315L27.733 21.1135L27.9283 21.6919ZM21.0678 19.6434C21.2194 19.3252 21.3104 18.9821 21.3363 18.6313V18.6313C21.5294 18.6368 21.7199 18.6777 21.8979 18.7518C22.0735 19.0677 22.1419 19.4309 22.0932 19.788C22.1049 20.0209 22.1049 20.2541 22.0932 20.4869C22.008 20.2624 21.871 20.0605 21.693 19.8974C21.515 19.7342 21.3009 19.6143 21.0678 19.5471V19.6434ZM22.142 20.7761C22.2799 20.4815 22.3513 20.1608 22.3513 19.8362C22.3513 19.5117 22.2799 19.191 22.142 18.8964C22.643 19.3907 23.0048 20.0054 23.1919 20.6797C23.1814 21.0689 23.0986 21.4528 22.9477 21.8124C22.7852 22.073 22.6464 22.3472 22.5327 22.6318C22.4876 21.9673 22.3563 21.3113 22.142 20.6797V20.7761ZM23.9243 23.5958C23.9486 24.0453 23.9486 24.4958 23.9243 24.9453C23.7903 25.8728 23.3327 26.7251 22.6303 27.3553C22.7446 26.6058 22.7854 25.8472 22.7524 25.09C23.2221 24.6328 23.5883 24.0824 23.8267 23.4753L23.9243 23.5958ZM23.3139 23.9332L22.8012 24.8007C22.8012 24.5598 22.8012 24.3187 22.8012 24.0778C22.8012 23.8368 22.8012 23.403 22.8012 22.9692C23.2568 22.5209 23.5488 21.936 23.6313 21.3063C23.7616 21.7665 23.8675 22.2331 23.9487 22.7041C23.7837 23.1053 23.5706 23.4856 23.3139 23.8368V23.9332ZM22.6059 27.9819C22.5959 27.8777 22.5959 27.7728 22.6059 27.6686C23.2011 27.279 23.6678 26.7261 23.9487 26.078C23.9487 26.5841 23.9487 27.0902 23.9487 27.5722C23.8151 28.062 23.5443 28.5046 23.1674 28.8495C22.8162 29.1355 22.4821 29.4413 22.1665 29.7652C22.2641 29.0905 22.4594 28.488 22.6059 27.8855V27.9819ZM21.9955 30.3919C21.9838 30.2958 21.9838 30.1987 21.9955 30.1026C22.6778 29.8235 23.2631 29.3546 23.6802 28.7531L23.5337 29.9099C23.3653 30.37 23.0988 30.7891 22.7524 31.1389C22.525 31.3444 22.28 31.5298 22.0199 31.6932C21.8682 31.2076 21.8597 30.6893 21.9955 30.1991V30.3919ZM22.2153 31.9824C22.5675 31.8111 22.8826 31.5737 23.143 31.2835C23.2786 31.1389 23.3936 30.9768 23.4848 30.8015C23.4848 31.3076 23.3384 31.8137 23.2895 32.3198C23.0758 32.3887 22.8432 32.3717 22.6421 32.2724C22.441 32.1732 22.2877 31.9997 22.2153 31.7896V31.9824ZM23.0942 19.0892C22.8618 18.7206 22.5328 18.4208 22.142 18.2216L23.2651 18.077C23.602 18.2182 23.9024 18.4323 24.1441 18.7036C24.3638 18.9687 24.5347 19.2578 24.73 19.5229C24.5323 19.2917 24.2789 19.1131 23.9931 19.0037C23.7073 18.8942 23.3982 18.8573 23.0942 18.8964V19.0892ZM24.9986 19.764C24.8446 19.149 24.4935 18.5996 23.9976 18.1975C24.3271 18.2494 24.6476 18.3468 24.9497 18.4867L25.2183 18.6313C25.8394 19.3927 26.1525 20.3544 26.0972 21.3304C25.8236 20.6923 25.4532 20.0991 24.9986 19.5712V19.764ZM26.6343 22.3426L26.2681 21.5473C26.4095 21.0554 26.4162 20.5352 26.2875 20.0399C26.1588 19.5446 25.8994 19.0918 25.5357 18.7277C26.0536 19.0942 26.5072 19.5419 26.8785 20.0531C27.2208 21.0371 27.2208 22.1057 26.8785 23.0897C26.8198 22.7711 26.7382 22.457 26.6343 22.1498V22.3426ZM28.3922 29.2592C28.2457 29.6448 27.9528 29.5966 27.4889 29.1146C27.8938 28.8952 28.2376 28.5807 28.4899 28.1988V29.1869L28.3922 29.2592Z" fill="#620800"/>
</g>
<path style="mix-blend-mode:screen" d="M9.00253 19.8373C10.2743 20.5032 11.6891 20.8586 13.1286 20.8736C15.4006 20.9405 17.6595 20.5126 19.745 19.6205C17.8579 20.9498 15.5644 21.5966 13.2507 21.452C9.73499 21.452 9.00253 19.8373 9.00253 19.8373Z" fill="url(#paint10_radial_155_738)"/>
<path style="mix-blend-mode:screen" d="M21.7526 18.8977C21.7526 18.8977 23.9988 20.3437 23.7546 25.26C23.8564 27.4869 23.4037 29.7045 22.4362 31.7187C23.1864 28.9558 23.41 26.0792 23.0954 23.2357C22.4362 19.452 21.7526 18.8977 21.7526 18.8977Z" fill="url(#paint11_radial_155_738)"/>
<path style="mix-blend-mode:screen" d="M23.8231 18.3425C23.8231 18.3425 24.995 17.8365 26.6064 19.668C27.4839 20.9548 28.0598 22.4185 28.2921 23.9527C28.5244 25.4868 28.4072 27.0528 27.9492 28.5366C28.3229 25.7008 27.7939 22.8204 26.4355 20.2946C24.3114 17.3786 23.8231 18.3425 23.8231 18.3425Z" fill="url(#paint12_radial_155_738)"/>
<path d="M39.9607 6.20464C41.9565 4.01417 40.5957 2.31624 38.0945 0.864569C36.3967 -0.146416 35.347 0.631264 34.2065 2.01813C32.768 3.85864 31.1869 6.01022 30.1761 7.5267C28.569 5.751 26.8584 4.0401 25.1347 2.34216C24.2923 1.51264 23.3204 0.410922 22.0373 0.540535C20.197 0.709033 17.5662 3.65127 18.1494 5.53066C18.5641 6.8268 20.0934 7.82482 21.0265 8.62842L24.9144 11.9854L22.2447 15.0572C21.3634 16.0812 19.6527 16.6774 19.3806 18.0254C19.0307 19.6067 21.3505 21.162 22.5687 21.5898C24.6682 22.3545 25.4717 21.188 26.7936 19.8011C27.9081 18.6216 29.0874 17.5069 30.2668 16.3793C32.4354 17.5113 34.5953 18.6519 36.7467 19.8011C38.7684 20.851 39.8052 19.6067 38.1852 17.4032C36.5652 15.1998 35.4118 14.124 33.8437 12.2187C36.1635 9.75605 38.2889 8.04515 39.9607 6.20464Z" fill="#5D0700"/>
<path d="M39.1684 5.43964C41.0864 3.32694 40.1015 1.95304 37.691 0.514328C37.3735 0.295124 37.0143 0.143598 36.6358 0.069158C36.2573 -0.00528241 35.8675 -0.00104971 35.4906 0.0816178C35.1138 0.164285 34.758 0.323624 34.4454 0.54969C34.1328 0.775757 33.87 1.06373 33.6734 1.39571C32.2867 3.17141 30.7575 5.2841 29.7855 6.70985C28.2433 4.99895 26.5974 3.35286 24.9386 1.74565C24.1221 0.95501 23.189 -0.107815 21.9449 0.00883688C20.1694 0.177334 17.7718 3.19733 18.368 4.99896C18.7697 6.20436 20.1175 7.04685 20.9599 7.81157C22.2559 8.90032 23.5519 9.98907 24.7701 11.0649C23.9018 12.0499 23.0464 13.035 22.1781 14.033C21.3098 15.031 19.7806 16.3012 19.5084 17.5974C19.1715 19.1268 21.0247 20.1896 22.2041 20.5785C24.2258 21.3173 25.2885 19.9434 26.5585 18.5954C27.6342 17.4548 28.7746 16.379 29.9021 15.3032C31.9887 16.392 34.0622 17.4807 36.1358 18.5954C38.2094 19.7101 39.3239 19.1009 37.7687 16.9752C36.2135 14.8496 34.8398 13.0868 33.3365 11.2334C35.5137 8.86143 37.5484 7.2283 39.1684 5.43964Z" fill="url(#paint13_radial_155_738)"/>
<path style="mix-blend-mode:multiply" opacity="0.8" d="M39.1684 5.43964C41.0864 3.32694 40.1015 1.95304 37.691 0.514328C37.3735 0.295124 37.0143 0.143598 36.6358 0.069158C36.2573 -0.00528241 35.8675 -0.00104971 35.4906 0.0816178C35.1138 0.164285 34.758 0.323624 34.4454 0.54969C34.1328 0.775757 33.87 1.06373 33.6734 1.39571C32.2867 3.17141 30.7575 5.2841 29.7855 6.70985C28.2433 4.99895 26.5974 3.35286 24.9386 1.74565C24.1221 0.95501 23.189 -0.107815 21.9449 0.00883688C20.1694 0.177334 17.7718 3.19733 18.368 4.99896C18.7697 6.20436 20.1175 7.04685 20.9599 7.81157C22.2559 8.90032 23.5519 9.98907 24.7701 11.0649C23.9018 12.0499 23.0464 13.035 22.1781 14.033C21.3098 15.031 19.7806 16.3012 19.5084 17.5974C19.1715 19.1268 21.0247 20.1896 22.2041 20.5785C24.2258 21.3173 25.2885 19.9434 26.5585 18.5954C27.6342 17.4548 28.7746 16.379 29.9021 15.3032C31.9887 16.392 34.0622 17.4807 36.1358 18.5954C38.2094 19.7101 39.3239 19.1009 37.7687 16.9752C36.2135 14.8496 34.8398 13.0868 33.3365 11.2334C35.5137 8.86143 37.5484 7.2283 39.1684 5.43964ZM32.6885 11.0908C32.4682 11.3241 36.2006 15.4069 36.6671 15.9902C36.7967 16.1457 39.1295 19.1009 37.7558 18.725C35.6977 17.9141 33.7265 16.898 31.872 15.6921C31.0426 15.2255 30.0447 14.707 30.0447 14.707C30.0447 14.707 29.5263 15.1477 29.1505 15.4976C28.1655 16.379 27.1676 17.2474 26.2216 18.1806C25.2755 19.1139 24.4979 20.3452 23.202 20.073C22.18 19.8485 21.2655 19.2815 20.61 18.4658C20.0398 17.4807 21.569 16.2494 22.1522 15.5884C23.4482 14.046 24.5887 12.6461 25.9365 11.1037C23.837 9.06881 22.0485 7.4616 19.8324 5.55629C17.9014 3.87131 21.271 -0.418875 23.3964 0.993911C25.768 2.56223 27.8416 5.42669 29.8762 7.47458C31.2858 5.3673 32.8087 3.33803 34.4381 1.39571C34.6857 1.10621 35.0058 0.887665 35.3655 0.762416C35.7253 0.637167 36.1118 0.609705 36.4857 0.682832C38.3908 1.05871 40.5291 3.06772 39.5183 4.14351C38.846 5.1088 38.0485 5.98051 37.1467 6.73577L32.6885 11.0908Z" fill="url(#paint14_radial_155_738)"/>
<path style="mix-blend-mode:screen" d="M34.5172 1.38295C33.2212 2.82165 32.1585 4.29925 32.5603 4.71402C32.962 5.12878 33.0916 5.8287 34.1932 4.27334C35.2948 2.71798 36.2927 1.48665 35.9039 1.033C35.5151 0.579357 34.9319 0.929299 34.5172 1.38295Z" fill="url(#paint15_linear_155_738)"/>
<path style="mix-blend-mode:screen" d="M32.687 6.03647C32.7204 5.93011 32.7316 5.81806 32.72 5.70721C32.7083 5.59636 32.6742 5.48905 32.6195 5.39191C32.5649 5.29477 32.491 5.20986 32.4023 5.14238C32.3136 5.0749 32.212 5.02629 32.1038 4.99955C31.0152 4.86993 31.2615 6.71044 32.1038 6.56787C32.246 6.55584 32.3802 6.49725 32.4856 6.40116C32.5911 6.30508 32.6619 6.17689 32.687 6.03647Z" fill="url(#paint16_linear_155_738)"/>
<path style="mix-blend-mode:screen" d="M26.8045 4.49401C25.7937 3.49599 23.759 1.05925 23.0203 0.838908C21.7243 0.450068 20.6487 1.47401 19.897 2.35538C19.3656 2.96456 19.0028 5.168 19.897 4.53289C20.6018 4.1687 21.3807 3.97112 22.1738 3.95539C22.967 3.93966 23.7531 4.10619 24.4718 4.44216C25.8585 5.20687 31.8977 9.56189 26.8045 4.49401Z" fill="url(#paint17_linear_155_738)"/>
<path style="mix-blend-mode:screen" opacity="0.7" d="M21.4671 18.0769C21.8458 18.4192 22.2854 18.6874 22.763 18.8676C23.5406 19.1138 24.383 19.0231 25.6012 17.8955C34.673 9.45767 26.6509 18.0769 25.7567 18.7639C24.8625 19.4508 23.9942 20.8247 21.5448 19.1786C20.2618 18.3102 19.9896 16.7808 21.4671 18.0769Z" fill="url(#paint18_radial_155_738)"/>
<path style="mix-blend-mode:screen" opacity="0.7" d="M37.4565 17.2864C36.964 16.6124 36.1605 15.9125 37.1454 17.2087C38.1304 18.5048 37.1454 18.1937 36.5104 17.8438C35.8754 17.4938 32.1559 15.2515 30.8599 14.4998C29.888 13.9036 29.9268 14.6034 31.1062 15.3163C33.1698 16.6269 35.337 17.767 37.5861 18.7251C38.8431 19.0492 37.9748 17.9474 37.4565 17.2864Z" fill="url(#paint19_radial_155_738)"/>
</g>
<defs>
<linearGradient id="paint0_linear_155_738" x1="3954.47" y1="3352.26" x2="4159.9" y2="3211.71" gradientUnits="userSpaceOnUse">
<stop offset="0.1" stop-color="#D3975B"/>
<stop offset="0.27" stop-color="#EDC383"/>
<stop offset="0.41" stop-color="#FFE3BA"/>
<stop offset="0.49" stop-color="#FEE4BD"/>
<stop offset="0.56" stop-color="#FBE6C7"/>
<stop offset="0.6" stop-color="#F8E9D4"/>
<stop offset="0.76" stop-color="#F7E0C1"/>
<stop offset="0.81" stop-color="#F5D6A9"/>
<stop offset="0.85" stop-color="#F4D099"/>
<stop offset="1" stop-color="#EDC383"/>
</linearGradient>
<linearGradient id="paint1_linear_155_738" x1="18.5525" y1="9.18578" x2="25.3277" y2="15.7565" gradientUnits="userSpaceOnUse">
<stop offset="0.09" stop-color="#EDC383"/>
<stop offset="1" stop-color="#B2845B"/>
</linearGradient>
<linearGradient id="paint2_linear_155_738" x1="15.5459" y1="7.08779" x2="15.9265" y2="18.6318" gradientUnits="userSpaceOnUse">
<stop offset="0.09" stop-color="#F6E3C8"/>
<stop offset="0.54" stop-color="#EDC383"/>
<stop offset="1" stop-color="#B2845B"/>
</linearGradient>
<linearGradient id="paint3_linear_155_738" x1="1956.79" y1="2622.2" x2="1958.58" y2="2684.62" gradientUnits="userSpaceOnUse">
<stop offset="0.09" stop-color="#EDC383"/>
<stop offset="1" stop-color="#B2845B"/>
</linearGradient>
<linearGradient id="paint4_linear_155_738" x1="1616.47" y1="2533.87" x2="1618.76" y2="2594.36" gradientUnits="userSpaceOnUse">
<stop offset="0.09" stop-color="#EDC383"/>
<stop offset="1" stop-color="#B2845B"/>
</linearGradient>
<radialGradient id="paint5_radial_155_738" cx="0" cy="0" r="1" gradientUnits="userSpaceOnUse" gradientTransform="translate(18.1149 32.7867) scale(16.1621 17.286)">
<stop stop-color="#F8E9D4"/>
<stop offset="0.18" stop-color="#FDE5C1"/>
<stop offset="0.31" stop-color="#FFE3BA"/>
<stop offset="0.67" stop-color="#EDC383"/>
<stop offset="0.9" stop-color="#D3975B"/>
</radialGradient>
<radialGradient id="paint6_radial_155_738" cx="0" cy="0" r="1" gradientUnits="userSpaceOnUse" gradientTransform="translate(18.1149 32.7867) scale(16.1621 17.286)">
<stop offset="0.38" stop-color="#F6E3C8"/>
<stop offset="0.5" stop-color="#EDC383"/>
<stop offset="0.66" stop-color="#B2845B"/>
</radialGradient>
<radialGradient id="paint7_radial_155_738" cx="0" cy="0" r="1" gradientUnits="userSpaceOnUse" gradientTransform="translate(18.1149 35.9476) scale(13.5069 14.4462)">
<stop offset="0.52" stop-color="#F6E3C8"/>
<stop offset="0.76" stop-color="#EDC383"/>
<stop offset="1" stop-color="#B2845B"/>
</radialGradient>
<radialGradient id="paint8_radial_155_738" cx="0" cy="0" r="1" gradientUnits="userSpaceOnUse" gradientTransform="translate(18.2752 20.0768) scale(13.3405 13.2986)">
<stop offset="0.09" stop-color="#FFFB52"/>
<stop offset="0.61" stop-color="#DEA337"/>
<stop offset="1" stop-color="#826C00"/>
</radialGradient>
<linearGradient id="paint9_linear_155_738" x1="15.0821" y1="3.78581" x2="15.9627" y2="10.079" gradientUnits="userSpaceOnUse">
<stop offset="0.09" stop-color="#EDC383"/>
<stop offset="0.36" stop-color="#B2845B"/>
<stop offset="0.99" stop-color="#493000"/>
</linearGradient>
<radialGradient id="paint10_radial_155_738" cx="0" cy="0" r="1" gradientUnits="userSpaceOnUse" gradientTransform="translate(1449.56 407.314) scale(16.9259 2.94604)">
<stop offset="0.15" stop-color="white"/>
<stop offset="1" stop-color="#FFFB62"/>
</radialGradient>
<radialGradient id="paint11_radial_155_738" cx="0" cy="0" r="1" gradientUnits="userSpaceOnUse" gradientTransform="translate(295.912 2735.86) scale(3.7959 24.324)">
<stop offset="0.15" stop-color="white"/>
<stop offset="1" stop-color="#FFFB62"/>
</radialGradient>
<radialGradient id="paint12_radial_155_738" cx="0" cy="0" r="1" gradientUnits="userSpaceOnUse" gradientTransform="translate(658.24 2202.24) scale(7.50222 17.097)">
<stop offset="0.15" stop-color="white"/>
<stop offset="1" stop-color="#FFFB62"/>
</radialGradient>
<radialGradient id="paint13_radial_155_738" cx="0" cy="0" r="1" gradientUnits="userSpaceOnUse" gradientTransform="translate(2084.66 3842.76) scale(236.066 226.217)">
<stop stop-color="#F17C75"/>
<stop offset="0.34" stop-color="#F22300"/>
<stop offset="0.44" stop-color="#ED2200"/>
<stop offset="0.54" stop-color="#E02000"/>
<stop offset="0.66" stop-color="#C91C00"/>
<stop offset="0.77" stop-color="#A91600"/>
<stop offset="0.88" stop-color="#830F00"/>
</radialGradient>
<radialGradient id="paint14_radial_155_738" cx="0" cy="0" r="1" gradientUnits="userSpaceOnUse" gradientTransform="translate(29.3847 9.50535) scale(10.6155 10.7219)">
<stop offset="0.11" stop-color="#C21A00"/>
<stop offset="0.79" stop-color="#830F00"/>
</radialGradient>
<linearGradient id="paint15_linear_155_738" x1="33.5601" y1="2.37417" x2="35.4131" y2="3.90061" gradientUnits="userSpaceOnUse">
<stop stop-color="#FFF6FF"/>
<stop offset="0.13" stop-color="#FCD9B5"/>
<stop offset="0.64" stop-color="#E12100"/>
</linearGradient>
<linearGradient id="paint16_linear_155_738" x1="138.793" y1="525.732" x2="141.911" y2="527.164" gradientUnits="userSpaceOnUse">
<stop stop-color="#FFF6FF"/>
<stop offset="0.13" stop-color="#FCD9B5"/>
<stop offset="0.64" stop-color="#E12100"/>
</linearGradient>
<linearGradient id="paint17_linear_155_738" x1="25.6497" y1="-1.05578" x2="24.909" y2="3.89244" gradientUnits="userSpaceOnUse">
<stop stop-color="#FFF6FF"/>
<stop offset="0.13" stop-color="#FCD9B5"/>
<stop offset="0.92" stop-color="#E12100"/>
</linearGradient>
<radialGradient id="paint18_radial_155_738" cx="0" cy="0" r="1" gradientUnits="userSpaceOnUse" gradientTransform="translate(221.383 2139.93) rotate(14.8603) scale(48.0262 29.5549)">
<stop offset="0.04" stop-color="#FFF6FF"/>
<stop offset="0.17" stop-color="#FCD9B5"/>
<stop offset="0.95" stop-color="#E12100"/>
</radialGradient>
<radialGradient id="paint19_radial_155_738" cx="0" cy="0" r="1" gradientUnits="userSpaceOnUse" gradientTransform="translate(821.677 875.498) scale(31.1842 17.6129)">
<stop offset="0.04" stop-color="#FFF6FF"/>
<stop offset="0.17" stop-color="#FCD9B5"/>
<stop offset="0.95" stop-color="#E12100"/>
</radialGradient>
</defs>
</svg>
