<svg width="51" height="50" viewBox="0 0 51 50" fill="none" xmlns="http://www.w3.org/2000/svg">
<g style="mix-blend-mode:multiply" opacity="0.6">
<path d="M50.8284 29.1322C50.5244 23.1698 51.1558 19.5223 49.5656 13.7002C49.388 12.7611 48.9931 11.8765 48.4124 11.1173C47.8318 10.3581 47.0815 9.74524 46.2216 9.32778C43.8229 7.57895 40.834 6.84021 37.8967 7.27018C35.5582 7.99502 36.2597 8.97705 36.213 7.03636C36.2174 5.98682 36.0837 4.94126 35.8154 3.92657C35.3657 2.8387 34.6086 1.90547 33.6367 1.24105C32.6649 0.576627 31.5205 0.20981 30.3434 0.18547C28.5717 -0.0451764 26.7726 0.0499132 25.0351 0.466053C22.6927 1.73244 20.5689 3.36658 18.7446 5.3061C16.2424 7.64429 9.25039 14.4952 6.65469 16.8801C2.58575 20.6212 0.948814 21.6968 0.948814 27.9865C0.948814 33.6215 5.92976 36.3572 8.80608 38.485C15.2896 42.4469 22.0229 45.985 28.9637 49.077C29.9823 49.5553 31.0725 49.8634 32.1908 49.9889C35.8388 50.1525 37.4757 48.5158 37.312 44.9851C40.5157 45.71 44.8887 47.2064 47.8586 45.4294C50.8284 43.6524 50.7115 40.0048 50.922 37.1756C51.0512 34.495 51.0199 31.8091 50.8284 29.1322Z" fill="#8A7D63"/>
</g>
<path d="M46.1284 26.1346C46.171 21.6192 45.6366 17.1168 44.5383 12.7368C44.1872 11.5815 43.5862 10.5176 42.7779 9.62054C41.9697 8.72348 40.974 8.01521 39.8613 7.54598C38.7359 7.22155 37.5283 7.34732 36.4939 7.89671C34.8873 8.57705 33.3252 9.35799 31.817 10.2349C32.2869 7.92031 32.2869 5.53491 31.817 3.22033C31.2745 1.99149 30.2936 1.00882 29.0657 0.464091C27.8377 -0.0806352 26.4508 -0.148331 25.1757 0.274216C22.8372 1.25625 21.7849 3.31386 19.9375 4.95059L12.6882 11.4975C10.7473 13.2278 7.52019 15.5192 5.67279 17.3898C3.8254 19.2603 1.72076 21.1542 1.72076 23.8899C1.72076 28.73 5.60265 31.0214 8.1282 32.8686C13.9823 36.8274 20.0999 40.382 26.4385 43.5073C27.2979 43.946 28.2213 44.2459 29.1745 44.3958C32.4016 44.5361 33.1967 41.6134 33.0563 38.5971C35.8859 39.2284 40.9136 41.6134 43.5327 40.0936C46.1518 38.5737 46.0349 35.4172 46.1986 33.079C46.3141 30.7649 46.2907 28.4459 46.1284 26.1346Z" fill="#420E00"/>
<path d="M29.4563 9.76824C29.4706 7.59427 29.3299 5.42205 29.0354 3.26807C28.6144 1.79502 27.5621 -1.82918 22.0199 2.68353C15.7421 7.73384 9.81228 13.202 4.27094 19.0508C3.65212 19.5643 3.1655 20.2187 2.85193 20.9591C2.53836 21.6995 2.40699 22.5044 2.46885 23.306C2.53069 24.1077 2.78397 24.8828 3.20739 25.5664C3.63083 26.25 4.21204 26.822 4.9023 27.2345C11.0759 31.9109 17.6704 37.4524 24.943 40.1881C29.1757 41.778 30.4384 39.3463 29.7836 34.8336C29.7836 34.8336 33.4551 35.5351 36.2378 36.4002C39.0206 37.2653 41.3123 37.2653 41.8502 32.4019C42.4941 25.2144 42.1162 17.972 40.7277 10.8906C39.8157 6.0739 36.4015 7.73401 34.788 8.10812C33.1744 8.48223 29.4563 9.76824 29.4563 9.76824Z" fill="url(#paint0_radial_146_665)"/>
<path d="M2.07144 22.423C1.44006 26.4447 5.67267 28.175 8.01114 29.9052C10.3496 31.6355 12.1035 32.9215 14.2315 34.4413C17.4247 36.9758 20.9201 39.1042 24.6376 40.7778C25.473 41.1621 26.3656 41.4069 27.2801 41.5026C30.2734 41.6195 31.0217 38.9072 30.8813 36.1014C33.5004 36.686 38.1774 38.9072 40.6094 37.4809C43.0414 36.0547 42.9479 33.1553 43.1116 30.8873C43.228 28.7221 43.228 26.5523 43.1116 24.3871C43.0096 19.5571 42.3902 14.752 41.2642 10.054C41.1086 9.44428 40.8176 8.87747 40.4127 8.39574C40.0079 7.914 39.4996 7.52975 38.9257 7.27156C37.5666 7.06272 36.176 7.25786 34.9269 7.83273C33.1673 8.32119 31.4411 8.92257 29.7589 9.63313C30.0675 7.1528 29.9488 4.63796 29.4081 2.19769C28.73 -0.140497 26.485 -0.30417 24.357 0.631105C22.2482 1.71982 20.3229 3.13205 18.6512 4.81646C16.4296 6.80392 14.2081 8.86153 11.9164 10.9191C10.1158 12.5091 8.31515 14.216 6.5613 15.9696C4.4628 17.6231 2.91386 19.8728 2.11819 22.423H2.07144ZM3.26405 24.7612C2.07143 22.1424 4.52684 19.7107 6.53793 17.8636C8.17485 16.3671 9.85854 14.9408 11.4955 13.4444C13.6469 11.5037 15.7749 9.42269 17.8795 7.48199C19.6719 5.58172 21.6369 3.85184 23.749 2.3146C25.4093 1.26242 27.5841 0.654485 28.3091 2.61856C28.992 4.99867 29.346 7.46102 29.3614 9.93709C31.1849 9.3518 33.0438 8.88321 34.9269 8.53418C36.2599 8.2536 38.4346 7.38847 39.4402 8.95506C39.8407 9.55505 40.0821 10.247 40.1417 10.9659C40.9097 16.2371 41.2305 21.5637 41.1005 26.889C41.117 28.63 41.0389 30.3706 40.8666 32.1031C40.7497 33.3657 40.4691 35.587 38.9725 35.8208C38.0642 35.8679 37.1562 35.7245 36.3066 35.4C33.8202 34.6926 31.2889 34.1536 28.73 33.7866C29.1041 36.4288 29.9693 40.6375 26.0875 39.8893C24.0206 39.364 22.0483 38.5199 20.2413 37.3874C17.089 35.6371 14.0436 33.7008 11.1213 31.5887C9.55453 30.4664 8.01114 29.2505 6.44437 28.1516C5.10932 27.3002 4.00171 26.1365 3.21727 24.7612H3.26405Z" fill="#781D00"/>
<path style="mix-blend-mode:screen" d="M29.7836 10.2127C33.2211 9.06697 37.2667 7.87449 38.8335 8.43566C40.4003 8.99682 40.3769 13.6732 40.4938 15.9412C40.6107 18.2093 39.3713 15.1229 38.1553 13.416C37.3812 12.5245 36.3945 11.8428 35.2867 11.434C34.1789 11.0253 32.9858 10.9028 31.8181 11.0778C29.2224 11.335 27.4217 11.0077 29.7836 10.2127Z" fill="url(#paint1_radial_146_665)"/>
<path style="mix-blend-mode:screen" d="M28.6845 8.88389C28.8014 7.03672 28.6845 3.01504 27.5153 1.86933C26.346 0.723618 22.2537 3.319 17.8808 7.55112C13.5078 11.7832 9.22842 16.2258 13.0635 13.7707C16.8986 11.3156 21.0845 6.00792 25.2236 4.88559C26.8839 4.32443 28.6845 8.88389 28.6845 8.88389Z" fill="url(#paint2_radial_146_665)"/>
<path style="mix-blend-mode:screen" d="M13.9742 11.6631C18.1601 8.10905 20.6622 10.2134 16.5933 14.352C12.5244 18.4906 9.29728 20.7119 6.95881 20.1273C4.62034 19.5428 11.3551 14.0013 13.9742 11.6631Z" fill="url(#paint3_radial_146_665)"/>
<path d="M4.33948 21.0172C5.46195 19.965 7.4029 20.5262 6.86505 22.4903C6.3272 24.4543 4.52656 25.7637 3.75485 24.5479C3.46626 23.9732 3.36738 23.3218 3.47243 22.6874C3.57748 22.053 3.88104 21.4682 4.33948 21.0172Z" fill="url(#paint4_radial_146_665)"/>
<defs>
<radialGradient id="paint0_radial_146_665" cx="0" cy="0" r="1" gradientUnits="userSpaceOnUse" gradientTransform="translate(-49636.7 10197.7) rotate(179.433) scale(625.913 624.386)">
<stop offset="0.12" stop-color="#FDFB52"/>
<stop offset="0.58" stop-color="#F16B00"/>
<stop offset="0.96" stop-color="#F14400"/>
</radialGradient>
<radialGradient id="paint1_radial_146_665" cx="0" cy="0" r="1" gradientUnits="userSpaceOnUse" gradientTransform="translate(-8002.86 2959.27) rotate(179.433) scale(30.3918 42.9079)">
<stop offset="0.43" stop-color="white"/>
<stop offset="0.99" stop-color="#FFFB62"/>
</radialGradient>
<radialGradient id="paint2_radial_146_665" cx="0" cy="0" r="1" gradientUnits="userSpaceOnUse" gradientTransform="translate(-13859.1 4293.36) rotate(179.433) scale(68.5408 92.1628)">
<stop offset="0.15" stop-color="white"/>
<stop offset="0.99" stop-color="#FFFB62"/>
</radialGradient>
<radialGradient id="paint3_radial_146_665" cx="0" cy="0" r="1" gradientUnits="userSpaceOnUse" gradientTransform="translate(-11041.3 2704.35) rotate(-176.036) scale(43.7622 51.9537)">
<stop offset="0.29" stop-color="white"/>
<stop offset="0.99" stop-color="#FFFB62"/>
</radialGradient>
<radialGradient id="paint4_radial_146_665" cx="0" cy="0" r="1" gradientUnits="userSpaceOnUse" gradientTransform="translate(-2946.69 913.205) rotate(179.433) scale(7.67481 6.04118)">
<stop stop-color="white"/>
<stop offset="0.99" stop-color="#FFFB62"/>
</radialGradient>
</defs>
</svg>
