<svg width="30" height="39" viewBox="0 0 30 39" fill="none" xmlns="http://www.w3.org/2000/svg">
<rect width="30" height="39" fill="#F5F5F5"/>
<rect width="360" height="640" transform="translate(-54 -409)" fill="white"/>
<g filter="url(#filter0_d_0_1)">
<rect x="-23" y="-17" width="300" height="80" rx="17" fill="#FEE4BD"/>
</g>
<g style="mix-blend-mode:multiply" opacity="0.9">
<g style="mix-blend-mode:multiply" opacity="0.6">
<path d="M27.0377 23.1717C26.211 21.3812 25.0867 19.7617 23.7182 18.3901C22.7058 17.4268 20.4983 15.5527 20.7473 15.29C21.4444 14.5894 22.1083 13.8363 22.739 13.0831C23.8093 11.9128 24.73 10.5997 25.4775 9.17733C25.7597 8.93212 22.9381 7.02301 22.7224 6.60265C22.4138 6.13155 22.0117 5.73706 21.544 5.44667C20.3489 4.48336 18.9382 4.92124 18.2245 4.3958C17.8 4.16188 17.3255 4.04726 16.8469 4.06301C16.0834 4.29071 16.5813 4.78112 15.6851 4.60597C14.9537 4.37874 14.1758 4.37874 13.4444 4.60597C13.1405 4.72681 12.8464 4.87324 12.5647 5.04384C12.0817 5.25271 11.5554 5.32514 11.0378 5.25401C10.2091 5.12099 9.36254 5.19296 8.56476 5.4642C8.21096 5.72199 7.77996 5.83413 7.35315 5.77946L6.04195 5.55178C5.20694 5.40284 4.35415 5.40284 3.51914 5.55178C3.03982 5.65019 2.5934 5.87968 2.22454 6.21733C1.74321 6.62017 2.12496 7.25071 2.37392 7.65355C2.62288 8.05639 3.05441 8.75698 3.40295 9.40503C3.7515 10.0531 3.95067 10.2282 4.23283 10.6486C4.51498 11.0689 4.83034 11.5068 5.14569 11.9272C6.09227 13.4232 7.32469 14.6939 8.76392 15.6578L8.59796 15.8154C7.20379 17.0298 5.92526 18.3849 4.78054 19.8614C3.29899 21.3497 1.96436 22.9928 0.797159 24.7655C0.34549 25.6127 0.079704 26.5561 0.0193819 27.5261C-0.0409402 28.4961 0.105741 29.468 0.448614 30.3702C1.59212 32.2549 3.10278 33.861 4.88013 35.0817C8.51025 37.3332 12.6364 38.5411 16.8469 38.5847C18.5886 38.5746 20.3105 38.1934 21.9091 37.4637C22.8112 37.0344 23.6679 36.5061 24.4651 35.8874C26.4553 34.1902 27.7797 31.7757 28.1829 29.1092C28.4128 27.0517 28.0114 24.9706 27.0377 23.1717Z" fill="#8A7D63"/>
</g>
<path d="M16.38 14.2269C17.4261 13.2993 18.4191 12.2842 19.3765 11.2516C20.5328 10.074 21.5337 8.75674 22.3553 7.33128C22.6567 7.08625 22.8872 6.82373 22.639 6.40369C22.3579 5.88315 21.9085 5.47035 21.3623 5.23105C20.5508 5.07317 19.7678 4.79589 19.0396 4.40847C18.754 4.18477 18.3921 4.07822 18.029 4.11095C17.9826 4.09827 17.9336 4.09827 17.8872 4.11095C16.961 4.34609 16.0061 4.45214 15.0502 4.42599C14.2509 4.19844 13.4028 4.19844 12.6034 4.42599C12.2745 4.55004 11.9546 4.69624 11.646 4.86353C11.1261 5.08117 10.5558 5.15381 9.99703 5.07354C9.0883 4.9404 8.16083 5.0122 7.28424 5.28356C6.89927 5.54141 6.43537 5.65898 5.97217 5.61609L4.55371 5.37107C3.6432 5.23006 2.71598 5.23006 1.80547 5.37107C1.28824 5.48534 0.803537 5.7126 0.387014 6.03614C-0.127175 6.43868 0.387011 7.08625 0.564317 7.48879L1.68136 9.23896C1.96505 9.659 2.26646 10.079 2.58561 10.4991L3.57853 11.7767C4.61489 13.2845 5.95479 14.5654 7.51472 15.5395L7.33743 15.6971C10.3516 16.6072 13.419 15.4695 16.38 14.2269Z" fill="url(#paint0_linear_0_1)"/>
<path style="mix-blend-mode:multiply" opacity="0.8" d="M22.0904 6.54395C21.4875 6.15892 20.6896 5.44136 19.9095 5.51136C19.5372 6.14142 19.1825 6.78899 18.8811 7.43655C18.7154 7.8523 18.4615 8.22822 18.1364 8.53914C17.4981 8.97668 18.3847 6.59648 18.1364 6.21144C17.9414 6.21144 16.7534 5.70388 16.5761 5.61637C16.7121 6.53883 16.5767 7.48043 16.1861 8.32913C15.8846 9.18671 15.5832 10.0793 15.2995 10.9194C14.3775 13.7546 14.2179 13.1946 14.2179 12.582C14.2179 10.6744 14.8031 7.22653 14.7853 6.08892C14.4662 6.08892 12.6399 6.17643 12.3208 6.08892C11.7491 5.99156 11.1636 6.00638 10.5977 6.1325C10.0318 6.25863 9.49671 6.4936 9.02289 6.82399C10.264 7.78658 10.069 7.66407 10.3704 9.15171C10.6009 10.2193 11.3279 13.0371 11.6648 14.0872C11.8421 14.6122 11.913 15.1023 12.1257 15.6273C13.6117 15.2656 15.06 14.7675 16.452 14.1397C17.4981 13.2121 18.4911 12.197 19.4485 11.1644C20.6048 9.9867 21.6056 8.66949 22.4272 7.24403C22.5959 7.12627 22.7255 6.96183 22.7996 6.77148C22.5554 6.72164 22.3176 6.64533 22.0904 6.54395Z" fill="url(#paint1_linear_0_1)"/>
<path style="mix-blend-mode:multiply" opacity="0.7" d="M19.641 6.03543L19.375 6.17544C19.1894 7.87207 18.5053 9.4781 17.4069 10.7959C17.3818 10.8147 17.352 10.8266 17.3207 10.8303C17.2893 10.834 17.2576 10.8293 17.2286 10.8168C17.1997 10.8043 17.1747 10.7845 17.1562 10.7592C17.1376 10.734 17.1263 10.7044 17.1232 10.6734C17.1201 10.0835 17.1916 9.49557 17.336 8.92319C17.4238 8.08535 17.4238 7.24082 17.336 6.40297C17.037 6.24458 16.7673 6.03747 16.5381 5.79041C16.355 7.05609 16.0824 8.30759 15.7225 9.53576C15.5629 10.0608 14.7473 13.9287 13.9494 13.8412C13.5771 13.8412 13.3998 13.2461 13.2934 12.9661C12.9743 12.021 12.6196 8.7832 12.3005 7.82061C11.9813 6.85801 12.2118 6.35045 11.1125 6.43796C10.3904 6.46079 9.6822 6.64004 9.03804 6.96301C9.60542 7.45306 10.1196 8.25815 9.16217 8.50317C9.26855 9.01072 9.33948 9.51827 9.44587 10.0083C9.69614 10.7565 9.85099 11.5325 9.90685 12.3185C9.90381 12.3495 9.89243 12.3792 9.8739 12.4044C9.85537 12.4296 9.83036 12.4495 9.80145 12.462C9.77253 12.4745 9.74075 12.4791 9.70941 12.4754C9.67807 12.4718 9.6483 12.4599 9.62316 12.441C8.73647 11.3472 7.95307 10.1755 7.28273 8.94071C6.94651 8.46387 6.54013 8.03916 6.07703 7.68059L6.57349 9.11571C6.84222 9.73375 7.06158 10.3716 7.22954 11.0234C7.38911 12.056 6.44937 11.636 5.98837 11.3384C4.57349 10.4135 3.22295 9.39616 1.94579 8.29313C1.31205 7.79777 0.71916 7.25352 0.172729 6.66549C0.259235 6.9415 0.39101 7.20165 0.562805 7.43557L1.67984 9.18574C1.96353 9.60578 2.26494 10.0258 2.5841 10.4459L3.57702 11.7235C4.61338 13.2313 5.95328 14.5122 7.51321 15.4863L7.33592 15.6439C10.421 16.729 13.4884 15.6439 16.4495 14.3487C17.4956 13.4211 18.4885 12.406 19.4459 11.3734C20.6022 10.1958 21.6031 8.87852 22.4247 7.45306C22.5101 7.38621 22.5875 7.30986 22.6552 7.22553C21.5382 6.71798 20.8467 5.51038 19.641 6.03543Z" fill="url(#paint2_linear_0_1)"/>
<path style="mix-blend-mode:multiply" opacity="0.8" d="M11.2917 11.2511C10.7776 9.69998 10.3747 8.1151 10.086 6.50818C9.72862 6.5949 9.38332 6.7242 9.05761 6.89322C9.26995 7.03525 9.46094 7.2061 9.62497 7.40075C9.96085 7.80641 10.1483 8.31207 10.1569 8.8359C10.3874 10.8661 11.2739 12.6863 11.6108 14.6814C11.6215 14.7152 11.6203 14.7514 11.6076 14.7844C11.5949 14.8174 11.5713 14.8453 11.5406 14.8634C11.5099 14.8816 11.4739 14.8891 11.4384 14.8846C11.4029 14.8802 11.37 14.8641 11.3449 14.8389C9.48355 12.7734 7.82148 10.5411 6.38026 8.17083C6.87672 9.37844 7.23135 10.6211 7.781 11.8112C7.90511 12.0912 8.79165 13.5613 8.11789 13.7539C7.44412 13.9464 6.78809 13.2988 6.34482 13.0188C5.44056 12.4587 4.57174 11.8462 3.7384 11.2686C3.09055 10.7442 2.49665 10.1579 1.96533 9.51846C2.14264 9.78099 2.35541 10.0435 2.55045 10.3235L3.54336 11.6011C4.57972 13.1089 5.91965 14.3898 7.47958 15.364L7.30226 15.5215C9.13328 16.1171 11.1096 16.1171 12.9406 15.5215C12.249 14.1555 11.6966 12.725 11.2917 11.2511Z" fill="url(#paint3_linear_0_1)"/>
<path style="mix-blend-mode:multiply" opacity="0.8" d="M18.7046 10.5334C19.5257 9.13537 19.9542 7.54645 19.9457 5.93048H19.7152C19.5828 6.82082 19.32 7.68745 18.9351 8.50322C18.2102 9.8489 17.3036 11.0912 16.24 12.1961C16.8673 10.3909 17.1382 8.48383 17.0379 6.57803C16.8373 7.87555 16.4985 9.14854 16.0273 10.3759C15.5859 12.03 14.9115 13.6148 14.0237 15.0838C14.8216 14.8038 15.6017 14.4888 16.3819 14.1562C17.428 13.2286 18.4209 12.2136 19.3784 11.181C20.5346 10.0033 21.5355 8.68605 22.3571 7.26059C22.4426 7.19375 22.5199 7.1174 22.5876 7.03306L22.3216 6.91057C21.2877 8.27423 20.0708 9.49296 18.7046 10.5334Z" fill="url(#paint4_linear_0_1)"/>
<path d="M24.3119 21.3527C23.4592 19.5251 22.281 17.8893 20.8422 16.5352C19.7864 15.4667 18.5147 14.667 17.1234 14.1968C14.351 15.4627 11.4789 16.5879 8.5902 15.4979C7.17036 16.7173 5.86899 18.0837 4.70542 19.5769C3.36246 21.1479 2.17738 22.8626 1.16928 24.6932C0.225823 26.2586 -0.162463 28.1277 0.0735622 29.9678C0.480212 31.4794 1.40338 32.7768 2.66341 33.6073C6.00888 35.8769 9.93316 37.0003 13.9027 36.8248C15.6781 36.8086 17.4329 36.4201 19.0658 35.682C19.9844 35.2559 20.8534 34.7191 21.6557 34.082C23.6845 32.3846 25.0405 29.945 25.4575 27.2426C25.6823 25.2 25.2807 23.1349 24.3119 21.3527Z" fill="url(#paint5_radial_0_1)"/>
<path style="mix-blend-mode:multiply" opacity="0.8" d="M24.3119 21.3527C23.4592 19.5251 22.281 17.8893 20.8422 16.5352C19.7864 15.4667 18.5147 14.667 17.1234 14.1968C14.351 15.4627 11.4789 16.5879 8.5902 15.4979C7.17036 16.7173 5.86899 18.0837 4.70542 19.5769C3.36246 21.1479 2.17738 22.8626 1.16928 24.6932C0.225823 26.2586 -0.162463 28.1277 0.0735622 29.9678C0.480212 31.4794 1.40338 32.7768 2.66341 33.6073C6.00888 35.8769 9.93316 37.0003 13.9027 36.8248C15.6781 36.8086 17.4329 36.4201 19.0658 35.682C19.9844 35.2559 20.8534 34.7191 21.6557 34.082C23.6845 32.3846 25.0405 29.945 25.4575 27.2426C25.6823 25.2 25.2807 23.1349 24.3119 21.3527ZM14.4838 30.7414C14.2238 31.3821 13.7898 31.9264 13.237 32.3052C12.6842 32.684 12.0376 32.8802 11.3793 32.8689C9.75238 32.9204 8.13534 32.5839 6.64781 31.8843C5.27751 31.3992 4.06365 30.5158 3.14486 29.3349C2.77604 28.7362 2.53196 28.0612 2.4289 27.3548C2.32584 26.6484 2.36617 25.9269 2.5472 25.2383C3.18579 23.5141 4.10133 21.9199 5.25328 20.5263C5.56871 20.0868 8.02574 17.6429 7.47789 19.0143C6.63121 21.0889 6.5648 21.6691 5.5853 21.8625C5.41038 21.9034 5.24829 21.9911 5.11457 22.1173C4.98085 22.2436 4.87998 22.404 4.82163 22.5834C4.5394 23.2515 4.07455 24.7108 4.5062 25.3965C5.25327 26.5745 6.97985 24.2361 7.32848 23.6383C7.8979 22.5569 8.40786 21.4415 8.85583 20.2977C9.65271 18.5395 10.2504 19.8406 9.68591 22.2493C9.48376 23.123 9.40543 24.0237 9.45349 24.9218C9.45349 25.7833 9.63611 27.0141 10.7318 26.68C11.8275 26.3459 12.6244 24.6405 12.9232 23.4977C13.4213 21.5812 13.6039 19.1725 13.7367 18.5747C13.7367 18.4868 13.9525 17.678 13.9857 19.1725C14.0258 20.6333 13.9814 22.0953 13.8529 23.5504C13.77 23.8906 13.77 24.2475 13.8529 24.5877C14.0023 24.9042 14.1185 24.8163 14.4008 24.957C15.8451 25.7306 15.0316 29.5107 14.4838 30.7414Z" fill="url(#paint6_radial_0_1)"/>
<path style="mix-blend-mode:multiply" opacity="0.7" d="M24.3119 21.3527C23.4592 19.5251 22.281 17.8893 20.8422 16.5352C19.7864 15.4667 18.5147 14.667 17.1234 14.1968C14.351 15.4627 11.4789 16.5879 8.5902 15.4979C7.17036 16.7173 5.86899 18.0837 4.70542 19.5769C3.36246 21.1479 2.17738 22.8626 1.16928 24.6932C0.225823 26.2586 -0.162463 28.1277 0.0735622 29.9678C0.480212 31.4794 1.40338 32.7768 2.66341 33.6073C6.00888 35.8769 9.93316 37.0003 13.9027 36.8248C15.6781 36.8086 17.4329 36.4201 19.0658 35.682C19.9844 35.2559 20.8534 34.7191 21.6557 34.082C23.6845 32.3846 25.0405 29.945 25.4575 27.2426C25.6823 25.2 25.2807 23.1349 24.3119 21.3527ZM22.5024 27.5239C21.8808 29.1111 20.8635 30.4894 19.5592 31.5114C18.255 32.5334 16.7129 33.1606 15.098 33.326C11.5298 33.771 7.91664 33.0987 4.70542 31.392C3.99323 30.9457 3.37689 30.3469 2.89585 29.6338C2.40206 28.8345 2.1105 27.9143 2.04916 26.9613C2.03716 25.2584 2.55009 23.5979 3.5101 22.2318C4.054 21.3609 4.67674 20.5483 5.36949 19.8054C5.98375 19.1549 6.84703 18.0473 7.74352 17.9242C7.76571 17.9188 7.78877 17.9189 7.81093 17.9244C7.83309 17.9299 7.85375 17.9407 7.87137 17.956C7.88899 17.9712 7.9031 17.9906 7.91259 18.0125C7.92208 18.0344 7.92671 18.0583 7.92614 18.0824C7.86054 18.8555 7.6398 19.6048 7.27868 20.2802C7.01305 20.8604 6.61461 22.0384 6.06675 22.4252C5.5189 22.812 5.28647 21.4933 5.10386 22.4252C5.10386 22.8471 4.75522 24.1833 5.10386 24.4471C6.43199 25.5547 8.07556 21.7043 8.42419 20.9307C8.66685 20.1484 8.9723 19.3896 9.33726 18.6626C9.37715 18.5644 9.43765 18.4771 9.51416 18.4074C9.59067 18.3377 9.68117 18.2874 9.7788 18.2603C9.87643 18.2331 9.97862 18.2299 10.0776 18.2509C10.1766 18.2719 10.2697 18.3165 10.35 18.3813C10.682 18.6978 10.599 19.2604 10.5492 19.6824C10.3334 21.0714 9.66931 23.8845 11.0638 24.7987C11.7943 25.291 12.475 23.8669 12.6244 23.3746C12.973 22.2317 13.0228 20.6845 13.2553 19.5065C13.3367 18.8009 13.5041 18.1095 13.7533 17.4495C13.7635 17.4184 13.7826 17.3915 13.8079 17.3725C13.8332 17.3535 13.8634 17.3432 13.8944 17.3432C13.9255 17.3432 13.9557 17.3535 13.981 17.3725C14.0063 17.3915 14.0253 17.4184 14.0355 17.4495C14.434 19.2077 13.9525 21.1768 14.6332 22.8823C14.8822 23.5328 15.1313 22.9702 15.2475 22.5482C15.3681 22.0392 15.4568 21.5224 15.5131 21.001C15.5978 19.7838 15.7587 18.5738 15.9945 17.3791C15.9945 17.2033 16.6088 18.5395 16.6088 18.7329C16.4018 20.2709 16.0967 21.7923 15.6957 23.2867C15.6066 23.8308 15.6822 24.3907 15.9115 24.8866C16.2768 25.5372 17.3393 25.8712 17.7211 25.08C18.1029 24.2888 17.8539 22.8999 17.9701 21.8801C18.0672 21.111 18.1061 20.3349 18.0863 19.5593C18.0863 18.7857 17.8539 18.0472 17.8705 17.2736C17.8834 17.2531 17.9006 17.2361 17.9208 17.2239C17.9409 17.2117 17.9635 17.2047 17.9867 17.2033C19.3813 18.0297 19.1156 20.2098 19.1322 21.6515C19.097 22.1494 19.1477 22.6498 19.2817 23.1284C19.7631 24.4119 20.2778 23.2339 20.7592 23.0054C20.9841 22.8857 21.243 22.859 21.4855 22.9305C21.728 23.0021 21.9366 23.1666 22.0707 23.3922C22.455 23.9916 22.6951 24.6813 22.7703 25.4014C22.8455 26.1215 22.7536 26.8501 22.5024 27.5239Z" fill="url(#paint7_radial_0_1)"/>
<g style="mix-blend-mode:multiply">
<path d="M20.8312 16.5263C22.2693 17.8717 23.4468 19.497 24.2991 21.3127C25.2959 23.1232 25.6983 25.229 25.4441 27.3045C25.0273 29.9894 23.672 32.4133 21.6443 34.0998C20.8424 34.7328 19.9738 35.2662 19.0558 35.6895C17.4237 36.4229 15.6699 36.8088 13.8954 36.825C9.92793 36.9993 6.00572 35.8832 2.66201 33.6282C1.40265 32.803 0.479963 31.514 0.0735267 30.0121C-0.162374 28.1838 0.225708 26.3268 1.16866 24.7715C3.20802 21.2668 5.76819 18.1291 8.75161 15.4782C7.29178 14.5058 6.03785 13.2273 5.06799 11.7224L4.13879 10.4472C3.84012 10.0279 3.55804 9.60865 3.29255 9.1894L2.24719 7.44253C2.08126 7.04075 1.60007 6.3944 2.08126 5.99262C2.47106 5.66969 2.92466 5.44288 3.4087 5.32882C4.26079 5.18808 5.1285 5.18808 5.98059 5.32882L7.30804 5.57339C7.74152 5.61619 8.17562 5.49884 8.5359 5.24147C9.35623 4.97063 10.2242 4.89894 11.0746 5.03183C11.5975 5.11194 12.1313 5.03944 12.6178 4.82222C12.9066 4.65523 13.206 4.50932 13.5138 4.3855C14.2618 4.15838 15.0556 4.15838 15.8036 4.3855C16.6981 4.4116 17.5918 4.30577 18.4584 4.07107C18.5019 4.05842 18.5478 4.05842 18.5912 4.07107C18.931 4.03841 19.2697 4.14475 19.537 4.36804C20.2184 4.75472 20.9511 5.03149 21.7107 5.18907C22.2218 5.42791 22.6423 5.83991 22.9053 6.35947C23.1376 6.77872 22.9219 7.04075 22.6399 7.28531C21.871 8.70809 20.9344 10.0229 19.8523 11.1983C18.9562 12.229 18.027 13.2422 17.0481 14.168C18.4636 14.6397 19.7577 15.4464 20.8312 16.5263Z" fill="#AE8A65"/>
</g>
<path d="M20.1581 15.4687C19.9581 15.0647 19.6767 14.7052 19.3311 14.4121C18.9856 14.1191 18.5831 13.8987 18.1483 13.7644C17.7135 13.63 17.2556 13.5846 16.8024 13.6309C16.3492 13.6772 15.9104 13.8142 15.5127 14.0336H15.3886C14.5102 14.4784 13.5971 14.853 12.6581 15.1537C11.9031 15.3382 11.1305 15.4437 10.3531 15.4687C9.81306 15.4873 9.2725 15.4521 8.7396 15.3637C8.32054 15.3389 7.90787 15.2503 7.51618 15.1012C7.05985 14.923 6.62561 14.694 6.22186 14.4186H6.11548L5.86725 14.2611C4.25376 15.7488 7.44528 17.2539 8.66869 17.5514C10.1449 17.8036 11.6637 17.6147 13.0304 17.0089C13.8834 16.7056 14.6329 16.1719 15.1936 15.4687C16.5234 16.8864 16.2219 19.7391 15.8319 21.4018C15.6191 22.3819 15.0163 23.467 15.7078 24.3946C16.0801 24.8847 16.8957 25.1822 17.3212 24.6746C17.3304 24.6343 17.3304 24.5925 17.3212 24.5521C17.331 24.5118 17.331 24.4699 17.3212 24.4296C17.9264 21.7853 17.9927 19.0486 17.5163 16.3788C17.3694 15.8968 17.1672 15.4328 16.9134 14.9962C17.2942 15.1447 17.6387 15.3714 17.9241 15.6612C18.3139 16.1254 18.6198 16.6523 18.8283 17.2189C19.2763 18.3905 19.4461 19.6478 19.3248 20.8943C19.3248 21.5768 19.2184 22.6444 20.0695 22.942C20.495 23.082 20.7964 22.7669 20.956 22.4169C20.9829 22.4025 21.0063 22.3825 21.0247 22.3584C21.043 22.3342 21.0559 22.3064 21.0624 22.2769C21.6655 19.9775 21.3413 17.5369 20.1581 15.4687Z" fill="url(#paint8_radial_0_1)"/>
<path style="mix-blend-mode:multiply" d="M21.8041 6.85778C21.8792 6.94108 21.9725 7.00641 22.077 7.04886C22.1814 7.09131 22.2943 7.10976 22.407 7.1028H22.4956C22.5841 7.0037 22.633 6.87613 22.633 6.74402C22.633 6.61191 22.5841 6.48433 22.4956 6.38523C22.2146 5.86469 21.7652 5.45191 21.2191 5.21262C20.4075 5.05474 19.6245 4.77745 18.8963 4.39004C18.6107 4.16633 18.2488 4.05979 17.8857 4.09251C17.8393 4.07984 17.7902 4.07984 17.7438 4.09251C16.8177 4.32766 15.8628 4.43368 14.9069 4.40753C14.1076 4.17998 13.2594 4.17998 12.4601 4.40753C12.1312 4.53158 11.8113 4.67778 11.5027 4.84507C10.9828 5.06271 10.4125 5.13537 9.85372 5.05511C8.94499 4.92197 8.01752 4.99377 7.14093 5.26512C6.75596 5.52297 6.29206 5.64054 5.82886 5.59766L4.41042 5.35264C3.4999 5.21163 2.57268 5.21163 1.66216 5.35264C1.14494 5.4669 0.660232 5.69417 0.243709 6.01771C0.128234 6.10981 0.0478294 6.23785 0.0156235 6.3809C-0.0165823 6.52396 0.00131818 6.67357 0.0664054 6.80528C0.0664054 6.9803 0.456484 7.24281 1.04159 7.50534C1.4396 7.6634 1.85686 7.76933 2.28273 7.82038C3.49201 8.02168 4.73077 7.96798 5.91752 7.66284C5.89829 7.72561 5.89829 7.79259 5.91752 7.85536C6.32626 8.30906 6.89949 8.5857 7.51326 8.62544C8.17637 8.78836 8.87573 8.72674 9.49911 8.45044C10.2615 8.0304 9.80053 7.43534 9.30407 7.0503C10.421 6.57549 11.6578 6.44729 12.8502 6.68275C13.9569 6.84124 15.0843 6.59877 16.024 6.00019C16.024 6.00019 16.3786 6.0002 16.68 6.22772C16.9569 6.46904 17.2836 6.64819 17.6375 6.75278C18.0987 6.808 18.5635 6.68232 18.9318 6.40275C19.1196 6.20622 19.3704 6.07971 19.6417 6.04463C19.9131 6.00955 20.1884 6.06805 20.4212 6.21023C20.7037 6.32909 20.9764 6.46951 21.2368 6.63025L21.8041 6.85778Z" fill="url(#paint9_linear_0_1)"/>
<g style="mix-blend-mode:multiply">
<path d="M20.1581 15.4687C19.9581 15.0647 19.6767 14.7052 19.3311 14.4121C18.9856 14.1191 18.5831 13.8987 18.1483 13.7644C17.7135 13.63 17.2556 13.5846 16.8024 13.6309C16.3492 13.6772 15.9104 13.8142 15.5127 14.0336H15.3886C14.5102 14.4784 13.5971 14.853 12.6581 15.1537C11.9031 15.3382 11.1305 15.4437 10.3531 15.4687C9.81306 15.4873 9.2725 15.4521 8.7396 15.3637C8.32054 15.3389 7.90787 15.2503 7.51618 15.1012C7.05985 14.923 6.62561 14.694 6.22186 14.4186H6.11548L5.86725 14.2611C4.25376 15.7488 7.44528 17.2539 8.66869 17.5514C10.1449 17.8036 11.6637 17.6147 13.0304 17.0089C13.8834 16.7056 14.6329 16.1719 15.1936 15.4687C16.5234 16.8864 16.2219 19.7391 15.8319 21.4018C15.6191 22.3819 15.0163 23.467 15.7078 24.3946C16.0801 24.8847 16.8957 25.1822 17.3212 24.6746C17.3304 24.6343 17.3304 24.5925 17.3212 24.5521C17.331 24.5118 17.331 24.4699 17.3212 24.4296C17.9264 21.7853 17.9927 19.0486 17.5163 16.3788C17.3694 15.8968 17.1672 15.4328 16.9134 14.9962C17.2942 15.1447 17.6387 15.3714 17.9241 15.6612C18.3139 16.1254 18.6198 16.6523 18.8283 17.2189C19.2763 18.3905 19.4461 19.6478 19.3248 20.8943C19.3248 21.5768 19.2184 22.6444 20.0695 22.942C20.495 23.082 20.7964 22.7669 20.956 22.4169C20.9829 22.4025 21.0063 22.3825 21.0247 22.3584C21.043 22.3342 21.0559 22.3064 21.0624 22.2769C21.6655 19.9775 21.3413 17.5369 20.1581 15.4687ZM10.0871 16.0113C10.4945 16.0364 10.9031 16.0364 11.3105 16.0113C11.395 16.2347 11.5505 16.425 11.7538 16.5538C11.9812 16.7252 12.2681 16.8008 12.5517 16.7639C12.0441 16.9373 11.522 17.0661 10.9914 17.1489C10.4418 16.9039 9.82116 16.6939 9.64386 16.0813L10.0871 16.0113ZM8.06583 15.7837C8.05646 16.0068 8.09418 16.2294 8.17659 16.4373C8.25901 16.6452 8.38432 16.8338 8.54457 16.9914C8.17939 16.8862 7.8236 16.7515 7.48074 16.5888C7.30965 16.441 7.16043 16.2701 7.03748 16.0813C6.94069 15.8735 6.90385 15.6434 6.93107 15.4162C7.29623 15.5589 7.67708 15.6588 8.06583 15.7138V15.7837ZM6.02682 14.6461C6.23795 14.9022 6.49675 15.1161 6.78925 15.2762C6.72175 15.4522 6.70423 15.643 6.7386 15.8281C6.77298 16.0132 6.85791 16.1854 6.98426 16.3263C6.63398 16.2027 6.34242 15.9555 6.16566 15.6324C5.9889 15.3093 5.93944 14.9331 6.02682 14.5762V14.6461ZM9.12968 17.0964C8.92182 16.9759 8.73104 16.8288 8.56231 16.6588C8.37068 16.4064 8.24301 16.1123 8.18996 15.8013C8.62035 15.9024 9.05988 15.961 9.50203 15.9763C9.50203 16.6413 10.0694 17.0089 10.6722 17.1139C10.1564 17.1468 9.63834 17.1174 9.12968 17.0264V17.0964ZM12.5694 16.6764C12.5694 16.6764 12.5694 16.6763 12.5694 16.5888C12.5694 16.5013 12.1084 16.4663 11.8957 16.3613C11.706 16.2446 11.5381 16.0966 11.3992 15.9238C11.8486 15.8699 12.2932 15.7821 12.729 15.6612C12.862 15.8191 13.0371 15.9372 13.2345 16.0021C13.4318 16.067 13.6436 16.0763 13.846 16.0288C13.4506 16.2805 13.0207 16.4749 12.5694 16.6063V16.6764ZM14.2006 15.7663C13.9851 15.8402 13.7556 15.866 13.5287 15.8418C13.3018 15.8175 13.0832 15.7439 12.8886 15.6262C13.5998 15.4438 14.2806 15.1609 14.9099 14.7862C14.7319 15.1299 14.4915 15.4383 14.2006 15.6963V15.7663ZM20.7433 20.5442C20.6381 21.0539 20.3481 21.5083 19.9276 21.8219C19.9101 21.5947 19.9101 21.3665 19.9276 21.1393V20.8943C20.3032 20.632 20.5929 20.2669 20.761 19.8442C20.7687 19.8096 20.7687 19.7737 20.761 19.7391C20.8496 19.9317 20.8496 20.2117 20.7433 20.4742V20.5442ZM19.9454 19.6516V19.2666C20.3395 18.7582 20.5848 18.1529 20.6546 17.5164C20.757 17.9116 20.8164 18.3164 20.8319 18.724C20.7976 19.1429 20.6704 19.5491 20.4596 19.9141C20.3354 20.1592 20.1227 20.3342 19.9808 20.5617C19.9454 20.2117 19.9454 19.8967 19.9454 19.5816V19.6516ZM20.2822 16.6764C20.4153 17.1338 20.4153 17.619 20.2822 18.0765C20.1752 18.3693 20.0386 18.6508 19.8744 18.9166C19.8182 18.4874 19.7172 18.0651 19.573 17.6564C19.8425 17.1131 19.9646 16.5101 19.9276 15.9063L20.1404 16.2563L20.2822 16.6764ZM15.2999 15.1887C15.4101 14.9576 15.4762 14.7084 15.495 14.4536C15.6352 14.4577 15.7735 14.4873 15.9028 14.5411C16.0303 14.7706 16.08 15.0343 16.0446 15.2937C16.0531 15.4628 16.0531 15.6322 16.0446 15.8013C15.9828 15.6382 15.8833 15.4916 15.754 15.3731C15.6248 15.2546 15.4693 15.1675 15.2999 15.1187V15.1887ZM16.0801 16.0113C16.1802 15.7973 16.2321 15.5644 16.2321 15.3287C16.2321 15.093 16.1802 14.8601 16.0801 14.6461C16.4439 15.0052 16.7067 15.4515 16.8425 15.9413C16.8349 16.2239 16.7748 16.5027 16.6652 16.7639C16.5472 16.9531 16.4463 17.1522 16.3638 17.3589C16.331 16.8763 16.2357 16.3999 16.0801 15.9413V16.0113ZM17.3744 18.059C17.3921 18.3854 17.3921 18.7126 17.3744 19.0391C17.2771 19.7126 16.9448 20.3316 16.4347 20.7892C16.5177 20.2449 16.5474 19.694 16.5234 19.1441C16.8645 18.8121 17.1304 18.4124 17.3035 17.9715L17.3744 18.059ZM16.9312 18.304L16.5588 18.9341C16.5588 18.759 16.5588 18.584 16.5588 18.409C16.5588 18.234 16.5588 17.919 16.5588 17.6039C16.8897 17.2784 17.1017 16.8536 17.1617 16.3963C17.2563 16.7305 17.3332 17.0693 17.3922 17.4114C17.2723 17.7028 17.1175 17.979 16.9312 18.234V18.304ZM16.417 21.2443C16.4097 21.1686 16.4097 21.0924 16.417 21.0168C16.8492 20.7338 17.1882 20.3323 17.3922 19.8616C17.3922 20.2292 17.3922 20.5967 17.3922 20.9468C17.2951 21.3024 17.0984 21.6239 16.8248 21.8744C16.5697 22.0821 16.327 22.3041 16.0978 22.5394C16.1688 22.0494 16.3106 21.6118 16.417 21.1743V21.2443ZM15.9737 22.9945C15.9652 22.9247 15.9652 22.8542 15.9737 22.7844C16.4692 22.5817 16.8942 22.2412 17.1971 21.8043L17.0907 22.6444C16.9684 22.9786 16.7749 23.2829 16.5234 23.537C16.3582 23.6862 16.1803 23.8209 15.9914 23.9395C15.8812 23.5868 15.8751 23.2105 15.9737 22.8544V22.9945ZM16.1333 24.1496C16.3891 24.0251 16.6179 23.8527 16.8071 23.642C16.9055 23.537 16.989 23.4193 17.0553 23.292C17.0553 23.6595 16.9489 24.0271 16.9134 24.3946C16.7582 24.4446 16.5893 24.4323 16.4433 24.3602C16.2972 24.2881 16.1859 24.1621 16.1333 24.0096V24.1496ZM16.7716 14.7862C16.6028 14.5185 16.3639 14.3008 16.0801 14.1561L16.8957 14.0511C17.1403 14.1536 17.3585 14.3091 17.534 14.5061C17.6936 14.6986 17.8177 14.9087 17.9595 15.1012C17.8159 14.9332 17.6319 14.8036 17.4244 14.7241C17.2168 14.6446 16.9924 14.6178 16.7716 14.6461V14.7862ZM18.1546 15.2762C18.0427 14.8296 17.7878 14.4306 17.4276 14.1386C17.667 14.1763 17.8997 14.247 18.1191 14.3486L18.3142 14.4536C18.7652 15.0066 18.9926 15.705 18.9524 16.4138C18.7538 15.9504 18.4847 15.5196 18.1546 15.1362V15.2762ZM19.3425 17.1489L19.0766 16.5713C19.1792 16.2141 19.1841 15.8363 19.0906 15.4766C18.9972 15.1169 18.8088 14.7881 18.5446 14.5236C18.9208 14.7898 19.2502 15.1149 19.5198 15.4862C19.7684 16.2008 19.7684 16.9769 19.5198 17.6915C19.4772 17.4601 19.418 17.232 19.3425 17.0089V17.1489ZM20.6191 22.1719C20.5127 22.4519 20.3 22.4169 19.9631 22.0669C20.2572 21.9076 20.5069 21.6791 20.6901 21.4018V22.1194L20.6191 22.1719Z" fill="#620800"/>
</g>
<path style="mix-blend-mode:screen" d="M6.53787 15.3295C7.46144 15.8131 8.48896 16.0712 9.53435 16.0821C11.1843 16.1306 12.8248 15.8199 14.3394 15.172C12.9689 16.1374 11.3033 16.6071 9.62301 16.5021C7.0698 16.5021 6.53787 15.3295 6.53787 15.3295Z" fill="url(#paint10_radial_0_1)"/>
<path style="mix-blend-mode:screen" d="M15.7973 14.6472C15.7973 14.6472 17.4285 15.6973 17.2512 19.2676C17.3251 20.8848 16.9964 22.4953 16.2937 23.9581C16.8386 21.9516 17.0009 19.8625 16.7725 17.7975C16.2937 15.0497 15.7973 14.6472 15.7973 14.6472Z" fill="url(#paint11_radial_0_1)"/>
<path style="mix-blend-mode:screen" d="M17.3009 14.244C17.3009 14.244 18.152 13.8764 19.3222 15.2066C19.9595 16.1411 20.3777 17.204 20.5464 18.3182C20.7151 19.4323 20.63 20.5695 20.2974 21.6471C20.5688 19.5877 20.1847 17.4959 19.1981 15.6616C17.6555 13.5439 17.3009 14.244 17.3009 14.244Z" fill="url(#paint12_radial_0_1)"/>
<path d="M29.0205 5.42906C30.4699 3.83828 29.4816 2.6052 27.6652 1.55096C26.4322 0.816761 25.6699 1.38153 24.8417 2.38871C23.797 3.72533 22.6487 5.28787 21.9146 6.38917C20.7476 5.09961 19.5052 3.85711 18.2535 2.62403C17.6417 2.02161 16.9358 1.22151 16.0041 1.31564C14.6676 1.43801 12.757 3.57473 13.1806 4.9396C13.4817 5.88089 14.5923 6.60568 15.27 7.18927L18.0935 9.6272L16.1547 11.858C15.5147 12.6017 14.2723 13.0347 14.0747 14.0136C13.8206 15.162 15.5053 16.2915 16.39 16.6021C17.9147 17.1575 18.4982 16.3103 19.4582 15.3032C20.2676 14.4466 21.124 13.6371 21.9805 12.8182C23.5554 13.6402 25.124 14.4685 26.6864 15.3032C28.1546 16.0656 28.9075 15.162 27.7311 13.5618C26.5546 11.9616 25.717 11.1803 24.5781 9.79663C26.2628 8.00818 27.8063 6.76568 29.0205 5.42906Z" fill="#5D0700"/>
<path d="M28.4451 4.8735C29.838 3.33921 29.1227 2.34144 27.3721 1.29661C27.1416 1.13742 26.8807 1.02738 26.6058 0.97332C26.3309 0.919259 26.0478 0.922333 25.7742 0.982369C25.5005 1.0424 25.2422 1.15812 25.0151 1.32229C24.7881 1.48647 24.5973 1.6956 24.4545 1.9367C23.4474 3.22626 22.3369 4.76054 21.631 5.79596C20.511 4.55346 19.3157 3.35803 18.111 2.19083C17.5181 1.61665 16.8404 0.844798 15.9369 0.929513C14.6475 1.05188 12.9063 3.24508 13.3393 4.55347C13.631 5.42886 14.6099 6.0407 15.2216 6.59605C16.1628 7.38673 17.104 8.17741 17.9887 8.95867C17.3581 9.67405 16.7369 10.3894 16.1063 11.1142C15.4757 11.839 14.3652 12.7615 14.1675 13.7028C13.9228 14.8135 15.2687 15.5853 16.1251 15.8677C17.5934 16.4042 18.3651 15.4065 19.2875 14.4275C20.0686 13.5992 20.8969 12.8179 21.7157 12.0367C23.231 12.8274 24.7368 13.618 26.2427 14.4275C27.7486 15.237 28.558 14.7946 27.4286 13.2509C26.2992 11.7072 25.3015 10.4271 24.2098 9.08105C25.791 7.35849 27.2686 6.17247 28.4451 4.8735Z" fill="url(#paint13_radial_0_1)"/>
<path style="mix-blend-mode:multiply" opacity="0.8" d="M28.4451 4.8735C29.838 3.33921 29.1227 2.34144 27.3721 1.29661C27.1416 1.13742 26.8807 1.02738 26.6058 0.97332C26.3309 0.919259 26.0478 0.922333 25.7742 0.982369C25.5005 1.0424 25.2422 1.15812 25.0151 1.32229C24.7881 1.48647 24.5973 1.6956 24.4545 1.9367C23.4474 3.22626 22.3369 4.76054 21.631 5.79596C20.511 4.55346 19.3157 3.35803 18.111 2.19083C17.5181 1.61665 16.8404 0.844798 15.9369 0.929513C14.6475 1.05188 12.9063 3.24508 13.3393 4.55347C13.631 5.42886 14.6099 6.0407 15.2216 6.59605C16.1628 7.38673 17.104 8.17741 17.9887 8.95867C17.3581 9.67405 16.7369 10.3894 16.1063 11.1142C15.4757 11.839 14.3652 12.7615 14.1675 13.7028C13.9228 14.8135 15.2687 15.5853 16.1251 15.8677C17.5934 16.4042 18.3651 15.4065 19.2875 14.4275C20.0686 13.5992 20.8969 12.8179 21.7157 12.0367C23.231 12.8274 24.7368 13.618 26.2427 14.4275C27.7486 15.237 28.558 14.7946 27.4286 13.2509C26.2992 11.7072 25.3015 10.4271 24.2098 9.08105C25.791 7.35849 27.2686 6.17247 28.4451 4.8735ZM23.7392 8.9775C23.5792 9.14694 26.2898 12.112 26.6286 12.5356C26.7227 12.6485 28.4168 14.7946 27.4192 14.5217C25.9246 13.9328 24.493 13.1949 23.1463 12.3191C22.5439 11.9802 21.8192 11.6037 21.8192 11.6037C21.8192 11.6037 21.4427 11.9237 21.1698 12.1779C20.4545 12.8179 19.7298 13.4486 19.0428 14.1263C18.3557 14.8041 17.791 15.6983 16.8498 15.5006C16.1077 15.3376 15.4435 14.9258 14.9675 14.3334C14.5534 13.618 15.664 12.7238 16.0875 12.2438C17.0287 11.1236 17.8569 10.107 18.8357 8.98691C17.311 7.50909 16.0122 6.3419 14.4028 4.95821C13.0005 3.73454 15.4475 0.618898 16.991 1.6449C18.7134 2.78385 20.2192 4.86409 21.6969 6.35133C22.7206 4.82096 23.8265 3.34726 25.0098 1.9367C25.1896 1.72646 25.4221 1.56774 25.6833 1.47678C25.9446 1.38582 26.2253 1.36588 26.4968 1.41899C27.8804 1.69196 29.4333 3.15095 28.6992 3.93222C28.2109 4.63323 27.6318 5.26629 26.9768 5.81479L23.7392 8.9775Z" fill="url(#paint14_radial_0_1)"/>
<path style="mix-blend-mode:screen" d="M25.0672 1.92743C24.1261 2.97226 23.3543 4.04533 23.6461 4.34654C23.9378 4.64775 24.0319 5.15605 24.8319 4.02651C25.6319 2.89696 26.3566 2.00274 26.0743 1.67329C25.7919 1.34385 25.3684 1.59798 25.0672 1.92743Z" fill="url(#paint15_linear_0_1)"/>
<path style="mix-blend-mode:screen" d="M23.7381 5.30692C23.7623 5.22969 23.7705 5.14831 23.7621 5.06781C23.7536 4.98731 23.7288 4.90938 23.6891 4.83883C23.6495 4.76829 23.5958 4.70662 23.5313 4.65761C23.4669 4.60861 23.3932 4.57331 23.3146 4.55389C22.524 4.45976 22.7029 5.79638 23.3146 5.69284C23.4178 5.6841 23.5153 5.64155 23.5919 5.57177C23.6684 5.502 23.7199 5.4089 23.7381 5.30692Z" fill="url(#paint16_linear_0_1)"/>
<path style="mix-blend-mode:screen" d="M19.4662 4.18676C18.732 3.46197 17.2544 1.69235 16.7179 1.53233C15.7768 1.24995 14.9956 1.99356 14.4497 2.63363C14.0638 3.07604 13.8003 4.67623 14.4497 4.215C14.9615 3.95051 15.5272 3.80703 16.1032 3.7956C16.6792 3.78418 17.2502 3.90512 17.7721 4.1491C18.7791 4.70446 23.165 7.86719 19.4662 4.18676Z" fill="url(#paint17_linear_0_1)"/>
<path style="mix-blend-mode:screen" opacity="0.7" d="M15.5899 14.0511C15.865 14.2996 16.1842 14.4944 16.5311 14.6252C17.0958 14.8041 17.7076 14.7382 18.5923 13.9193C25.1804 7.79153 19.3546 14.051 18.7052 14.5499C18.0558 15.0488 17.4252 16.0466 15.6464 14.8511C14.7146 14.2205 14.517 13.1098 15.5899 14.0511Z" fill="url(#paint18_radial_0_1)"/>
<path style="mix-blend-mode:screen" opacity="0.7" d="M27.2019 13.477C26.8442 12.9875 26.2607 12.4792 26.976 13.4205C27.6913 14.3618 26.976 14.1359 26.5148 13.8817C26.0536 13.6276 23.3525 11.9992 22.4113 11.4532C21.7054 11.0203 21.7337 11.5285 22.5901 12.0462C24.0888 12.998 25.6627 13.826 27.296 14.5218C28.2089 14.7571 27.5783 13.957 27.2019 13.477Z" fill="url(#paint19_radial_0_1)"/>
</g>
<defs>
<filter id="filter0_d_0_1" x="-27" y="-17" width="308" height="88" filterUnits="userSpaceOnUse" color-interpolation-filters="sRGB">
<feFlood flood-opacity="0" result="BackgroundImageFix"/>
<feColorMatrix in="SourceAlpha" type="matrix" values="0 0 0 0 0 0 0 0 0 0 0 0 0 0 0 0 0 0 127 0" result="hardAlpha"/>
<feOffset dy="4"/>
<feGaussianBlur stdDeviation="2"/>
<feComposite in2="hardAlpha" operator="out"/>
<feColorMatrix type="matrix" values="0 0 0 0 0 0 0 0 0 0 0 0 0 0 0 0 0 0 0.25 0"/>
<feBlend mode="normal" in2="BackgroundImageFix" result="effect1_dropShadow_0_1"/>
<feBlend mode="normal" in="SourceGraphic" in2="effect1_dropShadow_0_1" result="shape"/>
</filter>
<linearGradient id="paint0_linear_0_1" x1="2871.84" y1="2435.42" x2="3021.03" y2="2333.35" gradientUnits="userSpaceOnUse">
<stop offset="0.1" stop-color="#D3975B"/>
<stop offset="0.27" stop-color="#EDC383"/>
<stop offset="0.41" stop-color="#FFE3BA"/>
<stop offset="0.49" stop-color="#FEE4BD"/>
<stop offset="0.56" stop-color="#FBE6C7"/>
<stop offset="0.6" stop-color="#F8E9D4"/>
<stop offset="0.76" stop-color="#F7E0C1"/>
<stop offset="0.81" stop-color="#F5D6A9"/>
<stop offset="0.85" stop-color="#F4D099"/>
<stop offset="1" stop-color="#EDC383"/>
</linearGradient>
<linearGradient id="paint1_linear_0_1" x1="13.4733" y1="7.59406" x2="18.3936" y2="12.3659" gradientUnits="userSpaceOnUse">
<stop offset="0.09" stop-color="#EDC383"/>
<stop offset="1" stop-color="#B2845B"/>
</linearGradient>
<linearGradient id="paint2_linear_0_1" x1="11.2898" y1="6.07043" x2="11.5663" y2="14.454" gradientUnits="userSpaceOnUse">
<stop offset="0.09" stop-color="#F6E3C8"/>
<stop offset="0.54" stop-color="#EDC383"/>
<stop offset="1" stop-color="#B2845B"/>
</linearGradient>
<linearGradient id="paint3_linear_0_1" x1="1421.07" y1="1905.23" x2="1422.37" y2="1950.56" gradientUnits="userSpaceOnUse">
<stop offset="0.09" stop-color="#EDC383"/>
<stop offset="1" stop-color="#B2845B"/>
</linearGradient>
<linearGradient id="paint4_linear_0_1" x1="1173.92" y1="1841.08" x2="1175.58" y2="1885.01" gradientUnits="userSpaceOnUse">
<stop offset="0.09" stop-color="#EDC383"/>
<stop offset="1" stop-color="#B2845B"/>
</linearGradient>
<radialGradient id="paint5_radial_0_1" cx="0" cy="0" r="1" gradientUnits="userSpaceOnUse" gradientTransform="translate(13.1555 24.7337) scale(11.7374 12.5535)">
<stop stop-color="#F8E9D4"/>
<stop offset="0.18" stop-color="#FDE5C1"/>
<stop offset="0.31" stop-color="#FFE3BA"/>
<stop offset="0.67" stop-color="#EDC383"/>
<stop offset="0.9" stop-color="#D3975B"/>
</radialGradient>
<radialGradient id="paint6_radial_0_1" cx="0" cy="0" r="1" gradientUnits="userSpaceOnUse" gradientTransform="translate(13.1555 24.7337) scale(11.7374 12.5535)">
<stop offset="0.38" stop-color="#F6E3C8"/>
<stop offset="0.5" stop-color="#EDC383"/>
<stop offset="0.66" stop-color="#B2845B"/>
</radialGradient>
<radialGradient id="paint7_radial_0_1" cx="0" cy="0" r="1" gradientUnits="userSpaceOnUse" gradientTransform="translate(13.1555 27.0292) scale(9.80908 10.4912)">
<stop offset="0.52" stop-color="#F6E3C8"/>
<stop offset="0.76" stop-color="#EDC383"/>
<stop offset="1" stop-color="#B2845B"/>
</radialGradient>
<radialGradient id="paint8_radial_0_1" cx="0" cy="0" r="1" gradientUnits="userSpaceOnUse" gradientTransform="translate(13.2719 15.5034) scale(9.68819 9.65779)">
<stop offset="0.09" stop-color="#FFFB52"/>
<stop offset="0.61" stop-color="#DEA337"/>
<stop offset="1" stop-color="#826C00"/>
</radialGradient>
<linearGradient id="paint9_linear_0_1" x1="10.953" y1="3.67247" x2="11.5925" y2="8.24272" gradientUnits="userSpaceOnUse">
<stop offset="0.09" stop-color="#EDC383"/>
<stop offset="0.36" stop-color="#B2845B"/>
<stop offset="0.99" stop-color="#493000"/>
</linearGradient>
<radialGradient id="paint10_radial_0_1" cx="0" cy="0" r="1" gradientUnits="userSpaceOnUse" gradientTransform="translate(1052.71 296.725) scale(12.292 2.13949)">
<stop offset="0.15" stop-color="white"/>
<stop offset="1" stop-color="#FFFB62"/>
</radialGradient>
<radialGradient id="paint11_radial_0_1" cx="0" cy="0" r="1" gradientUnits="userSpaceOnUse" gradientTransform="translate(214.899 1987.77) scale(2.75668 17.6647)">
<stop offset="0.15" stop-color="white"/>
<stop offset="1" stop-color="#FFFB62"/>
</radialGradient>
<radialGradient id="paint12_radial_0_1" cx="0" cy="0" r="1" gradientUnits="userSpaceOnUse" gradientTransform="translate(478.031 1600.25) scale(5.4483 12.4163)">
<stop offset="0.15" stop-color="white"/>
<stop offset="1" stop-color="#FFFB62"/>
</radialGradient>
<radialGradient id="paint13_radial_0_1" cx="0" cy="0" r="1" gradientUnits="userSpaceOnUse" gradientTransform="translate(1513.93 2791.63) scale(171.437 164.285)">
<stop stop-color="#F17C75"/>
<stop offset="0.34" stop-color="#F22300"/>
<stop offset="0.44" stop-color="#ED2200"/>
<stop offset="0.54" stop-color="#E02000"/>
<stop offset="0.66" stop-color="#C91C00"/>
<stop offset="0.77" stop-color="#A91600"/>
<stop offset="0.88" stop-color="#830F00"/>
</radialGradient>
<radialGradient id="paint14_radial_0_1" cx="0" cy="0" r="1" gradientUnits="userSpaceOnUse" gradientTransform="translate(21.3399 7.82612) scale(7.70922 7.7865)">
<stop offset="0.11" stop-color="#C21A00"/>
<stop offset="0.79" stop-color="#830F00"/>
</radialGradient>
<linearGradient id="paint15_linear_0_1" x1="24.3722" y1="2.64729" x2="25.7179" y2="3.75582" gradientUnits="userSpaceOnUse">
<stop stop-color="#FFF6FF"/>
<stop offset="0.13" stop-color="#FCD9B5"/>
<stop offset="0.64" stop-color="#E12100"/>
</linearGradient>
<linearGradient id="paint16_linear_0_1" x1="100.795" y1="382.723" x2="103.059" y2="383.763" gradientUnits="userSpaceOnUse">
<stop stop-color="#FFF6FF"/>
<stop offset="0.13" stop-color="#FCD9B5"/>
<stop offset="0.64" stop-color="#E12100"/>
</linearGradient>
<linearGradient id="paint17_linear_0_1" x1="18.6275" y1="0.156363" x2="18.0896" y2="3.74989" gradientUnits="userSpaceOnUse">
<stop stop-color="#FFF6FF"/>
<stop offset="0.13" stop-color="#FCD9B5"/>
<stop offset="0.92" stop-color="#E12100"/>
</linearGradient>
<radialGradient id="paint18_radial_0_1" cx="0" cy="0" r="1" gradientUnits="userSpaceOnUse" gradientTransform="translate(160.774 1554.99) rotate(14.8603) scale(34.8779 21.4635)">
<stop offset="0.04" stop-color="#FFF6FF"/>
<stop offset="0.17" stop-color="#FCD9B5"/>
<stop offset="0.95" stop-color="#E12100"/>
</radialGradient>
<radialGradient id="paint19_radial_0_1" cx="0" cy="0" r="1" gradientUnits="userSpaceOnUse" gradientTransform="translate(596.723 636.732) scale(22.6468 12.7909)">
<stop offset="0.04" stop-color="#FFF6FF"/>
<stop offset="0.17" stop-color="#FCD9B5"/>
<stop offset="0.95" stop-color="#E12100"/>
</radialGradient>
</defs>
</svg>
