<svg width="68" height="68" viewBox="0 0 68 68" fill="none" xmlns="http://www.w3.org/2000/svg">
<path d="M17.8176 54.8103C17.7973 54.7558 17.7724 54.7031 17.7434 54.6527L17.6586 54.5056C16.5987 52.7613 13.9914 52.7087 12.9421 52.9609C11.7584 53.3313 10.7138 54.0448 9.94305 55.0094C9.17227 55.974 8.71068 57.1454 8.61784 58.3726C8.25748 60.9786 9.22197 62.5758 11.4689 63.2273C11.8965 63.296 12.3288 63.3311 12.7619 63.3324C13.4835 63.3874 14.2082 63.2796 14.8817 63.0172C15.8517 62.5125 16.6801 61.7768 17.2924 60.8763C17.9047 59.9757 18.2819 58.9385 18.3899 57.8577C18.583 56.8067 18.3793 55.722 17.8176 54.8103Z" fill="#3E4448"/>
<path d="M14.9668 57.585C14.7336 59.3083 15.5815 60.9581 14.4686 61.7882C13.6304 61.9974 12.7587 62.0402 11.9037 61.9143C10.2715 61.4625 9.47661 60.4117 9.78397 58.1945C9.83821 57.2241 10.1856 56.2923 10.781 55.5202C11.3764 54.7481 12.1923 54.1715 13.1226 53.8651C13.9811 53.655 16.0902 53.7811 16.7474 55.0526C17.0865 55.7566 15.1257 56.3766 14.9668 57.585Z" fill="#C37332"/>
<path d="M16.7363 55.084C16.5049 54.7569 16.154 54.5322 15.7582 54.4576C15.3623 54.383 14.9527 54.4645 14.6165 54.6847C13.7703 55.2458 13.0815 56.0105 12.6144 56.9073C12.1473 57.8041 11.9172 58.8037 11.9456 59.8126C11.9337 60.2984 12.0919 60.7733 12.3933 61.1565C12.6948 61.5397 13.1209 61.8075 13.599 61.9142C13.599 61.9142 11.988 61.0631 12.8147 58.4676C13.6414 55.8721 14.5953 54.3379 16.7363 55.084Z" fill="#F99D42"/>
<path d="M17.2453 57.6377C16.9803 59.6027 15.6873 61.4836 14.3518 61.8409C13.0164 62.1982 12.1579 60.9372 12.4229 58.9827C12.6878 57.0282 13.9809 55.1367 15.3057 54.7795C16.6306 54.4222 17.5209 55.6832 17.2453 57.6377Z" fill="#C37332"/>
<path d="M16.2913 57.9314C16.2439 58.4482 16.059 58.9433 15.7555 59.366C15.452 59.7888 15.0407 60.1241 14.5637 60.3377C13.7688 60.5479 13.2388 59.8123 13.3872 58.6985C13.4377 58.1812 13.6251 57.6863 13.9303 57.2638C14.2355 56.8413 14.6477 56.5061 15.1254 56.2921C15.9203 56.082 16.4397 56.8175 16.2913 57.9314Z" fill="#3E4448"/>
<path d="M16.1109 58.0265C16.077 58.409 15.9454 58.7767 15.7284 59.0947C15.5115 59.4128 15.2163 59.6708 14.8708 59.8444C14.2985 60.002 13.9275 59.4451 14.0441 58.6044C14.0777 58.2232 14.2094 57.8569 14.4265 57.5404C14.6436 57.224 14.9389 56.9681 15.2842 56.797C15.8565 56.6394 16.1851 57.1963 16.1109 58.0265Z" fill="#75888C"/>
<path d="M15.9526 57.5537C15.9824 57.7474 15.9621 57.9455 15.8935 58.1293C15.8249 58.3131 15.7103 58.4766 15.5604 58.6045C15.2849 58.7726 14.9987 58.6045 14.9351 58.1211C14.9008 57.9282 14.918 57.7297 14.985 57.5454C15.0519 57.3611 15.1662 57.1973 15.3166 57.0703C15.5922 56.9022 15.8784 57.1123 15.9526 57.5537Z" fill="#899EA2"/>
<path d="M15.8988 57.49C15.9239 57.6109 15.9155 57.7363 15.8744 57.8529C15.8334 57.9695 15.7612 58.0728 15.6656 58.152C15.4961 58.2571 15.3265 58.152 15.2841 57.8683C15.2601 57.7473 15.2691 57.6222 15.3101 57.5059C15.3511 57.3895 15.4226 57.2861 15.5173 57.2062C15.6868 57.0907 15.8564 57.2168 15.8988 57.49Z" fill="#C5D9DB"/>
<path d="M14.6064 61.7669C14.6064 61.7669 13.7161 62.3028 12.5926 61.21C11.4691 60.1171 12.3064 57.6057 12.3064 57.6057C11.8538 58.5658 11.6777 59.6314 11.7977 60.6846C11.9021 61.1366 12.1405 61.5474 12.4825 61.8639C12.8244 62.1804 13.254 62.3882 13.7161 62.4604L14.6064 61.7669Z" fill="#3E4448"/>
<path d="M12.8682 61.9558H12.5715C12.153 61.6972 11.8097 61.335 11.5752 60.9049C11.4048 60.6093 11.3068 60.2782 11.289 59.9382C11.2022 60.308 11.2022 60.6927 11.289 61.0626C11.3479 61.4764 11.564 61.8523 11.8931 62.1134C12.2217 62.0853 12.5477 62.0326 12.8682 61.9558Z" fill="#3E4448"/>
<path d="M11.6597 62.3133V61.8405C11.4725 61.6834 11.2988 61.5112 11.1404 61.3256C10.9814 61.0944 10.9072 61.0629 10.9072 61.0629C10.9985 61.2601 11.0626 61.4687 11.098 61.6828C11.0556 61.914 11.6597 62.3133 11.6597 62.3133Z" fill="#3E4448"/>
<path d="M46.1696 50.1346C46.1632 49.7921 46.0466 49.4607 45.8369 49.1885C45.6272 48.9163 45.3353 48.7176 45.0037 48.6214H44.8447L29.0102 48.7055C28.722 48.6715 28.4298 48.6965 28.1517 48.7791L11.1937 51.7844L10.9075 51.8579C10.5602 52.0309 10.2786 52.3106 10.1048 52.6553C9.93096 53 9.87422 53.3911 9.94302 53.7704C9.94302 53.7704 10.3034 58.5306 11.9992 59.14L26.7739 64.3941C26.9848 64.469 27.2069 64.508 27.431 64.5097C27.7448 64.5091 28.0539 64.4334 28.3319 64.289L44.389 56.1768C45.8622 55.3886 46.2544 50.8702 46.1696 50.1346Z" fill="#3E4448"/>
<path d="M28.4909 49.9978L11.4693 53.0241C10.9288 53.2448 11.9462 57.6372 12.5292 57.8263L27.2932 63.0804C27.3731 63.1164 27.4599 63.135 27.5476 63.135C27.6354 63.135 27.7221 63.1164 27.802 63.0804L43.8591 54.9681C44.389 54.7054 45.2793 50.0924 44.707 49.9453L28.9043 49.9663C28.7667 49.9323 28.6216 49.9433 28.4909 49.9978Z" fill="#899EA2"/>
<path d="M28.5118 45.7525L11.8187 52.6773C11.6948 52.7264 11.5885 52.8112 11.5137 52.9208C11.4389 53.0304 11.3988 53.1597 11.3988 53.292C11.3988 53.4243 11.4389 53.5536 11.5137 53.6632C11.5885 53.7728 11.6948 53.8576 11.8187 53.9067L27.1975 59.3499C27.2799 59.3837 27.3681 59.4011 27.4572 59.4011C27.5463 59.4011 27.6346 59.3837 27.7169 59.3499L44.4417 50.9434C44.5633 50.8844 44.6635 50.7895 44.7286 50.6718C44.7937 50.5541 44.8206 50.4193 44.8055 50.2859C44.7904 50.1525 44.7341 50.027 44.6444 49.9265C44.5546 49.826 44.4357 49.7555 44.3039 49.7245L28.9039 45.7209C28.7729 45.6934 28.6366 45.7044 28.5118 45.7525Z" fill="#9EAEB4"/>
<path d="M44.8548 50.5445L27.7484 59.3082L27.5258 59.3818C27.5258 59.3818 27.2291 59.4448 27.2291 60.1384C27.2291 60.8319 27.1019 63.3539 27.7696 63.0176L43.8267 54.9054C44.2401 54.6952 44.8654 51.858 44.8548 50.5445Z" fill="#75888C"/>
<path d="M12.1792 54.0223C12.1792 54.0223 26.0742 59.2763 26.583 59.7387C27.0917 60.201 27.3461 62.6389 27.3461 62.6389C27.4654 61.4588 27.4902 60.2712 27.4203 59.0872C27.2507 58.7089 12.1792 54.0223 12.1792 54.0223Z" fill="#C5D9DB"/>
<path d="M16.1858 50.8701L28.9043 46.3831L40.563 48.6739L28.9043 45.7211C28.7698 45.6791 28.6255 45.6791 28.491 45.7211L16.1858 50.8701Z" fill="#C5D9DB"/>
<path d="M35.9094 59.4551C35.8908 59.405 35.8695 59.3559 35.8458 59.308L35.7504 59.1609C34.6905 57.406 32.0832 57.364 31.0445 57.6162C29.8605 57.9841 28.8147 58.6953 28.042 59.658C27.2694 60.6206 26.8053 61.7907 26.7097 63.0173C26.3599 65.6339 27.3244 67.2206 29.5713 67.8826C29.9989 67.9513 30.4312 67.9864 30.8644 67.9877C31.5867 68.0393 32.3115 67.928 32.9841 67.6619C33.9521 67.1575 34.7791 66.4232 35.3912 65.5248C36.0034 64.6263 36.3817 63.5916 36.4923 62.5129C36.6819 61.4573 36.4745 60.3693 35.9094 59.4551Z" fill="#3E4448"/>
<path d="M33.0688 62.2403C32.8356 63.9636 33.6835 65.6134 32.5707 66.4435C31.7325 66.6545 30.8598 66.6939 30.0058 66.5591C28.3736 66.1177 27.5681 65.0669 27.886 62.8392C27.94 61.874 28.2865 60.9473 28.8803 60.1805C29.474 59.4137 30.2874 58.8424 31.214 58.5414C32.0725 58.3313 34.1817 58.4573 34.8388 59.7288C35.1885 60.4119 33.2278 61.0213 33.0688 62.2403Z" fill="#C37332"/>
<path d="M34.8391 59.7388C34.6077 59.4117 34.2568 59.187 33.861 59.1124C33.4651 59.0378 33.0556 59.1193 32.7193 59.3395C31.8803 59.9048 31.1992 60.6715 30.7396 61.5681C30.28 62.4648 30.0568 63.4622 30.0908 64.4674C30.0789 64.9532 30.2371 65.4282 30.5385 65.8113C30.84 66.1945 31.2661 66.4623 31.7442 66.569C31.7442 66.569 30.1226 65.7284 30.9493 63.1329C31.776 60.5374 32.6981 59.0032 34.8391 59.7388Z" fill="#FFC546"/>
<path d="M35.3484 62.2921C35.0834 64.2466 33.7904 66.1381 32.4655 66.4953C31.1407 66.8526 30.2716 65.5811 30.5259 63.6266C30.7803 61.6721 32.0946 59.7912 33.4194 59.4234C34.7443 59.0556 35.6134 60.3376 35.3484 62.2921Z" fill="#F99D42"/>
<path d="M34.394 62.5871C34.3438 63.1017 34.1576 63.5941 33.8544 64.0148C33.5511 64.4354 33.1413 64.7693 32.6664 64.9829C31.8715 65.2036 31.3416 64.468 31.49 63.3542C31.5374 62.8374 31.7223 62.3423 32.0258 61.9195C32.3293 61.4968 32.7406 61.1615 33.2176 60.9478C34.0125 60.7377 34.5424 61.4732 34.394 62.5871Z" fill="#3E4448"/>
<path d="M34.2033 62.6816C34.1706 63.0631 34.0394 63.4298 33.8222 63.7464C33.605 64.063 33.3091 64.3188 32.9632 64.489C32.3909 64.6466 32.0199 64.1002 32.1259 63.2595C32.1595 62.8769 32.2924 62.5095 32.5115 62.1928C32.7307 61.8761 33.0286 61.621 33.3766 61.4521C33.9489 61.2945 34.3198 61.8409 34.2033 62.6816Z" fill="#75888C"/>
<path d="M34.0441 62.1977C34.0773 62.3906 34.0596 62.5888 33.9927 62.7729C33.9259 62.957 33.8121 63.1209 33.6625 63.2485C33.387 63.4167 33.1008 63.2485 33.0266 62.7652C32.9975 62.5724 33.0171 62.3754 33.0837 62.192C33.1503 62.0086 33.2618 61.8445 33.4082 61.7144C33.6943 61.5567 33.9805 61.7669 34.0441 62.1977Z" fill="#899EA2"/>
<path d="M33.9912 62.1348C34.0164 62.2548 34.0091 62.3793 33.97 62.4955C33.9309 62.6118 33.8614 62.7158 33.7686 62.7968C33.599 62.9019 33.4189 62.7968 33.3765 62.5131C33.3513 62.3921 33.3598 62.2667 33.4008 62.1501C33.4419 62.0335 33.514 61.9302 33.6096 61.851C33.7792 61.746 33.9488 61.8721 33.9912 62.1348Z" fill="#C5D9DB"/>
<path d="M32.7089 66.4216C32.7089 66.4216 31.8186 66.9576 30.6952 65.8647C29.5717 64.7719 30.409 62.2604 30.409 62.2604C29.9559 63.2206 29.7763 64.2853 29.8897 65.3393C29.9953 65.7908 30.2342 66.2008 30.5759 66.5171C30.9176 66.8334 31.3465 67.0416 31.808 67.1152L32.7089 66.4216Z" fill="#3E4448"/>
<path d="M30.9602 66.6115H30.6634C30.2474 66.35 29.9047 65.9885 29.6671 65.5607C29.5031 65.2624 29.4055 64.9328 29.3809 64.5939C29.3003 64.9609 29.3003 65.3408 29.3809 65.7078C29.4476 66.1214 29.6666 66.4959 29.9957 66.7586C30.3204 66.733 30.6427 66.6838 30.9602 66.6115Z" fill="#3E4448"/>
<path d="M29.7514 66.9476V66.4747C29.5615 66.3205 29.3876 66.148 29.2321 65.9598C29.0625 65.7286 28.9883 65.6971 28.9883 65.6971C29.0796 65.8944 29.1437 66.1029 29.1791 66.3171C29.1579 66.5588 29.7514 66.9476 29.7514 66.9476Z" fill="#3E4448"/>
<path d="M52.9418 29.9585C52.9125 29.5203 52.7454 29.1022 52.464 28.7629C52.1827 28.4237 51.8012 28.1803 51.3732 28.0671H51.1612L29.2748 28.1722C28.895 28.1214 28.5087 28.15 28.1407 28.2562L5.37456 31.8395L4.91882 31.9761C4.46379 32.1749 4.08857 32.5184 3.85247 32.9523C3.61638 33.3862 3.53288 33.8857 3.61517 34.3719C3.97443 37.4628 4.51947 40.5296 5.24738 43.556C7.01737 51.4266 7.46252 51.5842 8.5118 51.9625L26.4131 58.2674C26.7129 58.3714 27.0282 58.4247 27.3458 58.425C27.7838 58.4277 28.2162 58.3268 28.607 58.1308L48.0876 48.2847C48.9461 47.8538 49.3806 47.6332 51.2672 39.3528C52.1363 35.8011 53.0902 31.3141 52.9418 29.9585Z" fill="#3E4448"/>
<path d="M28.5755 29.3704L5.69276 33.0378C5.04623 33.311 8.52263 49.0521 9.17975 49.2833L27.0917 55.5881C27.1869 55.6295 27.2897 55.6509 27.3937 55.6509C27.4977 55.6509 27.6005 55.6295 27.6958 55.5881L47.1763 45.742C47.8122 45.4163 51.5642 29.4125 50.8753 29.2338L29.063 29.3389C28.9013 29.2969 28.7303 29.308 28.5755 29.3704Z" fill="#899EA2"/>
<path d="M50.8756 29.2338H50.1867L27.3887 39.3741V53.5601C27.3887 53.5601 27.2933 55.7773 29.3283 54.7475L47.1766 45.7315C47.8125 45.4163 51.5645 29.4125 50.8756 29.2338Z" fill="#75888C"/>
<path d="M67.6209 5.14897C66.7942 3.23649 65.9463 2.95277 56.2908 1.39758C56.206 1.39758 47.6104 0 45.957 0C43.3391 0 34.9131 4.20324 33.0159 6.73569C31.6275 8.62715 29.2216 14.9845 28.522 16.897L28.0557 18.137L34.3302 20.4172L34.7859 19.1773C35.7969 16.2696 36.9971 13.4299 38.3789 10.6762C39.1102 9.81456 44.7381 6.90382 46.0312 6.6201C46.9003 6.68315 50.7582 7.21906 54.7964 7.86005C52.0089 9.28916 50.1541 10.4135 49.2214 11.5274C47.3878 13.7131 44.452 19.503 43.922 20.6379L43.3285 21.8253L49.3062 24.7781L49.8997 23.5907C51.194 20.8951 52.6779 18.2932 54.3406 15.8042C55.0189 15.1106 59.9156 12.7148 61.5266 11.9372C66.6352 9.42576 68.9775 8.28038 67.6209 5.14897Z" fill="#3E4448"/>
<path d="M48.6598 23.0029L45.0774 21.2271C45.4166 20.544 48.4796 14.4809 50.2496 12.3792C51.3731 11.0447 54.4891 9.4685 59.0572 7.23027C54.097 6.3581 46.911 5.30729 45.9465 5.28627C44.6535 5.4544 38.2412 8.70141 37.3297 9.8573C35.8547 12.7171 34.5867 15.6774 33.5354 18.7156L29.7728 17.3496C30.2604 16.0255 32.7829 9.30037 34.0971 7.51399C35.7081 5.3178 43.7738 1.32472 45.9571 1.32472C47.0912 1.32472 52.7721 2.16537 56.0789 2.70128C62.4382 3.75209 64.6957 4.20394 65.6178 4.71884C65.9934 4.92095 66.2747 5.26019 66.4021 5.66457C67.2606 7.6506 65.9146 8.31261 60.912 10.7505C58.5166 11.9169 54.0546 14.0921 53.3233 14.9537C51.5792 17.5244 50.0208 20.2141 48.6598 23.0029Z" fill="#9EAEB4"/>
<path d="M34.0552 17.3391C34.9785 14.7678 36.0908 12.2672 37.3832 9.8573C38.2947 8.70141 44.7069 5.45441 46 5.28628C46.9645 5.28628 54.1504 6.33709 59.1106 7.23028L62.7142 5.39136L60.9336 5.52797C59.9903 5.61203 47.4732 3.76261 46.4133 3.26873C46.1165 3.11211 45.8811 2.86144 45.7447 2.55671C45.6083 2.25198 45.5788 1.91074 45.6608 1.58743L45.364 2.36503C45.2169 2.95364 45.1037 3.55006 45.0249 4.15141C42.8512 5.09161 40.7285 6.14386 38.6656 7.30384C37.5679 7.89148 36.6769 8.79687 36.1113 9.89933C35.0514 11.4125 33.0695 12.001 33.0801 9.52104C32.2004 11.3495 31.2147 13.8294 30.547 15.5527C31.6732 16.228 32.8454 16.8249 34.0552 17.3391Z" fill="#75888C"/>
<path d="M65.7243 7.13568C64.834 7.88175 54.4049 12.7575 53.0058 13.6402C51.6068 14.5229 51.8082 16.015 49.911 16.2357C49.5805 16.2986 49.2387 16.2657 48.9266 16.1408C48.6145 16.0159 48.3454 15.8044 48.1516 15.5316C46.8797 17.6963 45.6291 20.1132 45.2051 20.9643L46.7314 21.3111C47.6497 21.4744 48.5899 21.4744 49.5082 21.3111C50.6147 19.084 51.8865 16.9415 53.3132 14.9012C54.0445 14.071 58.5066 11.8958 60.9019 10.6979C65.7879 8.31259 67.1764 7.62956 66.445 5.74861C66.3881 6.28401 66.131 6.77886 65.7243 7.13568Z" fill="#75888C"/>
<path d="M65.7243 7.13568C64.834 7.88175 54.4049 12.7575 53.0058 13.6402C51.6068 14.5229 51.8082 16.015 49.911 16.2357C49.5805 16.2986 49.2387 16.2657 48.9266 16.1408C48.6145 16.0159 48.3454 15.8044 48.1516 15.5316C46.8797 17.6963 45.6291 20.1132 45.2051 20.9643L46.7314 21.3111C47.6497 21.4744 48.5899 21.4744 49.5082 21.3111C50.6147 19.084 51.8865 16.9415 53.3132 14.9012C54.0445 14.071 58.5066 11.8958 60.9019 10.6979C65.7879 8.31259 67.1764 7.62956 66.445 5.74861C66.3881 6.28401 66.131 6.77886 65.7243 7.13568Z" fill="#75888C"/>
<path d="M56.1003 21.059V20.996C56.0717 20.8179 56.0291 20.6422 55.9731 20.4706L55.8884 20.2289L55.7082 19.8716L55.6022 19.7455C55.193 19.1372 54.5692 18.7025 53.8534 18.5266L29.9002 12.4424C29.263 12.2771 28.5886 12.3252 27.9818 12.579L2.02546 23.3393C1.50051 23.5574 1.05113 23.9226 0.732408 24.3901C0.457075 24.7192 0.252136 25.1003 0.130058 25.5104C0.00798029 25.9205 -0.0286833 26.3509 0.0222932 26.7754C0.0222932 26.849 0.573429 34.1311 3.20192 35.0558L26.1588 43.1786C26.4798 43.2869 26.8161 43.3437 27.1551 43.3467C27.6273 43.3487 28.0928 43.2369 28.5118 43.0209L53.4824 30.4112C55.6446 29.2974 56.2805 22.299 56.1003 21.059Z" fill="#3E4448"/>
<path d="M28.7134 20.4495L2.21654 25.1466C1.37924 25.4934 2.95846 32.3237 3.80636 32.6179L26.7845 40.7406C26.9116 40.787 27.0471 40.8062 27.1823 40.7972C27.3174 40.7881 27.4491 40.751 27.5688 40.6881L52.5395 28.0784C53.345 27.6686 54.7334 20.5021 53.8537 20.2814L29.3282 20.4075C29.1236 20.3608 28.9096 20.3755 28.7134 20.4495Z" fill="#899EA2"/>
<path d="M28.7449 13.8603L2.79914 24.6206C2.61705 24.7055 2.46309 24.84 2.35525 25.0084C2.24741 25.1768 2.19014 25.3721 2.19014 25.5716C2.19014 25.7711 2.24741 25.9664 2.35525 26.1348C2.46309 26.3032 2.61705 26.4377 2.79914 26.5226L26.6993 34.929C26.9574 35.0341 27.2468 35.0341 27.5048 34.929L53.5566 21.7624C53.7316 21.6593 53.8729 21.5084 53.9637 21.3277C54.0544 21.1471 54.0908 20.9443 54.0685 20.7437C54.0461 20.5431 53.966 20.3532 53.8376 20.1965C53.7092 20.0399 53.5381 19.9232 53.3446 19.8604L29.3914 13.7763C29.1726 13.7299 28.9443 13.7596 28.7449 13.8603Z" fill="#9EAEB4"/>
<path d="M28.5226 17.1603L12.1476 23.959C12.0261 24.0076 11.922 24.0911 11.8487 24.1988C11.7754 24.3064 11.7362 24.4334 11.7362 24.5633C11.7362 24.6931 11.7754 24.8201 11.8487 24.9277C11.922 25.0354 12.0261 25.1189 12.1476 25.1675L27.2296 30.5056C27.3119 30.5394 27.4002 30.5568 27.4893 30.5568C27.5784 30.5568 27.6666 30.5394 27.7489 30.5056L44.1558 22.2147C44.275 22.157 44.3734 22.0643 44.4377 21.9493C44.502 21.8342 44.529 21.7024 44.5151 21.5716C44.5012 21.4408 44.4471 21.3174 44.3601 21.2182C44.2731 21.1189 44.1573 21.0486 44.0286 21.0168L28.9042 17.1393C28.778 17.1059 28.6444 17.1133 28.5226 17.1603Z" fill="#899EA2"/>
<path d="M25.724 24.0112C25.2254 24.1763 24.7883 24.4859 24.469 24.8999C24.1497 25.3138 23.9629 25.8132 23.9328 26.3335L23.8162 29.2862L26.7203 30.3371C27.0217 29.9333 27.1984 29.4514 27.229 28.95L27.3668 25.4718C27.407 25.2558 27.3905 25.0333 27.319 24.8254C27.2475 24.6176 27.1234 24.4314 26.9585 24.2848C26.7936 24.1382 26.5934 24.036 26.3773 23.9881C26.1611 23.9402 25.9361 23.9481 25.724 24.0112Z" fill="#C5D9DB"/>
<path d="M25.724 24.0116C25.2262 24.1779 24.7898 24.4878 24.4707 24.9015C24.1516 25.3153 23.9643 25.814 23.9328 26.3338L23.8162 29.2866L25.2046 29.7805C25.4559 29.5794 25.6628 29.3291 25.8123 29.0453C25.9618 28.7614 26.0508 28.4501 26.0737 28.1307L26.1903 25.1149C26.2128 24.9069 26.1818 24.6967 26.1002 24.5038C26.0187 24.3109 25.8893 24.1415 25.724 24.0116Z" fill="#75888C"/>
<path d="M21.1566 26.1028C20.7701 26.2306 20.4193 26.4464 20.1321 26.7329C19.845 27.0194 19.6296 27.3686 19.5031 27.7526L22.7464 28.8979V27.5424C22.7789 27.3336 22.7588 27.1201 22.688 26.9209C22.6172 26.7216 22.4978 26.5428 22.3404 26.4003C22.1831 26.2579 21.9927 26.1562 21.7862 26.1042C21.5796 26.0523 21.3633 26.0518 21.1566 26.1028Z" fill="#C5D9DB"/>
<path d="M21.1563 26.1029C20.7682 26.2286 20.4163 26.4451 20.1303 26.734C19.8444 27.023 19.6328 27.376 19.5135 27.7632L21.6333 28.4882V27.2062C21.6516 26.9976 21.6176 26.7877 21.5344 26.5952C21.4512 26.4027 21.3213 26.2336 21.1563 26.1029Z" fill="#75888C"/>
<path d="M44.1873 22.1722C44.3065 22.1145 44.4049 22.0218 44.4692 21.9068C44.5335 21.7918 44.5605 21.6599 44.5466 21.5291C44.5327 21.3983 44.4786 21.2749 44.3916 21.1757C44.3046 21.0764 44.1889 21.0061 44.0602 20.9743L28.9039 17.1388C28.7703 17.0915 28.6242 17.0915 28.4906 17.1388L26.8478 17.8219C26.8478 17.8219 28.5224 17.349 28.5224 18.8727V30.0743L44.1873 22.1722Z" fill="#75888C"/>
<path d="M54.1499 21.3107L27.5576 34.9712L27.2078 35.0868C27.2078 35.0868 26.7521 35.1814 26.7521 36.2637C26.7521 37.346 26.5613 41.2445 27.5894 40.7296L52.5601 28.1199C53.1854 27.7521 54.1605 23.3492 54.1499 21.3107Z" fill="#75888C"/>
<path d="M3.37114 26.7124C3.37114 26.7124 24.9502 34.8982 25.7239 35.6023C26.4976 36.3063 26.911 40.0997 26.911 40.0997C26.911 40.0997 27.3031 35.1609 27.0382 34.5725C26.7732 33.984 3.37114 26.7124 3.37114 26.7124Z" fill="#C5D9DB"/>
<path d="M9.59273 21.7631L29.3912 14.7857L47.4091 18.3479L29.3912 13.7664C29.182 13.6935 28.9539 13.6935 28.7447 13.7664L9.59273 21.7631Z" fill="#C5D9DB"/>
<path d="M12.1262 49.0835C11.1723 49.0835 10.1972 48.0327 10.0065 46.7507L9.19036 42.4634C8.94659 41.1919 9.51892 40.1411 10.4622 40.1411C11.4161 40.1411 12.3912 41.1919 12.582 42.4634L13.3875 46.7507C13.6419 48.0327 13.0695 49.0835 12.1262 49.0835Z" fill="#75888C"/>
<path d="M13.4513 47.0974C13.4609 46.968 13.4609 46.838 13.4513 46.7086L12.6458 42.4213C12.4021 41.1498 11.427 40.1095 10.5261 40.099C10.2566 40.5593 10.1732 41.1039 10.2929 41.6227L10.9924 45.3426C11.2044 46.3934 12.0523 47.3601 12.879 47.3601C13.0922 47.3322 13.2919 47.2405 13.4513 47.0974Z" fill="#3E4448"/>
<path d="M17.2455 50.5232C16.2916 50.5232 15.3271 49.4724 15.1257 48.1904L14.3096 43.9031C14.0658 42.6316 14.6382 41.5808 15.5921 41.5808C16.5353 41.5808 17.5104 42.6316 17.7118 43.9031L18.5279 48.1904C18.7929 49.4724 18.2099 50.5232 17.2455 50.5232Z" fill="#75888C"/>
<path d="M18.5916 48.5792C18.5916 48.4531 18.5916 48.327 18.5916 48.1904L17.7755 43.9031C17.5317 42.6316 16.5566 41.5913 15.6557 41.5808C15.3862 42.0411 15.3029 42.5857 15.4226 43.1045L16.1221 46.8244C16.3341 47.9277 17.182 48.8419 18.0087 48.8419C18.2257 48.816 18.4293 48.7243 18.5916 48.5792Z" fill="#3E4448"/>
<path d="M22.8517 52.4257C21.9084 52.4257 20.9333 51.3749 20.7319 50.0929L19.9158 45.8161C19.672 44.5341 20.255 43.4833 21.1983 43.4833C22.1521 43.4833 23.1166 44.5341 23.318 45.8161L24.1341 50.135C24.3779 51.3749 23.8055 52.4257 22.8517 52.4257Z" fill="#75888C"/>
<path d="M24.1771 50.4817C24.1921 50.3526 24.1921 50.2221 24.1771 50.0929L23.3609 45.8161C23.1172 44.5341 22.1527 43.4938 21.2412 43.4833C20.9681 43.9422 20.8809 44.4869 20.9974 45.007L21.7075 48.7269C21.9195 49.8407 22.7674 50.7444 23.5835 50.7444C23.8065 50.7294 24.0169 50.6363 24.1771 50.4817Z" fill="#3E4448"/>
<path d="M33.5887 24.8521C33.5887 23.5806 32.8256 22.5298 31.8823 22.5298C30.9391 22.5298 30.1547 23.5806 30.1442 24.8521V29.1394C30.1389 29.1883 30.1389 29.2376 30.1442 29.2865L33.5887 27.5421V24.8521Z" fill="#9EAEB4"/>
<path d="M33.5889 24.8521C33.5889 23.5806 32.8257 22.5298 31.8824 22.5298C31.5313 22.9605 31.3437 23.4997 31.3525 24.0534V27.7733C31.3543 28.0589 31.4008 28.3425 31.4903 28.614L33.6101 27.5631L33.5889 24.8521Z" fill="#3E4448"/>
<path d="M38.2094 25.199C38.1106 24.8764 37.9163 24.5906 37.6517 24.3789C37.3871 24.1672 37.0644 24.0392 36.7255 24.0116C35.7822 24.0116 34.9979 25.0624 34.9873 26.3338V26.8277L38.2094 25.199Z" fill="#9EAEB4"/>
<path d="M38.21 25.199C38.112 24.8779 37.9193 24.5933 37.6568 24.3817C37.3942 24.1701 37.0738 24.0412 36.7368 24.0116C36.3818 24.4408 36.1905 24.9802 36.1963 25.5352V26.2183L38.21 25.199Z" fill="#3E4448"/>
<path d="M40.9549 46.8242C41.4629 46.6367 41.9079 46.3119 42.2395 45.8866C42.571 45.4614 42.7759 44.9526 42.8309 44.4178L43.4456 40.4668C43.6258 39.2794 43.0852 38.4387 42.2479 38.5753C41.7398 38.7628 41.2949 39.0876 40.9633 39.5129C40.6318 39.9382 40.4269 40.447 40.372 40.9817L39.7572 44.9432C39.577 46.1201 40.1176 46.9818 40.9549 46.8242Z" fill="#899EA2"/>
<path d="M39.7257 45.2898C39.7257 45.1742 39.7257 45.0586 39.7257 44.9431L40.3404 40.9815C40.3983 40.4448 40.6068 39.9348 40.9421 39.5095C41.2774 39.0842 41.7262 38.7605 42.2376 38.5752C42.367 38.7678 42.4561 38.9843 42.4998 39.2117C42.5435 39.4391 42.5408 39.6728 42.4919 39.8992L41.9514 43.3353C41.9064 43.8009 41.7305 44.2447 41.4439 44.6162C41.1572 44.9877 40.7713 45.272 40.3298 45.4369C40.2243 45.4546 40.1163 45.4506 40.0124 45.4253C39.9085 45.4 39.8109 45.3539 39.7257 45.2898Z" fill="#3E4448"/>
<path d="M45.3109 44.8805C45.8185 44.6906 46.2623 44.3636 46.5919 43.9364C46.9216 43.5092 47.1241 42.9991 47.1763 42.4637L47.791 38.5126C47.9818 37.3357 47.4412 36.4846 46.5933 36.6317C46.0859 36.8187 45.6418 37.1435 45.3119 37.5691C44.982 37.9947 44.7796 38.5037 44.7279 39.038L44.1132 42.9891C43.9224 44.1975 44.463 45.0382 45.3109 44.8805Z" fill="#899EA2"/>
<path d="M44.0815 43.3677C44.0713 43.2488 44.0713 43.1293 44.0815 43.0104L44.6962 39.0594C44.7479 38.5251 44.9503 38.016 45.2802 37.5905C45.6101 37.1649 46.0542 36.84 46.5616 36.653C46.6921 36.8452 46.781 37.062 46.823 37.2898C46.8649 37.5177 46.8589 37.7516 46.8054 37.9771L46.2755 41.4027C46.2329 41.8691 46.058 42.3139 45.771 42.6859C45.484 43.0578 45.0967 43.3415 44.6538 43.5043C44.4524 43.5342 44.2472 43.4852 44.0815 43.3677Z" fill="#3E4448"/>
<path d="M36.4185 48.9265C36.9266 48.7405 37.3714 48.416 37.7014 47.9902C38.0315 47.5644 38.2334 47.0548 38.2839 46.5201L38.8986 42.5691C39.0893 41.3922 38.5488 40.541 37.7009 40.6881C37.1928 40.874 36.748 41.1986 36.4179 41.6244C36.0879 42.0502 35.886 42.5598 35.8355 43.0945L35.2632 47.0455C35.03 48.2224 35.5706 49.0841 36.4185 48.9265Z" fill="#899EA2"/>
<path d="M35.1885 47.402C35.1783 47.2831 35.1783 47.1636 35.1885 47.0447L35.8033 43.0937C35.8557 42.5539 36.0619 42.04 36.3978 41.6121C36.7337 41.1841 37.1855 40.8597 37.7005 40.6768C37.8309 40.869 37.9199 41.0858 37.9618 41.3136C38.0037 41.5414 37.9978 41.7754 37.9442 42.0008L37.4143 45.4265C37.3717 45.8928 37.1968 46.3377 36.9098 46.7096C36.6228 47.0816 36.2355 47.3653 35.7927 47.5281C35.6886 47.5487 35.5814 47.5481 35.4776 47.5265C35.3737 47.5048 35.2754 47.4624 35.1885 47.402Z" fill="#3E4448"/>
<path d="M31.4792 51.4797C31.9858 51.293 32.4297 50.9698 32.7611 50.5465C33.0926 50.1233 33.2983 49.6167 33.3551 49.0838L33.9699 45.1328C34.1501 43.9454 33.6201 43.0942 32.7722 43.2413C32.2648 43.4283 31.8207 43.7532 31.4908 44.1788C31.1609 44.6043 30.9585 45.1134 30.9068 45.6477L30.2815 49.6092C30.1013 50.7756 30.6419 51.6268 31.4792 51.4797Z" fill="#899EA2"/>
<path d="M30.2603 49.9456C30.2603 49.83 30.2603 49.7144 30.2603 49.5988L30.8856 45.6372C30.9373 45.103 31.1397 44.5939 31.4696 44.1683C31.7995 43.7428 32.2436 43.4179 32.751 43.2309C33.0033 43.6238 33.0908 44.0989 32.9948 44.5549L32.4755 48.0331C32.4304 48.4987 32.2546 48.9424 31.968 49.3139C31.6813 49.6854 31.2953 49.9698 30.8538 50.1347C30.7472 50.1445 30.6396 50.1327 30.5376 50.1002C30.4356 50.0677 30.3413 50.0151 30.2603 49.9456Z" fill="#3E4448"/>
<path d="M37.054 6.68351C37.3295 7.09332 36.9586 7.82889 36.2167 8.31226C35.4748 8.79563 34.6587 8.8797 34.3831 8.46988C34.1075 8.06007 34.4679 7.3245 35.2098 6.83062C35.9517 6.33674 36.7678 6.27369 37.054 6.68351Z" fill="#C5D9DB"/>
<path d="M53.4507 11.7272C53.7263 12.137 53.3553 12.8621 52.624 13.3559C51.8927 13.8498 51.0554 13.9234 50.7798 13.5136C50.5043 13.1037 50.8752 12.3682 51.6065 11.8743C52.3379 11.3804 53.1752 11.3174 53.4507 11.7272Z" fill="#C5D9DB"/>
<path d="M65.6179 4.71813C64.6958 4.20323 62.4382 3.73037 56.079 2.70057C52.7722 2.16466 47.0912 1.31351 45.9572 1.31351H45.6392C45.565 1.76536 45.5332 2.36432 45.4696 3.11039C45.3968 3.4743 45.4017 3.84929 45.4838 4.21124C45.5659 4.57319 45.7236 4.91409 45.9466 5.21201C46.9111 5.21201 54.0334 6.26282 58.9831 7.1455C60.1735 6.46835 61.4014 5.85792 62.6608 5.31709C63.7287 4.93432 64.8729 4.80827 65.9994 4.94931C65.8814 4.8583 65.7534 4.78075 65.6179 4.71813Z" fill="#C72828"/>
<path d="M48.8406 2.27005C48.8406 2.60631 48.3213 2.83749 47.7171 2.79546C47.113 2.75343 46.6573 2.4592 46.6573 2.12294C46.6573 1.78668 47.1766 1.5555 47.7807 1.59753C48.3849 1.63957 48.8618 1.9338 48.8406 2.27005Z" fill="#F2623B"/>
<path d="M46.3599 3.26855C46.1042 3.14743 45.892 2.95162 45.7518 2.70742C45.6116 2.46323 45.5501 2.18234 45.5756 1.9025C45.5756 2.25977 45.512 2.65908 45.4696 3.14245C45.3968 3.50636 45.4017 3.88135 45.4838 4.2433C45.5659 4.60525 45.7236 4.94615 45.9466 5.24407L46.5825 5.29661H46.8793H47.0913C48.0027 5.4122 49.3594 5.59084 50.9068 5.82202H50.9704L51.8819 5.95862C54.15 6.29488 56.6937 6.7047 58.8347 7.07248H58.9301C60.1206 6.39533 61.3484 5.78491 62.6078 5.24407L60.8272 5.38068C59.9369 5.61185 47.4198 3.76243 46.3599 3.26855Z" fill="#9D1D21"/>
<path d="M52.3167 52.0468C52.3048 51.991 52.2833 51.9377 52.2531 51.8892L52.1577 51.7421C51.0978 49.9977 48.4906 49.9452 47.4519 50.1974C46.2662 50.566 45.2193 51.2787 44.4465 52.2435C43.6738 53.2082 43.2106 54.3806 43.117 55.6091C42.7672 58.2151 43.7317 59.8123 45.9786 60.4743C46.4075 60.5299 46.8392 60.5615 47.2717 60.5689C47.9932 60.6239 48.718 60.5161 49.3914 60.2536C50.3603 59.7475 51.1876 59.0114 51.7998 58.1112C52.4119 57.2109 52.7898 56.1744 52.8996 55.0942C53.0896 54.0419 52.8821 52.9571 52.3167 52.0468Z" fill="#3E4448"/>
<path d="M49.4761 54.8216C49.243 56.5449 50.0909 58.1947 48.978 59.0248C48.1397 59.234 47.2681 59.2768 46.4131 59.1509C44.7809 58.6991 43.9754 57.6483 44.2933 55.4311C44.3631 54.4767 44.7165 53.5642 45.3087 52.8086C45.901 52.0531 46.7057 51.4884 47.6213 51.1858C48.4798 50.9756 50.589 51.1017 51.2461 52.3732C51.5959 52.9932 49.6351 53.6132 49.4761 54.8216Z" fill="#C37332"/>
<path d="M51.2462 52.3205C51.0149 51.9934 50.664 51.7687 50.2681 51.6941C49.8723 51.6195 49.4627 51.701 49.1265 51.9212C48.2881 52.4872 47.6076 53.254 47.1481 54.1505C46.6886 55.047 46.465 56.044 46.498 57.0491C46.486 57.5349 46.6442 58.0099 46.9457 58.393C47.2472 58.7762 47.6732 59.044 48.1514 59.1507C48.1514 59.1507 46.5404 58.2996 47.3565 55.7041C48.1726 53.1086 49.1053 51.5849 51.2462 52.3205Z" fill="#FFC546"/>
<path d="M51.7548 54.8741C51.4898 56.8392 50.1967 58.7201 48.8719 59.0774C47.5471 59.4347 46.678 58.1737 46.9429 56.2192C47.2079 54.2647 48.5009 52.3732 49.8258 52.0159C51.1506 51.6587 52.0197 52.9196 51.7548 54.8741Z" fill="#F99D42"/>
<path d="M50.8011 55.1674C50.7486 55.6869 50.5581 56.1833 50.249 56.6061C49.94 57.0288 49.5234 57.3627 49.0417 57.5738C48.2468 57.7839 47.7169 57.0484 47.8652 55.9345C47.9126 55.4177 48.0975 54.9226 48.4011 54.4999C48.7046 54.0771 49.1158 53.7418 49.5928 53.5282C50.4196 53.2865 50.9495 54.0536 50.8011 55.1674Z" fill="#3E4448"/>
<path d="M50.621 55.262C50.5871 55.6445 50.4555 56.0122 50.2385 56.3303C50.0216 56.6483 49.7264 56.9063 49.3809 57.0799C48.8086 57.2375 48.4376 56.6806 48.5542 55.84C48.5878 55.4587 48.7195 55.0924 48.9366 54.776C49.1537 54.4595 49.449 54.2036 49.7943 54.0326C50.356 53.8749 50.7376 54.4319 50.621 55.262Z" fill="#75888C"/>
<path d="M50.4507 54.7895C50.485 54.9824 50.4678 55.1809 50.4008 55.3652C50.3339 55.5495 50.2196 55.7133 50.0692 55.8403C49.7936 56.0084 49.5074 55.8403 49.4332 55.3569C49.4034 55.1632 49.4237 54.9651 49.4923 54.7813C49.5609 54.5974 49.6755 54.4339 49.8254 54.3061C50.101 54.138 50.3871 54.3376 50.4507 54.7895Z" fill="#899EA2"/>
<path d="M50.3979 54.7162C50.424 54.8378 50.4172 54.9641 50.3781 55.0822C50.339 55.2004 50.269 55.3061 50.1753 55.3888C50.0058 55.4833 49.8256 55.3888 49.7832 55.0945C49.7624 54.9736 49.7729 54.8495 49.8137 54.7337C49.8545 54.6179 49.9242 54.5143 50.0163 54.4325C50.1859 54.3379 50.3555 54.4535 50.3979 54.7162Z" fill="#C5D9DB"/>
<path d="M49.1156 59.0033C49.1156 59.0033 48.2252 59.5393 47.1018 58.4464C45.9783 57.3536 46.8156 54.8421 46.8156 54.8421C46.363 55.8023 46.1869 56.8678 46.3069 57.921C46.4092 58.3723 46.6457 58.7827 46.9858 59.0993C47.3259 59.4159 47.754 59.624 48.2147 59.6969L49.1156 59.0033Z" fill="#3E4448"/>
<path d="M47.3667 59.1922H47.0699C46.6539 58.9307 46.3112 58.5693 46.0736 58.1414C45.9096 57.8432 45.812 57.5135 45.7875 57.1747C45.7066 57.5452 45.7066 57.9285 45.7875 58.299C45.8531 58.713 46.0724 59.0878 46.4022 59.3499C46.7272 59.3208 47.0495 59.2681 47.3667 59.1922Z" fill="#3E4448"/>
<path d="M46.1585 59.5919V59.119C45.9686 58.9649 45.7946 58.7924 45.6391 58.6041C45.5732 58.5069 45.4948 58.4186 45.406 58.3414C45.4921 58.5397 45.5527 58.7481 45.5862 58.9614C45.565 59.1506 46.1585 59.5919 46.1585 59.5919Z" fill="#3E4448"/>
</svg>
