<svg width="123" height="66" viewBox="0 0 123 66" fill="none" xmlns="http://www.w3.org/2000/svg">
<g style="mix-blend-mode:multiply" opacity="0.6">
<path d="M123 18.3986C123 13.487 123 7.49018 118.717 5.49126C116.698 4.73297 114.584 4.25264 112.436 4.06346C106.649 3.14464 100.815 2.55355 94.9614 2.293C71.5039 0.625804 47.9461 0.988877 24.551 3.37814C19.64 4.06349 15.7568 4.57754 13.13 5.20577C11.4259 5.42263 9.83046 6.16062 8.56169 7.31888C7.49127 8.81963 6.91262 10.6155 6.9056 12.4589C6.73459 14.1871 6.73459 15.928 6.9056 17.6561C7.24823 22.3393 7.8764 26.8511 8.61877 31.1916C9.36113 35.5321 10.3891 41.1291 11.2456 45.7552C11.6454 47.8683 12.1021 49.8673 12.5019 51.8662C12.8523 53.5068 13.2908 55.1272 13.8153 56.7207C14.0851 57.9103 14.6352 59.0183 15.4199 59.9521C16.2047 60.886 17.2013 61.6187 18.3266 62.0892C21.594 62.6447 24.8939 62.9881 28.2057 63.1173C38.713 63.8026 49.2775 64.0882 59.7849 64.3737C73.2045 64.7164 86.7383 65.3446 100.158 65.1161H105.868C107.259 65.2063 108.654 65.0319 109.98 64.6021C111.534 64.4508 112.987 63.7645 114.092 62.6604C115.39 60.9882 116.271 59.0302 116.661 56.9492C117.289 54.2649 117.861 51.5235 118.375 48.7821C119.003 45.1269 119.402 41.3576 120.202 37.3597C121.001 33.3619 121.744 29.3641 122.258 25.252C122.714 23.1579 122.962 20.8735 123 18.3986Z" fill="#8A7D63"/>
</g>
<path d="M120.362 15.0306C120.362 10.7472 120.704 5.60708 116.193 3.60816C114.097 2.95451 111.931 2.55188 109.74 2.40877C103.933 1.54104 98.0786 1.02606 92.2091 0.866719C69.547 -0.552827 46.8093 -0.228246 24.197 1.83761C19.4572 2.46585 15.6883 2.9799 12.776 3.49391C11.1232 3.71726 9.56307 4.38877 8.26469 5.4357C7.19545 6.67763 6.58998 8.252 6.55153 9.89043C6.38029 11.3895 6.38029 12.9033 6.55153 14.4023C6.83705 18.4573 7.40807 22.398 8.03623 26.2245C8.66438 30.051 9.69232 34.9626 10.4918 39.0176C10.8915 40.9023 11.2913 42.7299 11.7481 44.7288C12.0454 46.1895 12.4657 47.6224 13.0044 49.0122C13.3364 50.0825 13.9436 51.0469 14.7654 51.8086C15.5872 52.5704 16.5947 53.1028 17.687 53.3527C19.7999 53.6954 22.7693 53.3527 27.5091 53.8096L57.4892 54.8376C70.9089 55.1231 84.3286 55.5229 97.4628 55.5801H103.687C105.067 55.7008 106.458 55.585 107.799 55.2374C109.258 55.1787 110.651 54.6132 111.739 53.6383C112.949 52.2354 113.775 50.5434 114.137 48.7266C114.766 46.385 115.337 43.9863 115.794 41.5876C116.25 39.1889 116.764 35.0768 117.507 31.7643C118.249 28.4519 118.934 24.7396 119.391 21.1415C120.076 19.2568 120.305 17.2008 120.362 15.0306Z" fill="url(#paint0_linear_144_536)"/>
<g style="mix-blend-mode:multiply" opacity="0.5">
<path d="M120.364 12.403H117.965C115.932 12.914 113.833 13.1067 111.741 12.9741C111.631 13.0186 111.508 13.0186 111.398 12.9741C110.77 19.6562 109.799 26.3383 108.657 32.9632C108.086 36.39 109.057 42.6723 104.603 44.3856C96.2653 47.4697 84.2162 45.3564 75.3649 45.2993C57.3769 45.2993 39.2746 45.2994 21.2295 44.4427C20.8297 47.4696 19.6305 50.1539 19.5163 53.295V53.9233C21.515 53.9233 24.0846 53.9233 27.6823 53.9233L57.6623 54.9513C71.082 55.2368 84.5017 55.6366 97.6358 55.6937H103.86C105.24 55.8145 106.631 55.6986 107.972 55.3511C109.431 55.2924 110.824 54.7269 111.912 53.7519C113.122 52.3491 113.948 50.6571 114.31 48.8403C114.939 46.4987 115.51 44.1 115.967 41.7014C116.423 39.3027 116.937 35.1906 117.68 31.8781C118.422 28.5656 119.107 24.8534 119.564 21.2553C119.564 19.1993 120.021 17.1432 120.078 14.973C120.364 14.1163 120.421 13.2025 120.364 12.403Z" fill="#D47F02"/>
</g>
<g style="mix-blend-mode:multiply" opacity="0.2">
<path d="M17.0611 11.8876C40.2821 9.54616 63.6247 8.6306 86.9577 9.14616C93.9498 8.89677 100.951 9.10664 107.915 9.77439H109.457C109.973 8.79058 110.545 7.83716 111.17 6.91883C112.027 5.60527 112.826 4.29178 113.626 2.97823C112.484 2.97823 111.227 2.63549 109.743 2.46416C103.935 1.59644 98.0809 1.08156 92.2113 0.922219C69.5493 -0.497307 46.8116 -0.172732 24.1993 1.8931C19.8593 2.52132 16.3188 2.92104 13.5207 3.43504C14.2059 5.20549 15.1196 6.91885 15.8048 8.63218C16.4901 10.3455 16.6043 10.9167 17.0611 11.8876Z" fill="#D47F02"/>
</g>
<g style="mix-blend-mode:multiply" opacity="0.2">
<path d="M36.9477 1.32248C32.6918 1.3628 28.4409 1.6297 24.2133 2.12205L20.787 2.57895C21.2326 5.49103 21.9986 8.34496 23.0712 11.0887C27.3892 10.5176 31.7362 10.1935 36.0911 10.1178C36.3195 7.20508 36.7193 4.29231 36.9477 1.32248Z" fill="#D47F02"/>
</g>
<g style="mix-blend-mode:multiply" opacity="0.2">
<path d="M102.84 1.95208C99.6418 1.60942 97.1291 1.32386 92.2181 1.15253L84.2804 0.981201C82.9702 3.68965 81.1916 6.14517 79.0267 8.23436L77.8275 9.26233H86.9073H96.7865C98.617 6.6764 100.641 4.23269 102.84 1.95208Z" fill="#D47F02"/>
</g>
<g style="mix-blend-mode:multiply" opacity="0.2">
<path d="M111.234 2.86636H109.749H108.036C107.293 5.03661 104.724 6.69284 102.725 8.57753L101.583 9.77683H104.495C106.874 7.60687 109.124 5.29947 111.234 2.86636Z" fill="#D47F02"/>
</g>
<g style="mix-blend-mode:multiply" opacity="0.2">
<path d="M16.6653 41.3015C16.5004 40.6449 16.3859 39.9767 16.3227 39.3026C16.3227 37.5892 15.98 35.7616 15.7516 33.9911C15.4271 27.8336 14.6638 21.7071 13.4674 15.6582C10.8244 15.1977 8.40082 13.8956 6.55774 11.9459C6.50102 12.8588 6.50102 13.7743 6.55774 14.6872C6.84326 18.7422 7.41427 22.683 8.04242 26.5095C8.67057 30.336 9.6985 35.2476 10.498 39.3026C10.8977 41.1873 11.2974 43.0149 11.7543 45.0138C11.9601 46.0566 12.2271 47.0864 12.5537 48.0978C13.361 45.5361 14.771 43.2054 16.6653 41.3015Z" fill="#D47F02"/>
</g>
<g style="mix-blend-mode:multiply" opacity="0.2">
<path d="M14.1042 20.0003C14.1042 19.0294 13.7044 18.0015 13.476 16.9735C10.2781 16.4595 7.76544 15.717 6.50912 15.4314C6.50912 17.8301 6.96596 20.1716 7.3086 22.4561C9.02176 21.8278 10.9634 20.9712 14.1042 20.0003Z" fill="#D47F02"/>
</g>
<g style="mix-blend-mode:multiply" opacity="0.2">
<path d="M14.8958 23.8255C14.8681 23.5215 14.8681 23.2156 14.8958 22.9117C12.5356 23.5194 10.2957 24.5237 8.27167 25.8815C8.30409 26.032 8.30409 26.1878 8.27167 26.3384C8.27167 27.1379 8.27168 27.9374 8.72851 28.7941C10.6534 26.9817 12.7153 25.3206 14.8958 23.8255Z" fill="#D47F02"/>
</g>
<g style="mix-blend-mode:multiply" opacity="0.2">
<path d="M10.8476 30.0518L12.2753 28.5669C13.1461 27.8347 14.0829 27.1847 15.0735 26.6251C12.6417 27.9149 10.6525 29.9043 9.36285 32.3363C9.68958 31.4778 10.1958 30.6989 10.8476 30.0518Z" fill="#D47F02"/>
</g>
<g style="mix-blend-mode:multiply" opacity="0.2">
<path d="M11.9322 44.902C12.7834 42.166 14.2261 39.6506 16.158 37.5346C16.1298 37.1353 16.1298 36.7346 16.158 36.3353C14.301 37.9909 12.7033 39.9161 11.4182 42.0465C11.4182 42.9031 11.818 43.7598 12.0464 44.6165L11.9322 44.902Z" fill="#D47F02"/>
</g>
<g style="mix-blend-mode:multiply" opacity="0.5">
<path d="M119.792 17.3724H120.192C120.192 16.5728 120.192 15.7733 120.192 14.9166C120.382 12.455 120.131 9.97939 119.45 7.60626C117.166 9.03406 114.653 10.8045 111.398 12.6892C110.84 13.8906 110.529 15.1919 110.484 16.5157C113.613 16.2816 116.759 16.5711 119.792 17.3724Z" fill="#D47F02"/>
</g>
<g style="mix-blend-mode:multiply" opacity="0.3">
<path d="M110.654 23.8248C110.654 25.7095 110.197 26.2806 110.083 28.1082C112.924 28.0524 115.762 28.34 118.534 28.9648C118.877 27.3086 119.22 25.6524 119.448 23.9391C116.522 23.7246 113.585 23.6865 110.654 23.8248Z" fill="#D47F02"/>
</g>
<g style="mix-blend-mode:multiply" opacity="0.3">
<path d="M26.8246 47.9286C27.1431 46.8074 27.5636 45.7176 28.0809 44.6732C28.1496 44.5058 28.2462 44.3514 28.3665 44.2164C24.9329 43.8663 21.4807 43.7327 18.0304 43.8165C17.9167 44.1344 17.8214 44.4586 17.7449 44.7874C17.1132 47.014 16.6549 49.2863 16.3744 51.5837V52.7831C16.8831 53.134 17.4726 53.3501 18.0876 53.4113C20.4744 53.7051 22.8781 53.8387 25.2828 53.8111C25.6254 51.8693 26.1965 49.9275 26.8246 47.9286Z" fill="#D47F02"/>
</g>
<g style="mix-blend-mode:multiply" opacity="0.5">
<path d="M65.4305 45.7569L42.9883 45.0145C44.6344 47.8828 45.2205 51.2384 44.6443 54.495L57.6642 54.8949H67.7718C66.3274 52.0587 65.5279 48.9382 65.4305 45.7569Z" fill="#D47F02"/>
</g>
<g style="mix-blend-mode:multiply" opacity="0.2">
<path d="M118.541 30.2217C116.001 28.8893 113.186 28.1659 110.318 28.1085C110.318 28.6797 110.318 30.5643 110.318 31.1355C110.169 34.6684 109.73 38.1831 109.005 41.6441C108.893 42.3237 108.636 42.9714 108.252 43.543C107.868 44.1146 107.365 44.5967 106.778 44.9566C104.789 45.8509 102.617 46.2619 100.439 46.156C91.0737 46.4415 81.6513 46.156 72.229 46.156C72.3212 49.3678 73.1 52.5225 74.5132 55.4081C82.4508 55.4081 90.4455 55.7508 98.3831 55.8079H104.608C105.988 55.9287 107.378 55.8127 108.719 55.4652C110.178 55.4065 111.572 54.841 112.659 53.866C113.869 52.4632 114.695 50.7711 115.058 48.9544C115.686 46.6128 116.257 44.2141 116.714 41.8154C117.171 39.4167 117.685 35.3046 118.427 31.9921L118.541 30.2217Z" fill="#D47F02"/>
</g>
<g style="mix-blend-mode:screen" opacity="0.1">
<path d="M103.525 45.872C102.346 45.9402 101.164 45.9402 99.985 45.872H96.1591C96.1591 49.0132 96.1591 52.1544 96.1591 55.2956H97.7009H103.925C103.925 52.3828 103.697 49.2417 103.525 45.872Z" fill="#FDF9E3"/>
</g>
<g style="mix-blend-mode:screen" opacity="0.2">
<path d="M109.341 50.9535C108.77 49.2401 108.085 47.5267 107.343 45.7562C107.343 49.0687 107.343 52.3813 107.343 55.6367H108.428L110.426 55.2369C110.164 53.7858 109.801 52.3546 109.341 50.9535Z" fill="#FDF9E3"/>
</g>
<g style="mix-blend-mode:screen" opacity="0.2">
<path d="M117.117 36.5034C114.78 35.2328 112.255 34.3457 109.636 33.8762C109.442 36.4638 109.099 39.0382 108.609 41.5864C110.435 41.7817 112.203 42.345 113.805 43.2426L115.747 44.2707L116.261 41.7577C116.603 40.0444 116.889 38.2739 117.117 36.5034Z" fill="#FDF9E3"/>
</g>
<g style="mix-blend-mode:screen" opacity="0.5">
<g style="mix-blend-mode:screen" opacity="0.5">
<path d="M11.704 12.4047C12.0659 11.6559 12.5062 10.9476 13.0175 10.2916C12.002 8.33729 11.1242 6.31443 10.3906 4.23776C9.63011 4.51868 8.93178 4.94542 8.33488 5.49414C7.44448 6.47799 6.88524 7.71654 6.73596 9.03513C7.77377 10.1379 9.01471 11.0299 10.3906 11.6622L11.704 12.4047Z" fill="#FFEED9"/>
</g>
<g style="mix-blend-mode:screen" opacity="0.5">
<path d="M112.204 10.1207L113.003 11.834C115.457 11.6878 117.917 11.6878 120.37 11.834C120.37 8.6357 119.628 5.43747 116.601 4.00967C116.04 5.19458 115.309 6.29129 114.431 7.26508L112.204 10.1207Z" fill="#FFDC7C"/>
</g>
<g style="mix-blend-mode:screen" opacity="0.9">
<path d="M107.704 47.071L107.361 47.3565C107.501 48.6651 107.73 49.9627 108.046 51.2403C108.046 52.611 108.046 53.9817 108.332 55.4095C109.77 55.3332 111.14 54.7692 112.215 53.8103C112.936 53.0531 113.499 52.16 113.871 51.1831C111.929 49.641 110.045 48.4417 108.161 46.8996L107.704 47.071Z" fill="#FFDC7C"/>
</g>
<g style="mix-blend-mode:screen" opacity="0.5">
<path d="M16.9031 43.5865C15.4618 45.4127 14.3594 47.4824 13.6481 49.6974C14.0046 50.5051 14.523 51.231 15.1713 51.8303C15.8196 52.4295 16.584 52.8893 17.4171 53.1813C17.4171 50.2686 17.8739 47.1274 17.8739 43.9292L16.9031 43.5865Z" fill="#FFDC7C"/>
</g>
</g>
<path d="M11.9783 10.1181C11.1789 8.34757 10.2652 6.63408 9.57995 4.86356C9.12715 5.09569 8.70511 5.38354 8.32364 5.72031C9.45462 7.25662 10.675 8.7251 11.9783 10.1181Z" fill="#FFF6E6"/>
<path d="M114.141 11.4893L116.197 10.5754C117.385 9.90597 118.529 9.16201 119.623 8.34799C117.739 9.29309 115.909 10.3418 114.141 11.4893Z" fill="#FFF6E6"/>
<path d="M119.285 6.6941C118.908 5.82054 118.319 5.05493 117.572 4.46677C116.201 5.95166 115.002 8.06479 113.517 9.83523C115.573 8.86434 117.572 7.89344 119.285 6.6941Z" fill="#FFF6E6"/>
<path d="M111.062 51.0691C111.518 51.9257 111.975 52.7253 112.489 53.5248C112.731 53.2435 112.941 52.9371 113.117 52.611C112.553 52.2361 112.035 51.7952 111.575 51.2975L110.262 49.9268C110.561 50.2841 110.828 50.6662 111.062 51.0691Z" fill="#FFF6E6"/>
<path d="M14.2755 51.0109C14.2907 50.8398 14.2907 50.6679 14.2755 50.4969C14.6182 49.2975 15.018 48.0411 15.5319 46.6704C14.8579 47.866 14.2663 49.1063 13.7615 50.3826L14.2755 51.0109Z" fill="#FFF6E6"/>
<g style="mix-blend-mode:multiply" opacity="0.6">
<path d="M120.362 15.0309C120.362 10.7475 120.704 5.6074 116.193 3.60848C114.097 2.95484 111.931 2.5522 109.74 2.40909C103.933 1.54137 98.0786 1.02639 92.209 0.867044C69.547 -0.552951 46.8093 -0.22837 24.197 1.83794C19.4572 2.52328 15.6883 2.98023 12.776 3.49423C11.1232 3.71758 9.56307 4.38909 8.26469 5.43602C7.19545 6.67795 6.58998 8.25231 6.55153 9.89074C6.38029 11.3898 6.38029 12.9036 6.55153 14.4026C6.83705 18.4576 7.40807 22.3983 8.03622 26.2248C8.66438 30.0513 9.69231 34.9629 10.4918 39.0179C10.8915 40.9026 11.2913 42.7302 11.7481 44.7291C12.0454 46.1897 12.4657 47.6226 13.0044 49.0125C13.3364 50.0828 13.9436 51.0471 14.7654 51.8089C15.5872 52.5707 16.5947 53.1031 17.687 53.3529C19.7999 53.6956 22.7693 53.353 27.5091 53.8098L57.4892 54.8378C70.9089 55.1234 84.3285 55.5232 97.4627 55.5803H103.687C105.067 55.7011 106.458 55.5852 107.799 55.2376C109.258 55.1789 110.651 54.6135 111.739 53.6385C112.949 52.2357 113.775 50.5436 114.137 48.7269C114.765 46.3853 115.337 43.9866 115.793 41.5879C116.25 39.1892 116.764 35.0771 117.507 31.7646C118.249 28.4521 118.934 24.7399 119.391 21.1418C120.076 19.2571 120.305 17.2011 120.362 15.0309ZM115.679 40.9597C115.279 43.0157 114.88 45.1288 114.423 47.1848C114.101 49.1921 113.424 51.126 112.424 52.896C111.807 53.6609 111.023 54.2747 110.132 54.6904C109.241 55.1061 108.268 55.3128 107.285 55.2947C104.943 55.2947 102.317 55.2947 98.6048 55.2947C85.699 55.2947 72.7934 54.895 59.9447 54.6094C49.7801 54.6094 39.5011 53.867 29.3365 53.6385C26.5954 53.6385 21.2846 53.6385 19.857 53.6385C18.0392 53.6818 16.2697 53.0512 14.8889 51.8681C14.0169 50.8347 13.3745 49.6276 13.0044 48.3271C11.9865 44.7966 11.1666 41.2121 10.5489 37.5901C9.8636 33.9349 9.06419 30.1655 8.37893 26.1677C7.69367 22.1698 7.46524 19.4855 7.12261 16.1159C7.12261 14.8595 7.12261 13.5459 7.12261 12.2324C7.00638 11.1714 7.14813 10.098 7.53589 9.10364C7.92365 8.10926 8.54594 7.22329 9.3497 6.52116C10.9476 5.63165 12.7218 5.10514 14.5462 4.97911C17.7441 4.40799 21.9699 3.77974 27.1664 3.26574C48.8909 1.74112 70.6876 1.53133 92.4374 2.6375C100.718 2.6375 105.115 3.66552 109.569 4.0653C111.788 4.30928 113.984 4.72943 116.136 5.32177C117.322 5.62058 118.371 6.31572 119.108 7.29205C119.846 8.26838 120.228 9.46733 120.19 10.6903C120.449 13.1966 120.449 15.7229 120.19 18.2291C118.877 25.311 117.164 33.1353 115.679 40.9597Z" fill="#D47F02"/>
</g>
<path d="M113.692 27.5397C113.692 24.6841 114.32 21.8285 114.606 19.0871C114.913 16.4908 115.046 13.8769 115.005 11.2628C115.005 8.06456 112.207 7.60765 108.21 7.15076C79.3097 2.75321 49.9107 2.75321 21.0105 7.15076C17.3245 7.16648 13.7711 8.52711 11.0171 10.9773C10.5222 11.833 10.2019 12.7782 10.0744 13.7585C9.94701 14.7388 10.015 15.7346 10.2747 16.6884C10.6173 20.4578 10.7887 23.1421 11.2455 26.2261C11.7024 29.3102 12.4447 33.6507 13.2442 37.1916C13.5868 38.6765 13.9294 40.1614 14.3292 41.6464C14.6151 42.911 14.9968 44.1521 15.4713 45.3587C15.855 46.2055 16.5004 46.9067 17.3126 47.3591C18.1248 47.8115 19.0607 47.9912 19.9826 47.8716C22.5523 47.8716 27.2349 47.8716 30.6612 48.2143C42.0822 48.8996 53.1035 49.0709 64.3532 49.4136C75.6029 49.7563 86.3387 50.3845 97.0745 49.9847C99.4158 49.9847 103.242 49.9847 105.24 49.9847C105.973 50.0148 106.704 49.8877 107.384 49.6119C108.063 49.336 108.676 48.9179 109.181 48.3856C110.23 46.9048 110.861 45.1687 111.008 43.3597C112.207 38.2768 113.121 32.9653 113.692 27.5397Z" fill="url(#paint1_radial_144_536)"/>
<path style="mix-blend-mode:multiply" opacity="0.9" d="M113.692 27.5397C113.692 24.6841 114.32 21.8285 114.606 19.0871C114.913 16.4908 115.046 13.8769 115.005 11.2628C115.005 8.06456 112.207 7.60765 108.21 7.15076C79.3097 2.75321 49.9107 2.75321 21.0105 7.15076C17.3245 7.16648 13.7711 8.52711 11.0171 10.9773C10.5222 11.833 10.2019 12.7782 10.0744 13.7585C9.94701 14.7388 10.015 15.7346 10.2747 16.6884C10.6173 20.4578 10.7887 23.1421 11.2455 26.2261C11.7024 29.3102 12.4447 33.6507 13.2442 37.1916C13.5868 38.6765 13.9294 40.1614 14.3292 41.6464C14.6151 42.911 14.9968 44.1521 15.4713 45.3587C15.855 46.2055 16.5004 46.9067 17.3126 47.3591C18.1248 47.8115 19.0607 47.9912 19.9826 47.8716C22.5523 47.8716 27.2349 47.8716 30.6612 48.2143C42.0822 48.8996 53.1035 49.0709 64.3532 49.4136C75.6029 49.7563 86.3387 50.3845 97.0745 49.9847C99.4158 49.9847 103.242 49.9847 105.24 49.9847C105.973 50.0148 106.704 49.8877 107.384 49.6119C108.063 49.336 108.676 48.9179 109.181 48.3856C110.23 46.9048 110.861 45.1687 111.008 43.3597C112.207 38.2768 113.121 32.9653 113.692 27.5397ZM110.837 42.4459C110.623 44.1735 110.121 45.853 109.352 47.4147C107.81 49.9848 104.498 49.2994 101.129 49.3565C89.7079 49.6421 78.2868 49.3565 66.8658 48.9567C55.4448 48.5569 44.0238 48.3856 32.6028 47.8145C28.3611 47.5838 24.11 47.5838 19.8684 47.8145C18.8918 47.7802 17.9354 47.5265 17.0702 47.0721C16.3041 46.466 15.7617 45.6219 15.5284 44.6733C14.5141 41.6726 13.7314 38.5986 13.1871 35.4783C12.2163 30.5095 11.7594 24.9126 11.1884 19.544C11.1884 20.1152 10.0463 13.1475 11.9878 11.1486C15.9109 8.77266 20.422 7.54584 25.0078 7.60766C41.5807 6.11208 58.232 5.67327 74.8606 6.29402C83.588 6.03739 92.3228 6.32356 101.015 7.15076L108.724 8.12165C111.065 8.46432 112.95 8.57851 113.806 10.4061C114.572 12.5277 114.749 14.8168 114.32 17.0311C114.035 20.6863 113.349 24.3415 113.064 27.9395C112.745 31.4272 112.25 34.8964 111.579 38.3339C111.351 39.0763 111.179 40.961 110.837 42.4459Z" fill="url(#paint2_linear_144_536)"/>
<path style="mix-blend-mode:screen" d="M13.639 25.8818C13.0899 22.4456 12.8604 18.9659 12.9536 15.4873C12.9536 13.3742 11.6974 12.1178 17.7505 10.7471C23.9521 9.33704 30.2924 8.62815 36.6522 8.63392C44.19 8.63392 50.0718 9.83327 40.935 10.6899C31.7983 11.5466 19.692 15.5445 15.4663 25.2535C15.0665 26.2244 14.21 28.3376 13.639 25.8818Z" fill="url(#paint3_linear_144_536)"/>
<path style="mix-blend-mode:screen" d="M54.4164 8.2323C61.0406 8.2323 75.3168 9.0318 75.3168 9.0318C70.5937 9.74549 65.8102 9.97508 61.0405 9.71707C57.8303 10.0119 54.6 10.0119 51.3898 9.71707C50.9901 9.08888 50.0193 8.28941 54.4164 8.2323Z" fill="url(#paint4_linear_144_536)"/>
<path style="mix-blend-mode:multiply" opacity="0.3" d="M15.7442 40.2746C13.8597 32.7359 15.116 27.9385 22.7681 32.9643C31.6765 38.6755 41.2131 39.0181 51.7204 39.0752C64.3977 39.0752 89.01 42.9017 99.346 33.6496C105.057 28.6809 110.767 28.8522 110.082 35.0774C110.174 36.7312 109.906 38.3852 109.295 39.9248C108.684 41.4644 107.746 42.8529 106.546 43.9938C105.345 45.1347 103.911 46.0009 102.342 46.5323C100.774 47.0636 99.1083 47.2474 97.4616 47.0709C72.7922 47.4136 45.2676 46.0428 22.0258 45.3004C17.2289 45.129 16.4294 43.9298 15.7442 40.2746Z" fill="url(#paint5_radial_144_536)"/>
<path style="mix-blend-mode:screen" d="M26.7677 45.7581C51.2087 44.5016 78.1623 49.0135 102.146 47.6428C106.315 47.6428 108.485 46.6719 109.17 43.0738C109.856 39.4758 111.112 35.2496 111.397 32.7937C111.683 30.3379 112.996 24.284 111.911 32.7937C111.486 37.1637 110.741 41.4967 109.684 45.7581C109.342 47.1859 109.684 49.0135 103.289 48.8422C87.1278 48.3853 70.91 48.3282 54.7492 47.7571C43.0427 47.3573 31.3361 47.3002 19.6296 46.7862C21.9536 46.1319 24.3536 45.7862 26.7677 45.7581Z" fill="url(#paint6_radial_144_536)"/>
<path style="mix-blend-mode:screen" opacity="0.6" d="M99.5905 46.6706C74.6356 44.6717 48.1959 46.6706 23.755 46.0424C18.7297 46.0424 17.4735 45.3571 16.1601 42.3872C14.862 39.487 14.1256 36.3668 13.9901 33.1922C13.4761 31.0219 11.4203 25.9961 13.0764 33.7633C14.7324 41.5306 15.589 43.8722 15.9316 45.1858C16.2742 46.4993 15.3606 47.87 22.5558 47.4702C38.8308 46.5564 55.4483 47.9842 71.6661 48.0984C82.5732 48.0984 95.2505 49.926 105.929 47.7558C103.849 47.2224 101.729 46.8595 99.5905 46.6706Z" fill="url(#paint7_radial_144_536)"/>
<path style="mix-blend-mode:screen" opacity="0.7" d="M85.817 5.77774C85.817 5.77774 102.492 6.91996 110.772 8.34777C113.741 8.86177 113.913 10.5752 113.456 16.5719C112.828 24.2249 111.343 39.4167 111.343 39.4167C111.343 39.4167 113.342 22.6259 114.369 14.4017C114.769 11.3177 115.397 8.69049 111.743 7.7767C103.157 6.51508 94.4946 5.84715 85.817 5.77774Z" fill="url(#paint8_linear_144_536)"/>
<path d="M13.5258 37.8741C13.5258 37.8741 11.413 26.052 11.1274 22.9679C10.8419 19.8839 9.12876 13.7158 11.1274 10.9173C13.1261 8.11885 17.2377 8.00464 24.7755 7.09085C50.0731 3.83547 104.723 7.09085 104.723 7.09085C104.723 7.09085 60.6946 6.00572 38.9947 7.09085C31.5665 7.03552 24.1549 7.80163 16.895 9.37528C15.9741 9.46541 15.083 9.75079 14.281 10.2125C13.4791 10.6742 12.7849 11.3016 12.2445 12.0528C11.7041 12.8041 11.3301 13.6618 11.1473 14.569C10.9645 15.4762 10.9772 16.4119 11.1845 17.3138C11.6413 23.025 12.1553 27.0228 12.3266 29.3644C12.4979 31.706 13.5258 37.8741 13.5258 37.8741Z" fill="white"/>
<path style="mix-blend-mode:multiply" opacity="0.6" d="M38.598 35.249C40.6679 28.5875 40.5277 21.4351 38.1982 14.8599C36.4851 10.4622 33.5157 5.55059 28.5476 4.86525C27.9779 4.80948 27.4041 4.80948 26.8344 4.86525H24.0362C22.1517 4.86525 20.0959 4.86525 18.8396 4.86525C10.4452 4.86525 6.61918 17.0873 6.21945 23.8836C5.7626 31.6509 8.73202 47.471 18.8396 47.9279H24.5501C25.4638 47.9279 26.3775 47.9279 27.0628 47.9279C29.4709 47.7142 31.7213 46.6395 33.4014 44.9009L33.744 44.5011L34.1438 44.1014C36.2583 41.5121 37.7788 38.4902 38.598 35.249Z" fill="url(#paint9_linear_144_536)"/>
<path d="M20.2705 4.92386H13.2466V47.1295H20.2705C27.4657 47.1295 33.2905 37.706 33.2905 26.0552C33.2905 14.4044 27.4657 4.92386 20.2705 4.92386Z" fill="url(#paint10_linear_144_536)"/>
<path d="M20.2582 4.9769H13.2344C13.4764 6.66258 13.4764 8.3742 13.2344 10.0599C13.2344 13.4866 13.2344 16.9704 13.2344 20.3972C13.2344 29.2495 12.5491 38.2162 13.2344 47.0114H19.3446C21.9992 46.767 24.5157 45.7171 26.557 44.0023C28.5982 42.2874 30.0667 39.9896 30.7656 37.4166C33.148 31.0517 33.4676 24.0983 31.6792 17.5416C30.3087 12.0017 26.7111 5.03402 20.2582 4.9769ZM21.1149 4.63425C26.8254 4.63425 30.1945 9.94564 32.079 14.6859C34.3496 21.2913 34.4894 28.443 32.4787 35.1321C31.942 37.8772 30.7022 40.436 28.8805 42.5583C27.0587 44.6805 24.7175 46.2937 22.0856 47.2399C18.9915 47.5659 15.8716 47.5659 12.7775 47.2399C12.4349 47.2399 13.2343 47.2399 13.1201 46.8972C12.8913 44.0652 12.8913 41.2195 13.1201 38.3875C13.1201 31.477 12.8346 24.5664 13.1201 17.6558C13.1201 13.6008 12.8346 8.28941 13.1201 4.17734C14.8333 4.29156 19.4017 4.57713 21.1149 4.63425Z" fill="#D05900"/>
<path d="M26.2606 26.0552C26.2606 37.4776 20.5501 47.1295 13.2407 47.1295C5.93127 47.1295 0.220795 37.706 0.220795 26.0552C0.220795 14.4044 5.93127 4.92386 13.2407 4.92386C20.5501 4.92386 26.2606 14.4044 26.2606 26.0552Z" fill="url(#paint11_linear_144_536)"/>
<path opacity="0.5" d="M0.334198 28.625C0.495297 30.7531 0.878054 32.8587 1.47628 34.9074C3.64627 32.6229 5.87338 30.4526 8.10048 28.2253L23.4617 12.9192C22.6936 11.3287 21.7139 9.84947 20.5493 8.52161L0.334198 28.625Z" fill="url(#paint12_radial_144_536)"/>
<path d="M12.5523 4.97937C7.98388 5.37915 4.10073 9.54835 1.98785 15.5451L12.5523 4.97937Z" fill="url(#paint13_radial_144_536)"/>
<path style="mix-blend-mode:screen" d="M14.6082 47.0117L24.2018 37.4169C24.4874 36.7316 24.7158 36.0462 24.9442 35.3609C21.004 39.2445 17.0637 43.1852 13.1805 47.126L14.6082 47.0117Z" fill="url(#paint14_radial_144_536)"/>
<path d="M23.0685 26.0517C23.0685 35.9892 18.5001 44.042 12.9038 44.042C7.30745 44.042 2.73904 35.9892 2.73904 26.0517C2.73904 16.1142 7.30745 8.0043 12.9038 8.0043C18.5001 8.0043 23.0685 16.0571 23.0685 26.0517Z" fill="url(#paint15_linear_144_536)"/>
<path opacity="0.5" d="M14.7786 8.34696C14.1742 8.12744 13.5371 8.0116 12.8941 8.0043C8.55414 8.0043 4.8423 12.8588 3.41467 19.7122C7.1836 15.8857 10.9526 12.4019 14.7786 8.34696Z" fill="url(#paint16_radial_144_536)"/>
<path opacity="0.5" d="M20.6691 14.4033C20.2522 13.5334 19.7752 12.6937 19.2414 11.8904L2.85236 28.3384C2.9128 29.491 3.06558 30.6369 3.30921 31.7651L20.6691 14.4033Z" fill="url(#paint17_radial_144_536)"/>
<path opacity="0.3" d="M22.8866 22.5112C22.5905 19.7047 21.8382 16.9654 20.6595 14.4013L3.52811 31.8204C3.95778 34.4659 4.88806 37.0053 6.26911 39.3022L22.8866 22.5112Z" fill="url(#paint18_radial_144_536)"/>
<path opacity="0.5" d="M10.0386 43.3589C10.9236 43.8077 11.9016 44.0425 12.8939 44.0442C17.6336 44.0442 21.5739 38.3331 22.716 30.68L10.0386 43.3589Z" fill="url(#paint19_radial_144_536)"/>
<path d="M23.1137 26.0549C23.1137 32.1659 21.4577 43.5312 13.6343 44.3879C4.72595 45.3588 2.21326 31.0236 2.49878 24.7984C2.78431 18.5732 5.41121 6.23697 13.6343 7.66478C21.8575 9.09258 23.1137 19.9439 23.1137 26.0549ZM22.4855 26.0549C22.4855 20.3437 21.0008 10.4062 14.3766 8.57859C6.38194 6.52256 3.41247 18.9729 2.95563 24.5128C2.49879 30.0527 4.55459 44.2737 13.2346 43.5883C20.6582 43.0743 22.4284 31.9946 22.4855 26.1691V26.0549Z" fill="#D05900"/>
<path style="mix-blend-mode:screen" d="M21.4606 17.7125C21.124 16.4155 20.6651 15.1535 20.0901 13.9432L3.30136 30.7341C3.52947 32.1583 3.8344 33.5691 4.21497 34.9603L21.4606 17.7125Z" fill="url(#paint20_linear_144_536)"/>
<path style="mix-blend-mode:screen" d="M7.9352 41.7577L22.4968 27.1373V26.1664C22.5233 25.6527 22.5233 25.138 22.4968 24.6243L6.73596 40.387C7.09187 40.8805 7.4934 41.3394 7.9352 41.7577Z" fill="url(#paint21_linear_144_536)"/>
<path style="mix-blend-mode:screen" d="M3.07452 27.9367C3.07452 28.3364 3.07452 28.7933 3.07452 29.2502L19.4636 12.8592L18.8355 12.0025L3.07452 27.9367Z" fill="url(#paint22_linear_144_536)"/>
<path style="mix-blend-mode:screen" d="M11.4778 5.54821L3.1405 13.8294C2.63708 14.9843 2.19861 16.1665 1.82712 17.3703L4.56812 14.629C5.0158 12.9273 5.90731 11.375 7.15141 10.1307C8.39551 8.88643 9.94762 7.99481 11.6491 7.54708L13.8191 5.37688C13.0345 5.31762 12.2455 5.37536 11.4778 5.54821Z" fill="url(#paint23_radial_144_536)"/>
<path style="mix-blend-mode:screen" d="M19.2957 11.0342L20.9519 9.37793C20.4776 8.78919 19.9415 8.25306 19.3529 7.77875L17.7539 9.37793C18.3388 9.85941 18.8572 10.4163 19.2957 11.0342Z" fill="url(#paint24_radial_144_536)"/>
<path style="mix-blend-mode:screen" d="M2.6113 27.7094C2.55859 26.7391 2.55859 25.7668 2.6113 24.7966L0.669678 26.7384C0.669678 27.7094 0.669678 28.7374 0.669678 29.7655L2.6113 27.7094Z" fill="url(#paint25_radial_144_536)"/>
<path style="mix-blend-mode:screen" d="M24.5435 16.6308C24.0237 14.7931 23.2755 13.0279 22.3165 11.3765L20.5463 13.1469C21.4037 14.9621 22.0181 16.8824 22.3737 18.8582L24.5435 16.6308Z" fill="url(#paint26_radial_144_536)"/>
<path style="mix-blend-mode:screen" d="M25.9231 26.2808C25.9231 25.4241 25.9231 24.5104 25.9231 23.5966L23.2392 26.2808C23.2392 27.2517 23.2392 28.3369 23.2392 29.4792L25.9231 26.2808Z" fill="url(#paint27_radial_144_536)"/>
<path style="mix-blend-mode:screen" d="M7.40855 44.7881L8.95037 43.246C8.35212 42.8487 7.81372 42.3679 7.35148 41.8182L5.86682 43.3032C6.30809 43.8685 6.82711 44.3684 7.40855 44.7881Z" fill="url(#paint28_radial_144_536)"/>
<path style="mix-blend-mode:screen" d="M23.0052 39.2478C23.536 38.1631 23.9753 37.036 24.3186 35.8782L19.4075 40.847C18.7684 41.6859 18.0193 42.4351 17.1804 43.0743L13.4687 46.7867C14.3206 46.7288 15.1634 46.5756 15.9812 46.3298L23.0052 39.2478Z" fill="url(#paint29_radial_144_536)"/>
<path style="mix-blend-mode:screen" d="M4.33524 36.6758C3.68282 34.8166 3.18623 32.9063 2.85055 30.9647L1.13739 32.7351C1.48917 34.6913 2.04415 36.6054 2.79339 38.4463L4.33524 36.6758Z" fill="url(#paint30_radial_144_536)"/>
<path style="mix-blend-mode:multiply" d="M4.3274 25.8818C4.3274 16.287 8.66741 8.4627 14.0924 8.12003H13.0644C7.35395 8.12003 2.89978 16.1728 2.89978 26.1674C2.89978 36.162 7.46816 44.1576 13.0644 44.1576C13.8917 44.162 14.71 43.9867 15.4628 43.6436H14.4921C8.72447 43.6436 4.3274 35.648 4.3274 25.8818Z" fill="url(#paint31_linear_144_536)"/>
<g style="mix-blend-mode:multiply">
<path style="mix-blend-mode:multiply" d="M6.508 26.0518C6.508 17.1994 10.0485 9.88899 14.7882 8.34696C14.1838 8.12744 13.5467 8.0116 12.9037 8.0043C7.19324 8.0043 2.73904 16.0571 2.73904 26.0518C2.73904 36.0464 7.30745 44.0421 12.9037 44.0421C13.5292 44.1247 14.1628 44.1247 14.7882 44.0421C10.0485 42.1574 6.508 34.847 6.508 26.0518Z" fill="url(#paint32_linear_144_536)"/>
</g>
<path style="mix-blend-mode:multiply" d="M20.6586 4.52228H13.6918C20.8871 4.52228 26.3121 13.3175 26.3121 24.9684C26.3121 36.6192 20.0305 47.8132 12.8923 47.8132H20.2589C28.1394 47.8132 33.6786 37.6473 33.6786 25.9964C33.6786 14.3456 27.8539 4.52228 20.6586 4.52228Z" fill="url(#paint33_linear_144_536)"/>
<path style="mix-blend-mode:screen" d="M27.1754 7.43341L26.1475 6.51959H19.1807L20.2656 7.43341H27.1754Z" fill="url(#paint34_linear_144_536)"/>
<path style="mix-blend-mode:screen" d="M30.8305 12.4038C30.8305 12.4038 30.2024 11.1474 30.0882 10.976H23.0643C23.0643 10.976 23.7496 12.2325 23.8067 12.4038H30.8305Z" fill="url(#paint35_linear_144_536)"/>
<path style="mix-blend-mode:screen" d="M32.3628 16.0563L31.5062 13.9432C29.1649 13.9432 26.8236 13.9432 24.4251 13.9432C24.4251 13.9432 25.1675 15.7708 25.2246 15.9992L32.3628 16.0563Z" fill="url(#paint36_linear_144_536)"/>
<path style="mix-blend-mode:screen" d="M33.6861 26.1082C33.6861 25.3657 33.6861 23.6525 33.6861 22.9672H26.3196C26.3196 23.6525 26.3196 25.6513 26.3196 26.2795L33.6861 26.1082Z" fill="url(#paint37_linear_144_536)"/>
<path style="mix-blend-mode:screen" opacity="0.3" d="M32.5449 34.5622L32.8875 33.1345H25.2925C25.2925 33.6485 25.2926 34.1053 24.8928 34.6193L32.5449 34.5622Z" fill="url(#paint38_linear_144_536)"/>
<path style="mix-blend-mode:screen" opacity="0.3" d="M31.3409 38.1027L31.6836 37.2461H23.9173L23.5746 38.0456C26.2015 37.9314 28.7712 38.0456 31.3409 38.1027Z" fill="url(#paint39_linear_144_536)"/>
<path style="mix-blend-mode:screen" opacity="0.3" d="M29.683 41.2996C29.7983 41.1609 29.8944 41.0072 29.9685 40.8427H22.1451L21.8597 41.2996H29.683Z" fill="url(#paint40_linear_144_536)"/>
<path style="mix-blend-mode:screen" opacity="0.5" d="M33.3989 30.3365V28.8517H25.9182C25.9182 29.3085 25.9182 29.8225 25.9182 30.3365H33.3989Z" fill="url(#paint41_linear_144_536)"/>
<path style="mix-blend-mode:screen" d="M33.4535 20.742C33.4535 20.228 32.9966 18.6288 32.8253 18.1148H25.63C25.63 18.6288 26.0869 20.228 26.144 20.742H33.4535Z" fill="url(#paint42_linear_144_536)"/>
<path style="mix-blend-mode:screen" d="M29.2815 9.94752L28.3679 8.63388H21.4581L22.3718 9.94752H29.2815Z" fill="url(#paint43_linear_144_536)"/>
<path style="mix-blend-mode:screen" d="M21.4584 5.14832H16.1477L17.2898 5.54813H23.7425C23.1144 5.26258 22.372 5.14832 21.4584 5.14832Z" fill="url(#paint44_linear_144_536)"/>
<g style="mix-blend-mode:multiply">
<g style="mix-blend-mode:multiply">
<path d="M24.7692 6.0085C22.6218 5.83457 20.4638 5.83457 18.3163 6.0085C18.3163 6.0085 18.7732 6.35117 19.1158 6.35117C19.4584 6.35117 24.3124 6.35117 25.4544 6.35117C26.5965 6.35117 25.0547 6.0085 24.7692 6.0085Z" fill="#D05900"/>
</g>
<g style="mix-blend-mode:multiply">
<path d="M27.1739 8.12148C25.0265 7.9475 22.8685 7.9475 20.7211 8.12148C20.9474 8.31302 21.2258 8.43239 21.5206 8.46424C22.32 8.46424 26.717 8.46424 27.8591 8.46424C28.3159 8.46424 27.6307 8.17861 27.1739 8.12148Z" fill="#D05900"/>
</g>
<g style="mix-blend-mode:multiply">
<path d="M29.2291 10.8051C27.0817 10.6312 24.9237 10.6312 22.7763 10.8051C22.7763 10.8051 23.2331 11.1477 23.5187 11.1477C23.8042 11.1477 28.7722 11.1477 29.9143 11.1477C31.0564 11.1477 29.5146 10.8051 29.2291 10.8051Z" fill="#D05900"/>
</g>
<g style="mix-blend-mode:multiply">
<path d="M31.0575 13.8335C28.91 13.6595 26.7521 13.6595 24.6046 13.8335C24.6046 13.8335 25.0615 14.1763 25.4041 14.1763C25.7467 14.1763 30.6007 14.1763 31.7429 14.1763C32.0284 14.1763 31.3431 13.8906 31.0575 13.8335Z" fill="#D05900"/>
</g>
<g style="mix-blend-mode:multiply">
<path d="M32.0266 18.115C29.8612 17.9138 27.6819 17.9138 25.5166 18.115C25.7525 18.2805 26.0287 18.3792 26.3161 18.4005C27.1155 18.4005 31.5697 18.4005 32.6547 18.4005C33.7397 18.4005 32.3121 18.115 32.0266 18.115Z" fill="#D05900"/>
</g>
<g style="mix-blend-mode:multiply">
<path d="M32.886 22.8575C30.7386 22.6835 28.5806 22.6835 26.4331 22.8575C26.6594 23.0489 26.9379 23.1683 27.2326 23.2001C28.0321 23.2001 32.4862 23.2001 33.5712 23.2001C34.6562 23.2001 32.886 22.9146 32.886 22.8575Z" fill="#D05900"/>
</g>
<g style="mix-blend-mode:multiply">
<path d="M32.886 28.4514C30.7398 28.2483 28.5793 28.2483 26.4331 28.4514C26.4331 28.4514 26.89 28.4514 27.1755 28.4514C27.461 28.4514 32.4291 28.4514 33.5712 28.4514C33.6283 28.7371 32.886 28.5086 32.886 28.4514Z" fill="#D05900"/>
</g>
<g style="mix-blend-mode:multiply">
<path d="M31.908 33.0803C29.7606 32.9063 27.6026 32.9063 25.4551 33.0803C25.6814 33.2718 25.9599 33.3911 26.2546 33.4229C27.0541 33.4229 31.5082 33.4229 32.5932 33.4229C33.6782 33.4229 32.1935 33.1374 31.908 33.0803Z" fill="#D05900"/>
</g>
<g style="mix-blend-mode:multiply">
<path d="M30.7033 37.1352C28.5558 36.9613 26.3979 36.9613 24.2505 37.1352C24.2505 37.1352 24.7072 37.4778 24.9928 37.4778C25.2783 37.4778 30.2465 37.4778 31.3886 37.4778C31.6741 37.4207 30.9888 37.1352 30.7033 37.1352Z" fill="#D05900"/>
</g>
<g style="mix-blend-mode:multiply">
<path d="M29.0497 40.961C26.9022 40.7872 24.7442 40.7872 22.5968 40.961C22.5968 40.961 23.0536 41.3036 23.3963 41.3036C23.7389 41.3036 28.5928 41.3036 29.7349 41.3036C30.877 41.3036 29.3352 40.961 29.0497 40.961Z" fill="#D05900"/>
</g>
<g style="mix-blend-mode:multiply">
<path d="M27.174 43.3585C25.0277 43.1574 22.8674 43.1574 20.7211 43.3585C20.7211 43.3585 21.1779 43.7011 21.5206 43.7011C21.8632 43.7011 26.7742 43.7011 27.8592 43.7011C28.9442 43.7011 27.174 43.3585 27.174 43.3585Z" fill="#D05900"/>
</g>
<g style="mix-blend-mode:multiply">
<path d="M24.7691 45.3573C22.6217 45.1834 20.4636 45.1834 18.3162 45.3573C18.3162 45.3573 18.773 45.7 19.1157 45.7C19.4583 45.7 24.3122 45.7 25.4544 45.7C26.5965 45.7 25.0546 45.3573 24.7691 45.3573Z" fill="#D05900"/>
</g>
</g>
<path d="M26.7104 26.0541C26.7104 33.7071 23.6267 46.5002 14.1473 47.4711C2.72632 48.5562 -0.414461 31.5369 0.0423786 23.4841C0.499218 15.4313 4.89634 2.69538 14.7184 4.63718C24.5404 6.57899 27.1672 15.8882 26.7104 26.0541ZM25.9109 26.0541C25.9109 18.8009 23.2841 7.26435 14.8325 5.55099C6.38101 3.83764 1.64129 15.5455 0.72761 22.2847C-0.300279 30.2233 2.55502 46.7287 13.0052 46.7858C23.4554 46.8429 25.8538 33.4787 25.9109 26.0541Z" fill="#D05900"/>
<path d="M5.12964 10.0639C5.99307 8.63948 7.17438 7.43424 8.58116 6.54251C9.98795 5.65078 11.582 5.09678 13.2386 4.92386C18.3209 4.92386 23.8031 8.92169 25.5162 18.9163C26.4013 23.729 26.2455 28.6753 25.0594 33.4228C25.5617 28.3544 25.3503 23.2406 24.4312 18.231C22.8894 11.4918 19.1204 5.9519 13.0102 5.66634C11.4668 5.82558 9.97204 6.29763 8.61715 7.05371C7.26226 7.8098 6.07564 8.83399 5.12964 10.0639Z" fill="white"/>
<path style="mix-blend-mode:multiply" opacity="0.6" d="M32.077 14.6866C30.1926 9.94627 26.8234 4.57777 21.1129 4.63488H15.4024L16.2589 5.20604H20.1421C26.595 5.20604 30.1926 12.2308 31.5631 17.6564C33.3515 24.2132 33.0318 31.1664 30.6494 37.5314C29.9505 40.1043 28.482 42.4022 26.4408 44.117C24.3995 45.8319 21.883 46.8819 19.2284 47.1263H14.6029L12.6042 47.6973C15.7088 47.9032 18.8261 47.8077 21.9123 47.4118C24.5442 46.4656 26.8853 44.8525 28.7071 42.7302C30.5288 40.6079 31.7687 38.0491 32.3054 35.304C34.4085 28.5799 34.3285 21.3624 32.077 14.6866Z" fill="url(#paint45_linear_144_536)"/>
<defs>
<linearGradient id="paint0_linear_144_536" x1="19884.1" y1="12217.8" x2="20223.4" y2="13314.9" gradientUnits="userSpaceOnUse">
<stop offset="0.14" stop-color="#EAC991"/>
<stop offset="0.51" stop-color="#D5A76F"/>
<stop offset="1" stop-color="#A14E01"/>
</linearGradient>
<radialGradient id="paint1_radial_144_536" cx="0" cy="0" r="1" gradientUnits="userSpaceOnUse" gradientTransform="translate(18942.7 10510.2) scale(1024.81 451.506)">
<stop stop-color="#FDF9E3"/>
<stop offset="0.9" stop-color="#EAC991"/>
</radialGradient>
<linearGradient id="paint2_linear_144_536" x1="17624.9" y1="9987.41" x2="18193.5" y2="11377.5" gradientUnits="userSpaceOnUse">
<stop stop-color="#FDF9E3"/>
<stop offset="0.37" stop-color="#EAC991"/>
<stop offset="0.94" stop-color="#D47F02"/>
</linearGradient>
<linearGradient id="paint3_linear_144_536" x1="5674.86" y1="4172.02" x2="5709.96" y2="4239.87" gradientUnits="userSpaceOnUse">
<stop offset="0.14" stop-color="white"/>
<stop offset="0.96"/>
</linearGradient>
<linearGradient id="paint4_linear_144_536" x1="4356.78" y1="388.798" x2="4358.09" y2="408.601" gradientUnits="userSpaceOnUse">
<stop offset="0.14" stop-color="white"/>
<stop offset="0.96"/>
</linearGradient>
<radialGradient id="paint5_radial_144_536" cx="0" cy="0" r="1" gradientUnits="userSpaceOnUse" gradientTransform="translate(17130.3 3751.3) scale(1484.65 265.069)">
<stop offset="0.84" stop-color="white"/>
<stop offset="0.94" stop-color="#D47F02"/>
</radialGradient>
<radialGradient id="paint6_radial_144_536" cx="0" cy="0" r="1" gradientUnits="userSpaceOnUse" gradientTransform="translate(17223.7 4765.77) scale(615.557 135.78)">
<stop offset="0.14" stop-color="white"/>
<stop offset="0.96"/>
</radialGradient>
<radialGradient id="paint7_radial_144_536" cx="0" cy="0" r="1" gradientUnits="userSpaceOnUse" gradientTransform="translate(16228.6 4501.45) scale(678.71 139.656)">
<stop offset="0.14" stop-color="white"/>
<stop offset="0.96"/>
</radialGradient>
<linearGradient id="paint8_linear_144_536" x1="5544.04" y1="7599.45" x2="5407.69" y2="7737.2" gradientUnits="userSpaceOnUse">
<stop offset="0.04" stop-color="#FFF6FF"/>
<stop offset="0.18" stop-color="#FCD9B5"/>
<stop offset="0.95" stop-color="#E12100"/>
</linearGradient>
<linearGradient id="paint9_linear_144_536" x1="5776.49" y1="9895.14" x2="5977.4" y2="9895.14" gradientUnits="userSpaceOnUse">
<stop offset="0.09" stop-color="white"/>
<stop offset="0.38" stop-color="#EDB500"/>
<stop offset="0.64" stop-color="#BC6300"/>
<stop offset="0.96" stop-color="#704000"/>
</linearGradient>
<linearGradient id="paint10_linear_144_536" x1="3487.05" y1="9519.76" x2="3487.05" y2="9837.15" gradientUnits="userSpaceOnUse">
<stop offset="0.11" stop-color="#FFFB74"/>
<stop offset="0.49" stop-color="#FFFA00"/>
<stop offset="0.93" stop-color="#FFC921"/>
</linearGradient>
<linearGradient id="paint11_linear_144_536" x1="4543.91" y1="9587.29" x2="4359.06" y2="9678.66" gradientUnits="userSpaceOnUse">
<stop offset="0.11" stop-color="#FFFB74"/>
<stop offset="0.49" stop-color="#FFFA00"/>
<stop offset="0.93" stop-color="#FFC921"/>
</linearGradient>
<radialGradient id="paint12_radial_144_536" cx="0" cy="0" r="1" gradientUnits="userSpaceOnUse" gradientTransform="translate(4043.49 5875.13) scale(301.814 344.334)">
<stop offset="0.39" stop-color="#F6C100"/>
<stop offset="1" stop-color="#EA6500"/>
</radialGradient>
<radialGradient id="paint13_radial_144_536" cx="0" cy="0" r="1" gradientUnits="userSpaceOnUse" gradientTransform="translate(1848.86 2354.06) scale(137.865 137.883)">
<stop offset="0.39" stop-color="#F6C100"/>
<stop offset="1" stop-color="#EA6500"/>
</radialGradient>
<radialGradient id="paint14_radial_144_536" cx="0" cy="0" r="1" gradientUnits="userSpaceOnUse" gradientTransform="translate(2069.72 2651.2) scale(153.517 153.534)">
<stop offset="0.15" stop-color="white"/>
<stop offset="1" stop-color="#FFFB62"/>
</radialGradient>
<linearGradient id="paint15_linear_144_536" x1="3452.85" y1="8175.58" x2="3587.75" y2="8292.37" gradientUnits="userSpaceOnUse">
<stop offset="0.11" stop-color="#FFFB74"/>
<stop offset="0.49" stop-color="#FFFA00"/>
<stop offset="0.93" stop-color="#FFC921"/>
</linearGradient>
<radialGradient id="paint16_radial_144_536" cx="0" cy="0" r="1" gradientUnits="userSpaceOnUse" gradientTransform="translate(1952.33 2693.68) scale(29.0916 29.9722)">
<stop offset="0.39" stop-color="#F6C100"/>
<stop offset="1" stop-color="#EA6500"/>
</radialGradient>
<radialGradient id="paint17_radial_144_536" cx="0" cy="0" r="1" gradientUnits="userSpaceOnUse" gradientTransform="translate(3024.03 4525.04) scale(55.2318 61.6116)">
<stop offset="0.39" stop-color="#F6C100"/>
<stop offset="1" stop-color="#EA6500"/>
</radialGradient>
<radialGradient id="paint18_radial_144_536" cx="0" cy="0" r="1" gradientUnits="userSpaceOnUse" gradientTransform="translate(3261.37 5648.98) scale(106.472 136.955)">
<stop offset="0.39" stop-color="#F6C100"/>
<stop offset="1" stop-color="#EA6500"/>
</radialGradient>
<radialGradient id="paint19_radial_144_536" cx="0" cy="0" r="1" gradientUnits="userSpaceOnUse" gradientTransform="translate(2143.65 3054.73) scale(69.7258 73.5031)">
<stop offset="0.39" stop-color="#F6C100"/>
<stop offset="1" stop-color="#EA6500"/>
</radialGradient>
<linearGradient id="paint20_linear_144_536" x1="3143.4" y1="4810.9" x2="3076.48" y2="4843.48" gradientUnits="userSpaceOnUse">
<stop offset="0.46" stop-color="white"/>
<stop offset="0.54" stop-color="#FFFFFB"/>
<stop offset="0.63" stop-color="#FFFFEF"/>
<stop offset="0.72" stop-color="#FFFEDB"/>
<stop offset="0.8" stop-color="#FFFDBF"/>
<stop offset="0.89" stop-color="#FFFC9B"/>
<stop offset="0.98" stop-color="#FFFB70"/>
<stop offset="1" stop-color="#FFFB62"/>
</linearGradient>
<linearGradient id="paint21_linear_144_536" x1="2747.85" y1="3958.8" x2="2691.16" y2="3988.37" gradientUnits="userSpaceOnUse">
<stop offset="0.46" stop-color="white"/>
<stop offset="0.54" stop-color="#FFFFFB"/>
<stop offset="0.63" stop-color="#FFFFEF"/>
<stop offset="0.72" stop-color="#FFFEDB"/>
<stop offset="0.8" stop-color="#FFFDBF"/>
<stop offset="0.89" stop-color="#FFFC9B"/>
<stop offset="0.98" stop-color="#FFFB70"/>
<stop offset="1" stop-color="#FFFB62"/>
</linearGradient>
<linearGradient id="paint22_linear_144_536" x1="2831.5" y1="3938.27" x2="2773.43" y2="3969.53" gradientUnits="userSpaceOnUse">
<stop offset="0.46" stop-color="white"/>
<stop offset="0.54" stop-color="#FFFFFB"/>
<stop offset="0.63" stop-color="#FFFFEF"/>
<stop offset="0.72" stop-color="#FFFEDB"/>
<stop offset="0.8" stop-color="#FFFDBF"/>
<stop offset="0.89" stop-color="#FFFC9B"/>
<stop offset="0.98" stop-color="#FFFB70"/>
<stop offset="1" stop-color="#FFFB62"/>
</linearGradient>
<radialGradient id="paint23_radial_144_536" cx="0" cy="0" r="1" gradientUnits="userSpaceOnUse" gradientTransform="translate(2047.79 2730.82) scale(12.5916 12.6168)">
<stop offset="0.15" stop-color="white"/>
<stop offset="1" stop-color="#FFFB62"/>
</radialGradient>
<radialGradient id="paint24_radial_144_536" cx="0" cy="0" r="1" gradientUnits="userSpaceOnUse" gradientTransform="translate(569.821 745.04) scale(0.895434 0.911525)">
<stop offset="0.15" stop-color="white"/>
<stop offset="1" stop-color="#FFFB62"/>
</radialGradient>
<radialGradient id="paint25_radial_144_536" cx="0" cy="0" r="1" gradientUnits="userSpaceOnUse" gradientTransform="translate(329.814 1165.51) scale(0.640736 1.63974)">
<stop offset="0.15" stop-color="white"/>
<stop offset="1" stop-color="#FFFB62"/>
</radialGradient>
<radialGradient id="paint26_radial_144_536" cx="0" cy="0" r="1" gradientUnits="userSpaceOnUse" gradientTransform="translate(712.828 1713.25) scale(2.07856 3.8905)">
<stop offset="0.15" stop-color="white"/>
<stop offset="1" stop-color="#FFFB62"/>
</radialGradient>
<radialGradient id="paint27_radial_144_536" cx="0" cy="0" r="1" gradientUnits="userSpaceOnUse" gradientTransform="translate(488.964 1373.24) scale(1.10043 2.41186)">
<stop offset="0.15" stop-color="white"/>
<stop offset="1" stop-color="#FFFB62"/>
</radialGradient>
<radialGradient id="paint28_radial_144_536" cx="0" cy="0" r="1" gradientUnits="userSpaceOnUse" gradientTransform="translate(531.735 732.061) scale(0.832558 0.801883)">
<stop offset="0.15" stop-color="white"/>
<stop offset="1" stop-color="#FFFB62"/>
</radialGradient>
<radialGradient id="paint29_radial_144_536" cx="0" cy="0" r="1" gradientUnits="userSpaceOnUse" gradientTransform="translate(1885.62 2567.31) scale(10.3074 10.3631)">
<stop offset="0.15" stop-color="white"/>
<stop offset="1" stop-color="#FFFB62"/>
</radialGradient>
<radialGradient id="paint30_radial_144_536" cx="0" cy="0" r="1" gradientUnits="userSpaceOnUse" gradientTransform="translate(543.941 1758.24) scale(1.59893 3.74081)">
<stop offset="0.15" stop-color="white"/>
<stop offset="1" stop-color="#FFFB62"/>
</radialGradient>
<linearGradient id="paint31_linear_144_536" x1="2150.05" y1="8169.21" x2="2136.65" y2="8411.45" gradientUnits="userSpaceOnUse">
<stop offset="0.11" stop-color="#BC6300"/>
<stop offset="0.38" stop-color="#EDB500"/>
<stop offset="0.64" stop-color="#BC6300"/>
<stop offset="0.96" stop-color="#704000"/>
</linearGradient>
<linearGradient id="paint32_linear_144_536" x1="2060.5" y1="8170.51" x2="2060.5" y2="8403.36" gradientUnits="userSpaceOnUse">
<stop offset="0.11" stop-color="#BC6300"/>
<stop offset="0.38" stop-color="#EDB500"/>
<stop offset="0.64" stop-color="#BC6300"/>
<stop offset="0.96" stop-color="#704000"/>
</linearGradient>
<linearGradient id="paint33_linear_144_536" x1="3615.57" y1="9784.37" x2="3615.57" y2="10087" gradientUnits="userSpaceOnUse">
<stop offset="0.09" stop-color="white"/>
<stop offset="0.38" stop-color="#EDB500"/>
<stop offset="0.64" stop-color="#BC6300"/>
<stop offset="0.96" stop-color="#704000"/>
</linearGradient>
<linearGradient id="paint34_linear_144_536" x1="1399.22" y1="213.088" x2="1410.41" y2="213.088" gradientUnits="userSpaceOnUse">
<stop offset="0.06" stop-color="white"/>
<stop offset="0.19" stop-color="#FFFFF0"/>
<stop offset="0.45" stop-color="#FFFEC8"/>
<stop offset="0.81" stop-color="#FFFC88"/>
<stop offset="1" stop-color="#FFFB62"/>
</linearGradient>
<linearGradient id="paint35_linear_144_536" x1="1368.8" y1="334.933" x2="1379.36" y2="334.933" gradientUnits="userSpaceOnUse">
<stop offset="0.06" stop-color="white"/>
<stop offset="0.19" stop-color="#FFFFF0"/>
<stop offset="0.45" stop-color="#FFFEC8"/>
<stop offset="0.81" stop-color="#FFFC88"/>
<stop offset="1" stop-color="#FFFB62"/>
</linearGradient>
<linearGradient id="paint36_linear_144_536" x1="1401.78" y1="494.578" x2="1412.81" y2="494.578" gradientUnits="userSpaceOnUse">
<stop offset="0.06" stop-color="white"/>
<stop offset="0.19" stop-color="#FFFFF0"/>
<stop offset="0.45" stop-color="#FFFEC8"/>
<stop offset="0.81" stop-color="#FFFC88"/>
<stop offset="1" stop-color="#FFFB62"/>
</linearGradient>
<linearGradient id="paint37_linear_144_536" x1="1306.91" y1="781.959" x2="1316.49" y2="781.959" gradientUnits="userSpaceOnUse">
<stop offset="0.06" stop-color="white"/>
<stop offset="0.19" stop-color="#FFFFF0"/>
<stop offset="0.45" stop-color="#FFFEC8"/>
<stop offset="0.81" stop-color="#FFFC88"/>
<stop offset="1" stop-color="#FFFB62"/>
</linearGradient>
<linearGradient id="paint38_linear_144_536" x1="1412.77" y1="375.762" x2="1423.96" y2="375.762" gradientUnits="userSpaceOnUse">
<stop offset="0.06" stop-color="white"/>
<stop offset="0.19" stop-color="#FFFFF0"/>
<stop offset="0.45" stop-color="#FFFEC8"/>
<stop offset="0.81" stop-color="#FFFC88"/>
<stop offset="1" stop-color="#FFFB62"/>
</linearGradient>
<linearGradient id="paint39_linear_144_536" x1="1429.42" y1="235.495" x2="1440.93" y2="235.495" gradientUnits="userSpaceOnUse">
<stop offset="0.06" stop-color="white"/>
<stop offset="0.19" stop-color="#FFFFF0"/>
<stop offset="0.45" stop-color="#FFFEC8"/>
<stop offset="0.81" stop-color="#FFFC88"/>
<stop offset="1" stop-color="#FFFB62"/>
</linearGradient>
<linearGradient id="paint40_linear_144_536" x1="1425.26" y1="146.869" x2="1436.77" y2="146.869" gradientUnits="userSpaceOnUse">
<stop offset="0.06" stop-color="white"/>
<stop offset="0.19" stop-color="#FFFFF0"/>
<stop offset="0.45" stop-color="#FFFEC8"/>
<stop offset="0.81" stop-color="#FFFC88"/>
<stop offset="1" stop-color="#FFFB62"/>
</linearGradient>
<linearGradient id="paint41_linear_144_536" x1="1325.84" y1="370.38" x2="1335.94" y2="370.38" gradientUnits="userSpaceOnUse">
<stop offset="0.06" stop-color="white"/>
<stop offset="0.19" stop-color="#FFFFF0"/>
<stop offset="0.45" stop-color="#FFFEC8"/>
<stop offset="0.81" stop-color="#FFFC88"/>
<stop offset="1" stop-color="#FFFB62"/>
</linearGradient>
<linearGradient id="paint42_linear_144_536" x1="1384.8" y1="617.708" x2="1395.52" y2="617.708" gradientUnits="userSpaceOnUse">
<stop offset="0.06" stop-color="white"/>
<stop offset="0.19" stop-color="#FFFFF0"/>
<stop offset="0.45" stop-color="#FFFEC8"/>
<stop offset="0.81" stop-color="#FFFC88"/>
<stop offset="1" stop-color="#FFFB62"/>
</linearGradient>
<linearGradient id="paint43_linear_144_536" x1="1374.83" y1="306.107" x2="1385.62" y2="306.107" gradientUnits="userSpaceOnUse">
<stop offset="0.06" stop-color="white"/>
<stop offset="0.19" stop-color="#FFFFF0"/>
<stop offset="0.45" stop-color="#FFFEC8"/>
<stop offset="0.81" stop-color="#FFFC88"/>
<stop offset="1" stop-color="#FFFB62"/>
</linearGradient>
<linearGradient id="paint44_linear_144_536" x1="1323.14" y1="95.3993" x2="1333.25" y2="95.3993" gradientUnits="userSpaceOnUse">
<stop offset="0.06" stop-color="white"/>
<stop offset="0.19" stop-color="#FFFFF0"/>
<stop offset="0.45" stop-color="#FFFEC8"/>
<stop offset="0.81" stop-color="#FFFC88"/>
<stop offset="1" stop-color="#FFFB62"/>
</linearGradient>
<linearGradient id="paint45_linear_144_536" x1="3651.76" y1="9907.04" x2="3730.28" y2="9907.04" gradientUnits="userSpaceOnUse">
<stop offset="0.09" stop-color="white"/>
<stop offset="0.38" stop-color="#EDB500"/>
<stop offset="0.64" stop-color="#BC6300"/>
<stop offset="0.96" stop-color="#704000"/>
</linearGradient>
</defs>
</svg>
