<svg width="157" height="50" viewBox="0 0 157 50" fill="none" xmlns="http://www.w3.org/2000/svg">
<path d="M156.568 13.3035C156.568 9.48443 157.005 4.90881 151.106 3.39561C148.418 2.80299 145.63 2.42794 142.804 2.27872C135.202 1.54711 127.542 1.10204 119.863 0.945673C91.0235 0.441274 59.7805 -0.783696 31.0499 1.84639C24.9324 2.38681 20.1257 2.81916 16.3023 3.28753C14.1361 3.48062 12.0938 4.06685 10.4032 4.98086C8.97538 6.10196 8.18367 7.51589 8.16382 8.98003C7.94539 10.3092 7.94539 11.65 8.16382 12.9792C8.5534 16.4934 9.20968 19.9926 10.1302 23.4635C11.0587 27.4627 12.2604 31.2457 13.2982 34.8845C13.7898 36.5418 14.2813 38.1631 14.8822 39.7484C15.293 40.9743 15.8407 42.1786 16.5208 43.3512C16.9351 44.2962 17.7181 45.1529 18.7916 45.8357C19.8651 46.5185 21.1916 47.0036 22.6383 47.2423C25.4786 47.5305 29.3021 47.4945 35.4742 47.6386C48.474 47.9629 61.6376 48.3232 74.6373 48.5393C92.116 48.8275 109.649 49.1518 127.128 49.2239C130.351 49.2239 132.972 49.2239 135.266 49.2239C137.105 49.3374 138.96 49.215 140.728 48.8636C142.66 48.8284 144.506 48.3287 145.917 47.4585C147.48 46.1949 148.548 44.6981 149.031 43.099C149.85 41.0454 150.615 38.9197 151.216 36.758C152.035 33.8757 152.472 30.9574 153.4 28.0391C154.329 25.1208 155.312 21.8062 155.858 18.5996C156.295 16.9063 156.295 15.1409 156.568 13.3035Z" fill="url(#paint0_linear_197_642)"/>
<g style="mix-blend-mode:multiply" opacity="0.5">
<path d="M156.562 10.7438C155.525 10.7078 154.485 10.7078 153.448 10.7438C150.796 11.2067 148.049 11.3891 145.31 11.2842C145.148 11.3102 144.98 11.3102 144.818 11.2842C144.054 17.2289 142.743 23.1737 141.268 29.0463C140.503 32.1447 141.76 37.6931 135.806 39.1343C124.882 41.8724 109.206 39.9629 97.5713 39.9269C74.139 39.9269 50.4882 39.9269 27.0013 39.1703C26.0154 41.7582 25.2495 44.3803 24.7072 47.0245V47.637C27.2744 47.637 30.6609 47.637 35.6314 47.8532C48.6311 48.1774 61.7947 48.5377 74.7945 48.7539C92.2731 49.0421 109.806 49.3664 127.285 49.4384C130.508 49.4384 133.129 49.4384 135.424 49.4384C137.262 49.5519 139.117 49.4296 140.886 49.0781C142.817 49.043 144.663 48.5433 146.075 47.673C147.637 46.4095 148.706 44.9127 149.188 43.3136C150.007 41.26 150.772 39.1343 151.373 36.9726C152.192 34.0903 152.629 31.172 153.558 28.2537C154.486 25.3354 155.469 22.0207 156.016 18.8142C156.398 16.9767 156.616 15.2114 156.726 13.2298C156.562 12.4011 156.616 11.5725 156.562 10.7438Z" fill="#D47F02"/>
</g>
<g style="mix-blend-mode:multiply" opacity="0.2">
<path d="M21.7628 10.4198C51.8588 7.57357 82.665 8.29414 112.979 8.00591C122.091 7.75456 131.218 7.93517 140.29 8.54634C140.971 8.58324 141.647 8.65553 142.311 8.76252C142.955 7.8681 143.685 7.00166 144.496 6.16846C145.588 5.01555 146.68 3.86263 147.664 2.56561L142.693 2.06121C135.091 1.3296 127.432 0.884511 119.752 0.728144C90.9126 0.223744 59.6696 -1.00123 30.9391 1.62886C25.477 2.13326 20.6703 2.52958 17.0654 2.96192C17.9939 4.54718 19.0864 6.02434 20.0149 7.60959C20.509 8.56925 21.0927 9.5078 21.7628 10.4198Z" fill="#D47F02"/>
</g>
<g style="mix-blend-mode:multiply" opacity="0.2">
<path d="M47.7028 1.05193C42.1143 1.06538 36.5324 1.30603 30.9888 1.7725L26.5646 2.13279C27.1534 4.71461 28.1417 7.24984 29.514 9.69878C35.1661 9.20353 40.8554 8.91486 46.5558 8.83409C47.0474 6.27606 47.375 3.68201 47.7028 1.05193Z" fill="#D47F02"/>
</g>
<g style="mix-blend-mode:multiply" opacity="0.2">
<path d="M133.684 1.59296C129.478 1.30474 126.037 1.0165 119.81 0.872391H109.541C107.827 3.26721 105.498 5.44892 102.659 7.3215L101.13 8.25824H112.982H125.818C128.214 5.92427 130.841 3.69763 133.684 1.59296Z" fill="#D47F02"/>
</g>
<g style="mix-blend-mode:multiply" opacity="0.2">
<path d="M144.607 2.49371H142.75H140.511C139.473 4.36719 136.141 5.88039 133.52 7.46565C133 7.79635 132.508 8.14511 132.045 8.51046H135.814C138.971 6.65435 141.911 4.64301 144.607 2.49371Z" fill="#D47F02"/>
</g>
<g style="mix-blend-mode:multiply" opacity="0.2">
<path d="M21.1636 36.5767C20.9672 35.9957 20.8394 35.4054 20.7813 34.8114C20.5082 33.2261 20.3443 31.6769 20.0712 30.0916C19.6584 24.6093 18.6361 19.1543 17.0124 13.7707C13.5302 13.363 10.3564 12.1957 8 10.4561C8.00952 11.2758 8.10069 12.0942 8.27304 12.906C8.66262 16.4203 9.3189 19.9194 10.2394 23.3903C11.1679 27.3895 12.3696 31.1725 13.4074 34.8114C13.899 36.4687 14.3906 38.0899 14.9915 39.6752C15.3192 40.5759 15.6469 41.5487 16.0839 42.4134C17.0719 40.2354 18.8104 38.2378 21.1636 36.5767Z" fill="#D47F02"/>
</g>
<g style="mix-blend-mode:multiply" opacity="0.2">
<path d="M17.8249 17.625H18.2073C18.2073 16.7243 17.7157 15.7875 17.388 14.8868C13.1822 14.4185 10.3419 13.77 8.32099 13.5178C8.32099 15.6795 8.92183 17.7691 9.35879 19.8227C12.1139 18.9826 14.9407 18.2488 17.8249 17.625Z" fill="#D47F02"/>
</g>
<g style="mix-blend-mode:multiply" opacity="0.2">
<path d="M18.8701 21.1925C18.8701 20.9043 18.8701 20.6521 18.8701 20.3639C15.7905 20.9158 12.8733 21.8049 10.24 22.9939C10.2093 23.1253 10.2093 23.2589 10.24 23.3903C10.24 24.1469 10.5678 24.8674 10.7863 25.588C13.2852 23.9729 15.9897 22.5024 18.8701 21.1925Z" fill="#D47F02"/>
</g>
<g style="mix-blend-mode:multiply" opacity="0.2">
<path d="M13.6279 26.5609C14.2203 26.0895 14.8589 25.6442 15.5396 25.2279C16.6426 24.5669 17.8514 23.987 19.1446 23.4985C15.9086 24.5555 13.2402 26.2401 11.4977 28.3263C11.9916 27.6373 12.7207 27.033 13.6279 26.5609Z" fill="#D47F02"/>
</g>
<g style="mix-blend-mode:multiply" opacity="0.2">
<path d="M15.0372 39.7841C16.1351 37.3576 17.9963 35.111 20.4994 33.1909V32.1821C18.0368 33.6795 15.9368 35.417 14.2725 37.3342C14.2725 38.1268 14.7641 38.8834 15.0372 39.64V39.7841Z" fill="#D47F02"/>
</g>
<g style="mix-blend-mode:multiply" opacity="0.5">
<path d="M155.802 15.283H156.349C156.349 14.5624 156.349 13.8418 156.349 13.1213C156.608 10.9263 156.275 8.71841 155.366 6.6001C152.361 7.89712 149.084 9.44636 144.824 11.1397C144.136 12.2139 143.747 13.3612 143.677 14.5264C147.755 14.3078 151.859 14.5639 155.802 15.283Z" fill="#D47F02"/>
</g>
<g style="mix-blend-mode:multiply" opacity="0.3">
<path d="M143.89 21.0491C143.89 22.7064 143.289 23.2108 143.126 24.8321C146.803 24.792 150.473 25.0583 154.05 25.6247C154.487 24.1476 154.869 22.6344 155.197 21.1572C151.436 20.9589 147.659 20.9228 143.89 21.0491Z" fill="#D47F02"/>
</g>
<g style="mix-blend-mode:multiply" opacity="0.3">
<path d="M34.4327 42.4487C34.8673 41.4619 35.4151 40.4984 36.0714 39.5665L36.4537 39.1701C31.9738 38.8513 27.4665 38.731 22.9622 38.8099C22.8601 39.1027 22.7325 39.3914 22.5799 39.6745C21.8049 41.6659 21.2211 43.6875 20.832 45.7273L20.5043 46.8442C21.1898 47.1195 21.9508 47.3031 22.7438 47.3846C25.8828 47.6018 29.037 47.7101 32.1932 47.7089C32.9579 45.9795 33.6134 44.2141 34.4327 42.4487Z" fill="#D47F02"/>
</g>
<g style="mix-blend-mode:multiply" opacity="0.5">
<path d="M84.7993 40.5396C75.0768 40.3595 65.2996 40.1433 55.5771 39.8911C57.7361 42.4561 58.4884 45.4336 57.7073 48.3218L74.7491 48.646H87.9127C86.0531 46.1109 84.9939 43.3529 84.7993 40.5396Z" fill="#D47F02"/>
</g>
<g style="mix-blend-mode:multiply" opacity="0.2">
<path d="M153.884 26.7418C150.543 25.5101 146.786 24.8533 142.96 24.8323C142.96 25.3367 142.686 27.03 142.632 27.4984C142.473 30.657 141.925 33.8019 140.993 36.9018C140.82 37.493 140.469 38.0555 139.963 38.5565C139.457 39.0575 138.804 39.4871 138.044 39.8202C135.472 40.6213 132.635 40.9807 129.796 40.865C117.561 41.1532 105.271 40.865 92.9816 40.865C93.0806 43.7093 94.0855 46.5081 95.9311 49.0795C106.309 49.0795 116.687 49.4037 127.065 49.4758C130.288 49.4758 132.909 49.4758 135.203 49.4758C137.042 49.5893 138.897 49.467 140.666 49.1155C142.597 49.0804 144.443 48.5806 145.854 47.7104C147.417 46.4468 148.486 44.95 148.968 43.3509C149.787 41.2973 150.552 39.1716 151.153 37.0099C151.972 34.1277 152.409 31.2093 153.338 28.291L153.884 26.7418Z" fill="#D47F02"/>
</g>
<g style="mix-blend-mode:screen" opacity="0.1">
<path d="M134.45 40.6474C133.03 40.6474 131.5 40.6474 129.807 40.8636H124.837C124.837 43.6378 124.837 46.448 124.837 49.2222H126.803C130.026 49.2222 132.648 49.2222 134.942 49.2222C135.106 46.5561 134.832 43.6018 134.45 40.6474Z" fill="#FDF9E3"/>
</g>
<g style="mix-blend-mode:screen" opacity="0.2">
<path d="M142.145 45.1503C141.435 43.6371 140.561 42.0878 139.578 40.5386C139.851 43.4569 139.578 46.4112 139.578 49.3296L140.944 49.0774C141.855 49.0316 142.754 48.9106 143.62 48.7171C143.24 47.5093 142.747 46.3182 142.145 45.1503Z" fill="#FDF9E3"/>
</g>
<g style="mix-blend-mode:screen" opacity="0.2">
<path d="M152.366 32.2891C149.31 31.1877 146.01 30.4096 142.588 29.9833C142.315 31.7847 141.824 35.0633 141.223 36.8287C143.618 36.987 145.93 37.4914 147.996 38.3059L150.508 39.2066C150.782 38.486 151 37.7294 151.219 36.9728C151.656 35.4236 151.983 33.8744 152.366 32.2891Z" fill="#FDF9E3"/>
</g>
<g style="mix-blend-mode:screen" opacity="0.5">
<g style="mix-blend-mode:screen" opacity="0.5">
<path d="M14.7209 11.0693C15.1904 10.4018 15.777 9.77302 16.4687 9.19578C15.1137 7.46274 13.9456 5.66888 12.973 3.82751C12.0064 4.07933 11.1179 4.44564 10.3512 4.90837C9.18738 5.80169 8.46339 6.90756 8.27559 8.07889C9.6007 9.06524 11.218 9.86222 13.0277 10.4207L14.7209 11.0693Z" fill="#FFEED9"/>
</g>
<g style="mix-blend-mode:screen" opacity="0.5">
<path d="M145.918 8.87093C146.246 9.37533 146.574 9.87972 146.956 10.3481C150.157 10.2182 153.368 10.2182 156.569 10.3481C156.569 7.50185 155.586 4.6556 151.599 3.39461C150.899 4.43553 149.98 5.4059 148.868 6.27688L145.918 8.87093Z" fill="#FFDC7C"/>
</g>
<g style="mix-blend-mode:screen" opacity="0.9">
<path d="M139.911 41.6922L139.474 41.9444C139.64 43.1571 139.932 44.3609 140.348 45.5472C140.348 46.7722 140.676 47.9971 140.785 49.1501C142.665 49.1054 144.454 48.6051 145.81 47.745C146.769 47.0757 147.496 46.2765 147.94 45.4031C145.428 44.07 142.97 42.9892 140.239 41.5841L139.911 41.6922Z" fill="#FFDC7C"/>
</g>
<g style="mix-blend-mode:screen" opacity="0.5">
<path d="M21.4974 38.5223C19.5844 40.1351 18.1399 41.9673 17.237 43.9266C17.6784 44.6427 18.3447 45.289 19.192 45.823C20.0392 46.357 21.0484 46.7667 22.1529 47.0251C22.4806 44.395 22.6991 41.6208 22.7537 38.8106L21.4974 38.5223Z" fill="#FFDC7C"/>
</g>
</g>
<path d="M15.0974 8.83458C13.9357 7.31046 12.8965 5.74706 11.9841 4.15086C11.388 4.35241 10.8366 4.60699 10.3455 4.90746C10.3455 4.90746 10.3455 4.90746 10.3455 4.90746C11.8098 6.27761 13.3965 7.58897 15.0974 8.83458Z" fill="#FFF6E6"/>
<path d="M148.431 10.0605L151.162 9.26791C152.704 8.67474 154.182 8.01267 155.586 7.28633C153.132 8.13143 150.744 9.05732 148.431 10.0605Z" fill="#FFF6E6"/>
<path d="M155.142 6.0974C154.663 5.33197 153.914 4.65277 152.958 4.11583C151.1 5.44889 149.571 7.32237 147.495 8.90763C150.281 7.75471 152.903 6.854 155.142 6.0974Z" fill="#FFF6E6"/>
<path d="M144.444 45.2596C144.99 45.9801 145.591 46.7367 146.246 47.4213C146.568 47.1722 146.86 46.9072 147.12 46.6286C146.372 46.291 145.693 45.8914 145.099 45.4397C144.498 45.0074 143.952 44.6111 143.351 44.2508C143.788 44.55 144.156 44.8899 144.444 45.2596Z" fill="#FFF6E6"/>
<path d="M18.0469 45.1887C18.0469 45.0085 18.0469 44.8644 18.0469 44.7563C18.4624 43.5941 18.9915 42.4508 19.6309 41.3336C18.732 42.4011 17.9472 43.5087 17.2822 44.6483L18.0469 45.1887Z" fill="#FFF6E6"/>
<g style="mix-blend-mode:multiply" opacity="0.6">
<path d="M156.568 13.3031C156.568 9.48403 157.005 4.90841 151.106 3.39522C148.418 2.80259 145.63 2.42755 142.804 2.27833C135.202 1.54672 127.542 1.10165 119.863 0.945278C91.0235 0.440879 59.7805 -0.820118 31.0499 1.84599C24.9324 2.38642 20.1257 2.81877 16.3023 3.28714C14.1361 3.48022 12.0938 4.06646 10.4032 4.98047C8.97538 6.10156 8.18367 7.51549 8.16382 8.97963C7.94539 10.3088 7.94539 11.6496 8.16382 12.9788C8.5534 16.493 9.20968 19.9922 10.1302 23.4631C11.0587 27.4622 12.2604 31.2452 13.2982 34.8841C13.7898 36.5414 14.2813 38.1627 14.8822 39.748C15.293 40.9739 15.8407 42.1781 16.5208 43.3508C16.9351 44.2958 17.7181 45.1525 18.7916 45.8353C19.8651 46.5181 21.1916 47.0031 22.6383 47.2419C25.4786 47.5301 29.3021 47.4941 35.4742 47.6382C48.474 47.9625 61.6376 48.3227 74.6373 48.5389C92.116 48.8271 109.649 49.1514 127.128 49.2235C130.351 49.2235 132.972 49.2235 135.266 49.2235C137.105 49.337 138.96 49.2146 140.728 48.8632C142.66 48.828 144.506 48.3283 145.917 47.4581C147.48 46.1945 148.548 44.6977 149.031 43.0986C149.85 41.045 150.615 38.9193 151.216 36.7576C152.035 33.8753 152.472 30.957 153.4 28.0387C154.329 25.1204 155.312 21.8058 155.858 18.5992C156.295 16.9059 156.295 15.1405 156.568 13.3031ZM150.451 36.2532L148.812 41.7295C148.369 43.4383 147.482 45.0837 146.191 46.5934C145.411 47.2678 144.401 47.8116 143.243 48.1809C142.086 48.5502 140.812 48.7345 139.527 48.7191C136.468 48.7191 132.972 48.7191 128.111 48.7191C111.342 48.7191 94.4647 48.3228 77.6961 48.0705C64.4232 47.8544 51.0411 47.422 37.7683 47.2419C34.1633 47.2419 27.281 47.2419 25.4239 47.0257C24.2318 47.0527 23.0434 46.9232 21.9276 46.6449C20.8119 46.3666 19.791 45.945 18.9241 45.4044C17.7369 44.4989 16.8777 43.427 16.4115 42.27C15.1019 39.1385 14.0445 35.9636 13.2435 32.7584C12.315 29.5159 11.2771 26.1292 10.4032 22.5984C9.74776 19.7161 9.20162 16.6537 8.76465 13.6273C8.76465 12.5104 8.43686 11.3575 8.43686 10.0245C8.31504 9.09651 8.51768 8.16249 9.02902 7.29429C9.54037 6.42608 10.3468 5.64684 11.3864 5.0165C13.4493 4.24484 15.7415 3.77772 18.1048 3.64742C22.3106 3.17904 27.8273 2.56657 34.491 2.13423C62.85 0.800012 91.3068 0.619523 119.699 1.59379C127.012 1.74784 134.306 2.16881 141.548 2.85478C144.433 3.05878 147.284 3.43257 150.069 3.97167C151.685 4.22308 153.116 4.84015 154.114 5.71561C155.112 6.59106 155.613 7.66952 155.531 8.76347C155.86 10.992 155.86 13.2363 155.531 15.4648C154.602 22.3822 152.363 29.2997 150.451 36.1811V36.2532Z" fill="#D47F02"/>
</g>
<path d="M147.82 24.3267C148.202 21.7687 148.639 19.3908 149.022 16.7967C149.459 14.5029 149.623 12.19 149.513 9.87925C149.513 6.99697 145.908 6.63669 140.719 6.2764C103.01 2.34952 64.5994 2.34952 26.8897 6.2764C22.0479 6.2841 17.3877 7.49309 13.8353 9.66309C13.1506 10.4462 12.7064 11.3107 12.5284 12.207C12.3503 13.1034 12.4417 14.0141 12.7975 14.8872C13.3437 18.2379 13.5622 20.6157 14.1084 23.3539C14.8731 26.7046 15.6924 29.9471 16.7302 33.1176C17.1672 34.4507 17.6042 35.7837 18.1504 37.0807C18.5114 38.2131 19.0232 39.3223 19.6798 40.3954C20.133 41.1461 20.9558 41.7745 22.0157 42.1796C23.0757 42.5847 24.3113 42.743 25.5241 42.6291C28.856 42.8453 34.9735 42.6291 39.4525 42.9174C53.9816 43.5659 68.7838 43.71 83.1491 44.0342C97.5143 44.3585 111.825 44.8629 125.862 44.5386C128.921 44.5386 133.946 44.5386 136.514 44.5386C137.48 44.5579 138.441 44.4427 139.335 44.2006C140.229 43.9585 141.036 43.5949 141.703 43.1335C143.037 41.7964 143.844 40.2609 144.051 38.666C145.908 33.8742 147.055 29.1545 147.82 24.3267Z" fill="url(#paint1_radial_197_642)"/>
<path style="mix-blend-mode:multiply" opacity="0.9" d="M147.82 24.3267C148.202 21.7687 148.639 19.3908 149.022 16.7967C149.459 14.5029 149.623 12.19 149.513 9.87925C149.513 6.99697 145.908 6.63669 140.719 6.2764C103.01 2.34952 64.5994 2.34952 26.8897 6.2764C22.0479 6.2841 17.3877 7.49309 13.8353 9.66309C13.1506 10.4462 12.7064 11.3107 12.5284 12.207C12.3503 13.1034 12.4417 14.0141 12.7975 14.8872C13.3437 18.2379 13.5622 20.6157 14.1084 23.3539C14.8731 26.7046 15.6924 29.9471 16.7302 33.1176C17.1672 34.4507 17.6042 35.7837 18.1504 37.0807C18.5114 38.2131 19.0232 39.3223 19.6798 40.3954C20.133 41.1461 20.9558 41.7745 22.0157 42.1796C23.0757 42.5847 24.3113 42.743 25.5241 42.6291C28.856 42.8453 34.9735 42.6291 39.4525 42.9174C53.9816 43.5659 68.7838 43.71 83.1491 44.0342C97.5143 44.3585 111.825 44.8629 125.862 44.5386C128.921 44.5386 133.946 44.5386 136.514 44.5386C137.48 44.5579 138.441 44.4427 139.335 44.2006C140.229 43.9585 141.036 43.5949 141.703 43.1335C143.037 41.7964 143.844 40.2609 144.051 38.666C145.908 33.8742 147.055 29.1545 147.82 24.3267ZM144.106 37.5852C143.827 39.1081 143.182 40.5919 142.194 41.9806C140.119 44.3225 135.858 43.6379 131.27 43.71C116.358 43.9982 101.338 43.71 86.4264 43.3857C71.5149 43.0615 56.6034 42.8453 41.7465 42.3409C36.2968 42.0409 30.8238 41.9687 25.3603 42.1247C24.0778 42.0814 22.8268 41.8474 21.7007 41.4402C20.6914 40.8758 19.9672 40.1216 19.6251 39.2785C18.3215 36.607 17.3353 33.8726 16.6756 31.1C15.3647 26.7045 14.7638 21.7687 13.9992 16.9769C13.9992 17.4813 12.579 11.2844 15.037 9.48293C17.4949 7.68151 25.0326 6.99697 32.024 6.34846C53.647 5.02722 75.378 4.6421 97.0774 5.19555C108.488 4.97906 119.907 5.23175 131.27 5.95215C135.257 6.31243 138.535 6.56463 141.32 6.85286C144.106 7.14109 146.782 7.21314 147.929 8.83442C148.939 10.7294 149.202 12.7626 148.694 14.7431C148.257 17.9857 147.383 21.2282 146.946 24.4348C146.58 27.529 145.96 30.608 145.089 33.6581C144.761 34.5948 144.543 36.072 144.106 37.5852Z" fill="url(#paint2_linear_197_642)"/>
<path style="mix-blend-mode:screen" d="M17.2833 22.849C16.5381 19.7883 16.2273 16.6885 16.3548 13.5897C16.3548 11.7162 14.7161 10.6354 22.5816 9.41039C30.6721 8.14851 38.9565 7.50776 47.2702 7.50089C57.1565 7.50089 64.8581 8.58174 52.7323 9.37437C40.6064 10.167 25.2033 13.6618 19.7412 22.3086C19.0858 23.1733 17.9934 25.0468 17.2833 22.849Z" fill="url(#paint3_linear_197_642)"/>
<path style="mix-blend-mode:screen" d="M70.426 7.17752C79.1107 7.17752 97.7364 7.86208 97.7364 7.86208C91.5788 8.50413 85.3365 8.72146 79.1107 8.51058C74.9331 8.78042 70.7256 8.78042 66.548 8.51058C66.0017 7.93412 64.7454 7.24958 70.426 7.17752Z" fill="url(#paint4_linear_197_642)"/>
<path style="mix-blend-mode:multiply" opacity="0.3" d="M19.7358 35.6752C17.3325 28.9379 18.9711 24.6866 28.9121 29.1541C40.5463 34.3782 53.0546 34.5584 66.7097 34.5944C83.096 34.5944 115.377 38.1972 128.868 29.8026C136.187 25.3351 143.452 25.4792 142.851 31.0276C142.141 37.5127 138.427 41.5839 126.465 41.8361C94.2385 42.1604 58.3527 40.9354 28.1474 40.2509C21.9206 39.9987 20.8829 38.9178 19.7358 35.6752Z" fill="url(#paint5_radial_197_642)"/>
<path style="mix-blend-mode:screen" d="M34.4409 40.5405C66.2847 39.4236 101.734 43.4588 132.758 42.2338C138.22 42.0177 141.006 41.3692 141.934 38.1626C142.863 34.9561 144.392 31.1731 144.829 29.0114C145.266 26.8497 146.905 21.4093 145.485 29.2275C144.914 33.1091 143.946 36.9609 142.59 40.7567C142.153 41.9816 142.317 43.6389 134.178 43.4588C113.095 43.0625 91.9565 43.0265 70.8183 42.5221C55.6337 42.1618 40.2853 42.0897 25.0461 41.6214C28.0913 40.9882 31.2505 40.6248 34.4409 40.5405Z" fill="url(#paint6_radial_197_642)"/>
<path style="mix-blend-mode:screen" opacity="0.6" d="M129.425 41.2603C96.6522 39.5309 62.2957 41.2603 30.3971 40.7199C23.8972 40.7199 22.2586 40.1434 20.5653 37.5133C18.8604 34.912 17.8798 32.1294 17.6704 29.2988C17.015 27.3533 14.3386 22.9218 16.5234 29.8032C17.5243 33.1933 18.7821 36.5482 20.2923 39.8552C20.7293 40.9 19.4729 42.2691 28.9223 41.9088C50.1152 41.0801 71.7997 42.3411 92.9926 42.4492C107.194 42.4492 123.799 44.0705 137.727 42.125C134.998 41.6938 132.222 41.4047 129.425 41.2603Z" fill="url(#paint7_radial_197_642)"/>
<path style="mix-blend-mode:screen" opacity="0.7" d="M111.501 5.01672C111.501 5.01672 133.349 5.9895 144.273 7.28652C148.151 7.71886 148.315 9.23206 147.714 14.4922C146.895 21.3016 144.983 34.9924 144.983 34.9924C144.983 34.9924 147.605 20.0406 148.971 12.7268C149.462 9.98865 150.282 7.57474 145.53 6.85417C134.268 5.70409 122.896 5.09003 111.501 5.01672Z" fill="url(#paint8_linear_197_642)"/>
<path d="M17.1225 33.5154C17.1225 33.5154 14.3914 23.0311 13.9544 20.2569C13.5175 17.4827 11.3873 12.0424 13.9544 9.44836C16.5216 6.8543 21.929 6.8543 31.7608 5.84551C64.5332 2.99925 135.813 5.84551 135.813 5.84551C135.813 5.84551 78.3523 4.90877 50.0588 5.84551C40.3409 5.81219 30.6483 6.50107 21.1643 7.89913C19.9518 8.02898 18.7935 8.32393 17.7633 8.76522C16.733 9.20651 15.8534 9.78447 15.1803 10.4623C14.5072 11.1401 14.0554 11.9029 13.8538 12.7022C13.6521 13.5015 13.705 14.3198 14.009 15.1048C14.6099 20.0407 15.3199 23.6796 15.5384 25.9134C15.7569 28.1471 17.1225 33.5154 17.1225 33.5154Z" fill="white"/>
<path d="M17.9563 3.47241H11.6778C11.6778 3.47241 11.4685 41.2737 11.6778 41.2737H17.9563C24.2348 41.2737 29.446 32.9014 29.446 22.4359C29.446 11.9704 24.3186 3.47241 17.9563 3.47241Z" fill="url(#paint9_linear_197_642)"/>
<path d="M17.9569 3.51452C15.864 3.51452 13.7712 3.51452 11.6783 3.51452C11.9321 5.01473 11.9884 6.54171 11.8458 8.05653C11.8458 11.1543 11.9713 14.2312 11.9504 17.329C11.9504 25.2409 11.3226 33.2574 11.8039 41.1693C11.6574 41.1693 11.8039 41.1693 11.8039 41.1693H17.2244C22.31 41.1693 25.5957 37.1087 27.2909 32.5667C29.378 26.8525 29.6629 20.6356 28.1071 14.7544C26.8514 9.7938 23.6703 3.57731 17.9569 3.51452ZM18.7312 3.17962C23.775 3.17962 26.7049 7.95189 28.3792 12.2218C30.4112 18.1318 30.5357 24.5309 28.735 30.5154C27.4165 35.0575 24.5493 40.3111 19.5474 41.3577C16.8298 41.7367 14.0792 41.8209 11.3435 41.6089C11.0714 41.6089 11.783 41.6089 11.6365 41.274C11.4479 38.7308 11.4479 36.1773 11.6365 33.6342C11.6365 27.3549 11.3854 21.264 11.4691 15.0684C11.4691 11.4264 11.2598 6.69603 11.4691 3.03311C13.1852 2.90753 17.1825 3.17962 18.8359 3.17962H18.7312Z" fill="#D05900"/>
<path d="M23.2736 22.3735C23.2736 32.839 18.1252 41.2113 11.7839 41.2113C5.44263 41.2113 0.294258 32.839 0.294258 22.3735C0.294258 11.908 5.44263 3.53563 11.7839 3.53563C18.1252 3.53563 23.2736 11.9289 23.2736 22.3735Z" fill="url(#paint10_linear_197_642)"/>
<path opacity="0.5" d="M0.375687 24.6963C0.510416 26.6018 0.840018 28.4884 1.35932 30.3267C3.30566 28.2336 5.27292 26.3289 7.24019 24.3405L20.7599 10.6098C20.0895 9.19086 19.2229 7.87329 18.1857 6.69568C12.27 12.7098 6.33329 18.71 0.375687 24.6963Z" fill="url(#paint11_radial_197_642)"/>
<path d="M11.1346 3.51353C7.13732 3.86936 3.68414 7.57416 1.82152 12.9744C4.93287 9.83471 8.03724 6.68109 11.1346 3.51353Z" fill="url(#paint12_radial_197_642)"/>
<path style="mix-blend-mode:screen" d="M12.9761 41.1687L21.3475 32.5869C21.5707 31.9869 21.78 31.359 21.9753 30.7032L11.5111 41.2733C12.0019 41.3011 12.4942 41.266 12.9761 41.1687Z" fill="url(#paint13_radial_197_642)"/>
<path d="M20.4289 22.3732C20.4289 31.2898 16.4107 38.5319 11.4716 38.5319C6.5325 38.5319 2.49332 31.2898 2.49332 22.3732C2.49332 13.4566 6.51157 6.23549 11.4716 6.23549C16.4316 6.23549 20.4289 13.4566 20.4289 22.3732Z" fill="url(#paint14_linear_197_642)"/>
<path opacity="0.5" d="M13.1223 6.50639C12.5905 6.32297 12.0315 6.23096 11.469 6.23428C7.61814 6.23428 4.33239 10.5879 3.09761 16.6998C6.41825 13.309 9.7598 9.91118 13.1223 6.50639Z" fill="url(#paint15_radial_197_642)"/>
<path opacity="0.5" d="M18.2919 11.9284C17.9323 11.197 17.5123 10.4969 17.0362 9.83533C12.2017 14.7122 7.38822 19.631 2.57468 24.487C2.64004 25.5271 2.77285 26.5619 2.97231 27.5848C8.05792 22.3102 13.1854 17.1193 18.2919 11.9284Z" fill="url(#paint16_radial_197_642)"/>
<path opacity="0.3" d="M20.2406 19.212C19.9985 16.709 19.3481 14.2626 18.3152 11.9699L2.97465 27.5425C3.38105 29.9144 4.2029 32.196 5.40235 34.2822L20.2406 19.212Z" fill="url(#paint17_radial_197_642)"/>
<path opacity="0.5" d="M8.95886 37.8821C9.7299 38.3017 10.5925 38.5246 11.4703 38.531C15.656 38.531 19.1091 33.4448 20.1346 26.5376L8.95886 37.8821Z" fill="url(#paint18_radial_197_642)"/>
<path d="M20.4697 22.3732C20.4697 27.8361 18.9838 38.0295 12.0983 38.804C4.18738 39.6831 2.15732 26.8524 2.24104 21.2848C2.24104 16.1148 4.81523 4.66556 12.0983 5.85862C18.9838 6.654 20.4906 16.9311 20.4697 22.3732ZM19.9255 22.4988C19.9255 17.3079 18.6071 8.45408 12.768 6.82146C5.71515 5.00047 3.07817 16.1776 2.76425 21.1173C2.40846 26.4338 4.14552 38.8249 11.8053 38.176C18.335 37.6318 19.8837 27.8152 19.9255 22.4988Z" fill="#D05900"/>
<path style="mix-blend-mode:screen" d="M18.9846 14.9428C18.7007 13.7824 18.301 12.6535 17.7917 11.5729L3.01623 26.5804C3.18569 27.8597 3.44443 29.1256 3.79057 30.3689L18.9846 14.9428Z" fill="url(#paint19_linear_197_642)"/>
<path style="mix-blend-mode:screen" d="M7.05473 36.4799C11.3241 32.0844 15.6075 27.7168 19.9048 23.3771C19.9048 23.0841 19.9048 22.791 19.9048 22.498C19.9048 22.205 19.9048 21.598 19.9048 21.1165L6.00831 35.224C6.31158 35.6786 6.66237 36.0996 7.05473 36.4799Z" fill="url(#paint20_linear_197_642)"/>
<path style="mix-blend-mode:screen" d="M2.76344 24.0678C2.76344 24.4446 2.76344 24.8423 2.76344 25.24L17.204 10.5883L16.6808 9.79294L2.76344 24.0678Z" fill="url(#paint21_linear_197_642)"/>
<path style="mix-blend-mode:screen" d="M10.1939 4.01553C7.74523 6.48538 5.2966 8.97614 2.82705 11.446C2.37894 12.4821 1.99454 13.5446 1.676 14.6275L4.10369 12.1786C5.35939 8.95522 7.36851 6.2342 10.3822 5.8993L12.3076 3.95274C11.6041 3.86228 10.8907 3.88347 10.1939 4.01553Z" fill="url(#paint22_radial_197_642)"/>
<path style="mix-blend-mode:screen" d="M17.0981 8.97663C17.5795 8.4743 18.0608 7.97195 18.5631 7.49055C18.1335 6.97384 17.6647 6.49104 17.1609 6.04637L15.7378 7.49055C16.244 7.9349 16.7001 8.43323 17.0981 8.97663Z" fill="url(#paint23_radial_197_642)"/>
<path style="mix-blend-mode:screen" d="M2.38613 23.901C2.38613 22.9382 2.38613 22.0381 2.38613 21.2846V21.0962L0.669991 22.8335C0.669991 23.7126 0.669994 24.6126 0.837422 25.5545L2.38613 23.901Z" fill="url(#paint24_radial_197_642)"/>
<path style="mix-blend-mode:screen" d="M21.7245 13.9373C21.2707 12.3004 20.617 10.7258 19.7781 9.24879L18.2294 10.8395C18.9688 12.4422 19.51 14.1291 19.8409 15.8629L21.7245 13.9373Z" fill="url(#paint25_radial_197_642)"/>
<path style="mix-blend-mode:screen" d="M23.0203 22.6026C23.0203 22.6026 23.0203 22.456 23.0203 22.3723C23.0203 21.6397 23.0203 20.8234 22.8948 20.0071L20.5298 22.4142C20.5298 23.2514 20.5298 24.2143 20.4043 25.2399L23.0203 22.6026Z" fill="url(#paint26_radial_197_642)"/>
<path style="mix-blend-mode:screen" d="M6.59298 39.1805L7.97425 37.7991C7.45336 37.4363 6.98199 37.0071 6.57205 36.5223L5.23262 37.8619C5.63819 38.3483 6.09419 38.7903 6.59298 39.1805Z" fill="url(#paint27_radial_197_642)"/>
<path style="mix-blend-mode:screen" d="M20.4093 34.2197C20.8488 33.2373 21.2331 32.231 21.5604 31.2057L17.1863 35.6431C16.6472 36.405 15.9902 37.0763 15.24 37.6315L11.9752 40.9386C12.6869 40.8958 13.3902 40.7621 14.068 40.5409L20.4093 34.2197Z" fill="url(#paint28_radial_197_642)"/>
<path style="mix-blend-mode:screen" d="M4.01851 32.0006C3.40524 30.2833 2.96359 28.5094 2.70005 26.705L1.15137 28.2958C1.47409 30.0482 1.96467 31.7654 2.61633 33.4238L4.01851 32.0006Z" fill="url(#paint29_radial_197_642)"/>
<path style="mix-blend-mode:multiply" d="M3.76995 22.2261C3.76995 13.6444 7.57892 6.65349 12.3506 6.3186C12.0584 6.28774 11.7638 6.28774 11.4716 6.3186C6.51157 6.3186 2.49332 13.5398 2.49332 22.4564C2.49332 31.373 6.51157 38.6151 11.4716 38.6151C12.1932 38.6047 12.9051 38.448 13.5644 38.1546C13.2788 38.1761 12.992 38.1761 12.7064 38.1546C7.76727 38.1337 3.76995 31.0171 3.76995 22.2261Z" fill="url(#paint30_linear_197_642)"/>
<g style="mix-blend-mode:multiply">
<path style="mix-blend-mode:multiply" d="M5.82092 22.372C5.82092 14.4811 8.96018 7.90876 13.1249 6.50639C12.5931 6.32297 12.0341 6.23096 11.4716 6.23428C6.51157 6.23428 2.49332 13.4554 2.49332 22.372C2.49332 31.2886 6.51157 38.5307 11.4716 38.5307C12.0353 38.5269 12.5943 38.4278 13.1249 38.2377C8.96018 36.8353 5.82092 30.2839 5.82092 22.372Z" fill="url(#paint31_linear_197_642)"/>
</g>
<path style="mix-blend-mode:multiply" d="M18.3367 3.09627H12.0582C18.3367 3.09627 23.1921 10.9872 23.1921 21.4318C23.1921 31.8763 17.6879 41.6301 11.3466 41.6301H17.8763C24.8245 41.7557 29.7427 32.5252 29.7427 22.0806C29.7427 11.6361 24.678 3.09627 18.3367 3.09627Z" fill="url(#paint32_linear_197_642)"/>
<path style="mix-blend-mode:screen" d="M24.1515 5.7116C23.8597 5.42278 23.5523 5.15026 23.2306 4.89526H17.1196C17.4413 5.15026 17.7487 5.42278 18.0404 5.7116H24.1515Z" fill="url(#paint33_linear_197_642)"/>
<path style="mix-blend-mode:screen" d="M27.3145 10.2322C27.3145 10.0648 26.7285 9.08102 26.6239 8.93451H20.3453L21.015 10.2322H27.3145Z" fill="url(#paint34_linear_197_642)"/>
<path style="mix-blend-mode:screen" d="M28.6325 13.4559L27.9 11.5721C25.8088 11.4562 23.7127 11.4562 21.6215 11.5721C21.6215 11.7604 22.2493 13.2047 22.3121 13.414L28.6325 13.4559Z" fill="url(#paint35_linear_197_642)"/>
<path style="mix-blend-mode:screen" d="M29.827 22.4351C29.827 21.8071 29.827 20.342 29.827 19.6513H23.3392C23.3392 20.2374 23.4438 22.0165 23.4438 22.6235C23.3392 22.6653 29.827 22.4351 29.827 22.4351Z" fill="url(#paint36_linear_197_642)"/>
<path style="mix-blend-mode:screen" opacity="0.3" d="M28.7987 30.0121L29.1126 28.7145C26.8733 28.7145 24.613 28.7145 22.3946 28.7145C22.3946 29.154 22.1644 29.6145 22.0388 30.054L28.7987 30.0121Z" fill="url(#paint37_linear_197_642)"/>
<path style="mix-blend-mode:screen" opacity="0.3" d="M27.7325 33.1734L28.0464 32.4199H21.2028L20.9098 33.1106C23.191 33.0478 25.4722 33.1106 27.7325 33.1734Z" fill="url(#paint38_linear_197_642)"/>
<path style="mix-blend-mode:screen" opacity="0.3" d="M26.2857 36.0611L26.5369 35.6215H19.6096L19.3584 36.0611H26.2857Z" fill="url(#paint39_linear_197_642)"/>
<path style="mix-blend-mode:screen" opacity="0.5" d="M29.5307 26.2235C29.5307 25.763 29.6563 25.3235 29.6981 24.8839H23.022L22.8336 26.2235H29.5307Z" fill="url(#paint40_linear_197_642)"/>
<path style="mix-blend-mode:screen" d="M29.5728 17.6422C29.5728 17.1608 29.1751 15.7375 29.0705 15.277H22.792C22.792 15.7375 23.1896 17.1399 23.2524 17.6422H29.5728Z" fill="url(#paint41_linear_197_642)"/>
<path style="mix-blend-mode:screen" d="M25.9309 7.97285C25.9309 7.8682 25.2194 6.88445 25.1356 6.75887H18.9827C18.9827 6.88445 19.6943 7.8682 19.778 7.97285H25.9309Z" fill="url(#paint42_linear_197_642)"/>
<path style="mix-blend-mode:screen" d="M19.108 3.66098C17.5593 3.66098 15.9897 3.49352 14.4201 3.45166C14.7719 3.55675 15.1148 3.68974 15.4456 3.84936H21.159C20.4684 3.76563 19.7987 3.68192 19.108 3.66098Z" fill="url(#paint43_linear_197_642)"/>
<g style="mix-blend-mode:multiply">
<g style="mix-blend-mode:multiply">
<path d="M21.9359 4.43449C20.0386 4.29697 18.1327 4.33901 16.2433 4.56007C16.2433 4.56007 16.641 4.85309 16.934 4.85309C17.6455 4.85309 21.5382 4.85309 22.5428 4.72751C22.7939 4.7903 22.2079 4.45542 21.9359 4.43449Z" fill="#D05900"/>
</g>
<g style="mix-blend-mode:multiply">
<path d="M24.2163 6.33906C22.3182 6.2185 20.4132 6.26751 18.5238 6.48557C18.5238 6.48557 18.9214 6.77861 19.1935 6.77861C19.926 6.77861 23.8187 6.77861 24.8232 6.65302C25.1162 6.61116 24.4675 6.38092 24.2163 6.33906Z" fill="#D05900"/>
</g>
<g style="mix-blend-mode:multiply">
<path d="M25.8508 8.72516C23.9536 8.58763 22.0476 8.62968 20.1583 8.85073C20.1583 8.85073 20.556 9.14375 20.849 9.14375C21.5605 9.14375 25.4741 9.14376 26.4578 9.01818C26.7089 8.97632 26.1229 8.74609 25.8508 8.72516Z" fill="#D05900"/>
</g>
<g style="mix-blend-mode:multiply">
<path d="M27.5011 11.4673C25.5961 11.3468 23.6841 11.3958 21.7877 11.6138C21.7877 11.6138 22.1854 11.9068 22.4783 11.9068C23.2108 11.9068 27.1035 11.9068 28.0871 11.7812C28.3592 11.7394 27.7523 11.5092 27.5011 11.4673Z" fill="#D05900"/>
</g>
<g style="mix-blend-mode:multiply">
<path d="M28.32 15.1305C26.4223 15.0137 24.5182 15.0557 22.6275 15.2561C22.6275 15.2561 23.0251 15.5491 23.2972 15.5491C24.0297 15.5491 27.9224 15.5491 28.9269 15.4235C29.1781 15.4026 28.5711 15.2561 28.32 15.1305Z" fill="#D05900"/>
</g>
<g style="mix-blend-mode:multiply">
<path d="M29.0074 19.5473C27.1093 19.4271 25.2043 19.4761 23.3149 19.6938C23.5073 19.8471 23.7398 19.9416 23.9846 19.9658C24.7171 19.9658 28.6098 19.9658 29.6144 19.8403C29.8655 19.8193 29.3004 19.5682 29.0074 19.5473Z" fill="#D05900"/>
</g>
<g style="mix-blend-mode:multiply">
<path d="M28.8845 24.5494C26.9868 24.4328 25.0827 24.4748 23.192 24.675C23.192 24.675 23.5896 24.968 23.8617 24.968C24.5942 24.968 28.4869 24.968 29.4914 24.8424C29.7426 24.8215 29.1356 24.5703 28.8845 24.5494Z" fill="#D05900"/>
</g>
<g style="mix-blend-mode:multiply">
<path d="M28.2559 28.7151C26.3583 28.5984 24.4541 28.6404 22.5634 28.8407C22.5634 28.8407 22.9611 29.1337 23.2331 29.1337C23.9656 29.1337 27.8583 29.1337 28.8629 29.0081C29.114 28.9872 28.5071 28.736 28.2559 28.7151Z" fill="#D05900"/>
</g>
<g style="mix-blend-mode:multiply">
<path d="M27.212 32.294C25.3069 32.1735 23.3949 32.2225 21.4985 32.4405C21.4985 32.4405 21.8961 32.7335 22.1891 32.7335C22.9216 32.7335 26.8143 32.7335 27.798 32.6079C28.0282 32.5661 27.4422 32.3358 27.212 32.294Z" fill="#D05900"/>
</g>
<g style="mix-blend-mode:multiply">
<path d="M25.721 35.5586C23.8229 35.4384 21.9179 35.4875 20.0285 35.7051C20.0285 35.7051 20.4261 35.9981 20.7191 35.9981C21.4307 35.9981 25.3443 35.9982 26.328 35.8726C26.5791 35.8307 25.9722 35.6005 25.721 35.5586Z" fill="#D05900"/>
</g>
<g style="mix-blend-mode:multiply">
<path d="M24.026 37.8826C22.1218 37.7451 20.2089 37.7871 18.3125 38.0082C18.3125 38.0082 18.7311 38.3012 19.0032 38.3012C19.7357 38.3012 23.6284 38.3012 24.6329 38.1756C24.8841 38.1547 24.2771 37.9035 24.026 37.8826Z" fill="#D05900"/>
</g>
<g style="mix-blend-mode:multiply">
<path d="M21.9359 39.661C20.0378 39.5408 18.1327 39.5898 16.2433 39.8075C16.2433 39.8075 16.641 40.1005 16.934 40.1005C17.6455 40.1005 21.5382 40.1005 22.5428 39.9749C22.7939 39.9331 22.2079 39.7029 21.9359 39.661Z" fill="#D05900"/>
</g>
</g>
<path d="M23.6483 22.3723C23.6483 29.2376 20.9276 40.7287 12.5772 41.566C2.57338 42.5497 -0.272879 27.3329 0.0201187 20.0699C0.39683 13.4767 4.20579 1.48324 12.9748 3.19958C21.0741 4.60195 23.8366 13.2673 23.6483 22.3723ZM22.9576 22.3723C22.9576 15.8628 20.6137 5.62756 13.1841 4.01588C5.35686 2.4042 1.50604 12.9534 0.627044 19.0024C-0.272877 26.1399 2.19668 40.938 11.468 40.959C20.0486 40.9799 22.8949 29.0493 23.0204 22.3723H22.9576Z" fill="#D05900"/>
<path d="M4.58499 8.07629C4.58499 8.07629 7.30567 3.53425 11.7844 3.47146C16.263 3.40867 21.0556 7.02972 22.5625 16.03C23.3763 20.3321 23.2478 24.7596 22.1858 29.0072C22.6226 24.4677 22.4324 19.8897 21.6207 15.4021C20.3022 9.39494 16.9328 4.39244 11.596 4.14126C7.74518 3.93195 4.58499 8.07629 4.58499 8.07629Z" fill="white"/>
<path style="mix-blend-mode:multiply" opacity="0.6" d="M28.3793 12.2219C26.705 8.0357 23.7751 3.15877 18.7313 3.1797C17.7058 3.1797 15.6339 3.1797 13.7922 3.01225C14.0433 3.1797 14.2945 3.34715 14.5247 3.53553H17.957C23.6704 3.53553 26.8515 9.81483 28.1072 14.6708C29.663 20.552 29.3781 26.7688 27.291 32.483C25.5331 37.025 22.3101 41.0229 17.2245 41.0856H13.0388L11.2808 41.5671C14.0095 41.7799 16.7533 41.6957 19.4638 41.3159C24.4448 40.2693 27.3329 35.0366 28.6514 30.4737C30.4701 24.5108 30.375 18.1279 28.3793 12.2219Z" fill="url(#paint44_linear_197_642)"/>
<defs>
<linearGradient id="paint0_linear_197_642" x1="24118.9" y1="1678.62" x2="24412.8" y2="3083.94" gradientUnits="userSpaceOnUse">
<stop offset="0.14" stop-color="#EAC991"/>
<stop offset="0.51" stop-color="#D5A76F"/>
<stop offset="1" stop-color="#A14E01"/>
</linearGradient>
<radialGradient id="paint1_radial_197_642" cx="0" cy="0" r="1" gradientUnits="userSpaceOnUse" gradientTransform="translate(22321.4 1413) scale(1822.31 570.204)">
<stop stop-color="#FDF9E3"/>
<stop offset="0.9" stop-color="#EAC991"/>
</radialGradient>
<linearGradient id="paint2_linear_197_642" x1="21003.4" y1="1201.38" x2="21521.5" y2="3053.22" gradientUnits="userSpaceOnUse">
<stop stop-color="#FDF9E3"/>
<stop offset="0.37" stop-color="#EAC991"/>
<stop offset="0.94" stop-color="#D47F02"/>
</linearGradient>
<linearGradient id="paint3_linear_197_642" x1="6865.9" y1="719.603" x2="6898.68" y2="812.148" gradientUnits="userSpaceOnUse">
<stop offset="0.14" stop-color="white"/>
<stop offset="0.96"/>
</linearGradient>
<linearGradient id="paint4_linear_197_642" x1="5330.96" y1="66.9984" x2="5332.07" y2="91.3742" gradientUnits="userSpaceOnUse">
<stop offset="0.14" stop-color="white"/>
<stop offset="0.96"/>
</linearGradient>
<radialGradient id="paint5_radial_197_642" cx="0" cy="0" r="1" gradientUnits="userSpaceOnUse" gradientTransform="translate(20143.8 408.4) scale(2637.42 336.442)">
<stop offset="0.84" stop-color="white"/>
<stop offset="0.94" stop-color="#D47F02"/>
</radialGradient>
<radialGradient id="paint6_radial_197_642" cx="0" cy="0" r="1" gradientUnits="userSpaceOnUse" gradientTransform="translate(20592.2 800.679) scale(1093.61 171.967)">
<stop offset="0.14" stop-color="white"/>
<stop offset="0.96"/>
</radialGradient>
<radialGradient id="paint7_radial_197_642" cx="0" cy="0" r="1" gradientUnits="userSpaceOnUse" gradientTransform="translate(18743 768.646) scale(1205.82 174.319)">
<stop offset="0.14" stop-color="white"/>
<stop offset="0.96"/>
</radialGradient>
<linearGradient id="paint8_linear_197_642" x1="7018.62" y1="1281.98" x2="6859.89" y2="1517.61" gradientUnits="userSpaceOnUse">
<stop offset="0.04" stop-color="#FFF6FF"/>
<stop offset="0.18" stop-color="#FCD9B5"/>
<stop offset="0.95" stop-color="#E12100"/>
</linearGradient>
<linearGradient id="paint9_linear_197_642" x1="2116.17" y1="7516.86" x2="2116.17" y2="8211.65" gradientUnits="userSpaceOnUse">
<stop offset="0.11" stop-color="#FFFB74"/>
<stop offset="0.49" stop-color="#FFFA00"/>
<stop offset="0.93" stop-color="#FFC921"/>
</linearGradient>
<linearGradient id="paint10_linear_197_642" x1="2775.05" y1="7640.78" x2="2376.63" y2="7835.14" gradientUnits="userSpaceOnUse">
<stop offset="0.11" stop-color="#FFFB74"/>
<stop offset="0.49" stop-color="#FFFA00"/>
<stop offset="0.93" stop-color="#FFC921"/>
</linearGradient>
<radialGradient id="paint11_radial_197_642" cx="0" cy="0" r="1" gradientUnits="userSpaceOnUse" gradientTransform="translate(2541.16 4614.58) scale(641.524 751.07)">
<stop offset="0.39" stop-color="#F6C100"/>
<stop offset="1" stop-color="#EA6500"/>
</radialGradient>
<radialGradient id="paint12_radial_197_642" cx="0" cy="0" r="1" gradientUnits="userSpaceOnUse" gradientTransform="translate(1160.21 1847.51) scale(293.099 300.695)">
<stop offset="0.39" stop-color="#F6C100"/>
<stop offset="1" stop-color="#EA6500"/>
</radialGradient>
<radialGradient id="paint13_radial_197_642" cx="0" cy="0" r="1" gradientUnits="userSpaceOnUse" gradientTransform="translate(1313.73 2093.41) scale(329.325 336.247)">
<stop offset="0.15" stop-color="white"/>
<stop offset="1" stop-color="#FFFB62"/>
</radialGradient>
<linearGradient id="paint14_linear_197_642" x1="1959.63" y1="6520.42" x2="2253.77" y2="6771.55" gradientUnits="userSpaceOnUse">
<stop offset="0.11" stop-color="#FFFB74"/>
<stop offset="0.49" stop-color="#FFFA00"/>
<stop offset="0.93" stop-color="#FFC921"/>
</linearGradient>
<radialGradient id="paint15_radial_197_642" cx="0" cy="0" r="1" gradientUnits="userSpaceOnUse" gradientTransform="translate(1170.16 2226.04) scale(61.9646 65.3307)">
<stop offset="0.39" stop-color="#F6C100"/>
<stop offset="1" stop-color="#EA6500"/>
</radialGradient>
<radialGradient id="paint16_radial_197_642" cx="0" cy="0" r="1" gradientUnits="userSpaceOnUse" gradientTransform="translate(1761.73 3675.74) scale(117.629 134.154)">
<stop offset="0.39" stop-color="#F6C100"/>
<stop offset="1" stop-color="#EA6500"/>
</radialGradient>
<radialGradient id="paint17_radial_197_642" cx="0" cy="0" r="1" gradientUnits="userSpaceOnUse" gradientTransform="translate(1882.73 4577.15) scale(229.143 299.048)">
<stop offset="0.39" stop-color="#F6C100"/>
<stop offset="1" stop-color="#EA6500"/>
</radialGradient>
<radialGradient id="paint18_radial_197_642" cx="0" cy="0" r="1" gradientUnits="userSpaceOnUse" gradientTransform="translate(1224.14 2480.21) scale(148.318 160.746)">
<stop offset="0.39" stop-color="#F6C100"/>
<stop offset="1" stop-color="#EA6500"/>
</radialGradient>
<linearGradient id="paint19_linear_197_642" x1="1869.88" y1="3876.2" x2="1726.42" y2="3945" gradientUnits="userSpaceOnUse">
<stop offset="0.46" stop-color="white"/>
<stop offset="0.54" stop-color="#FFFFFB"/>
<stop offset="0.63" stop-color="#FFFFEF"/>
<stop offset="0.72" stop-color="#FFFEDB"/>
<stop offset="0.8" stop-color="#FFFDBF"/>
<stop offset="0.89" stop-color="#FFFC9B"/>
<stop offset="0.98" stop-color="#FFFB70"/>
<stop offset="1" stop-color="#FFFB62"/>
</linearGradient>
<linearGradient id="paint20_linear_197_642" x1="1656.91" y1="3232.05" x2="1535.22" y2="3294.39" gradientUnits="userSpaceOnUse">
<stop offset="0.46" stop-color="white"/>
<stop offset="0.54" stop-color="#FFFFFB"/>
<stop offset="0.63" stop-color="#FFFFEF"/>
<stop offset="0.72" stop-color="#FFFEDB"/>
<stop offset="0.8" stop-color="#FFFDBF"/>
<stop offset="0.89" stop-color="#FFFC9B"/>
<stop offset="0.98" stop-color="#FFFB70"/>
<stop offset="1" stop-color="#FFFB62"/>
</linearGradient>
<linearGradient id="paint21_linear_197_642" x1="1679.17" y1="3163.46" x2="1554.5" y2="3229.32" gradientUnits="userSpaceOnUse">
<stop offset="0.46" stop-color="white"/>
<stop offset="0.54" stop-color="#FFFFFB"/>
<stop offset="0.63" stop-color="#FFFFEF"/>
<stop offset="0.72" stop-color="#FFFEDB"/>
<stop offset="0.8" stop-color="#FFFDBF"/>
<stop offset="0.89" stop-color="#FFFC9B"/>
<stop offset="0.98" stop-color="#FFFB70"/>
<stop offset="1" stop-color="#FFFB62"/>
</linearGradient>
<radialGradient id="paint22_radial_197_642" cx="0" cy="0" r="1" gradientUnits="userSpaceOnUse" gradientTransform="translate(1216.79 2212.62) scale(26.9522 27.4704)">
<stop offset="0.15" stop-color="white"/>
<stop offset="1" stop-color="#FFFB62"/>
</radialGradient>
<radialGradient id="paint23_radial_197_642" cx="0" cy="0" r="1" gradientUnits="userSpaceOnUse" gradientTransform="translate(349.238 605.877) scale(1.94043 2.03243)">
<stop offset="0.15" stop-color="white"/>
<stop offset="1" stop-color="#FFFB62"/>
</radialGradient>
<radialGradient id="paint24_radial_197_642" cx="0" cy="0" r="1" gradientUnits="userSpaceOnUse" gradientTransform="translate(188.517 968.313) scale(1.36931 3.5925)">
<stop offset="0.15" stop-color="white"/>
<stop offset="1" stop-color="#FFFB62"/>
</radialGradient>
<radialGradient id="paint25_radial_197_642" cx="0" cy="0" r="1" gradientUnits="userSpaceOnUse" gradientTransform="translate(436.572 1380.77) scale(4.37719 8.36554)">
<stop offset="0.15" stop-color="white"/>
<stop offset="1" stop-color="#FFFB62"/>
</radialGradient>
<radialGradient id="paint26_radial_197_642" cx="0" cy="0" r="1" gradientUnits="userSpaceOnUse" gradientTransform="translate(334.556 1130.15) scale(2.56297 5.17733)">
<stop offset="0.15" stop-color="white"/>
<stop offset="1" stop-color="#FFFB62"/>
</radialGradient>
<radialGradient id="paint27_radial_197_642" cx="0" cy="0" r="1" gradientUnits="userSpaceOnUse" gradientTransform="translate(314.802 619.593) scale(1.7445 1.70813)">
<stop offset="0.15" stop-color="white"/>
<stop offset="1" stop-color="#FFFB62"/>
</radialGradient>
<radialGradient id="paint28_radial_197_642" cx="0" cy="0" r="1" gradientUnits="userSpaceOnUse" gradientTransform="translate(1152.07 2159.46) scale(21.976 22.5358)">
<stop offset="0.15" stop-color="white"/>
<stop offset="1" stop-color="#FFFB62"/>
</radialGradient>
<radialGradient id="paint29_radial_197_642" cx="0" cy="0" r="1" gradientUnits="userSpaceOnUse" gradientTransform="translate(319.526 1476.09) scale(3.50394 8.29234)">
<stop offset="0.15" stop-color="white"/>
<stop offset="1" stop-color="#FFFB62"/>
</radialGradient>
<linearGradient id="paint30_linear_197_642" x1="1242.9" y1="6510.94" x2="1214.67" y2="7041.92" gradientUnits="userSpaceOnUse">
<stop offset="0.11" stop-color="#BC6300"/>
<stop offset="0.38" stop-color="#EDB500"/>
<stop offset="0.64" stop-color="#BC6300"/>
<stop offset="0.96" stop-color="#704000"/>
</linearGradient>
<linearGradient id="paint31_linear_197_642" x1="1190.36" y1="6478.45" x2="1190.36" y2="6987.12" gradientUnits="userSpaceOnUse">
<stop offset="0.11" stop-color="#BC6300"/>
<stop offset="0.38" stop-color="#EDB500"/>
<stop offset="0.64" stop-color="#BC6300"/>
<stop offset="0.96" stop-color="#704000"/>
</linearGradient>
<linearGradient id="paint32_linear_197_642" x1="20.6179" y1="4.58236" x2="20.6179" y2="40.3533" gradientUnits="userSpaceOnUse">
<stop offset="0.09" stop-color="white"/>
<stop offset="0.38" stop-color="#EDB500"/>
<stop offset="0.64" stop-color="#BC6300"/>
<stop offset="0.96" stop-color="#704000"/>
</linearGradient>
<linearGradient id="paint33_linear_197_642" x1="17.1196" y1="5.3139" x2="24.1515" y2="5.3139" gradientUnits="userSpaceOnUse">
<stop offset="0.06" stop-color="white"/>
<stop offset="0.19" stop-color="#FFFFF0"/>
<stop offset="0.45" stop-color="#FFFEC8"/>
<stop offset="0.81" stop-color="#FFFC88"/>
<stop offset="1" stop-color="#FFFB62"/>
</linearGradient>
<linearGradient id="paint34_linear_197_642" x1="841.033" y1="271.451" x2="863.962" y2="271.451" gradientUnits="userSpaceOnUse">
<stop offset="0.06" stop-color="white"/>
<stop offset="0.19" stop-color="#FFFFF0"/>
<stop offset="0.45" stop-color="#FFFEC8"/>
<stop offset="0.81" stop-color="#FFFC88"/>
<stop offset="1" stop-color="#FFFB62"/>
</linearGradient>
<linearGradient id="paint35_linear_197_642" x1="851.309" y1="412.853" x2="874.726" y2="412.853" gradientUnits="userSpaceOnUse">
<stop offset="0.06" stop-color="white"/>
<stop offset="0.19" stop-color="#FFFFF0"/>
<stop offset="0.45" stop-color="#FFFEC8"/>
<stop offset="0.81" stop-color="#FFFC88"/>
<stop offset="1" stop-color="#FFFB62"/>
</linearGradient>
<linearGradient id="paint36_linear_197_642" x1="796.036" y1="638.352" x2="816.472" y2="638.352" gradientUnits="userSpaceOnUse">
<stop offset="0.06" stop-color="white"/>
<stop offset="0.19" stop-color="#FFFFF0"/>
<stop offset="0.45" stop-color="#FFFEC8"/>
<stop offset="0.81" stop-color="#FFFC88"/>
<stop offset="1" stop-color="#FFFB62"/>
</linearGradient>
<linearGradient id="paint37_linear_197_642" x1="860.496" y1="312.332" x2="884.405" y2="312.332" gradientUnits="userSpaceOnUse">
<stop offset="0.06" stop-color="white"/>
<stop offset="0.19" stop-color="#FFFFF0"/>
<stop offset="0.45" stop-color="#FFFEC8"/>
<stop offset="0.81" stop-color="#FFFC88"/>
<stop offset="1" stop-color="#FFFB62"/>
</linearGradient>
<linearGradient id="paint38_linear_197_642" x1="862.956" y1="193.202" x2="887.292" y2="193.202" gradientUnits="userSpaceOnUse">
<stop offset="0.06" stop-color="white"/>
<stop offset="0.19" stop-color="#FFFFF0"/>
<stop offset="0.45" stop-color="#FFFEC8"/>
<stop offset="0.81" stop-color="#FFFC88"/>
<stop offset="1" stop-color="#FFFB62"/>
</linearGradient>
<linearGradient id="paint39_linear_197_642" x1="861.03" y1="130.063" x2="885.652" y2="130.063" gradientUnits="userSpaceOnUse">
<stop offset="0.06" stop-color="white"/>
<stop offset="0.19" stop-color="#FFFFF0"/>
<stop offset="0.45" stop-color="#FFFEC8"/>
<stop offset="0.81" stop-color="#FFFC88"/>
<stop offset="1" stop-color="#FFFB62"/>
</linearGradient>
<linearGradient id="paint40_linear_197_642" x1="839.3" y1="306.096" x2="861.61" y2="306.096" gradientUnits="userSpaceOnUse">
<stop offset="0.06" stop-color="white"/>
<stop offset="0.19" stop-color="#FFFFF0"/>
<stop offset="0.45" stop-color="#FFFEC8"/>
<stop offset="0.81" stop-color="#FFFC88"/>
<stop offset="1" stop-color="#FFFB62"/>
</linearGradient>
<linearGradient id="paint41_linear_197_642" x1="828.62" y1="501.497" x2="850.929" y2="501.497" gradientUnits="userSpaceOnUse">
<stop offset="0.06" stop-color="white"/>
<stop offset="0.19" stop-color="#FFFFF0"/>
<stop offset="0.45" stop-color="#FFFEC8"/>
<stop offset="0.81" stop-color="#FFFC88"/>
<stop offset="1" stop-color="#FFFB62"/>
</linearGradient>
<linearGradient id="paint42_linear_197_642" x1="832.41" y1="251.05" x2="855.478" y2="251.05" gradientUnits="userSpaceOnUse">
<stop offset="0.06" stop-color="white"/>
<stop offset="0.19" stop-color="#FFFFF0"/>
<stop offset="0.45" stop-color="#FFFEC8"/>
<stop offset="0.81" stop-color="#FFFC88"/>
<stop offset="1" stop-color="#FFFB62"/>
</linearGradient>
<linearGradient id="paint43_linear_197_642" x1="788.659" y1="82.7721" x2="810.359" y2="82.7721" gradientUnits="userSpaceOnUse">
<stop offset="0.06" stop-color="white"/>
<stop offset="0.19" stop-color="#FFFFF0"/>
<stop offset="0.45" stop-color="#FFFEC8"/>
<stop offset="0.81" stop-color="#FFFC88"/>
<stop offset="1" stop-color="#FFFB62"/>
</linearGradient>
<linearGradient id="paint44_linear_197_642" x1="2128.82" y1="8061.69" x2="2294.97" y2="8061.69" gradientUnits="userSpaceOnUse">
<stop offset="0.09" stop-color="white"/>
<stop offset="0.38" stop-color="#EDB500"/>
<stop offset="0.64" stop-color="#BC6300"/>
<stop offset="0.96" stop-color="#704000"/>
</linearGradient>
</defs>
</svg>
