<svg width="34" height="70" viewBox="0 0 34 70" fill="none" xmlns="http://www.w3.org/2000/svg">
<path d="M8.95236 9.27676C6.38158 9.27676 3.29664 9.06445 2.09695 11.4907C1.7073 12.594 1.46567 13.7341 1.3771 14.8874C0.871803 18.0534 0.585628 21.2437 0.520179 24.4405C-0.331793 36.476 -0.136988 48.5517 1.10288 60.5607C1.47993 63.0779 1.78845 65.0795 2.09695 66.6262C2.23017 67.4951 2.63364 68.314 3.26236 68.9918C4.00445 69.5684 4.94893 69.9006 5.93596 69.9319C6.83568 70.0226 7.74411 70.0226 8.64383 69.9319C11.0775 69.7803 13.4426 69.477 15.7392 69.1434C18.0358 68.8098 20.9836 68.2639 23.4172 67.8393C24.537 67.6574 25.6795 67.4451 26.8449 67.2025C27.7216 67.0446 28.5816 66.8214 29.4157 66.5353C30.0581 66.359 30.6369 66.0364 31.0941 65.6C31.5513 65.1635 31.8708 64.6285 32.0208 64.0484C32.2265 62.8959 32.0208 61.3492 32.295 58.832L32.912 42.8797C33.0834 35.7831 33.3233 28.6561 33.3576 21.6504L33.3576 18.3447C33.4315 17.6118 33.3619 16.8731 33.152 16.1611C33.1107 15.3782 32.7726 14.6303 32.1922 14.0382C31.3483 13.4043 30.3323 12.9758 29.2444 12.7948C27.839 12.4308 26.3994 12.1579 24.9597 11.9152C23.5201 11.6726 21.0522 11.3694 19.0641 11.0055C17.076 10.6415 14.848 10.2473 12.6885 10.0046C11.4598 9.69935 10.2124 9.45632 8.95236 9.27676Z" fill="url(#paint0_linear_24_561)"/>
<g style="mix-blend-mode:multiply" opacity="0.5">
<path d="M7.3744 9.27708L7.3744 10.5205C7.67926 11.6107 7.79486 12.7356 7.71719 13.8565L7.71719 14.0385C11.7276 14.3721 15.738 14.8877 19.7141 15.4942C21.7707 15.7975 25.5412 15.2819 26.5695 17.6172C28.4205 22.0753 27.1522 28.4441 27.1179 33.1752C27.1179 42.7284 27.1179 52.3423 26.6038 61.8955C28.3551 62.2903 30.1285 62.6041 31.9167 62.8356L32.2938 62.8356C32.2938 61.7741 32.2938 60.4094 32.2938 58.4987L32.9107 42.5464C33.0821 35.4498 33.3221 28.3228 33.3563 21.3171L33.3563 18.0114C33.4302 17.2785 33.3606 16.5398 33.1507 15.8279C33.1095 15.0449 32.7714 14.297 32.1909 13.7049C31.347 13.071 30.3311 12.6425 29.2431 12.4615C27.8378 12.0976 26.3981 11.8246 24.9585 11.582C23.5189 11.3393 21.0509 11.0361 19.0629 10.6722C17.0748 10.3082 14.8468 9.91398 12.6873 9.67136C11.4373 9.51772 10.1785 9.42655 8.91685 9.39837C8.40569 9.33226 7.89073 9.29178 7.3744 9.27708Z" fill="#D47F02"/>
</g>
<g style="mix-blend-mode:multiply" opacity="0.2">
<path d="M7.06712 64.2897C5.66226 51.9473 5.11276 39.5403 5.42178 27.1385C5.27289 23.4251 5.39885 19.7071 5.79883 16.0082L5.79883 15.1894C5.20183 14.9373 4.6287 14.6432 4.08498 14.3099C3.2966 13.855 2.50827 13.4001 1.7199 13.0058C1.7199 13.6123 1.5142 14.2795 1.41137 15.0377C0.901494 18.1529 0.603907 21.2925 0.52018 24.4393C-0.331793 36.4748 -0.136988 48.5504 1.10289 60.5594C1.47993 62.8643 1.71989 64.7447 2.02838 66.2004C3.09097 65.8364 4.1193 65.3815 5.14761 65.0176C6.17593 64.6537 6.48441 64.5323 7.06712 64.2897Z" fill="#D47F02"/>
</g>
<g style="mix-blend-mode:multiply" opacity="0.2">
<path d="M0.724182 53.7007C0.748843 55.9711 0.909024 58.2387 1.20406 60.4941L1.47828 62.3137C3.22603 62.0771 4.93888 61.6702 6.5856 61.1006C6.24287 58.8074 6.04832 56.4988 6.00289 54.186C4.25476 54.0343 2.50659 53.8524 0.724182 53.7007Z" fill="#D47F02"/>
</g>
<g style="mix-blend-mode:multiply" opacity="0.2">
<path d="M1.10269 18.7096C0.897022 20.4382 0.725635 21.7423 0.622802 24.3808L0.622803 28.5357C2.24918 29.2433 3.72262 30.1979 4.97609 31.3561L5.59306 31.9627L5.59306 27.1406L5.59306 21.9243C4.00604 20.9553 2.5049 19.8806 1.10269 18.7096Z" fill="#D47F02"/>
</g>
<g style="mix-blend-mode:multiply" opacity="0.2">
<path d="M1.65079 14.2789L1.65079 15.0371L1.65079 15.9469C2.95331 16.3715 3.94734 17.7059 5.07847 18.7977L5.79826 19.4043L5.79826 17.8576C4.50496 16.5863 3.11956 15.3909 1.65079 14.2789Z" fill="#D47F02"/>
</g>
<g style="mix-blend-mode:multiply" opacity="0.2">
<path d="M24.7185 64.5014C24.32 64.5434 23.9173 64.5434 23.5188 64.5014C22.4905 64.5014 21.3936 64.6834 20.331 64.8047C16.6331 64.9725 12.955 65.3882 9.32811 66.0481C9.05175 67.4518 8.27025 68.7389 7.10007 69.7177C7.64798 69.7477 8.19745 69.7477 8.74535 69.7177C11.179 69.5661 13.5442 69.2628 15.8407 68.9292C18.1373 68.5956 21.0852 68.0497 23.5188 67.6251C24.6386 67.4432 25.7811 67.2309 26.9465 66.9882C27.5731 66.8688 28.1911 66.717 28.7975 66.5334C27.2744 66.153 25.876 65.4564 24.7185 64.5014Z" fill="#D47F02"/>
</g>
<g style="mix-blend-mode:multiply" opacity="0.2">
<path d="M11.9341 65.8629C11.3514 65.8629 10.7345 66.0448 10.1175 66.1965C9.80901 67.8948 9.3634 69.0776 9.19202 69.8965C10.6316 69.8965 12.037 69.6235 13.408 69.4719C13.031 68.5621 12.5169 67.5309 11.9341 65.8629Z" fill="#D47F02"/>
</g>
<g style="mix-blend-mode:multiply" opacity="0.2">
<path d="M14.2299 65.4426C14.0585 65.4426 13.8528 65.4426 13.6814 65.4426C14.0462 66.6961 14.6489 67.8856 15.4638 68.9606C15.4638 68.9606 15.6352 68.9606 15.7381 68.9606C15.8409 68.9606 16.6978 68.8089 17.2119 68.7483C16.1228 67.7163 15.1258 66.6111 14.2299 65.4426Z" fill="#D47F02"/>
</g>
<g style="mix-blend-mode:multiply" opacity="0.2">
<path d="M17.9668 67.5976C17.6925 67.355 17.3841 67.1124 17.0756 66.8091C16.6204 66.3574 16.2291 65.8584 15.9101 65.3231C16.6876 66.6123 17.8807 67.6679 19.3379 68.3558C18.8238 68.1946 18.3558 67.9358 17.9668 67.5976Z" fill="#D47F02"/>
</g>
<g style="mix-blend-mode:multiply" opacity="0.2">
<path d="M26.8795 66.8938C25.2495 66.4174 23.7453 65.654 22.4577 64.6496C22.2178 64.6496 21.9779 64.6496 21.7379 64.6496C22.7205 65.6375 23.8782 66.4775 25.1656 67.1364C25.6798 67.1364 26.1939 66.9241 26.7081 66.8028L26.8795 66.8938Z" fill="#D47F02"/>
</g>
<g style="mix-blend-mode:multiply" opacity="0.5">
<path d="M10.3569 9.72876L10.3569 9.48618C9.87701 9.48618 9.39716 9.48618 8.883 9.48618C7.40549 9.37009 5.91651 9.50386 4.49554 9.88041C5.35247 11.0935 6.41506 12.4279 7.5462 14.1566C8.27264 14.4389 9.05054 14.6033 9.84275 14.6419C9.70415 12.9903 9.8779 11.3298 10.3569 9.72876Z" fill="#D47F02"/>
</g>
<g style="mix-blend-mode:multiply" opacity="0.3">
<path d="M14.2294 14.577C15.3605 14.577 15.7032 14.7893 16.8001 14.8803C16.7648 13.3612 16.9375 11.8438 17.3142 10.3614C16.3202 10.2098 15.3262 10.0278 14.2979 9.87615C14.1694 11.4405 14.1465 13.0102 14.2294 14.577Z" fill="#D47F02"/>
</g>
<g style="mix-blend-mode:multiply" opacity="0.3">
<path d="M28.6959 59.0998C28.023 58.9307 27.369 58.7074 26.7421 58.4326L26.4679 58.281C26.2578 60.1045 26.1777 61.9379 26.228 63.7703C26.4277 63.8025 26.623 63.8534 26.8107 63.9219C28.147 64.2575 29.5108 64.5008 30.8896 64.6498L31.6095 64.6498C31.8201 64.3796 31.9498 64.0666 31.9865 63.74C32.1637 62.4623 32.2439 61.1755 32.2264 59.8884C31.061 59.7064 29.8956 59.4334 28.6959 59.0998Z" fill="#D47F02"/>
</g>
<g style="mix-blend-mode:multiply" opacity="0.5">
<path d="M27.3925 38.5968L26.9469 50.5156C28.6633 49.6287 30.6824 49.3166 32.6369 49.6361L32.8769 42.6911L32.8769 37.3534C31.1747 38.1205 29.3019 38.5451 27.3925 38.5968Z" fill="#D47F02"/>
</g>
<g style="mix-blend-mode:multiply" opacity="0.2">
<path d="M18.0687 10.5139C17.2655 11.8617 16.8311 13.3576 16.8005 14.8811C17.1432 14.8811 18.2744 14.8811 18.6171 14.8811C20.7366 14.9501 22.846 15.1732 24.9241 15.5483C25.3272 15.6198 25.7104 15.761 26.0516 15.964C26.3928 16.167 26.6853 16.4277 26.9122 16.7311C27.4428 17.7889 27.6892 18.9412 27.632 20.0974C27.8034 25.1015 27.632 30.1055 27.632 35.0792C29.5574 35.0416 31.4511 34.6382 33.1849 33.8964C33.1849 29.6809 33.3906 25.4351 33.4249 21.2195L33.4249 17.9138C33.4987 17.1809 33.4291 16.4422 33.2192 15.7302C33.1779 14.9473 32.8398 14.1994 32.2594 13.6073C31.4155 12.9734 30.3995 12.5449 29.3116 12.3639C27.9062 11.9999 26.4666 11.727 25.0269 11.4844C23.5873 11.2417 21.1193 10.9384 19.1313 10.5745L18.0687 10.5139Z" fill="#D47F02"/>
</g>
<g style="mix-blend-mode:screen" opacity="0.1">
<path d="M27.4616 18.3726C27.4997 18.9989 27.4997 19.6266 27.4616 20.2529L27.4616 22.2848L33.1174 22.2848L33.1174 21.4053L33.1174 18.0997C31.3692 18.13 29.484 18.3726 27.4616 18.3726Z" fill="#FDF9E3"/>
</g>
<g style="mix-blend-mode:screen" opacity="0.2">
<path d="M30.5114 15.3368C29.4515 15.6426 28.4104 15.9969 27.3921 16.3983C29.3802 16.3983 31.3683 16.3983 33.3221 16.3983L33.3221 15.8221L33.0822 14.7606C32.2074 14.8838 31.3469 15.0766 30.5114 15.3368Z" fill="#FDF9E3"/>
</g>
<g style="mix-blend-mode:screen" opacity="0.2">
<path d="M21.8388 11.124C21.0705 12.3736 20.5379 13.7258 20.2621 15.1272C21.8168 15.2159 23.3629 15.3983 24.8895 15.6731C25.0009 14.7021 25.3394 13.7623 25.8835 12.9133L26.5006 11.8822C26.0207 11.8822 25.5065 11.6699 24.9923 11.6092C24.4782 11.5486 22.9014 11.2756 21.8388 11.124Z" fill="#FDF9E3"/>
</g>
<g style="mix-blend-mode:screen" opacity="0.5">
<g style="mix-blend-mode:screen" opacity="0.5">
<path d="M7.37545 67.1353C6.9182 66.9433 6.49175 66.6986 6.10722 66.4074C4.94185 66.969 3.72672 67.4457 2.47388 67.8328C2.63894 68.2292 2.89574 68.5908 3.22792 68.8943C3.80238 69.3884 4.55434 69.6888 5.35313 69.7435C6.0224 69.2099 6.55927 68.5593 6.92984 67.8328L7.37545 67.1353Z" fill="#FFEED9"/>
</g>
<g style="mix-blend-mode:screen" opacity="0.5">
<path d="M6.00463 13.731L7.03289 13.3368C6.94495 12.0338 6.94495 10.7275 7.03289 9.42453C5.11339 9.42453 3.1939 9.8188 2.33697 11.4262C3.04696 11.7133 3.7053 12.0914 4.29078 12.5483L6.00463 13.731Z" fill="#FFDC7C"/>
</g>
<g style="mix-blend-mode:screen" opacity="0.9">
<path d="M28.1812 16.1499L28.3526 16.1499C29.1372 16.0856 29.916 15.9742 30.6835 15.8163C31.5062 15.8163 32.3288 15.8163 33.1857 15.6344C33.1271 14.873 32.7902 14.1492 32.226 13.5721C31.7613 13.2088 31.2274 12.9213 30.6492 12.7229C29.7237 13.754 29.0039 14.7245 28.0784 15.7557L28.1812 16.1499Z" fill="#FFDC7C"/>
</g>
<g style="mix-blend-mode:screen" opacity="0.5">
<path d="M26.0899 64.3712C27.1768 65.1561 28.421 65.7528 29.7575 66.1303C30.2423 65.9409 30.678 65.6655 31.0376 65.3213C31.3972 64.977 31.6732 64.571 31.8484 64.1286C30.1003 64.1286 28.2151 63.886 26.2956 63.886L26.0899 64.3712Z" fill="#FFDC7C"/>
</g>
</g>
<path d="M6.00309 66.8969C4.94047 67.3214 3.91208 67.8067 2.84946 68.1706C2.98076 68.4061 3.15444 68.6212 3.36366 68.8075C4.25489 68.3829 5.11186 67.7157 6.00309 66.8969Z" fill="#FFF6E6"/>
<path d="M6.82604 12.7348L6.27758 11.6127C5.87589 10.9915 5.42935 10.3938 4.94073 9.82339C5.48918 10.7029 6.03764 11.6734 6.82604 12.7348Z" fill="#FFF6E6"/>
<path d="M3.9481 9.97262C3.42381 10.1727 2.96431 10.4854 2.61131 10.8825C3.5025 11.6407 4.77075 12.2472 5.83332 13.0661C5.25062 11.9743 4.66791 10.9128 3.9481 9.97262Z" fill="#FFF6E6"/>
<path d="M30.5807 14.3703C31.0949 14.1277 31.5748 13.8851 32.0546 13.6121L31.5062 13.2482C31.2816 13.5574 31.017 13.8424 30.7178 14.0974C30.4271 14.3142 30.1524 14.5472 29.8952 14.7949C30.1009 14.6265 30.3315 14.4836 30.5807 14.3703Z" fill="#FFF6E6"/>
<path d="M30.5458 65.7767C30.4432 65.7857 30.3399 65.7857 30.2373 65.7767C29.4575 65.607 28.6905 65.3943 27.9408 65.1398C28.6583 65.4978 29.4027 65.8119 30.1687 66.08L30.5458 65.7767Z" fill="#FFF6E6"/>
<g style="mix-blend-mode:multiply" opacity="0.6">
<path d="M8.95236 9.27676C6.38158 9.27676 3.29664 9.06445 2.09695 11.4907C1.7073 12.594 1.46567 13.7341 1.3771 14.8874C0.871803 18.0534 0.585628 21.2437 0.520179 24.4405C-0.331793 36.476 -0.136988 48.5517 1.10288 60.5607C1.51421 63.0779 1.78845 65.0795 2.09695 66.6262C2.23017 67.4951 2.63364 68.314 3.26236 68.9918C4.00445 69.5684 4.94893 69.9006 5.93596 69.9319C6.83568 70.0226 7.74411 70.0226 8.64383 69.9319C11.0775 69.7803 13.4426 69.477 15.7392 69.1434C18.0358 68.8098 20.9836 68.2639 23.4172 67.8393C24.537 67.6574 25.6795 67.4451 26.8449 67.2025C27.7216 67.0446 28.5816 66.8214 29.4157 66.5353C30.0581 66.359 30.6369 66.0364 31.0941 65.6C31.5513 65.1635 31.8708 64.6285 32.0208 64.0484C32.2265 62.8959 32.0208 61.3492 32.295 58.832L32.912 42.8797C33.0834 35.7831 33.3233 28.6561 33.3576 21.6504L33.3576 18.3447C33.4315 17.6118 33.3619 16.8731 33.152 16.1611C33.1107 15.3782 32.7726 14.6303 32.1922 14.0382C31.3483 13.4043 30.3323 12.9758 29.2444 12.7948C27.839 12.4308 26.3994 12.1579 24.9597 11.9152C23.5201 11.6726 21.0522 11.3694 19.0641 11.0055C17.076 10.6415 14.848 10.2473 12.6885 10.0046C11.4598 9.69935 10.2124 9.45632 8.95236 9.27676ZM24.4456 11.7636C25.6795 11.9759 26.9478 12.1882 28.1818 12.4308C29.3903 12.5884 30.5537 12.9487 31.6095 13.4923C32.0659 13.8155 32.4328 14.2267 32.6823 14.6945C32.9318 15.1622 33.0573 15.6742 33.0491 16.1914C33.0491 17.4349 33.0491 18.8603 33.0491 20.8316C33.0491 27.6553 32.8092 34.5396 32.6378 41.3633C32.6378 46.7617 32.1922 52.1903 32.0551 57.5886C32.0551 59.0746 32.0551 61.8648 32.0551 62.623C32.0981 63.5907 31.7175 64.5359 30.9925 65.2615C30.3742 65.734 29.65 66.0853 28.8673 66.2926C26.8793 66.8385 24.617 67.2024 22.4232 67.5967C20.2295 67.9909 17.9672 68.3852 15.5678 68.7188C13.1684 69.0524 11.5574 69.2344 9.53506 69.4164C8.78097 69.4164 7.99257 69.4164 7.2042 69.4164C6.56807 69.4706 5.92647 69.3918 5.33108 69.1863C4.73569 68.9809 4.20317 68.6545 3.77649 68.2336C3.24672 67.3834 2.931 66.442 2.851 65.4738C2.50823 63.7754 2.13122 61.5312 1.82273 58.7714C0.907897 47.2237 0.781983 35.6377 1.44567 24.0766C1.44567 19.7095 2.06266 17.3439 2.3026 15.1603C2.44903 13.9819 2.70119 12.8156 3.0567 11.6726C3.23025 11.0398 3.64594 10.4796 4.23325 10.0871C4.82055 9.69461 5.54325 9.49402 6.2787 9.51938C7.7829 9.38205 9.2991 9.38205 10.8033 9.51938C15.1222 10.2169 19.8182 11.1267 24.5141 11.9152L24.4456 11.7636Z" fill="#D47F02"/>
</g>
<path d="M16.4571 12.972C14.7432 12.7901 13.0294 12.6384 11.3841 12.4868C9.82733 12.3088 8.25732 12.2378 6.68815 12.2745C4.76864 12.2745 4.49442 13.7605 4.2202 15.8835C1.58071 31.2217 1.58071 46.8251 4.2202 62.1634C4.22328 64.122 5.04072 66.0111 6.51676 67.4707C7.02795 67.7386 7.59411 67.9141 8.1825 67.9869C8.77088 68.0598 9.36979 68.0287 9.94447 67.8953C12.2068 67.683 13.8178 67.6224 15.6687 67.3797C17.5197 67.1371 20.1247 66.7428 22.2499 66.3183C23.1411 66.1363 24.0323 65.9543 24.9235 65.742C25.6877 65.594 26.4339 65.3807 27.1516 65.1052C27.6606 64.9109 28.0836 64.5744 28.356 64.1472C28.6284 63.72 28.7351 63.2256 28.6598 62.7396C28.6598 61.3749 28.6598 58.888 28.8654 57.0683C29.2767 51.1545 29.3795 45.1193 29.5852 39.1751C29.7909 33.2309 30.1679 27.499 29.928 21.7974C29.928 20.5539 29.928 18.4916 29.928 17.4605C29.9444 17.067 29.8675 16.6748 29.7022 16.3092C29.5369 15.9435 29.2869 15.6126 28.9682 15.3376C28.0767 14.7898 27.0346 14.465 25.9518 14.3974C22.8159 13.782 19.647 13.3063 16.4571 12.972Z" fill="url(#paint1_radial_24_561)"/>
<path style="mix-blend-mode:multiply" opacity="0.9" d="M16.4571 12.972C14.7432 12.7901 13.0294 12.6384 11.3841 12.4868C9.82733 12.3088 8.25732 12.2378 6.68815 12.2745C4.76864 12.2745 4.49442 13.7605 4.2202 15.8835C1.58071 31.2217 1.58071 46.8251 4.2202 62.1634C4.22328 64.122 5.04072 66.0111 6.51676 67.4707C7.02795 67.7386 7.59411 67.9141 8.1825 67.9869C8.77088 68.0598 9.36979 68.0287 9.94447 67.8953C12.2068 67.683 13.8178 67.6224 15.6687 67.3797C17.5197 67.1371 20.1247 66.7428 22.2499 66.3183C23.1411 66.1363 24.0323 65.9543 24.9235 65.742C25.6877 65.594 26.4339 65.3807 27.1516 65.1052C27.6606 64.9109 28.0836 64.5744 28.356 64.1472C28.6284 63.72 28.7351 63.2256 28.6598 62.7396C28.6598 61.3749 28.6598 58.888 28.8654 57.0683C29.2767 51.1545 29.3795 45.1193 29.5852 39.1751C29.7909 33.2309 30.1679 27.499 29.928 21.7974C29.928 20.5539 29.928 18.4916 29.928 17.4605C29.9444 17.067 29.8675 16.6748 29.7022 16.3092C29.5369 15.9435 29.2869 15.6126 28.9682 15.3376C28.0767 14.7898 27.0346 14.465 25.9518 14.3974C22.8159 13.782 19.647 13.3063 16.4571 12.972ZM25.4034 14.4884C26.4351 14.6062 27.4406 14.8619 28.3855 15.2466C29.928 16.0958 29.5167 17.8244 29.5509 19.6441C29.7223 25.7096 29.5509 31.7751 29.311 37.8407C29.071 43.9062 28.9682 49.9717 28.6255 56.0372C28.487 58.3 28.487 60.5678 28.6255 62.8306C28.6004 63.3487 28.4484 63.8557 28.1799 64.3166C27.8064 64.7138 27.3037 64.9997 26.7402 65.1355C24.9393 65.6741 23.0943 66.0899 21.2216 66.3789C18.2395 66.8945 14.8804 67.1371 11.6583 67.4404C12.0011 67.4404 7.81928 68.0469 6.61959 67.0158C5.19363 64.9323 4.45732 62.5366 4.49443 60.1011C3.59774 51.2995 3.33438 42.4563 3.70602 33.6251C3.55198 28.9801 3.72373 24.331 4.2202 19.7048L4.80291 15.6409C5.00857 14.3671 5.0771 13.3966 6.17397 12.9417C7.44451 12.5265 8.81801 12.4218 10.1501 12.6384C12.3438 12.8204 14.5376 13.1843 16.697 13.336C18.7897 13.4951 20.8718 13.7482 22.9354 14.0941C23.381 14.2155 24.5122 14.3065 25.4034 14.4884Z" fill="url(#paint2_linear_24_561)"/>
<path style="mix-blend-mode:screen" d="M15.464 66.0797C13.4026 66.3804 11.3143 66.5124 9.22556 66.474C7.95731 66.474 7.20326 67.1412 6.38061 63.9265C5.53432 60.6329 5.10887 57.2657 5.11233 53.8881C5.11232 49.8545 5.83214 46.7307 6.3463 51.6135C6.86046 56.4962 9.25986 62.8953 15.087 65.1396C15.6697 65.3519 16.9379 65.8068 15.464 66.0797Z" fill="url(#paint3_linear_24_561)"/>
<path style="mix-blend-mode:screen" d="M4.87129 44.4559C4.87129 40.9379 5.35113 33.356 5.35113 33.356C5.78187 35.8641 5.91967 38.4048 5.76241 40.9379C5.93935 42.6428 5.93935 44.3584 5.76241 46.0633C5.38539 46.2452 4.90557 46.7911 4.87129 44.4559Z" fill="url(#paint4_linear_24_561)"/>
<path style="mix-blend-mode:multiply" opacity="0.3" d="M24.1022 65.106C19.5777 66.0765 16.6984 65.4092 19.7148 61.3757C23.1425 56.6445 23.3481 51.5495 23.3824 45.9996C23.3824 39.2669 25.6789 26.1957 20.1261 20.7064C17.144 17.6736 17.2468 14.6409 20.983 15.0048C21.9755 14.9558 22.9682 15.0984 23.8923 15.4227C24.8163 15.747 25.6496 16.2452 26.3344 16.8828C27.0191 17.5204 27.539 18.2821 27.8579 19.1152C28.1768 19.9482 28.2871 20.8327 28.1812 21.7072C28.3868 34.8087 27.5641 49.4266 27.1185 61.7699C27.0157 64.1961 26.2959 64.6207 24.1022 65.106Z" fill="url(#paint5_radial_24_561)"/>
<path style="mix-blend-mode:screen" d="M27.3933 59.1024C26.6392 46.1525 29.3471 31.8075 28.5244 19.0699C28.5244 16.856 27.9417 15.7036 25.7822 15.3397C23.6228 14.9757 21.0863 14.3388 19.6124 14.1872C18.1385 14.0356 14.5051 13.3077 19.6124 13.9143C22.2351 14.1403 24.8356 14.5356 27.3933 15.097C28.2502 15.2487 29.3471 15.097 29.2442 18.4937C28.97 27.0764 28.9357 35.6895 28.593 44.2722C28.353 50.3377 28.3188 56.7065 28.0103 62.8933C27.6148 61.6596 27.4073 60.3847 27.3933 59.1024Z" fill="url(#paint6_radial_24_561)"/>
<path style="mix-blend-mode:screen" opacity="0.6" d="M27.9409 20.4629C26.7412 33.6857 27.9409 47.7577 27.5639 60.7379C27.5639 63.4067 27.1526 64.0436 25.3702 64.7411C23.6352 65.4496 21.7606 65.8514 19.8515 65.9239C18.549 66.1968 15.5326 67.2887 20.1943 66.3788C22.5115 65.9943 24.8007 65.488 27.0498 64.8625C27.7696 64.6805 28.6608 65.196 28.4208 61.3444C27.8724 52.7314 28.7293 43.9061 28.7979 35.2931C28.7979 29.5005 29.8947 22.7374 28.5922 17.0965C28.2764 18.2019 28.0586 19.3275 27.9409 20.4629Z" fill="url(#paint7_radial_24_561)"/>
<path style="mix-blend-mode:screen" opacity="0.7" d="M3.39813 27.7448C3.39813 27.7448 4.08366 18.8891 4.94059 14.5219C5.24908 12.9146 6.27741 12.8539 9.8765 13.0965C14.4696 13.4301 23.5873 14.2187 23.5873 14.2187C23.5873 14.2187 13.5099 13.1269 8.57401 12.581C6.72304 12.399 5.14628 12.0654 4.59785 14.0064C3.83996 18.5558 3.43908 23.1463 3.39813 27.7448Z" fill="url(#paint8_linear_24_561)"/>
<path d="M22.6615 66.1354C22.6615 66.1354 15.5662 67.2575 13.7152 67.4394C11.8643 67.6214 8.16234 68.5009 6.48277 67.4394C4.8032 66.378 4.73465 64.2247 4.18622 60.2215C2.23243 46.7864 4.18622 17.7629 4.18622 17.7629C4.18622 17.7629 3.53496 41.1454 4.18622 52.6396C4.15301 56.5946 4.61279 60.5408 5.55728 64.4067C5.61137 64.8957 5.78265 65.369 6.05975 65.7949C6.33685 66.2208 6.71342 66.5895 7.16427 66.8765C7.61513 67.1635 8.12994 67.3622 8.6744 67.4592C9.21887 67.5563 9.78048 67.5495 10.3218 67.4394C13.7495 67.2271 16.1489 66.9239 17.5542 66.8329C18.9596 66.7419 22.6615 66.1354 22.6615 66.1354Z" fill="white"/>
<path d="M28.1916 11.8546C28.0767 11.6183 27.8947 11.4212 27.6684 11.2877C27.4422 11.1542 27.1816 11.0904 26.9192 11.1041L18.9341 11.5332L23.436 4.94879C23.6316 4.6739 23.7156 4.3351 23.6712 4.00069C23.6269 3.66628 23.4574 3.36115 23.1969 3.1468C22.9364 2.93245 22.6044 2.82483 22.2677 2.84564C21.9311 2.86645 21.6148 3.01413 21.3827 3.25893L7.58843 17.2276C7.39557 17.4238 7.26787 17.6746 7.22273 17.9459C7.1776 18.2173 7.21722 18.4959 7.3362 18.7439C7.45518 18.9919 7.64773 19.1972 7.88761 19.3317C8.12749 19.4663 8.40302 19.5236 8.67666 19.4958L17.5636 18.5917L11.7568 27.7201C11.5799 28.0042 11.5159 28.3442 11.5774 28.6732C11.6389 29.0021 11.8215 29.296 12.0891 29.4969C12.3568 29.6977 12.69 29.791 13.023 29.7581C13.356 29.7253 13.6646 29.5688 13.8879 29.3195L27.9654 13.3299C28.1455 13.1343 28.2631 12.8895 28.3034 12.6267C28.3437 12.3639 28.3048 12.0951 28.1916 11.8546Z" fill="#003C80"/>
<path d="M22.4113 3.9886L8.62008 17.9626C8.55143 18.0245 8.50457 18.1069 8.48645 18.1976C8.46833 18.2883 8.47991 18.3824 8.51948 18.4659C8.55905 18.5495 8.6245 18.6181 8.70612 18.6615C8.78774 18.7049 8.88118 18.7209 8.97259 18.707L18.8061 17.7092C18.8913 17.6907 18.9801 17.6986 19.0607 17.7318C19.1414 17.765 19.21 17.8219 19.2575 17.895C19.3051 17.9681 19.3292 18.054 19.3269 18.1411C19.3245 18.2283 19.2957 18.3127 19.2443 18.3831L12.9288 28.2968C12.8591 28.3897 12.8291 28.5065 12.8454 28.6215C12.8618 28.7365 12.9231 28.8403 13.016 28.91C13.1089 28.9798 13.2257 29.0098 13.3407 28.9934C13.4557 28.9771 13.5594 28.9157 13.6292 28.8228L27.7079 12.829C27.7692 12.7656 27.8095 12.685 27.8234 12.5979C27.8373 12.5108 27.8241 12.4216 27.7856 12.3423C27.7471 12.263 27.6851 12.1974 27.6081 12.1545C27.5311 12.1116 27.4428 12.0934 27.3551 12.1023L18.444 12.5816C18.3608 12.5898 18.2771 12.5737 18.203 12.5351C18.129 12.4965 18.0677 12.4372 18.0268 12.3644C17.9859 12.2915 17.967 12.2084 17.9726 12.125C17.9782 12.0417 18.0079 11.9617 18.0581 11.895L23.0862 4.54338C23.1597 4.45388 23.1947 4.33882 23.1835 4.22351C23.1722 4.1082 23.1156 4.00209 23.0261 3.92852C22.9366 3.85495 22.8216 3.81995 22.7063 3.83122C22.591 3.84249 22.4849 3.8991 22.4113 3.9886Z" fill="#91D9F8"/>
<path d="M8.97272 18.707L18.8062 17.7092C18.8652 17.7019 18.9251 17.7069 18.9821 17.724C19.0391 17.741 19.0919 17.7697 19.1372 17.8082C19.1825 17.8467 19.2194 17.8942 19.2454 17.9477C19.2715 18.0011 19.2861 18.0594 19.2885 18.1189C21.0306 16.983 25.4744 14.038 25.123 13.7212C24.6884 13.3332 13.7084 16.4501 13.395 15.1775C13.0817 13.9048 16.7783 10.1764 16.7783 10.1764C16.7783 10.1764 16.3603 10.4072 15.7406 10.7264L8.60359 17.9581C8.53009 18.02 8.47947 18.1048 8.45978 18.1989C8.44009 18.2929 8.45247 18.3909 8.49496 18.4771C8.53745 18.5633 8.60759 18.6328 8.69419 18.6744C8.78079 18.7161 8.87885 18.7276 8.97272 18.707Z" fill="#37B3E7"/>
<path d="M22.8373 15.7223C21.5616 16.5147 20.2114 17.1802 18.806 17.7094C18.8912 17.6909 18.98 17.6988 19.0607 17.732C19.1413 17.7652 19.2099 17.8221 19.2574 17.8952C19.305 17.9683 19.3292 18.0541 19.3268 18.1413C19.3244 18.2285 19.2956 18.3129 19.2442 18.3833L13.1103 27.985C13.0031 28.1967 12.9123 28.3861 12.8379 28.5531C12.844 28.6253 12.8673 28.6951 12.9058 28.7565C12.9444 28.8179 12.997 28.8692 13.0593 28.9062C15.052 26.7691 23.3228 16.1862 25.1083 13.8422C24.4204 14.5479 23.6591 15.1782 22.8373 15.7223Z" fill="white"/>
<path d="M20.1974 17.5168C19.3857 17.5698 18.5776 17.6684 17.7769 17.812L18.8059 17.7094C18.8912 17.6909 18.98 17.6988 19.0606 17.732C19.1412 17.7652 19.2098 17.8221 19.2574 17.8952C19.3049 17.9683 19.3291 18.0541 19.3267 18.1413C19.3244 18.2284 19.2956 18.3128 19.2441 18.3832L12.9287 28.2969C12.8775 28.3752 12.8533 28.468 12.8596 28.5613C12.866 28.6546 12.9025 28.7432 12.9638 28.8139C14.0824 26.6161 20.592 17.6225 20.1974 17.5168Z" fill="#006AB6"/>
<path d="M8.58461 18.5274C10.5262 16.2652 21.6064 5.46462 22.1703 4.80548C22.8082 4.08604 23.0852 4.54756 23.0852 4.54756C23.1593 4.45821 23.1949 4.34307 23.1841 4.22747C23.1733 4.11188 23.1171 4.0053 23.0277 3.93118C22.9384 3.85706 22.8233 3.82148 22.7077 3.83225C22.5921 3.84302 22.4855 3.89927 22.4114 3.98863L8.62019 17.9626C8.54694 18.0365 8.50297 18.1345 8.49643 18.2383C8.48988 18.3422 8.52121 18.4449 8.58461 18.5274Z" fill="#37B3E7"/>
<path d="M27.355 12.1022L18.4439 12.5815C18.3607 12.5897 18.277 12.5736 18.2029 12.535C18.1288 12.4964 18.0676 12.4371 18.0267 12.3643C17.9858 12.2914 17.9669 12.2083 17.9725 12.1249C17.9781 12.0416 18.0078 11.9617 18.058 11.8949C18.058 11.8949 17.1717 12.6279 17.2013 13.0989C17.2309 13.5698 27.1623 12.2064 27.8107 12.4781C27.7971 12.3691 27.7423 12.2694 27.6576 12.1995C27.5728 12.1296 27.4646 12.0948 27.355 12.1022Z" fill="white"/>
<defs>
<linearGradient id="paint0_linear_24_561" x1="7332.94" y1="-9044.04" x2="7976.36" y2="-9268.16" gradientUnits="userSpaceOnUse">
<stop offset="0.14" stop-color="#EAC991"/>
<stop offset="0.51" stop-color="#D5A76F"/>
<stop offset="1" stop-color="#A14E01"/>
</linearGradient>
<radialGradient id="paint1_radial_24_561" cx="0" cy="0" r="1" gradientUnits="userSpaceOnUse" gradientTransform="translate(6307.87 -8627.22) rotate(-90) scale(544.219 270.983)">
<stop stop-color="#FDF9E3"/>
<stop offset="0.9" stop-color="#EAC991"/>
</radialGradient>
<linearGradient id="paint2_linear_24_561" x1="5994.13" y1="-7927.43" x2="6796.56" y2="-8298.35" gradientUnits="userSpaceOnUse">
<stop stop-color="#FDF9E3"/>
<stop offset="0.37" stop-color="#EAC991"/>
<stop offset="0.94" stop-color="#D47F02"/>
</linearGradient>
<linearGradient id="paint3_linear_24_561" x1="2503.87" y1="-2519.85" x2="2542.42" y2="-2542.46" gradientUnits="userSpaceOnUse">
<stop offset="0.14" stop-color="white"/>
<stop offset="0.96"/>
</linearGradient>
<linearGradient id="paint4_linear_24_561" x1="233.276" y1="-1923.89" x2="245.147" y2="-1924.78" gradientUnits="userSpaceOnUse">
<stop offset="0.14" stop-color="white"/>
<stop offset="0.96"/>
</linearGradient>
<radialGradient id="paint5_radial_24_561" cx="0" cy="0" r="1" gradientUnits="userSpaceOnUse" gradientTransform="translate(2251.36 -7789.69) rotate(-90) scale(788.197 159.087)">
<stop offset="0.84" stop-color="white"/>
<stop offset="0.94" stop-color="#D47F02"/>
</radialGradient>
<radialGradient id="paint6_radial_24_561" cx="0" cy="0" r="1" gradientUnits="userSpaceOnUse" gradientTransform="translate(2860.22 -7871.34) rotate(-90) scale(326.799 81.4914)">
<stop offset="0.14" stop-color="white"/>
<stop offset="0.96"/>
</radialGradient>
<radialGradient id="paint7_radial_24_561" cx="0" cy="0" r="1" gradientUnits="userSpaceOnUse" gradientTransform="translate(2701.58 -7333.76) rotate(-90) scale(360.37 83.8176)">
<stop offset="0.14" stop-color="white"/>
<stop offset="0.96"/>
</radialGradient>
<linearGradient id="paint8_linear_24_561" x1="4560.91" y1="-2493.87" x2="4633.5" y2="-2412.56" gradientUnits="userSpaceOnUse">
<stop offset="0.04" stop-color="#FFF6FF"/>
<stop offset="0.18" stop-color="#FCD9B5"/>
<stop offset="0.95" stop-color="#E12100"/>
</linearGradient>
</defs>
</svg>
