<svg width="63" height="61" viewBox="0 0 63 61" fill="none" xmlns="http://www.w3.org/2000/svg">
<path d="M60.9694 21.1975C60.9694 20.8035 59.1876 21.1975 58.9566 21.1975L52.5552 23.2003C52.0602 21.887 50.6083 18.0783 49.9484 18.5051L52.2912 16.9291L57.0758 13.6458C57.0758 13.6458 57.4058 13.3831 57.3068 13.2846C54.5728 9.22074 50.9233 5.84793 46.6487 3.43461C46.0669 3.34338 45.4724 3.3752 44.9039 3.52795C44.3353 3.6807 43.8055 3.95095 43.349 4.32113C42.491 5.92996 42.5241 7.60448 41.0062 10.4938C39.9814 10.0679 38.9351 9.69529 37.8715 9.37749C36.4856 8.95066 37.0135 8.7208 37.3105 7.1448C37.7395 5.04346 38.1354 2.90932 38.5644 0.807988C38.5746 0.743014 38.5599 0.67658 38.5232 0.621868C38.4866 0.567155 38.4306 0.528107 38.3664 0.51245C33.289 -0.383018 28.0725 -0.102139 23.1218 1.33328C22.8908 1.33328 21.9999 1.66162 22.1319 2.05562C22.9238 4.74795 23.7487 7.40744 24.5736 10.0998C23.3577 10.5597 22.1776 11.1084 21.043 11.7414C19.5581 9.54161 18.1062 7.34178 16.6543 5.17478C16.2914 4.64944 15.0705 5.1748 14.6745 5.40463C10.5744 8.25755 7.18757 12.0094 4.77537 16.371C4.7512 16.4044 4.73821 16.4447 4.73821 16.4859C4.73821 16.5271 4.7512 16.5673 4.77537 16.6008L9.85695 19.2931L12.1667 20.5408L10.6489 25.1703L3.85145 23.8241C3.45549 23.8241 1.97065 23.8241 1.87166 24.4808C1.0321 29.3139 1.29141 34.2728 2.63058 38.9931C2.63058 39.3543 3.62049 38.9931 3.81847 38.9931L11.0448 36.7276C11.5398 38.0738 13.0246 41.8825 13.6516 41.4228L11.3088 43.0317L6.55724 46.315C6.55724 46.315 6.22726 46.5776 6.29326 46.709C8.66941 50.7913 11.9823 54.2566 15.9614 56.8216C16.5239 56.8821 17.093 56.8257 17.6325 56.6562C18.1721 56.4866 18.6705 56.2076 19.0961 55.8366L22.3958 49.27C23.4149 49.7103 24.4621 50.0832 25.5306 50.3863C26.9164 50.8131 26.3885 51.043 26.0915 52.619C25.6955 54.7531 25.2666 56.8545 24.8706 58.9887C24.8706 58.9887 24.8706 59.2184 25.0686 59.2513C30.146 60.1467 35.3626 59.8659 40.3132 58.4304C40.5112 58.4304 41.4021 58.1021 41.3032 57.7081L38.8284 49.664C40.058 49.2113 41.2496 48.6623 42.3921 48.0223C43.8439 50.2221 44.1079 52.8488 45.6918 55.0486C46.0547 55.5739 48.4635 54.6546 48.9915 54.392C53.0916 51.539 56.4784 47.7871 58.8906 43.4256C58.8906 43.4256 58.8906 43.2615 58.8906 43.2286L53.809 40.5035L51.4992 39.2558C51.4992 39.2558 52.4892 36.3008 53.0171 34.6263C54.3022 34.9834 55.5594 35.4334 56.7788 35.9725C57.9007 36.268 59.4845 36.5306 59.4845 36.5306C60.0785 36.5306 61.7284 35.7755 61.7944 35.3158C62.5739 30.607 62.2921 25.7846 60.9694 21.1975ZM31.932 36.2351C30.6191 36.1532 29.3607 35.6826 28.3185 34.8839C27.2762 34.0852 26.4976 32.9948 26.0827 31.7526C25.6678 30.5104 25.6354 29.1732 25.9897 27.9126C26.3441 26.652 27.069 25.5255 28.0713 24.6778C28.827 23.9368 29.7628 23.4034 30.7874 23.1296C31.812 22.8557 32.8905 22.8509 33.9176 23.1155C34.9447 23.3801 35.8853 23.905 36.6476 24.6392C37.41 25.3734 37.9681 26.2917 38.2674 27.3045C38.9934 31.9668 38.4654 35.8411 31.866 36.2351H31.932Z" fill="#3F3525"/>
<path d="M59.3819 21.5929C59.3819 21.1989 58.359 21.4287 58.161 21.5929L50.9346 23.8256C50.4397 22.5123 48.9878 18.7036 48.3279 19.1304L50.6706 17.5544L55.4552 14.2711C55.4552 14.2711 55.7852 14.0084 55.6862 13.9099C52.9523 9.84604 49.3028 6.47324 45.0282 4.05992C44.6573 3.93583 44.2573 3.92584 43.8806 4.03126C43.5039 4.13669 43.1679 4.35265 42.9164 4.65094L39.6167 11.2176C38.5976 10.7773 37.5504 10.4043 36.4819 10.1012C35.096 9.67441 35.624 9.4446 35.921 7.8686C36.3499 5.76726 36.7459 3.63312 37.1749 1.53179C37.1848 1.49929 37.1873 1.46498 37.1824 1.43139C37.1774 1.39779 37.165 1.36571 37.1461 1.33745C37.1271 1.3092 37.1021 1.28546 37.0728 1.26796C37.0436 1.25047 37.0108 1.23964 36.9769 1.23625C31.8994 0.340783 26.6829 0.621662 21.7322 2.05708C21.5012 2.05708 20.6103 2.38542 20.7423 2.77942C21.5343 5.47175 22.3592 8.13124 23.1841 10.8236C21.9681 11.2835 20.7881 11.8322 19.6534 12.4652C18.1686 10.2654 16.7167 8.06558 15.2648 5.89858C14.9018 5.37324 13.6809 5.8986 13.285 6.12843C9.18484 8.98135 5.79805 12.7332 3.38585 17.0948C3.36168 17.1282 3.3487 17.1684 3.3487 17.2097C3.3487 17.2509 3.36168 17.2911 3.38585 17.3246L8.46743 20.0169L10.7772 21.2646C10.7772 21.2646 9.78731 24.2524 9.29236 25.8941L2.49497 24.5479C2.06601 24.5479 0.581138 24.5479 0.482147 25.2046C-0.357416 30.0377 -0.0981012 34.9966 1.24107 39.7169C1.24107 40.0781 2.23096 39.8811 2.46194 39.7169L9.65532 37.4514C10.1503 38.7976 11.6351 42.5734 12.2621 42.1466L9.91931 43.7554L5.16772 47.0387C5.16772 47.0387 4.83775 47.3014 4.90374 47.4328C7.64798 51.4997 11.3089 54.8726 15.5948 57.2828C15.9662 57.4024 16.3647 57.4101 16.7405 57.3049C17.1162 57.1998 17.4524 56.9864 17.7066 56.6917L21.0063 50.1251C22.0122 50.5703 23.0487 50.9434 24.108 51.2414C25.4939 51.6683 24.966 51.8981 24.669 53.4741C24.273 55.6083 23.844 57.7096 23.4481 59.8438C23.4481 59.8438 23.4481 60.0736 23.646 60.1064C28.7235 61.0019 33.94 60.721 38.8907 59.2856C39.0887 59.2856 39.9796 58.9573 39.8806 58.5633L37.4058 50.5191C38.6381 50.0728 39.8302 49.5236 40.9695 48.8774C42.4214 51.0773 43.8732 53.2771 45.3581 55.4441C45.6881 55.9694 46.909 55.4441 47.3049 55.2143C51.4051 52.3613 54.7918 48.6094 57.204 44.2479C57.204 44.2479 57.204 44.0838 57.204 44.0509L52.1225 41.3258L49.8127 40.0781C49.8127 40.0781 50.8026 37.1231 51.3306 35.4486L58.128 36.7948C58.689 36.7948 59.9758 36.5978 60.0418 36.1381C60.9186 31.3017 60.6931 26.331 59.3819 21.5929ZM30.9384 38.9289C29.1917 38.8174 27.5193 38.1849 26.1392 37.1138C24.759 36.0428 23.735 34.5828 23.2008 32.9244C22.6666 31.2659 22.6469 29.4857 23.1442 27.8159C23.6415 26.1461 24.6328 24.664 25.9889 23.5629C30.4435 19.8528 35.888 23.8912 37.5378 28.0611C37.9717 29.205 38.1388 30.432 38.0268 31.6496C37.9147 32.8671 37.5263 34.0435 36.8908 35.0899C36.2554 36.1364 35.3895 37.0256 34.3584 37.6906C33.3273 38.3556 32.1579 38.7791 30.9384 38.9289Z" fill="url(#paint0_radial_33_622)"/>
<g opacity="0.6">
<g style="mix-blend-mode:screen" opacity="0.7">
<path d="M19.299 11.9716L10.5547 20.9024L10.8847 21.0993L9.96078 23.8902L22.7637 10.7568C21.6325 11.1896 20.5304 11.6941 19.464 12.2671C19.4141 12.1659 19.3591 12.0673 19.299 11.9716Z" fill="#C3BCB3"/>
</g>
<g style="mix-blend-mode:screen" opacity="0.7">
<path d="M30.4219 0.676575L22.5026 8.78643C22.6676 9.37743 22.8655 10.0013 23.0635 10.5923L32.7317 0.742256L30.4219 0.676575Z" fill="#C3BCB3"/>
</g>
<g style="mix-blend-mode:screen" opacity="0.7">
<path d="M0.127213 31.6717C0.127213 32.4269 0.127213 33.182 0.127213 33.9372L8.24445 25.6632L6.26466 25.2692L0.127213 31.6717Z" fill="#C3BCB3"/>
</g>
<g style="mix-blend-mode:screen" opacity="0.7">
<path d="M9.76403 37.4504C10.259 38.7966 11.7438 42.5725 12.3708 42.1456L10.028 43.7544L5.27643 47.0378C5.27643 47.0378 4.94645 47.3005 5.01245 47.4318C5.5734 48.2198 6.16734 48.975 6.76129 49.6973L23.2598 32.9195C22.7206 31.2737 22.6969 29.5037 23.1919 27.8442C23.6869 26.1847 24.6773 24.7141 26.0316 23.6276C26.9754 22.8039 28.1562 22.2971 29.4061 22.1792C30.656 22.0614 31.9113 22.3384 32.9939 22.971L48.9315 6.55431C47.6965 5.6256 46.4074 4.77044 45.0709 3.99331C44.7 3.86922 44.3001 3.85923 43.9234 3.96465C43.5467 4.07008 43.2106 4.286 42.9591 4.58429L39.6594 11.151C38.6403 10.7106 37.5931 10.3377 36.5247 10.0346C35.1388 9.6078 35.6667 9.37794 35.9637 7.80194L36.5576 4.81414L2.1747 39.7816H2.60368L9.76403 37.4504Z" fill="#C3BCB3"/>
</g>
<g style="mix-blend-mode:screen" opacity="0.6">
<path d="M45.4302 4.3531L45.0343 4.09048C44.6634 3.96639 44.2634 3.9564 43.8867 4.06182C43.51 4.16724 43.174 4.38316 42.9225 4.68145L40.3817 9.5079L45.4302 4.3531Z" fill="white"/>
</g>
<g style="mix-blend-mode:screen" opacity="0.6">
<path d="M35.6977 8.45833C25.8866 18.5053 16.0755 28.5305 6.26434 38.5337L9.76202 37.4502C9.96 37.9756 10.3229 38.8949 10.7189 39.7814L23.6207 26.6481C24.1835 25.4818 24.9941 24.4512 25.9965 23.6274C26.466 23.2303 26.9878 22.8989 27.5474 22.6424L38.9643 11.0194C38.1268 10.6592 37.2671 10.3521 36.3906 10.1C35.1697 9.67316 35.4007 9.44333 35.6977 8.45833Z" fill="white"/>
</g>
<g style="mix-blend-mode:screen" opacity="0.7">
<path d="M38.0091 29.8323L48.6012 19.0629C48.561 19.0399 48.5155 19.0277 48.4692 19.0277C48.4228 19.0277 48.3773 19.0399 48.3372 19.0629L49.2281 18.4719L54.8706 12.759C54.2437 11.9381 53.6167 11.1501 52.9238 10.395L36.8872 26.8116C37.1527 27.2253 37.3738 27.6654 37.5471 28.1249C37.762 28.676 37.9168 29.2484 38.0091 29.8323Z" fill="#C3BCB3"/>
</g>
<g style="mix-blend-mode:screen" opacity="0.7">
<path d="M29.2951 38.6318C28.276 38.3882 27.3129 37.9536 26.4574 37.3513L10.6188 53.5382C11.3447 54.162 12.1366 54.7859 12.9285 55.344L29.2951 38.6318Z" fill="#C3BCB3"/>
</g>
<g style="mix-blend-mode:screen" opacity="0.7">
<path d="M59.5873 22.412L59.3893 21.5911C59.3893 21.3285 58.9274 21.3285 58.5974 21.3941L24.2805 56.3945C24.2805 57.2482 23.9835 58.0691 23.8185 58.9227L59.5873 22.412Z" fill="#C3BCB3"/>
</g>
<g style="mix-blend-mode:screen" opacity="0.7">
<path d="M39.3297 56.0008L38.1418 52.1265L29.9256 60.5318C31.7627 60.5049 33.5946 60.3293 35.4031 60.0065L39.3297 56.0008Z" fill="#C3BCB3"/>
</g>
<g style="mix-blend-mode:screen" opacity="0.7">
<path d="M58.2696 36.7271L60.3154 34.6586C60.5498 32.8848 60.6381 31.0949 60.5794 29.3068L53.98 35.8734L58.1046 36.6943L58.2696 36.7271Z" fill="#C3BCB3"/>
</g>
<g style="mix-blend-mode:screen" opacity="0.7">
<path d="M53.2166 41.8493L52.1277 41.2583L49.9499 40.0763L41.2716 48.9413C41.9316 49.9591 42.5915 50.9769 43.2845 51.9619L53.2166 41.8493Z" fill="#C3BCB3"/>
</g>
<g style="mix-blend-mode:screen" opacity="0.7">
<path d="M48.8638 54.1289C51.0508 52.4073 53.0031 50.4095 54.6714 48.186L48.8638 54.1289Z" fill="#C3BCB3"/>
</g>
</g>
<g style="mix-blend-mode:multiply" opacity="0.8">
<path d="M31.0059 21.2636C29.7561 21.1302 28.4921 21.2475 27.2886 21.6085C26.0851 21.9694 24.9666 22.5669 23.9991 23.3654C23.0316 24.1639 22.2348 25.1472 21.6558 26.2574C21.0768 27.3675 20.7274 28.5819 20.6281 29.8288C20.5288 31.0756 20.6818 32.3296 21.0779 33.5166C21.474 34.7036 22.1052 35.7996 22.9342 36.7397C23.7633 37.6798 24.7733 38.445 25.9047 38.9901C27.036 39.5351 28.2657 39.849 29.521 39.9131H29.95C32.2403 39.9008 34.4637 39.1433 36.2809 37.756C38.098 36.3688 39.4091 34.4281 40.0141 32.23C40.2763 30.9026 40.2409 29.534 39.9104 28.2218C39.5799 26.9096 38.9624 25.6861 38.102 24.6387C37.2416 23.5913 36.1595 22.7457 34.9329 22.1623C33.7063 21.5789 32.3654 21.272 31.0059 21.2636ZM31.0059 38.9281C29.2592 38.8165 27.5867 38.184 26.2066 37.113C24.8264 36.0419 23.8025 34.582 23.2683 32.9234C22.734 31.2649 22.7143 29.4848 23.2116 27.8149C23.7089 26.1451 24.7002 24.6631 26.0563 23.562C30.5109 19.8518 35.9555 23.8903 37.6053 28.0601C38.0397 29.2088 38.2052 30.441 38.0894 31.6629C37.9736 32.8848 37.5794 34.0643 36.9369 35.112C36.2943 36.1596 35.4203 37.0478 34.3812 37.709C33.3421 38.3702 32.1652 38.7872 30.9399 38.9281H31.0059Z" fill="#665D4A"/>
</g>
<path d="M59.3819 21.5929C59.3819 21.1989 58.359 21.4287 58.161 21.5929L50.9346 23.8256C50.4397 22.5123 48.9878 18.7036 48.3279 19.1304L50.6706 17.5544L55.4552 14.2711C55.4552 14.2711 55.7852 14.0084 55.6862 13.9099C52.9523 9.84604 49.3028 6.47324 45.0282 4.05992C44.6573 3.93583 44.2573 3.92584 43.8806 4.03126C43.5039 4.13669 43.1679 4.35265 42.9164 4.65094L39.6167 11.2176C38.5976 10.7773 37.5504 10.4043 36.4819 10.1012C35.096 9.67441 35.624 9.4446 35.921 7.8686C36.3499 5.76726 36.7459 3.63312 37.1749 1.53179C37.1848 1.49929 37.1873 1.46498 37.1824 1.43139C37.1774 1.39779 37.165 1.36571 37.1461 1.33745C37.1271 1.3092 37.1021 1.28546 37.0728 1.26796C37.0436 1.25047 37.0108 1.23964 36.9769 1.23625C31.8994 0.340783 26.6829 0.621662 21.7322 2.05708C21.5012 2.05708 20.6103 2.38542 20.7423 2.77942C21.5343 5.47175 22.3592 8.13124 23.1841 10.8236C21.9681 11.2835 20.7881 11.8322 19.6534 12.4652C18.1686 10.2654 16.7167 8.06558 15.2648 5.89858C14.9018 5.37324 13.6809 5.8986 13.285 6.12843C9.18484 8.98135 5.79805 12.7332 3.38585 17.0948C3.36168 17.1282 3.3487 17.1684 3.3487 17.2097C3.3487 17.2509 3.36168 17.2911 3.38585 17.3246L8.46743 20.0169L10.7772 21.2646C10.7772 21.2646 9.78731 24.2524 9.29236 25.8941L2.49497 24.5479C2.06601 24.5479 0.581138 24.5479 0.482147 25.2046C-0.357416 30.0377 -0.0981012 34.9966 1.24107 39.7169C1.24107 40.0781 2.23096 39.8811 2.46194 39.7169L9.65532 37.4514C10.1503 38.7976 11.6351 42.5734 12.2621 42.1466L9.91931 43.7554L5.16772 47.0387C5.16772 47.0387 4.83775 47.3014 4.90374 47.4328C7.64798 51.4997 11.3089 54.8726 15.5948 57.2828C15.9662 57.4024 16.3647 57.4101 16.7405 57.3049C17.1162 57.1998 17.4524 56.9864 17.7066 56.6917L21.0063 50.1251C22.0122 50.5703 23.0487 50.9434 24.108 51.2414C25.4939 51.6683 24.966 51.8981 24.669 53.4741C24.273 55.6083 23.844 57.7096 23.4481 59.8438C23.4481 59.8438 23.4481 60.0736 23.646 60.1064C28.7235 61.0019 33.94 60.721 38.8907 59.2856C39.0887 59.2856 39.9796 58.9573 39.8806 58.5633L37.4058 50.5191C38.6381 50.0728 39.8302 49.5236 40.9695 48.8774C42.4214 51.0773 43.8732 53.2771 45.3581 55.4441C45.6881 55.9694 46.909 55.4441 47.3049 55.2143C51.4051 52.3613 54.7918 48.6094 57.204 44.2479C57.204 44.2479 57.204 44.0838 57.204 44.0509L52.1225 41.3258L49.8127 40.0781C49.8127 40.0781 50.8026 37.1231 51.3306 35.4486L58.128 36.7948C58.689 36.7948 59.9758 36.5978 60.0418 36.1381C60.9186 31.3017 60.6931 26.331 59.3819 21.5929ZM58.062 35.4486L51.4626 34.1353C51.1025 34.0714 50.7338 34.0714 50.3737 34.1353C49.9865 36.5157 49.1705 38.807 47.9649 40.8989L53.7394 43.9524L54.9273 44.6091C55.3563 44.8061 52.6835 48.3849 52.6175 48.4834C51.0917 50.5433 49.281 52.3782 47.239 53.9338L42.9493 47.3671C42.9493 47.1701 42.5864 47.1373 42.2894 47.1701C40.2225 48.6929 37.8815 49.8074 35.393 50.4534C35.393 50.4534 35.393 50.4534 35.393 50.6176C36.185 53.2771 37.0099 55.9366 37.8018 58.5961C34.7064 59.3529 31.5103 59.6189 28.3316 59.3841C25.2629 59.1543 25.8569 59.3841 26.3188 57.0201L27.5067 50.8803C25.0571 50.5158 22.6966 49.7031 20.5444 48.4834C20.3764 48.5171 20.217 48.5839 20.0753 48.6797C19.9337 48.7756 19.8127 48.8986 19.7194 49.0416C18.6305 51.1429 17.5416 53.2443 16.4197 55.3456C14.4924 54.1489 12.6906 52.763 11.0412 51.2086C10.1857 50.3591 9.38143 49.4601 8.63242 48.5163C7.04857 46.6119 6.58658 47.3343 7.93946 46.4149L13.8459 42.3764C12.5436 40.4797 11.5627 38.3834 10.9422 36.1709H10.6782L3.48484 38.4036C2.3659 34.2192 2.09671 29.8549 2.69294 25.5658L9.29236 26.9119C9.67514 26.9696 10.0644 26.9696 10.4472 26.9119C10.8839 24.6019 11.7095 22.3818 12.889 20.3453L6.98257 17.0619L5.82765 16.4381C5.39869 16.2083 8.03847 12.6294 8.10446 12.5309C9.63338 10.4724 11.4565 8.64726 13.516 7.11344L17.7726 13.6801C18.0036 14.0084 18.5315 13.9428 18.9935 13.6801C20.7089 12.4938 22.6021 11.5851 24.603 10.9878C24.801 10.9878 24.603 10.5938 24.603 10.2983C23.8111 7.63878 22.9861 5.01212 22.1612 2.35262C25.4944 1.61306 28.921 1.38057 32.3243 1.6631C35.393 1.8601 34.7991 1.66312 34.3371 3.99429C33.8752 6.32545 33.5452 8.22976 33.1162 10.3311C35.4882 10.662 37.7801 11.4185 39.8806 12.5637C40.0933 12.5348 40.2973 12.4613 40.4793 12.3481C40.6614 12.2349 40.8172 12.0846 40.9365 11.9071L44.2362 5.60309C46.1758 6.79474 47.9793 8.19293 49.6148 9.77294C50.4879 10.6154 51.3036 11.5148 52.0565 12.4652C53.6074 14.3367 54.1024 13.6472 52.7495 14.5666L46.711 18.6379C48.0501 20.5149 49.065 22.6011 49.7137 24.8106H50.0107L57.1711 22.5451C58.3651 26.7381 58.6685 31.1325 58.062 35.4486Z" fill="#594E3E"/>
<path style="mix-blend-mode:screen" d="M12.2322 27.1425C12.394 24.3199 13.2757 21.5848 14.794 19.1951C16.3123 16.8054 18.4172 14.84 20.9104 13.4839C26.3549 10.5289 29.6546 14.2063 25.629 17.9492C22.2373 21.0491 19.9258 25.1431 19.0296 29.6379C17.5777 34.6614 12.6282 34.1689 12.2322 27.1425Z" fill="url(#paint1_radial_33_622)"/>
<path style="mix-blend-mode:screen" d="M15.3675 43.6245C17.4793 46.3825 21.6369 50.1912 31.2721 49.9614C35.0877 49.7214 38.7558 48.4051 41.847 46.1665C44.9383 43.9279 47.3249 40.8596 48.7275 37.3205C50.3019 32.6992 50.232 27.6798 48.5295 23.1037C46.9786 19.1308 45.9557 21.2978 46.4837 24.7782C46.9278 28.2531 46.4167 31.7829 45.0047 34.9918C43.5928 38.2006 41.3328 40.9684 38.4654 43.0007C35.5996 44.7015 32.3645 45.6908 29.0333 45.8851C25.7022 46.0794 22.373 45.4729 19.3271 44.117C17.3803 43.0006 13.1897 40.8337 15.3675 43.6245Z" fill="url(#paint2_radial_33_622)"/>
<g style="mix-blend-mode:screen">
<path d="M21.1427 33.3462C20.5308 31.3413 20.6333 29.1878 21.4329 27.2495C22.2325 25.3112 23.6802 23.707 25.5313 22.7082C32.1307 18.4399 38.7302 25.0722 38.7302 25.0722C38.7302 25.0722 33.1206 16.8968 25.0034 21.7889C22.9921 22.8542 21.4695 24.6481 20.7509 26.7995C20.0322 28.9509 20.1725 31.2949 21.1427 33.3462Z" fill="white"/>
</g>
<path d="M5.82761 16.5682C7.40427 12.7701 10.0805 9.52426 13.5159 7.24353L17.7725 13.8102L13.219 8.45835C9.99527 10.365 7.42051 13.19 5.82761 16.5682Z" fill="white"/>
<path d="M24.9325 10.8572L22.2597 2.41904C26.3222 1.18154 30.628 0.956053 34.7986 1.76238C31.0258 1.64171 27.2536 2.01705 23.5796 2.8787L24.9325 10.8572Z" fill="white"/>
<path d="M3.41877 38.5672C1.7149 34.4884 1.25582 30.0005 2.09885 25.6637L10.1832 27.2726L2.95681 26.3532C2.11388 30.4017 2.27241 34.5933 3.41877 38.5672Z" fill="white"/>
<path d="M41.0396 11.9729L44.3393 5.66887C48.0259 7.63164 51.1748 10.4607 53.5125 13.91C50.8814 11.0599 47.9246 8.5255 44.7023 6.35834L41.0396 11.9729Z" fill="white"/>
<defs>
<radialGradient id="paint0_radial_33_622" cx="0" cy="0" r="1" gradientUnits="userSpaceOnUse" gradientTransform="translate(8945.62 11152) scale(685.121 684.241)">
<stop stop-color="#F0EEE8"/>
<stop offset="0.45" stop-color="#B7A892"/>
<stop offset="1" stop-color="#6C614F"/>
</radialGradient>
<radialGradient id="paint1_radial_33_622" cx="0" cy="0" r="1" gradientUnits="userSpaceOnUse" gradientTransform="translate(2230.35 3671.35) rotate(-0.564452) scale(60.8826 83.3015)">
<stop stop-color="#F0EEE8"/>
<stop offset="0.4" stop-color="#B7A892"/>
<stop offset="1"/>
</radialGradient>
<radialGradient id="paint2_radial_33_622" cx="0" cy="0" r="1" gradientUnits="userSpaceOnUse" gradientTransform="translate(5356.66 5369.73) rotate(-0.564453) scale(244.293 203.828)">
<stop stop-color="#F0EEE8"/>
<stop offset="0.4" stop-color="#B7A892"/>
<stop offset="1"/>
</radialGradient>
</defs>
</svg>
