<svg width="50" height="61" viewBox="0 0 50 61" fill="none" xmlns="http://www.w3.org/2000/svg">
<g style="mix-blend-mode:multiply" opacity="0.6">
<path d="M47.8609 33.7663C46.3975 30.6026 44.4073 27.7411 41.9849 25.3176C40.1927 23.6154 36.2851 20.3041 36.7258 19.8399C37.9598 18.602 39.135 17.2712 40.2515 15.9405C42.1461 13.8725 43.7758 11.5524 45.0991 9.03919C45.5986 8.60592 40.604 5.23264 40.2221 4.4899C39.6759 3.65749 38.9641 2.96046 38.1361 2.44736C36.0207 0.745245 33.5234 1.51896 32.2601 0.590536C31.5087 0.177211 30.6689 -0.0253017 29.8216 0.0025257C28.4701 0.404843 29.3515 1.27137 27.765 0.96189C26.4703 0.5604 25.0933 0.5604 23.7987 0.96189C23.2608 1.17541 22.74 1.43414 22.2415 1.73558C21.3865 2.10464 20.4549 2.23262 19.5386 2.10693C18.0718 1.8719 16.5731 1.99906 15.1609 2.47833C14.5347 2.93383 13.7717 3.13196 13.0162 3.03537L10.6952 2.63308C9.21709 2.36991 7.70752 2.36991 6.22942 2.63308C5.38096 2.80696 4.59073 3.21245 3.93779 3.80905C3.08577 4.52085 3.76152 5.63498 4.20222 6.34677C4.64292 7.05856 5.40678 8.29646 6.02376 9.44152C6.64074 10.5866 6.9933 10.896 7.49276 11.6388C7.99222 12.3815 8.55045 13.1552 9.10867 13.898C10.7843 16.5413 12.9658 18.7866 15.5135 20.4897L15.2197 20.7683C12.7518 22.914 10.4886 25.3083 8.46231 27.9172C5.83973 30.547 3.47723 33.4502 1.41111 36.5824C0.611584 38.0794 0.141101 39.7463 0.034322 41.4602C-0.0724573 43.1741 0.18719 44.8915 0.794128 46.4857C2.81831 49.8157 5.49241 52.6535 8.63858 54.8105C15.0645 58.7888 22.3683 60.923 29.8216 61C32.9047 60.9823 35.9526 60.3086 38.7825 59.0194C40.3793 58.2609 41.8958 57.3273 43.307 56.2341C46.8299 53.2353 49.1743 48.969 49.8881 44.2574C50.2949 40.622 49.5844 36.9449 47.8609 33.7663Z" fill="#8A7D63"/>
</g>
<path d="M28.9952 17.9615C30.847 16.3225 32.6046 14.5289 34.2994 12.7044C36.3462 10.6235 38.1179 8.29604 39.5723 5.77734C40.1058 5.3444 40.5138 4.88054 40.0744 4.13836C39.5769 3.21859 38.7815 2.4892 37.8146 2.06639C36.378 1.78742 34.992 1.29748 33.7031 0.61294C33.1975 0.217666 32.5569 0.0294079 31.9141 0.0872317C31.832 0.0648355 31.7452 0.0648355 31.663 0.0872317C30.0237 0.50271 28.3333 0.690098 26.6413 0.643894C25.2263 0.241829 23.7249 0.241829 22.31 0.643894C21.7278 0.863088 21.1615 1.1214 20.6152 1.417C19.695 1.80155 18.6854 1.9299 17.6963 1.78808C16.0877 1.55283 14.4459 1.67968 12.8942 2.15916C12.2128 2.61476 11.3916 2.8225 10.5717 2.74673L8.06079 2.31379C6.44904 2.06463 4.80773 2.06463 3.19598 2.31379C2.28041 2.51569 1.42241 2.91726 0.685099 3.48893C-0.225093 4.20019 0.685094 5.34439 0.998953 6.05565L2.97628 9.14808C3.47846 9.89027 4.012 10.6325 4.57695 11.3746L6.33458 13.6321C8.16909 16.2963 10.5409 18.5595 13.3022 20.2808L12.9884 20.5592C18.324 22.1672 23.7537 20.1571 28.9952 17.9615Z" fill="url(#paint0_linear_104_232)"/>
<path style="mix-blend-mode:multiply" opacity="0.8" d="M39.1033 4.3862C38.0361 3.70587 36.6238 2.43799 35.2428 2.56168C34.5837 3.67496 33.956 4.81917 33.4224 5.96337C33.129 6.69796 32.6796 7.3622 32.1042 7.91156C30.9743 8.68467 32.5436 4.47901 32.1042 3.79868C31.759 3.79868 29.6561 2.90184 29.3422 2.74722C29.5829 4.37716 29.3432 6.0409 28.6518 7.54049C28.1182 9.05578 27.5846 10.6329 27.0825 12.1173C25.4504 17.127 25.1679 16.1375 25.1679 15.0551C25.1679 11.6844 26.2037 5.59226 26.1723 3.58219C25.6073 3.58219 22.3746 3.73681 21.8096 3.58219C20.7977 3.41016 19.7612 3.43634 18.7596 3.6592C17.7579 3.88206 16.8106 4.29723 15.9719 4.881C18.1689 6.58183 17.8236 6.36537 18.3572 8.99393C18.7652 10.8803 20.052 15.8591 20.6484 17.7146C20.9622 18.6423 21.0878 19.5082 21.4644 20.4359C24.0947 19.7967 26.6586 18.9168 29.1226 17.8074C30.9743 16.1684 32.732 14.3747 34.4268 12.5502C36.4736 10.4693 38.2452 8.14188 39.6996 5.6232C39.9982 5.41511 40.2275 5.12457 40.3587 4.78823C39.9265 4.70017 39.5055 4.56533 39.1033 4.3862Z" fill="url(#paint1_linear_104_232)"/>
<path style="mix-blend-mode:multiply" opacity="0.7" d="M34.7675 3.48769L34.2967 3.73509C33.9682 6.73291 32.7572 9.57067 30.8129 11.8991C30.7684 11.9324 30.7157 11.9534 30.6602 11.9599C30.6047 11.9664 30.5485 11.9582 30.4973 11.9361C30.4461 11.914 30.4018 11.8789 30.369 11.8344C30.3362 11.7898 30.3161 11.7374 30.3107 11.6826C30.3051 10.6404 30.4317 9.60153 30.6873 8.59018C30.8427 7.10976 30.8427 5.61754 30.6873 4.13712C30.1581 3.85724 29.6806 3.49129 29.275 3.05475C28.9508 5.29113 28.4683 7.50245 27.8312 9.67255C27.5487 10.6003 26.105 17.4346 24.6926 17.28C24.0335 17.28 23.7197 16.2285 23.5313 15.7337C22.9664 14.0638 22.3386 8.34282 21.7737 6.64198C21.2087 4.94114 21.6168 4.04431 19.6708 4.19893C18.3926 4.23927 17.1389 4.556 15.9987 5.12667C17.003 5.99255 17.9133 7.41509 16.2184 7.84803C16.4067 8.74483 16.5323 9.64164 16.7206 10.5075C17.1636 11.8295 17.4377 13.2007 17.5366 14.5895C17.5312 14.6443 17.5111 14.6967 17.4783 14.7413C17.4455 14.7858 17.4012 14.8209 17.35 14.843C17.2989 14.8651 17.2426 14.8733 17.1871 14.8668C17.1316 14.8603 17.0789 14.8393 17.0344 14.806C15.4649 12.8732 14.0781 10.803 12.8915 8.62113C12.2964 7.77858 11.577 7.02814 10.7573 6.39458L11.6361 8.93035C12.1117 10.0224 12.5001 11.1494 12.7974 12.3011C13.0798 14.1257 11.4163 13.3835 10.6003 12.8578C8.09576 11.2235 5.70509 9.42588 3.44433 7.4769C2.3225 6.60164 1.27301 5.63998 0.30574 4.60096C0.458869 5.08866 0.69213 5.54832 0.996234 5.96164L2.97356 9.05407C3.47574 9.79626 4.00928 10.5384 4.57423 11.2806L6.33185 13.5381C8.16636 16.2023 10.5382 18.4655 13.2995 20.1868L12.9857 20.4652C18.4468 22.3825 23.8766 20.4651 29.118 18.1767C30.9698 16.5377 32.7274 14.7441 34.4223 12.9196C36.4691 10.8387 38.2407 8.51124 39.6951 5.99255C39.8463 5.87444 39.9832 5.73953 40.1031 5.59052C38.1258 4.69371 36.9017 2.55996 34.7675 3.48769Z" fill="url(#paint2_linear_104_232)"/>
<path style="mix-blend-mode:multiply" opacity="0.8" d="M19.988 12.7034C19.078 9.96264 18.3648 7.16227 17.8537 4.32294C17.2211 4.47617 16.6099 4.70463 16.0333 5.00327C16.4092 5.25424 16.7473 5.55613 17.0377 5.90006C17.6322 6.61683 17.964 7.51029 17.9793 8.43587C18.3873 12.0231 19.9565 15.2392 20.5529 18.7646C20.5717 18.8241 20.5698 18.8882 20.5472 18.9465C20.5247 19.0048 20.4829 19.054 20.4286 19.0861C20.3743 19.1182 20.3106 19.1314 20.2478 19.1235C20.1849 19.1157 20.1266 19.0873 20.0821 19.0429C16.7873 15.3932 13.8452 11.4488 11.294 7.26073C12.1728 9.3945 12.8006 11.5901 13.7735 13.693C13.9932 14.1878 15.5626 16.7854 14.3699 17.1256C13.1772 17.4657 12.0159 16.3215 11.2313 15.8268C9.6306 14.8372 8.09266 13.7548 6.61752 12.7343C5.47073 11.8077 4.41945 10.7718 3.47893 9.64191C3.79279 10.1058 4.16942 10.5696 4.51467 11.0644L6.27228 13.3219C8.10679 15.986 10.4787 18.2493 13.24 19.9706L12.9261 20.2489C16.1673 21.3013 19.6656 21.3013 22.9068 20.2489C21.6826 17.8352 20.7048 15.3076 19.988 12.7034Z" fill="url(#paint3_linear_104_232)"/>
<path style="mix-blend-mode:multiply" opacity="0.8" d="M33.11 11.4353C34.5635 8.96509 35.322 6.15757 35.307 3.30226H34.899C34.6645 4.87543 34.1993 6.40671 33.518 7.84812C32.2348 10.2258 30.6299 12.4209 28.7473 14.3731C29.8577 11.1836 30.3372 7.81386 30.1597 4.44644C29.8046 6.73907 29.2049 8.98837 28.3707 11.157C27.5895 14.0798 26.3956 16.88 24.8241 19.4756C26.2364 18.9808 27.6174 18.4242 28.9984 17.8366C30.8502 16.1976 32.6078 14.404 34.3026 12.5795C36.3495 10.4986 38.1211 8.17116 39.5755 5.65248C39.7267 5.53437 39.8636 5.39946 39.9835 5.25045L39.5127 5.03401C37.6824 7.44351 35.5285 9.59693 33.11 11.4353Z" fill="url(#paint4_linear_104_232)"/>
<path d="M43.0359 30.5522C41.5263 27.3231 39.4408 24.4327 36.8939 22.0401C35.025 20.1521 32.7738 18.739 30.3111 17.9083C25.4034 20.145 20.3194 22.1333 15.206 20.2072C12.6927 22.3618 10.389 24.7763 8.32932 27.4146C5.95209 30.1905 3.85431 33.2202 2.06981 36.4548C0.399755 39.2206 -0.287571 42.5233 0.130229 45.7747C0.850062 48.4456 2.48421 50.7379 4.71466 52.2054C10.6366 56.2156 17.5832 58.2006 24.6099 57.8905C27.7527 57.8618 30.8589 57.1755 33.7494 55.8712C35.3754 55.1184 36.9137 54.1698 38.3339 53.0442C41.9251 50.0449 44.3255 45.7343 45.0636 40.9594C45.4616 37.3502 44.7507 33.7014 43.0359 30.5522Z" fill="url(#paint5_radial_104_232)"/>
<path style="mix-blend-mode:multiply" opacity="0.8" d="M43.0359 30.5522C41.5263 27.3231 39.4408 24.4327 36.8939 22.0401C35.025 20.1521 32.7738 18.739 30.3111 17.9083C25.4034 20.145 20.3194 22.1333 15.206 20.2072C12.6927 22.3618 10.389 24.7763 8.32932 27.4146C5.95209 30.1905 3.85431 33.2202 2.06981 36.4548C0.399755 39.2206 -0.287571 42.5233 0.130229 45.7747C0.850062 48.4456 2.48421 50.7379 4.71466 52.2054C10.6366 56.2156 17.5832 58.2006 24.6099 57.8905C27.7527 57.8618 30.8589 57.1755 33.7494 55.8712C35.3754 55.1184 36.9137 54.1698 38.3339 53.0442C41.9251 50.0449 44.3255 45.7343 45.0636 40.9594C45.4616 37.3502 44.7507 33.7014 43.0359 30.5522ZM25.6385 47.1416C25.1783 48.2735 24.4101 49.2353 23.4316 49.9046C22.4531 50.574 21.3084 50.9207 20.1431 50.9006C17.2632 50.9917 14.4008 50.3971 11.7676 49.1609C9.34202 48.3038 7.1933 46.7428 5.5669 44.6563C4.91402 43.5985 4.48197 42.4058 4.29954 41.1577C4.11711 39.9095 4.1885 38.6346 4.50895 37.4179C5.63935 34.3713 7.26 31.5545 9.29911 29.0921C9.85747 28.3155 14.2068 23.9973 13.237 26.4204C11.7383 30.0862 11.6207 31.1114 9.88685 31.4531C9.57721 31.5253 9.29029 31.6803 9.05358 31.9034C8.81688 32.1264 8.63832 32.41 8.53503 32.7269C8.03545 33.9074 7.21259 36.4859 7.97667 37.6975C9.2991 39.7789 12.3554 35.6471 12.9725 34.5909C13.9805 32.68 14.8832 30.7092 15.6762 28.6882C17.0868 25.5816 18.1447 27.8805 17.1455 32.1366C16.7877 33.6804 16.6491 35.2718 16.7341 36.8587C16.7341 38.3809 17.0574 40.5556 18.997 39.9653C20.9365 39.375 22.3471 36.3616 22.8761 34.3423C23.7577 30.9561 24.081 26.7 24.3161 25.6438C24.3161 25.4884 24.6981 24.0594 24.7569 26.7C24.8277 29.2812 24.7492 31.8645 24.5218 34.4355C24.375 35.0366 24.375 35.6673 24.5218 36.2684C24.7863 36.8276 24.992 36.6723 25.4916 36.9208C28.0483 38.2877 26.6083 44.9669 25.6385 47.1416Z" fill="url(#paint6_radial_104_232)"/>
<path style="mix-blend-mode:multiply" opacity="0.7" d="M43.0359 30.5522C41.5263 27.3231 39.4408 24.4327 36.8939 22.0401C35.025 20.1521 32.7738 18.739 30.3111 17.9083C25.4034 20.145 20.3194 22.1333 15.206 20.2072C12.6927 22.3618 10.389 24.7763 8.32932 27.4146C5.95209 30.1905 3.85431 33.2202 2.06981 36.4548C0.399755 39.2206 -0.287571 42.5233 0.130229 45.7747C0.850062 48.4456 2.48421 50.7379 4.71466 52.2054C10.6366 56.2156 17.5832 58.2006 24.6099 57.8905C27.7527 57.8618 30.8589 57.1755 33.7494 55.8712C35.3754 55.1184 36.9137 54.1698 38.3339 53.0442C41.9251 50.0449 44.3255 45.7343 45.0636 40.9594C45.4616 37.3502 44.7507 33.7014 43.0359 30.5522ZM39.8326 41.4565C38.7324 44.2608 36.9315 46.6962 34.6229 48.502C32.3142 50.3078 29.5845 51.4161 26.7258 51.7083C20.4095 52.4947 14.0137 51.3067 8.32932 48.2911C7.06864 47.5026 5.97762 46.4444 5.1261 45.1844C4.25202 43.7722 3.73592 42.1461 3.62734 40.4624C3.60609 37.4535 4.51406 34.5194 6.21343 32.1055C7.17621 30.5669 8.27855 29.131 9.50482 27.8184C10.5922 26.6689 12.1203 24.7118 13.7072 24.4943C13.7465 24.4849 13.7873 24.485 13.8266 24.4947C13.8658 24.5045 13.9024 24.5235 13.9335 24.5505C13.9647 24.5775 13.9897 24.6116 14.0065 24.6503C14.0233 24.6891 14.0315 24.7313 14.0305 24.7739C13.9144 26.1398 13.5236 27.4638 12.8844 28.6572C12.4142 29.6824 11.7089 31.7638 10.7391 32.4473C9.76931 33.1307 9.35788 30.8008 9.03462 32.4473C9.03462 33.1929 8.41748 35.5539 9.03462 36.0199C11.3856 37.977 14.295 31.1735 14.9121 29.8066C15.3417 28.4244 15.8824 27.0837 16.5284 25.7991C16.599 25.6256 16.7061 25.4714 16.8415 25.3482C16.977 25.225 17.1372 25.1361 17.31 25.0882C17.4828 25.0402 17.6637 25.0346 17.8389 25.0717C18.0141 25.1087 18.179 25.1875 18.321 25.302C18.9088 25.8612 18.7619 26.8554 18.6737 27.601C18.2917 30.0552 17.1162 35.0258 19.5847 36.6412C20.8778 37.5111 22.0827 34.9947 22.3471 34.1248C22.9643 32.1055 23.0524 29.3717 23.4638 27.2903C23.608 26.0435 23.9043 24.8218 24.3455 23.6555C24.3635 23.6007 24.3973 23.5532 24.442 23.5195C24.4868 23.4859 24.5404 23.4678 24.5953 23.4678C24.6502 23.4678 24.7037 23.4859 24.7485 23.5195C24.7933 23.5532 24.827 23.6007 24.845 23.6555C25.5503 26.7622 24.6981 30.2416 25.903 33.255C26.3438 34.4044 26.7846 33.4103 26.9904 32.6647C27.2038 31.7654 27.3609 30.8521 27.4605 29.9309C27.6105 27.7801 27.8953 25.6423 28.3128 23.5313C28.3128 23.2206 29.4001 25.5816 29.4001 25.9234C29.0337 28.6409 28.4937 31.3291 27.7838 33.9695C27.6261 34.9309 27.7598 35.9203 28.1658 36.7965C28.8124 37.946 30.6931 38.5362 31.3691 37.1383C32.045 35.7403 31.6042 33.2861 31.8099 31.4842C31.9817 30.1253 32.0505 28.754 32.0156 27.3835C32.0156 26.0166 31.6041 24.7118 31.6335 23.3449C31.6563 23.3087 31.6868 23.2786 31.7225 23.257C31.7582 23.2354 31.7982 23.223 31.8393 23.2206C34.3078 24.6807 33.8376 28.5329 33.867 31.0804C33.8047 31.96 33.8943 32.8442 34.1315 33.6899C34.9837 35.9577 35.8947 33.8763 36.747 33.4725C37.1451 33.261 37.6034 33.2139 38.0326 33.3403C38.4618 33.4666 38.8312 33.7574 39.0686 34.1559C39.7487 35.215 40.1738 36.4337 40.3069 37.7061C40.4401 38.9784 40.2773 40.2658 39.8326 41.4565Z" fill="url(#paint7_radial_104_232)"/>
<g style="mix-blend-mode:multiply">
<path d="M36.8745 22.0243C39.42 24.4015 41.5044 27.2733 43.0132 30.4816C44.7776 33.6806 45.4899 37.4015 45.0399 41.0686C44.3022 45.8128 41.903 50.0956 38.3137 53.0756C36.8943 54.194 35.3567 55.1365 33.7317 55.8844C30.8427 57.1803 27.738 57.8622 24.597 57.8907C17.574 58.1988 10.631 56.2266 4.71218 52.2422C2.48291 50.7842 0.84962 48.5066 0.130167 45.8529C-0.287414 42.6224 0.39955 39.3411 2.06873 36.5931C5.6787 30.4004 10.2106 24.8564 15.4917 20.1723C12.9076 18.4543 10.6879 16.1953 8.97113 13.5361L7.32631 11.2829C6.79761 10.5421 6.29828 9.8013 5.82833 9.06051L3.97788 5.9739C3.68416 5.26398 2.83238 4.12193 3.68417 3.41201C4.37417 2.84141 5.17711 2.44065 6.03393 2.23913C7.54226 1.99044 9.07825 1.99044 10.5866 2.23913L12.9364 2.67125C13.7037 2.74688 14.4721 2.53953 15.1099 2.08479C16.562 1.60622 18.0984 1.47955 19.6038 1.71436C20.5294 1.85591 21.4742 1.72781 22.3354 1.34399C22.8466 1.04894 23.3766 0.791114 23.9214 0.572333C25.2456 0.171025 26.6507 0.171025 27.9748 0.572333C29.5583 0.61845 31.1401 0.431462 32.6743 0.0167655C32.7511 -0.00558849 32.8324 -0.00558849 32.9092 0.0167655C33.5107 -0.0409494 34.1103 0.146954 34.5835 0.541484C35.7897 1.22473 37.0867 1.71376 38.4312 1.99219C39.336 2.41421 40.0804 3.14218 40.546 4.06022C40.9572 4.801 40.5753 5.26399 40.076 5.69612C38.715 8.21007 37.057 10.5332 35.1415 12.6101C33.5555 14.4312 31.9106 16.2215 30.1777 17.8574C32.6834 18.6908 34.9742 20.1162 36.8745 22.0243Z" fill="#AE8A65"/>
</g>
<path d="M35.683 20.1557C35.3289 19.4418 34.8308 18.8065 34.2191 18.2887C33.6074 17.7709 32.8949 17.3815 32.1253 17.1442C31.3557 16.9068 30.545 16.8266 29.7428 16.9084C28.9407 16.9902 28.1639 17.2322 27.4599 17.6198H27.2402C25.6853 18.4059 24.069 19.0678 22.4068 19.5991C21.0703 19.9249 19.7027 20.1115 18.3266 20.1557C17.3706 20.1884 16.4138 20.1263 15.4704 19.9701C14.7286 19.9263 13.9981 19.7698 13.3048 19.5062C12.497 19.1914 11.7284 18.7867 11.0136 18.3002H10.8253L10.3859 18.0219C7.52982 20.6504 13.1793 23.31 15.3449 23.8357C17.958 24.2813 20.6466 23.9474 23.0658 22.877C24.5757 22.3411 25.9024 21.3982 26.8949 20.1557C29.2489 22.6605 28.7153 27.7012 28.0248 30.639C27.6482 32.3708 26.5811 34.2881 27.8051 35.9271C28.4643 36.793 29.908 37.3187 30.6612 36.4219C30.6774 36.3506 30.6774 36.2767 30.6612 36.2054C30.6786 36.1343 30.6786 36.0601 30.6612 35.9889C31.7325 31.3166 31.8499 26.4811 31.0065 21.7637C30.7465 20.912 30.3885 20.0923 29.9394 19.3207C30.6135 19.5831 31.2233 19.9837 31.7284 20.4958C32.4184 21.3159 32.9598 22.2469 33.3291 23.2481C34.122 25.3182 34.4226 27.5398 34.2079 29.7422C34.2079 30.9483 34.0195 32.8347 35.5261 33.3604C36.2793 33.6078 36.8129 33.0511 37.0954 32.4326C37.143 32.4072 37.1844 32.3719 37.2169 32.3292C37.2494 32.2865 37.2722 32.2374 37.2837 32.1852C38.3513 28.1224 37.7774 23.81 35.683 20.1557Z" fill="url(#paint8_radial_104_232)"/>
<path style="mix-blend-mode:multiply" d="M38.5967 4.94069C38.7296 5.08786 38.8947 5.2033 39.0796 5.27831C39.2645 5.35331 39.4643 5.38592 39.6638 5.37362H39.8207C39.9774 5.19852 40.0638 4.9731 40.0638 4.73967C40.0638 4.50624 39.9774 4.28082 39.8207 4.10572C39.3232 3.18595 38.5278 2.45661 37.561 2.03379C36.1243 1.75483 34.7383 1.26488 33.4494 0.580346C32.9438 0.185073 32.3031 -0.00318486 31.6604 0.0546389C31.5782 0.0322428 31.4915 0.0322428 31.4093 0.0546389C29.7699 0.470117 28.0796 0.657458 26.3875 0.611254C24.9726 0.209189 23.4712 0.209189 22.0563 0.611254C21.4741 0.830447 20.9078 1.08876 20.3614 1.38436C19.4413 1.76891 18.4317 1.8973 17.4426 1.75549C15.834 1.52023 14.1922 1.64709 12.6405 2.12656C11.9591 2.58216 11.1379 2.78991 10.318 2.71413L7.80711 2.28119C6.19536 2.03203 4.55403 2.03203 2.94228 2.28119C2.02671 2.48309 1.16871 2.88466 0.431402 3.45633C0.226995 3.61907 0.0846654 3.8453 0.0276561 4.09807C-0.0293533 4.35084 0.00233338 4.61519 0.117548 4.84792C0.117548 5.15716 0.808047 5.62101 1.84378 6.08487C2.5483 6.36416 3.28692 6.55132 4.04079 6.64153C6.18139 6.99722 8.37418 6.90233 10.4749 6.36318C10.4409 6.47409 10.4409 6.59244 10.4749 6.70335C11.1984 7.505 12.2132 7.99381 13.2996 8.06402C14.4734 8.35189 15.7114 8.24302 16.8149 7.75481C18.1645 7.01263 17.3484 5.96119 16.4696 5.28085C18.4467 4.44189 20.636 4.21537 22.7468 4.63142C24.7059 4.91145 26.7016 4.48303 28.3649 3.42538C28.3649 3.42538 28.9926 3.42539 29.5261 3.82741C30.0163 4.25381 30.5946 4.57034 31.221 4.75515C32.0375 4.85273 32.8602 4.63065 33.5121 4.13667C33.8446 3.78941 34.2885 3.56588 34.7689 3.5039C35.2492 3.44191 35.7366 3.54529 36.1486 3.7965C36.6487 4.00652 37.1314 4.25464 37.5923 4.53865L38.5967 4.94069Z" fill="url(#paint9_linear_104_232)"/>
<g style="mix-blend-mode:multiply">
<path d="M35.683 20.1557C35.3289 19.4418 34.8308 18.8065 34.2191 18.2887C33.6074 17.7709 32.8949 17.3815 32.1253 17.1442C31.3557 16.9068 30.545 16.8266 29.7428 16.9084C28.9407 16.9902 28.1639 17.2322 27.4599 17.6198H27.2402C25.6853 18.4059 24.069 19.0678 22.4068 19.5991C21.0703 19.9249 19.7027 20.1115 18.3266 20.1557C17.3706 20.1884 16.4138 20.1263 15.4704 19.9701C14.7286 19.9263 13.9981 19.7698 13.3048 19.5062C12.497 19.1914 11.7284 18.7867 11.0136 18.3002H10.8253L10.3859 18.0219C7.52982 20.6504 13.1793 23.31 15.3449 23.8357C17.958 24.2813 20.6466 23.9474 23.0658 22.877C24.5757 22.3411 25.9024 21.3982 26.8949 20.1557C29.2489 22.6605 28.7153 27.7012 28.0248 30.639C27.6482 32.3708 26.5811 34.2881 27.8051 35.9271C28.4643 36.793 29.908 37.3187 30.6612 36.4219C30.6774 36.3506 30.6774 36.2767 30.6612 36.2054C30.6786 36.1343 30.6786 36.0601 30.6612 35.9889C31.7325 31.3166 31.8499 26.4811 31.0065 21.7637C30.7465 20.912 30.3885 20.0923 29.9394 19.3207C30.6135 19.5831 31.2233 19.9837 31.7284 20.4958C32.4184 21.3159 32.9598 22.2469 33.3291 23.2481C34.122 25.3182 34.4226 27.5398 34.2079 29.7422C34.2079 30.9483 34.0195 32.8347 35.5261 33.3604C36.2793 33.6078 36.8129 33.0511 37.0954 32.4326C37.143 32.4072 37.1844 32.3719 37.2169 32.3292C37.2494 32.2865 37.2722 32.2374 37.2837 32.1852C38.3513 28.1224 37.7774 23.81 35.683 20.1557ZM17.8558 21.1143C18.5769 21.1587 19.3002 21.1587 20.0214 21.1143C20.1709 21.5091 20.4462 21.8454 20.806 22.073C21.2085 22.3758 21.7164 22.5093 22.2185 22.4441C21.3199 22.7505 20.3956 22.9781 19.4565 23.1244C18.4835 22.6915 17.385 22.3204 17.0711 21.238L17.8558 21.1143ZM14.2778 20.7123C14.2612 21.1064 14.3279 21.4997 14.4738 21.867C14.6197 22.2343 14.8415 22.5677 15.1252 22.8461C14.4788 22.6602 13.849 22.4223 13.2421 22.1348C12.9392 21.8735 12.6751 21.5717 12.4574 21.238C12.2861 20.8709 12.2209 20.4642 12.2691 20.0629C12.9154 20.315 13.5896 20.4914 14.2778 20.5886V20.7123ZM10.6684 18.7022C11.0421 19.1547 11.5003 19.5325 12.018 19.8155C11.8985 20.1264 11.8675 20.4636 11.9284 20.7906C11.9892 21.1176 12.1396 21.422 12.3632 21.671C11.7432 21.4525 11.2271 21.0158 10.9142 20.4449C10.6013 19.874 10.5137 19.2092 10.6684 18.5785V18.7022ZM16.1609 23.0316C15.793 22.8187 15.4553 22.5588 15.1566 22.2585C14.8174 21.8124 14.5914 21.2929 14.4975 20.7432C15.2593 20.922 16.0374 21.0256 16.8201 21.0525C16.8201 22.2276 17.8244 22.877 18.8915 23.0626C17.9783 23.1208 17.0613 23.0688 16.1609 22.9079V23.0316ZM22.2498 22.2895C22.2498 22.2895 22.2498 22.2894 22.2498 22.1348C22.2498 21.9802 21.4338 21.9183 21.0571 21.7328C20.7214 21.5266 20.4242 21.2651 20.1783 20.9597C20.9739 20.8645 21.7608 20.7094 22.5323 20.4958C22.7678 20.7748 23.0777 20.9833 23.427 21.0981C23.7764 21.2128 24.1513 21.2292 24.5096 21.1453C23.8096 21.59 23.0487 21.9336 22.2498 22.1657V22.2895ZM25.1373 20.6814C24.7557 20.812 24.3495 20.8576 23.9479 20.8148C23.5462 20.772 23.1592 20.6419 22.8147 20.434C24.0738 20.1117 25.2789 19.6117 26.3927 18.9496C26.0778 19.5569 25.6522 20.102 25.1373 20.5577V20.6814ZM36.7187 29.1237C36.5326 30.0244 36.0192 30.8271 35.275 31.3812C35.244 30.9798 35.244 30.5766 35.275 30.1752V29.7422C35.9399 29.2788 36.4526 28.6338 36.7501 27.8868C36.7637 27.8256 36.7637 27.7623 36.7501 27.7012C36.907 28.0414 36.9071 28.5362 36.7187 29V29.1237ZM35.3064 27.5466V26.8662C36.004 25.9679 36.4382 24.8983 36.5618 23.7738C36.7431 24.4721 36.8483 25.1874 36.8757 25.9076C36.8149 26.6476 36.5898 27.3655 36.2166 28.0104C35.9969 28.4434 35.6202 28.7526 35.3691 29.1547C35.3064 28.5362 35.3064 27.9795 35.3064 27.4229V27.5466ZM35.9027 22.2895C36.1381 23.0978 36.1381 23.9551 35.9027 24.7634C35.7132 25.2808 35.4714 25.7781 35.1808 26.2478C35.0813 25.4895 34.9025 24.7433 34.6473 24.0212C35.1242 23.0612 35.3405 21.9957 35.275 20.9288L35.6516 21.5473L35.9027 22.2895ZM27.0832 19.6609C27.2782 19.2524 27.3952 18.8122 27.4285 18.362C27.6767 18.3692 27.9215 18.4216 28.1504 18.5167C28.3761 18.9221 28.464 19.3881 28.4014 19.8464C28.4165 20.1452 28.4165 20.4445 28.4014 20.7432C28.292 20.4551 28.1159 20.196 27.887 19.9867C27.6582 19.7773 27.383 19.6234 27.0832 19.5372V19.6609ZM28.4642 21.1143C28.6415 20.7362 28.7333 20.3247 28.7333 19.9083C28.7333 19.4918 28.6415 19.0803 28.4642 18.7022C29.1082 19.3366 29.5734 20.1253 29.8138 20.9906C29.8004 21.49 29.694 21.9826 29.5 22.4441C29.2911 22.7784 29.1126 23.1303 28.9664 23.4955C28.9085 22.6428 28.7397 21.801 28.4642 20.9906V21.1143ZM30.7554 24.7325C30.7867 25.3093 30.7867 25.8874 30.7554 26.4642C30.5831 27.6544 29.9948 28.748 29.0919 29.5566C29.2388 28.5949 29.2914 27.6215 29.2489 26.6498C29.8528 26.0632 30.3235 25.3569 30.6299 24.5778L30.7554 24.7325ZM29.9707 25.1654L29.3117 26.2787C29.3117 25.9694 29.3117 25.6602 29.3117 25.3509C29.3117 25.0417 29.3117 24.4851 29.3117 23.9284C29.8973 23.3532 30.2726 22.6027 30.3788 21.7947C30.5462 22.3852 30.6824 22.9838 30.7868 23.5883C30.5747 24.1031 30.3007 24.5911 29.9707 25.0417V25.1654ZM29.0606 30.3607C29.0477 30.227 29.0477 30.0924 29.0606 29.9587C29.8256 29.4587 30.4257 28.7493 30.7868 27.9177C30.7868 28.5671 30.7868 29.2165 30.7868 29.835C30.615 30.4635 30.2669 31.0315 29.7824 31.474C29.331 31.841 28.9013 32.2334 28.4956 32.6491C28.6212 31.7832 28.8722 31.0101 29.0606 30.237V30.3607ZM28.2759 33.4531C28.2608 33.3299 28.2608 33.2053 28.2759 33.082C29.1529 32.7238 29.9053 32.1222 30.4416 31.3503L30.2532 32.8347C30.0367 33.4251 29.6942 33.9629 29.2489 34.4118C28.9566 34.6754 28.6415 34.9134 28.3073 35.123C28.1122 34.4998 28.1013 33.8348 28.2759 33.2057V33.4531ZM28.5584 35.4942C29.0112 35.2743 29.4163 34.9697 29.7511 34.5973C29.9254 34.4118 30.0732 34.2037 30.1905 33.9789C30.1905 34.6283 30.0021 35.2777 29.9394 35.9271C29.6646 36.0155 29.3656 35.9936 29.1071 35.8663C28.8486 35.7389 28.6514 35.5164 28.5584 35.2468V35.4942ZM29.6883 18.9496C29.3895 18.4767 28.9666 18.092 28.4642 17.8363L29.908 17.6508C30.341 17.832 30.7272 18.1068 31.0379 18.4548C31.3204 18.795 31.54 19.1661 31.7911 19.5062C31.5369 19.2095 31.2112 18.9804 30.8438 18.8399C30.4764 18.6994 30.0791 18.6521 29.6883 18.7022V18.9496ZM32.1364 19.8155C31.9384 19.0264 31.4871 18.3214 30.8496 17.8054C31.2732 17.8721 31.6853 17.997 32.0736 18.1765L32.4189 18.362C33.2173 19.3391 33.6198 20.5731 33.5487 21.8256C33.1971 21.0067 32.7208 20.2455 32.1364 19.5681V19.8155ZM34.2392 23.1244L33.7685 22.1039C33.9502 21.4727 33.9588 20.8052 33.7934 20.1696C33.628 19.534 33.2945 18.953 32.8269 18.4858C33.4927 18.956 34.0758 19.5306 34.5531 20.1866C34.9931 21.4492 34.9931 22.8204 34.5531 24.0831C34.4777 23.6742 34.3728 23.2712 34.2392 22.877V23.1244ZM36.499 31.9997C36.3107 32.4945 35.9341 32.4326 35.3378 31.8142C35.8583 31.5327 36.3003 31.129 36.6246 30.639V31.9069L36.499 31.9997Z" fill="#620800"/>
</g>
<path style="mix-blend-mode:screen" d="M11.573 19.9097C13.2079 20.7641 15.0267 21.2201 16.8772 21.2394C19.7979 21.3252 22.7019 20.7762 25.3828 19.6313C22.9569 21.3371 20.0085 22.1671 17.0342 21.9816C12.5146 21.9816 11.573 19.9097 11.573 19.9097Z" fill="url(#paint10_radial_104_232)"/>
<path style="mix-blend-mode:screen" d="M27.9636 18.704C27.9636 18.704 30.8511 20.5594 30.5373 26.868C30.6681 29.7255 30.0862 32.5711 28.8424 35.1558C29.8068 31.6104 30.0942 27.9192 29.6898 24.2704C28.8424 19.4152 27.9636 18.704 27.9636 18.704Z" fill="url(#paint11_radial_104_232)"/>
<path style="mix-blend-mode:screen" d="M30.6252 17.9916C30.6252 17.9916 32.1318 17.3422 34.2033 19.6924C35.3314 21.3436 36.0717 23.2218 36.3703 25.1904C36.6689 27.159 36.5183 29.1684 35.9295 31.0725C36.41 27.4336 35.7299 23.7376 33.9836 20.4964C31.253 16.7546 30.6252 17.9916 30.6252 17.9916Z" fill="url(#paint12_radial_104_232)"/>
<defs>
<linearGradient id="paint0_linear_104_232" x1="5083.59" y1="4296.04" x2="5347.37" y2="4115.25" gradientUnits="userSpaceOnUse">
<stop offset="0.1" stop-color="#D3975B"/>
<stop offset="0.27" stop-color="#EDC383"/>
<stop offset="0.41" stop-color="#FFE3BA"/>
<stop offset="0.49" stop-color="#FEE4BD"/>
<stop offset="0.56" stop-color="#FBE6C7"/>
<stop offset="0.6" stop-color="#F8E9D4"/>
<stop offset="0.76" stop-color="#F7E0C1"/>
<stop offset="0.81" stop-color="#F5D6A9"/>
<stop offset="0.85" stop-color="#F4D099"/>
<stop offset="1" stop-color="#EDC383"/>
</linearGradient>
<linearGradient id="paint1_linear_104_232" x1="23.8497" y1="6.24167" x2="32.5441" y2="14.689" gradientUnits="userSpaceOnUse">
<stop offset="0.09" stop-color="#EDC383"/>
<stop offset="1" stop-color="#B2845B"/>
</linearGradient>
<linearGradient id="paint2_linear_104_232" x1="19.9847" y1="3.54954" x2="20.4722" y2="18.3628" gradientUnits="userSpaceOnUse">
<stop offset="0.09" stop-color="#F6E3C8"/>
<stop offset="0.54" stop-color="#EDC383"/>
<stop offset="1" stop-color="#B2845B"/>
</linearGradient>
<linearGradient id="paint3_linear_104_232" x1="2515.51" y1="3359.25" x2="2517.81" y2="3439.34" gradientUnits="userSpaceOnUse">
<stop offset="0.09" stop-color="#EDC383"/>
<stop offset="1" stop-color="#B2845B"/>
</linearGradient>
<linearGradient id="paint4_linear_104_232" x1="2078.02" y1="3245.9" x2="2080.95" y2="3323.51" gradientUnits="userSpaceOnUse">
<stop offset="0.09" stop-color="#EDC383"/>
<stop offset="1" stop-color="#B2845B"/>
</linearGradient>
<radialGradient id="paint5_radial_104_232" cx="0" cy="0" r="1" gradientUnits="userSpaceOnUse" gradientTransform="translate(23.2872 36.5263) scale(20.7769 22.1813)">
<stop stop-color="#F8E9D4"/>
<stop offset="0.18" stop-color="#FDE5C1"/>
<stop offset="0.31" stop-color="#FFE3BA"/>
<stop offset="0.67" stop-color="#EDC383"/>
<stop offset="0.9" stop-color="#D3975B"/>
</radialGradient>
<radialGradient id="paint6_radial_104_232" cx="0" cy="0" r="1" gradientUnits="userSpaceOnUse" gradientTransform="translate(23.2872 36.5263) scale(20.7769 22.1813)">
<stop offset="0.38" stop-color="#F6E3C8"/>
<stop offset="0.5" stop-color="#EDC383"/>
<stop offset="0.66" stop-color="#B2845B"/>
</radialGradient>
<radialGradient id="paint7_radial_104_232" cx="0" cy="0" r="1" gradientUnits="userSpaceOnUse" gradientTransform="translate(23.2872 40.5823) scale(17.3636 18.5372)">
<stop offset="0.52" stop-color="#F6E3C8"/>
<stop offset="0.76" stop-color="#EDC383"/>
<stop offset="1" stop-color="#B2845B"/>
</radialGradient>
<radialGradient id="paint8_radial_104_232" cx="0" cy="0" r="1" gradientUnits="userSpaceOnUse" gradientTransform="translate(23.4933 20.2169) scale(17.1496 17.0647)">
<stop offset="0.09" stop-color="#FFFB52"/>
<stop offset="0.61" stop-color="#DEA337"/>
<stop offset="1" stop-color="#826C00"/>
</radialGradient>
<linearGradient id="paint9_linear_104_232" x1="19.3885" y1="-0.687544" x2="20.5165" y2="7.38834" gradientUnits="userSpaceOnUse">
<stop offset="0.09" stop-color="#EDC383"/>
<stop offset="0.36" stop-color="#B2845B"/>
<stop offset="0.99" stop-color="#493000"/>
</linearGradient>
<radialGradient id="paint10_radial_104_232" cx="0" cy="0" r="1" gradientUnits="userSpaceOnUse" gradientTransform="translate(1863.45 517.116) scale(21.7587 3.78033)">
<stop offset="0.15" stop-color="white"/>
<stop offset="1" stop-color="#FFFB62"/>
</radialGradient>
<radialGradient id="paint11_radial_104_232" cx="0" cy="0" r="1" gradientUnits="userSpaceOnUse" gradientTransform="translate(380.404 3505.08) scale(4.87975 31.2123)">
<stop offset="0.15" stop-color="white"/>
<stop offset="1" stop-color="#FFFB62"/>
</radialGradient>
<radialGradient id="paint12_radial_104_232" cx="0" cy="0" r="1" gradientUnits="userSpaceOnUse" gradientTransform="translate(846.187 2820.35) scale(9.64432 21.9387)">
<stop offset="0.15" stop-color="white"/>
<stop offset="1" stop-color="#FFFB62"/>
</radialGradient>
</defs>
</svg>
