<svg width="349" height="62" viewBox="0 0 349 62" fill="none" xmlns="http://www.w3.org/2000/svg">
<path opacity="0.4" d="M343.612 11.7039C340.741 6.95671 334.333 3.65744 325.148 3.11152C318.825 2.66534 312.485 3.70583 306.637 6.14969L305.782 6.55321L305.094 6.90924L304.714 7.12286C303.978 7.52637 302.934 7.83493 302.816 8.42833C302.426 10.8291 301.903 13.2064 301.249 15.5491C296.028 14.5759 290.641 13.9113 285.301 13.1755H284.47C278.948 12.4318 273.411 11.7672 267.857 11.1817C256.441 9.99489 244.907 9.0692 233.373 8.35712C221.839 7.64505 209.83 7.45517 197.964 7.26528C186.097 7.07539 173.993 6.69562 162.008 6.64814C150.854 6.64814 139.747 6.93297 128.64 7.36022C117.533 7.78746 106.972 8.35712 96.2919 9.44897C87.5582 10.3272 78.9669 11.5852 70.4705 13.0093L69.5212 13.1755L64.205 14.0775C59.3161 14.9319 54.4508 15.7627 49.4906 16.451C45.5536 16.9086 41.663 17.7027 37.8615 18.8246L36.6986 19.2281C36.3189 17.9464 35.9629 16.6409 35.6306 15.3592C35.2984 14.0775 35.156 12.7957 34.9186 11.514C34.8831 10.9211 34.8831 10.3267 34.9186 9.7338C34.91 9.42641 34.8287 9.12545 34.6813 8.85557C34.1628 8.48107 33.6059 8.16281 33.02 7.90615C32.1819 7.45659 31.3089 7.07557 30.4094 6.76682C29.0662 6.22558 27.6644 5.84321 26.2324 5.6275C23.0827 5.14871 19.876 5.18881 16.7392 5.74619C15.1333 6.02951 13.5477 6.41803 11.9927 6.90924C9.14981 7.87657 6.51633 9.3747 4.23201 11.3241C3.23653 12.1069 2.36448 13.0351 1.64512 14.0775C1.36033 14.5522 1.14673 15.0506 0.909404 15.5253C0.672075 16.0001 -0.229775 17.1868 0.0550194 17.8989C0.980602 20.6285 7.00876 35.0836 8.81246 38.8814C10.6162 42.6791 12.586 46.643 14.2948 50.5356L14.5796 51.2477C14.8643 51.9598 15.1729 52.6481 15.4339 53.3602C15.695 54.0723 15.9798 54.8081 16.2409 55.5439C16.7067 57.2107 17.7178 58.6732 19.1125 59.6977C19.2203 59.7338 19.337 59.7338 19.4448 59.6977C20.4228 60.4013 21.5146 60.9313 22.6725 61.2642C22.981 61.3829 23.2895 61.4541 23.6218 61.549C23.7243 61.56 23.8278 61.56 23.9303 61.549L24.6186 61.7389H24.9983L25.6153 61.8813H26.0425L26.6596 62H27.1105H27.7038H28.1785H28.7718H29.2702H29.8398H30.3382H30.8841H33.9456C36.1053 62 38.2412 62 40.2585 61.7864C45.9354 61.3502 51.5842 60.6054 57.1801 59.5552L60.8824 58.8906L62.1877 58.677L64.561 58.2735L65.8663 58.0361L68.0498 57.6564L69.1177 57.4902L71.491 57.0867L72.3217 56.9443L74.695 56.5408H75.312L77.804 57.0392H78.1837L80.8418 56.612H81.0791L83.7135 56.1848C104.693 52.9804 115.326 52.1971 119.598 51.8411C131.464 50.8442 143.093 50.1321 154.983 49.4675C166.874 48.8029 179.001 48.5181 191.057 48.4944C202.473 48.4944 213.888 48.7792 225.233 49.4438C236.577 50.1084 247.898 51.0816 259.123 52.3158C263.443 52.7905 267.715 53.2415 271.915 53.7874H272.604L273.41 53.9061L274.384 54.0485H275.096L276.187 54.2147L276.852 54.3334L277.967 54.4995H278.584L279.747 54.6894L280.341 54.8081L281.527 55.0454H282.097L283.378 55.3303H283.829L285.562 55.71C289.193 56.5883 292.824 57.5614 296.55 58.3447C297.808 58.6058 299.09 58.8432 300.371 59.0568C301.776 59.2863 303.196 59.4211 304.619 59.4603C304.718 59.5012 304.829 59.5012 304.928 59.4603C305.948 59.4603 306.969 59.4603 307.966 59.3416H308.345C311.102 59.1485 313.831 58.6632 316.486 57.8937L317.103 57.6801H317.269L317.815 57.4665H318.028L318.527 57.2766H318.788L319.215 57.063C319.328 57.0402 319.433 56.9915 319.524 56.9206L319.903 56.7307L320.259 56.5408L320.568 56.3746L320.948 56.1373L321.209 55.9711L321.802 55.5676C324.014 53.7199 325.899 51.5134 327.379 49.0403C329.023 46.6001 330.506 44.0549 331.817 41.4211C334.462 36.3455 336.816 31.123 338.866 25.7792C339.886 23.0733 340.954 20.4624 342.046 17.7802C342.782 15.8576 344.135 12.4397 343.612 11.7039Z" fill="#757474"/>
<path d="M348.904 8.6894C346.033 3.94224 339.601 0.642968 330.44 0.0970449C324.117 -0.339464 317.78 0.700659 311.928 3.13522C311.248 3.4517 310.584 3.78401 309.935 4.13213C309.223 4.53564 308.155 4.8442 308.06 5.46133C307.66 7.86218 307.13 10.2393 306.47 12.5821C301.272 11.6326 295.861 10.9443 290.545 10.2085C284.73 9.44894 278.916 8.76061 273.054 8.14348C261.638 6.93295 250.104 6.03099 238.57 5.29518C227.036 4.55937 215.027 4.39322 203.161 4.22707C191.294 4.06092 179.19 3.65742 167.181 3.58621C156.051 3.58621 144.92 3.89477 133.813 4.29828C122.706 4.70179 112.169 5.31891 101.465 6.38702C90.7615 7.45513 79.9393 9.18785 69.4019 11.1342C64.4892 11.9887 59.624 12.8194 54.6875 13.5078C50.3512 14.0578 46.0814 15.0439 41.943 16.451C41.5632 15.1693 41.2072 13.8875 40.875 12.5821C40.5427 11.2766 40.3766 10.0186 40.163 8.73687C40.1274 8.14401 40.1274 7.54955 40.163 6.95669C40.1624 6.64818 40.0805 6.34528 39.9257 6.07846C39.4179 5.70692 38.8683 5.39624 38.2881 5.15277C37.4534 4.68985 36.5799 4.30068 35.6775 3.98971C34.3298 3.46733 32.9292 3.09327 31.5005 2.87413C28.3584 2.34295 25.1494 2.34295 22.0073 2.87413C20.4019 3.1496 18.8163 3.53019 17.2607 4.01344C14.4005 4.96772 11.7441 6.44902 9.42889 8.38083C8.44586 9.18995 7.58985 10.1421 6.88947 11.2054C6.59754 11.6628 6.35112 12.1478 6.15375 12.6533C5.79776 13.4603 5.01457 14.3148 5.29937 15.0269C6.22495 17.7565 12.2531 32.2116 14.0331 36.0093C15.813 39.807 17.8303 43.7709 19.5154 47.6636C20.2511 49.3251 20.8919 51.0103 21.4852 52.6718C21.9442 54.3418 22.9567 55.8064 24.3569 56.8256C24.4091 56.8492 24.4657 56.8614 24.523 56.8614C24.5803 56.8614 24.6369 56.8492 24.6891 56.8256C25.6708 57.5287 26.7612 58.0659 27.9168 58.4159C33.6718 59.8877 39.6431 60.3217 45.5504 59.6976C51.2264 59.2419 56.8746 58.4892 62.4719 57.4427C101.631 50.322 119.075 49.1352 124.889 48.6367C136.756 47.6636 148.385 46.9278 160.275 46.2632C172.165 45.5986 184.293 45.3375 196.349 45.29C207.741 45.29 219.156 45.5986 230.501 46.2394C241.845 46.8803 253.189 47.9009 264.415 49.1114C273.302 49.8473 282.132 51.1475 290.854 53.0041C295.6 54.1672 300.537 55.5201 305.639 56.3271C307.045 56.5545 308.464 56.6893 309.887 56.7306C309.995 56.7707 310.112 56.7707 310.22 56.7306C311.24 56.7306 312.261 56.7306 313.257 56.5882H313.637C318.408 56.4812 323.064 55.0959 327.117 52.5769C329.334 50.7344 331.221 48.5269 332.695 46.0495C334.339 43.6093 335.821 41.0642 337.133 38.4303C339.723 33.2562 342.037 27.9477 344.063 22.5274C345.083 19.7978 346.151 17.2105 347.243 14.5047C348.002 12.9381 349.379 9.49642 348.904 8.6894Z" fill="url(#paint0_linear_20_77)"/>
<g style="mix-blend-mode:multiply" opacity="0.4">
<path d="M58.8171 34.1341C57.1795 25.0907 63.3263 16.6883 76.0471 11.0629C77.6847 10.3271 79.3697 9.66247 81.0785 8.99787C77.1626 9.615 73.2467 10.2796 69.3782 10.9442C64.4655 11.7987 59.6002 12.6294 54.6638 13.3178C50.3288 13.9311 46.0669 14.9808 41.943 16.4509C41.5632 15.1692 41.2072 13.8874 40.875 12.582C40.5427 11.2765 40.3766 10.0185 40.163 8.73677C40.1274 8.14391 40.1274 7.54945 40.163 6.95659C40.1624 6.64808 40.0805 6.34518 39.9257 6.07837C39.4179 5.70683 38.8683 5.39614 38.2881 5.15267C37.4534 4.68975 36.5799 4.30058 35.6775 3.98961C34.3298 3.46724 32.9292 3.09317 31.5005 2.87403C28.3584 2.34285 25.1494 2.34285 22.0073 2.87403C20.4019 3.1495 18.8163 3.53009 17.2607 4.01335C14.4005 4.96762 11.7441 6.44892 9.42889 8.38073C8.44586 9.18986 7.58985 10.142 6.88947 11.2053C6.59754 11.6627 6.35112 12.1477 6.15375 12.6532C5.79776 13.4602 5.01457 14.3147 5.29937 15.0268C6.22495 17.7564 12.2531 32.2115 14.0331 36.0092C15.813 39.8069 17.8303 43.7708 19.5154 47.6635C20.2511 49.325 20.8919 51.0102 21.4852 52.6717C21.9442 54.3417 22.9567 55.8063 24.3569 56.8255C24.4091 56.8491 24.4657 56.8613 24.523 56.8613C24.5803 56.8613 24.6369 56.8491 24.6891 56.8255C25.6708 57.5286 26.7612 58.0659 27.9168 58.4158C33.6718 59.8876 39.6431 60.3217 45.5504 59.6975C51.2264 59.2418 56.8746 58.4891 62.4719 57.4426C72.7957 55.5912 81.6006 54.1196 89.1002 52.9803C73.4365 50.3219 60.7632 44.7202 58.8171 34.1341Z" fill="#DCA244"/>
</g>
<g style="mix-blend-mode:multiply" opacity="0.4">
<path d="M55.1385 57.8221C51.4599 57.8221 49.2527 55.0925 52.0769 53.6921C56.4912 51.4609 56.3014 48.4939 55.6606 45.4083C54.6776 41.5185 53.2771 37.7463 51.4836 34.1575C48.7306 28.0099 46.5234 21.8149 44.1264 15.6198L41.943 16.3557C41.5632 15.0739 41.2072 13.7922 40.875 12.4867C40.5427 11.1813 40.3766 9.92325 40.163 8.64152C40.1274 8.04866 40.1274 7.4542 40.163 6.86133C40.1624 6.55283 40.0805 6.24993 39.9257 5.98311C39.4179 5.61157 38.8683 5.30088 38.2881 5.05742C37.4534 4.59449 36.5799 4.20533 35.6775 3.89436C34.3298 3.37198 32.9292 2.99792 31.5005 2.77878C28.3584 2.24761 25.1494 2.24761 22.0073 2.77878C20.4019 3.05425 18.8163 3.43484 17.2607 3.9181C14.3934 4.90102 11.7365 6.4148 9.42889 8.38042C8.44586 9.18955 7.58985 10.1417 6.88947 11.205C6.59754 11.6624 6.35112 12.1474 6.15375 12.6529C5.79776 13.4599 5.01457 14.3144 5.29937 15.0265C6.22495 17.7561 12.2531 32.2112 14.0331 36.0089C15.813 39.8066 17.8303 43.7705 19.5154 47.6632C20.2511 49.3247 20.8919 51.0099 21.4852 52.6714C21.9442 54.3414 22.9567 55.806 24.3569 56.8252C24.4091 56.8488 24.4657 56.861 24.523 56.861C24.5803 56.861 24.6369 56.8488 24.6891 56.8252C25.6708 57.5283 26.7612 58.0655 27.9168 58.4155C33.6718 59.8873 39.6431 60.3214 45.5504 59.6972C51.2264 59.2415 56.8746 58.4888 62.4719 57.4423L63.3975 57.2762C60.6445 57.6559 57.9152 57.7746 55.1385 57.8221Z" fill="#DCA244"/>
</g>
<g style="mix-blend-mode:multiply" opacity="0.4">
<path d="M36.2229 58.8421C32.1646 57.8215 27.774 56.16 27.9876 53.3829C28.1774 51.0093 32.7341 52.4809 34.6565 53.1455C39.8303 54.9732 47.3299 54.9732 50.3914 51.5552C52.7647 48.8731 51.6493 45.4551 47.5672 43.4851C43.6296 41.8237 39.312 41.2737 35.0837 41.8948C28.747 42.6306 22.1967 45.0516 19.7285 48.4696C20.3218 49.8937 20.8914 51.3179 21.3898 52.7658C21.8488 54.4358 22.8613 55.9003 24.2615 56.9195C24.3137 56.9431 24.3703 56.9553 24.4276 56.9553C24.4849 56.9553 24.5416 56.9431 24.5938 56.9195C25.5754 57.6227 26.6658 58.1599 27.8214 58.5098C33.1467 59.8917 38.6696 60.3494 44.1497 59.8628C41.4816 59.7677 38.828 59.4261 36.2229 58.8421Z" fill="#DCA244"/>
</g>
<g style="mix-blend-mode:multiply" opacity="0.4">
<path d="M348.905 8.6894C346.033 3.94224 339.601 0.642968 330.44 0.0970449C324.118 -0.339465 317.78 0.700659 311.929 3.13522C311.248 3.4517 310.584 3.78401 309.935 4.13213C309.223 4.53564 308.155 4.8442 308.06 5.46133C307.661 7.86218 307.13 10.2393 306.47 12.5821C301.273 11.6326 295.862 10.9443 290.545 10.2085H289.715C293.19 12.1853 295.748 15.451 296.835 19.2993C298.16 24.1877 297.866 29.3742 295.997 34.0813C294.127 38.7885 290.782 42.7628 286.463 45.4087C283.243 47.5572 279.807 49.363 276.211 50.7967C281.136 51.3636 286.025 52.2116 290.854 53.3364C295.601 54.4995 300.537 55.8524 305.64 56.6594C307.045 56.8868 308.464 57.0216 309.888 57.063C309.995 57.103 310.113 57.103 310.22 57.063C311.241 57.063 312.261 57.0629 313.258 56.9205H313.638C318.409 56.8135 323.064 55.4282 327.118 52.9092C329.335 51.0667 331.221 48.8592 332.695 46.3818C334.339 43.9416 335.822 41.3965 337.133 38.7627C339.724 33.5885 342.037 28.28 344.063 22.8597C345.084 20.1301 346.152 17.5429 347.243 14.837C348.003 12.9381 349.379 9.49642 348.905 8.6894Z" fill="#DCA244"/>
</g>
<g style="mix-blend-mode:multiply" opacity="0.4">
<path d="M348.9 8.6894C346.029 3.94224 339.597 0.642968 330.436 0.0970449C324.113 -0.339465 317.776 0.700659 311.924 3.13522C311.355 3.37258 310.833 3.65742 310.334 3.91851C310.878 5.87604 311.298 7.86587 311.592 9.87619C311.592 10.161 310.856 10.612 310.619 10.8731C310.093 11.477 309.624 12.1286 309.219 12.8194C308.545 14.0406 307.981 15.3195 307.534 16.6409C304.891 24.3157 301.463 31.6971 297.305 38.6677C295.667 41.4211 293.294 45.1476 296.356 47.8535C298.766 49.5705 301.656 50.4841 304.615 50.4644C306.789 50.5675 308.938 50.9749 310.999 51.6749C313.087 52.5531 313.728 54.0485 310.999 54.7606C307.973 55.4773 304.876 55.8515 301.767 55.8762C303.025 56.1373 304.282 56.3983 305.564 56.5882C306.97 56.8156 308.389 56.9504 309.812 56.9917C309.919 57.0318 310.037 57.0318 310.144 56.9917C311.165 56.9917 312.185 56.9917 313.182 56.8493H313.562C318.333 56.7423 322.988 55.357 327.042 52.838C329.259 50.9955 331.145 48.788 332.619 46.3106C334.263 43.8704 335.746 41.3253 337.058 38.6914C339.648 33.5173 341.961 28.2087 343.988 22.7885C345.008 20.0588 346.076 17.4716 347.168 14.7658C347.998 12.9381 349.375 9.49642 348.9 8.6894Z" fill="#DCA244"/>
</g>
<g style="mix-blend-mode:multiply" opacity="0.4">
<path d="M348.903 8.6894C346.031 3.94224 339.599 0.642968 330.439 0.0970449C324.116 -0.339465 317.778 0.700659 311.927 3.13522C311.357 3.37258 310.835 3.65742 310.337 3.91851C310.881 5.87605 311.301 7.86587 311.595 9.87619C311.595 10.161 310.859 10.612 310.622 10.8731C310.095 11.477 309.627 12.1286 309.221 12.8194C308.547 14.0406 307.983 15.3195 307.536 16.6409C304.894 24.3157 301.466 31.6971 297.307 38.6677V38.8339C296.816 39.8681 296.534 40.9894 296.477 42.1331C296.498 43.1358 296.744 44.121 297.195 45.0164C297.647 45.9118 298.294 46.6947 299.087 47.3075C299.61 45.6698 304.048 43.7709 306.468 43.1063C306.824 43.1063 307.299 43.1063 307.18 43.4149C306.808 44.186 306.301 44.8851 305.685 45.4799C306.637 45.3206 307.615 45.407 308.524 45.731C309.434 46.055 310.245 46.6058 310.883 47.3313C311.547 46.3581 312.14 45.3849 312.686 44.4118C312.259 44.4118 312.283 43.8896 312.852 43.8896H313.564C315.421 43.9297 317.236 44.4491 318.833 45.3973C320.429 46.3455 321.754 47.6903 322.678 49.3013C323.095 50.3124 323.231 51.4172 323.072 52.4991C322.913 53.5811 322.466 54.6002 321.776 55.4489C323.687 54.9004 325.493 54.0338 327.116 52.8854C329.333 51.043 331.219 48.8355 332.693 46.3581C334.337 43.9179 335.82 41.3727 337.131 38.7389C339.722 33.5647 342.035 28.2562 344.061 22.8359C345.082 20.1063 346.15 17.5191 347.241 14.8132C348.001 12.9381 349.377 9.49642 348.903 8.6894Z" fill="#DCA244"/>
</g>
<g style="mix-blend-mode:multiply">
<path d="M348.904 8.6894C346.033 3.94224 339.601 0.642968 330.44 0.0970449C324.117 -0.339464 317.78 0.700659 311.928 3.13522C311.248 3.4517 310.584 3.78401 309.935 4.13213C309.223 4.53564 308.155 4.8442 308.06 5.46133C307.66 7.86218 307.13 10.2393 306.47 12.5821C301.272 11.6326 295.861 10.9443 290.545 10.2085C284.73 9.44894 278.916 8.76061 273.054 8.14348C261.638 6.93295 250.104 6.03099 238.57 5.29518C227.036 4.55937 215.027 4.39322 203.161 4.22707C191.294 4.06092 179.19 3.65742 167.181 3.58621C156.051 3.58621 144.92 3.89477 133.813 4.29828C122.706 4.70179 112.169 5.31891 101.465 6.38702C90.7615 7.45513 79.9393 9.18785 69.4019 11.1342C64.4892 11.9887 59.624 12.8194 54.6875 13.5078C50.3512 14.0578 46.0814 15.0439 41.943 16.451C41.5632 15.1693 41.2072 13.8875 40.875 12.5821C40.5427 11.2766 40.3766 10.0186 40.163 8.73687C40.1274 8.14401 40.1274 7.54955 40.163 6.95669C40.1624 6.64818 40.0805 6.34528 39.9257 6.07846C39.4179 5.70692 38.8683 5.39624 38.2881 5.15277C37.4534 4.68985 36.5799 4.30068 35.6775 3.98971C34.3298 3.46733 32.9292 3.09327 31.5005 2.87413C28.3584 2.34295 25.1494 2.34295 22.0073 2.87413C20.4019 3.1496 18.8163 3.53019 17.2607 4.01344C14.4005 4.96772 11.7441 6.44902 9.42889 8.38083C8.44586 9.18995 7.58985 10.1421 6.88947 11.2054C6.59754 11.6628 6.35112 12.1478 6.15375 12.6533C5.79776 13.4603 5.01457 14.3148 5.29937 15.0269C6.22495 17.7565 12.2531 32.2116 14.0331 36.0093C15.813 39.807 17.8303 43.7709 19.5154 47.6636C20.2511 49.3251 20.8919 51.0103 21.4852 52.6718C21.9442 54.3418 22.9567 55.8064 24.3569 56.8256C24.4091 56.8492 24.4657 56.8614 24.523 56.8614C24.5803 56.8614 24.6369 56.8492 24.6891 56.8256C25.6708 57.5287 26.7612 58.0659 27.9168 58.4159C33.6718 59.8877 39.6431 60.3217 45.5504 59.6976C51.2264 59.2419 56.8746 58.4892 62.4719 57.4427C101.631 50.322 119.075 49.1352 124.889 48.6367C136.756 47.6636 148.385 46.9278 160.275 46.2632C172.165 45.5986 184.293 45.3375 196.349 45.29C207.741 45.29 219.156 45.5986 230.501 46.2394C241.845 46.8803 253.189 47.9009 264.415 49.1114C273.302 49.8473 282.132 51.1475 290.854 53.0041C295.6 54.1672 300.537 55.5201 305.639 56.3271C307.045 56.5545 308.464 56.6893 309.887 56.7306C309.995 56.7707 310.112 56.7707 310.22 56.7306C311.24 56.7306 312.261 56.7306 313.257 56.5882H313.637C318.408 56.4812 323.064 55.0959 327.117 52.5769C329.334 50.7344 331.221 48.5269 332.695 46.0495C334.339 43.6093 335.821 41.0642 337.133 38.4303C339.723 33.2562 342.037 27.9477 344.063 22.5274C345.083 19.7978 346.151 17.2105 347.243 14.5047C348.002 12.9381 349.379 9.49642 348.904 8.6894ZM22.5295 52.2683C21.9599 50.5593 21.2479 48.8741 20.5122 47.1889C18.8746 43.4149 16.976 39.6883 15.196 35.9381C11.9208 28.9835 8.78811 22.0052 6.17749 14.9794C7.4116 11.063 10.7579 7.47888 16.6674 5.1053C21.414 3.1827 29.5544 2.13832 34.657 4.32201C36.0452 4.86864 37.3866 5.52751 38.6678 6.29209C38.9052 6.52945 39.3561 10.7781 39.5697 11.775C39.9969 13.9113 40.6139 16.0475 41.2547 18.16C42.5456 22.5161 44.0828 26.7955 45.8589 30.9773C47.8439 35.1929 49.4714 39.5677 50.7241 44.0557C51.2148 45.7544 51.28 47.5478 50.914 49.2776C50.5343 46.3106 44.8858 44.6491 39.8782 44.7203C34.8995 44.778 30.0504 46.3147 25.947 49.1352C24.4221 50.0823 23.3309 51.5914 22.9092 53.3364C22.7668 52.9804 22.6481 52.6243 22.5295 52.2683ZM37.315 51.2714C37.0777 50.9391 36.8404 50.6068 36.6505 50.2745C35.7724 48.9216 35.3452 47.5211 34.4434 46.1919C35.5155 45.9348 36.6009 45.7367 37.6948 45.5986C38.2169 45.5986 38.7628 45.4799 39.3086 45.4561C39.7096 46.1412 40.1873 46.7782 40.7326 47.355C41.0473 47.7462 41.4241 48.083 41.848 48.3519C38.2881 47.8772 36.7217 49.6811 37.315 51.2714ZM42.3939 48.7317L42.9397 48.969C42.9397 48.969 43.1533 48.969 43.0821 48.969C41.9667 47.9009 41.3496 46.5955 40.2579 45.5511C45.764 45.5511 51.2463 47.9247 49.0391 51.2951C47.7338 53.3364 43.0347 54.0248 39.9969 52.6956C36.9591 51.3664 37.8609 48.0908 42.3939 48.7317ZM318.099 55.4489C317.577 55.6151 317.055 55.7337 316.509 55.8524C315.18 56.0423 313.827 56.1847 312.474 56.3271C308.601 56.3274 304.743 55.8491 300.987 54.903C296.407 53.8586 291.969 52.5294 287.317 51.6749C282.666 50.8204 277.468 50.1558 272.413 49.6811C266.361 48.9453 260.262 48.3282 254.163 47.7585C250.698 47.4499 247.233 47.1414 243.768 46.8803C232.067 45.9309 220.367 45.2663 208.548 45.0526C196.729 44.839 184.601 44.934 172.498 45.3137C160.394 45.6935 148.978 46.2632 137.302 47.1651C118.576 48.5893 101.702 50.4407 83.4518 53.1228C76.1658 54.2146 67.4558 56.066 60.2173 57.1816C56.776 57.6801 53.3585 58.2735 49.8935 58.7007C44.2735 59.46 38.5802 59.5078 32.9482 58.8431C30.0346 58.7002 27.2278 57.7012 24.879 55.9711C24.362 55.403 24.0755 54.6624 24.0755 53.8942C24.0755 53.126 24.362 52.3855 24.879 51.8173C27.1894 49.0276 30.3768 47.1032 33.9212 46.3581C34.918 49.0877 36.0572 53.3364 41.848 54.001C41.9667 54.001 42.0616 54.001 42.0616 54.001C43.7065 54.1935 45.3735 54.0316 46.9506 53.5263H47.2117C48.0406 53.396 48.8344 53.0986 49.5449 52.6522C50.2555 52.2057 50.8679 51.6196 51.3451 50.9293C51.8222 50.239 52.1542 49.4589 52.3208 48.6364C52.4874 47.8139 52.4852 46.9661 52.3142 46.1445C51.5891 41.59 50.1557 37.1772 48.066 33.0661C46.1199 28.5563 44.4349 24.0465 42.9397 19.4892C42.6312 18.611 42.3702 17.709 42.0854 16.8308C46.8709 15.3195 51.7903 14.2703 56.776 13.6977C62.2583 12.8906 67.6457 11.8937 73.0568 10.968C84.3062 9.04543 95.698 7.40766 107.327 6.38702C118.956 5.36638 131.06 4.93914 142.926 4.58311C154.793 4.22707 166.659 4.10839 178.739 4.32201C189.49 4.5119 200.241 4.86794 211.016 4.89168C221.791 4.91541 232.732 5.48506 243.506 6.22087C254.281 6.95668 264.866 7.85864 275.522 9.0217C286.178 10.1848 296.288 11.3953 306.375 13.1755C305.829 15.0981 305.236 17.0207 304.666 18.9433C303.387 23.4352 301.85 27.8495 300.062 32.1641C299.16 34.3003 298.163 36.4128 297.19 38.549C296.121 40.3825 295.711 42.5266 296.027 44.6254C296.597 46.999 299.184 48.8029 302.91 49.515C304.259 49.9005 305.67 50.0134 307.063 49.8473C309.08 49.7286 311.098 48.7791 311.454 47.6873C311.925 46.9502 312.293 46.1515 312.545 45.3137C313.163 43.9133 314.088 42.5129 314.634 41.1125C317.194 41.25 319.69 41.9554 321.944 43.1775C323.026 43.838 323.877 44.8184 324.379 45.9834C324.881 47.1484 325.008 48.4405 324.744 49.6811C324.293 52.0547 321.872 54.2859 318.099 55.4489ZM307.3 43.0351C306.897 43.7472 306.636 44.7915 305.734 45.4087C305.734 45.4087 305.734 45.5511 305.876 45.5511C307.68 45.5511 309.745 46.0021 310.291 47.0702C310.837 48.1383 307.467 49.2776 305.544 49.4438C303.416 49.2948 301.393 48.4623 299.777 47.0702C298.092 45.4561 299.777 43.8421 302.15 42.774C304.175 41.9278 306.323 41.4149 308.511 41.2549C308.057 41.8127 307.652 42.4083 307.3 43.0351ZM309.674 41.1837H312.261H313.305C312.248 42.8336 311.448 44.6343 310.932 46.5242C309.653 45.5699 308.052 45.1526 306.47 45.3612C306.979 45.0034 307.408 44.5425 307.728 44.0083C308.558 43.0588 309.128 42.1094 309.721 41.1837H309.674ZM345.985 14.9319C344.442 19.6791 338.865 32.6625 336.492 37.5046C334.196 42.6748 331.052 47.4243 327.189 51.5562C325.718 52.9251 323.969 53.9613 322.062 54.5944C323.557 53.8027 324.787 52.5895 325.599 51.1053C327.402 47.4974 325.29 42.9639 319.001 41.2549C312.977 39.7835 306.643 40.2402 300.893 42.5604C299.041 43.4149 297.736 44.6254 297.784 45.9546C297.156 44.794 296.955 43.4505 297.214 42.1569C297.718 39.9854 298.516 37.8931 299.587 35.9381C300.537 33.9205 301.391 31.8793 302.198 29.838C303.788 25.8266 304.998 21.7678 306.185 17.709C306.802 15.5965 307.443 13.5078 308.06 11.3953C308.747 9.47287 308.975 7.41628 308.724 5.39012C315.189 2.2343 322.324 0.69489 329.514 0.904062C333.186 1.01323 336.814 1.74354 340.242 3.06402C343.532 4.07799 346.303 6.32272 347.979 9.33027C347.477 11.2514 346.81 13.1255 345.985 14.9319Z" fill="#AE8A65"/>
</g>
<path d="M22.5261 52.2671C21.9565 50.5581 21.2445 48.8729 20.5088 47.1876C18.8712 43.4136 16.9726 39.6871 15.1926 35.9368C11.9175 28.9823 8.78474 22.0039 6.17412 14.9781C7.40823 11.0617 10.7546 7.47763 16.6641 5.10405C21.4106 3.18145 29.551 2.13707 34.6536 4.32076C36.0418 4.86738 37.3832 5.52626 38.6645 6.29084C38.9018 6.52819 39.3527 10.7769 39.5663 11.7738C39.9935 13.91 40.6106 16.0463 41.2513 18.1587C42.5423 22.5149 44.0795 26.7942 45.8555 30.9761C47.8405 35.1916 49.468 39.5665 50.7208 44.0545C51.2115 45.7532 51.2767 47.5465 50.9106 49.2764C50.5309 46.3094 44.8825 44.6479 39.8748 44.7191C34.8961 44.7768 30.047 46.3135 25.9436 49.134C24.4187 50.0811 23.3275 51.5902 22.9058 53.3352C22.7634 52.9792 22.6447 52.6231 22.5261 52.2671Z" fill="url(#paint1_linear_20_77)"/>
<path d="M345.987 14.9318C344.445 19.679 338.867 32.6625 336.494 37.5046C334.198 42.6747 331.054 47.4242 327.191 51.5562C325.72 52.925 323.971 53.9612 322.064 54.5943C323.559 53.8026 324.789 52.5894 325.601 51.1052C327.404 47.4973 325.292 42.9638 319.003 41.2548C312.979 39.7835 306.645 40.2401 300.895 42.5603C299.043 43.4148 297.738 44.6253 297.786 45.9545C297.158 44.794 296.957 43.4504 297.216 42.1568C297.72 39.9853 298.518 37.893 299.589 35.938C300.539 33.9205 301.393 31.8792 302.2 29.8379C303.79 25.8265 305 21.7677 306.187 17.7089C306.804 15.5964 307.445 13.5077 308.062 11.3952C308.749 9.47277 308.977 7.41618 308.726 5.39002C315.191 2.2342 322.326 0.694785 329.517 0.903957C333.189 1.01313 336.816 1.74344 340.244 3.06391C343.534 4.07789 346.305 6.32261 347.981 9.33016C347.479 11.2513 346.812 13.1254 345.987 14.9318Z" fill="url(#paint2_linear_20_77)"/>
<path opacity="0.5" d="M25.2064 45.5503C20.6091 37.2944 17.1219 28.4675 14.8351 19.2986C13.1731 14.9828 13.1731 10.2036 14.8351 5.88785C12.8299 6.7167 11.0184 7.95257 9.51512 9.51732C8.01184 11.0821 6.84945 12.9417 6.10143 14.9787C8.71204 22.0994 11.8448 28.9828 15.1199 35.9374C16.8999 39.6876 18.7985 43.4141 20.4361 47.1881C21.1718 48.8734 21.8838 50.5586 22.4534 52.2676C22.4534 52.6236 22.6907 52.9797 22.8331 53.3357C23.2548 51.5907 24.346 50.0816 25.8709 49.1345C26.882 48.4305 27.9543 47.8189 29.0749 47.3068C28.3364 47.3463 27.5993 47.2072 26.926 46.9015C26.2526 46.5958 25.6628 46.1323 25.2064 45.5503Z" fill="#DCA244"/>
<path opacity="0.5" d="M50.7241 44.0557C49.4713 39.5677 47.8439 35.1928 45.8589 30.9773C44.0828 26.7954 42.5456 22.5161 41.2547 18.1599C40.6139 16.0474 39.9968 13.9112 39.5697 11.775C39.3561 10.7781 38.9051 6.52939 38.6678 6.29203C37.3866 5.52745 36.0452 4.86858 34.6569 4.32195C33.5372 3.86393 32.3656 3.54507 31.1682 3.37253C35.9148 7.05158 36.9116 13.3653 37.7422 17.0681C40.1098 26.9719 43.3502 36.6465 47.4252 45.9783C49.3476 46.7616 50.7241 47.8534 50.914 49.2776C51.28 47.5477 51.2148 45.7544 50.7241 44.0557Z" fill="#DCA244"/>
<path opacity="0.5" d="M303.857 32.1867C305.566 27.2259 308.604 22.4313 309.98 17.4468C311.262 12.937 312.14 7.02678 316.08 2.44577C313.562 3.17527 311.109 4.11208 308.746 5.24659C308.996 7.27275 308.769 9.32935 308.082 11.2518C307.465 13.3642 306.824 15.453 306.207 17.5655C305.02 21.6243 303.834 25.6831 302.22 29.6945C301.413 31.7357 300.558 33.777 299.609 35.7946C298.538 37.7496 297.74 39.8419 297.236 42.0133C296.976 43.3069 297.178 44.6505 297.805 45.8111C297.805 44.5768 298.897 43.4375 300.558 42.583C300.013 39.2125 302.789 35.2724 303.857 32.1867Z" fill="#DCA244"/>
<path opacity="0.5" d="M341.521 3.44275C342.719 5.51904 343.39 7.85687 343.477 10.2523C343.564 12.6478 343.064 15.0282 342.02 17.1858C338.317 26.3241 332.526 35.13 328.919 44.292C328.581 44.867 328.088 45.3348 327.496 45.6413C326.904 45.9479 326.237 46.0808 325.573 46.0248C325.966 46.8137 326.17 47.6831 326.17 48.5645C326.17 49.4459 325.966 50.3153 325.573 51.1042C324.761 52.5884 323.531 53.8017 322.036 54.5934C323.943 53.9602 325.692 52.924 327.163 51.5552C331.034 47.425 334.187 42.6754 336.49 37.5036C338.863 32.7565 344.464 19.7492 345.983 14.9309C346.822 13.087 347.497 11.1728 348 9.21055C346.583 6.58817 344.29 4.54683 341.521 3.44275Z" fill="#DCA244"/>
<path d="M26.4418 6.50573C25.2077 2.92162 32.5649 4.13215 32.5649 4.13215C26.2045 1.52121 15.9519 5.6275 15.9519 5.6275L14.9551 5.98354C16.6876 5.36641 20.6035 5.36641 21.8376 7.97734C23.0718 10.5883 34.5822 45.3375 34.5822 45.3375C36.3069 44.9651 38.0632 44.7585 39.8272 44.7203C39.8272 44.7203 27.6759 10.0661 26.4418 6.50573Z" fill="white"/>
<path d="M321.215 1.61525C327.481 0.998116 330.708 2.23238 329.308 5.34177L312.695 39.9486L318.201 40.3521C318.201 40.3521 331.088 14.2427 333.295 7.59667C335.502 0.950646 343.453 3.44291 343.453 3.44291C333.437 -1.11437 321.215 1.61525 321.215 1.61525Z" fill="white"/>
<path d="M66.5281 11.9409C66.5281 11.9409 107.111 2.8026 177.74 4.03686C239.612 5.10497 259.643 6.41043 297.141 11.5136C297.141 11.5136 242.555 5.67463 174.798 5.27112C107.04 4.86761 66.5281 11.9409 66.5281 11.9409Z" fill="white"/>
<path d="M80.5909 39.616L80.6229 39.552L72.0469 18.688L76.4949 19.616L82.3829 34.336L87.6309 18.688L92.4309 19.616L98.3189 34.336L103.567 18.688L108.367 19.616L101.263 40.928L96.5269 39.616L96.5589 39.552L90.5749 25.12L85.3269 40.928L80.5909 39.616ZM110.908 28.768L109.18 25.856C110.673 25.472 112.326 25.1093 114.14 24.768C115.974 24.4267 117.126 24.2667 117.596 24.288C118.065 24.3093 119.004 25.0133 120.412 26.4C121.82 27.7653 122.769 28.8107 123.26 29.536C123.43 29.792 123.516 30.656 123.516 32.128C123.516 33.5787 123.484 35.2427 123.42 37.12C123.377 38.9973 123.366 40.2667 123.388 40.928L119.42 40L119.452 38.368C117.724 40.096 116.316 40.96 115.228 40.96C114.204 40.9387 112.902 39.968 111.324 38.048C109.745 36.128 108.956 34.752 108.956 33.92C108.956 33.2587 109.404 32.6507 110.3 32.096C111.196 31.5413 112.284 31.1147 113.564 30.816C114.865 30.496 116.017 30.2507 117.02 30.08C118.022 29.9093 118.876 29.792 119.58 29.728L119.612 28.864C119.633 27.84 119.089 27.2853 117.98 27.2C116.956 27.136 114.801 27.5947 111.516 28.576H111.484L111.452 28.608H111.42H111.388L111.356 28.64H111.324H111.292L111.26 28.672H111.228H111.196L111.164 28.704H111.132H111.1H111.068L111.036 28.736H111.004H110.972L110.94 28.768H110.908ZM112.508 36.8C112.7 37.0987 113.062 37.2907 113.596 37.376C114.129 37.4613 114.929 37.3227 115.996 36.96C117.084 36.576 118.257 35.9147 119.516 34.976L119.548 32.16C113.916 33.8027 111.569 35.3493 112.508 36.8ZM131.313 18.176V40.928L127.313 40.032V17.28L131.313 18.176ZM139.032 18.176V40.928L135.032 40.032V17.28L139.032 18.176ZM146.014 33.632L153.278 28.672C151.742 27.6907 150.43 27.328 149.342 27.584C148.276 27.84 147.454 28.512 146.878 29.6C146.302 30.6667 146.014 32.0107 146.014 33.632ZM146.75 36.704C147.348 37.4293 148.02 37.8773 148.766 38.048C149.513 38.2187 150.292 38.1227 151.102 37.76C151.934 37.376 152.628 37.0027 153.182 36.64C153.737 36.256 154.388 35.7547 155.134 35.136L155.774 35.776C156.18 36.224 156.585 36.672 156.99 37.12L157.63 37.76C155.774 39.1253 154.206 40.032 152.926 40.48C151.646 40.9493 150.377 40.9493 149.118 40.48C147.284 39.776 145.556 38.5387 143.934 36.768C142.974 35.7013 142.42 34.4427 142.27 32.992C142.121 31.52 142.302 30.1547 142.814 28.896C143.348 27.6373 144.158 26.5707 145.246 25.696C146.356 24.8 147.561 24.352 148.862 24.352C149.716 24.352 150.974 24.9067 152.638 26.016C154.324 27.104 155.721 28.1707 156.83 29.216C156.809 29.28 155.956 29.9413 154.27 31.2C152.606 32.4373 150.932 33.664 149.246 34.88L146.75 36.704ZM159.702 26.944L158.742 24.704H161.366V21.248L165.302 22.144V24.704H169.206L170.166 26.944H165.302V31.008C165.302 31.2427 165.302 31.5947 165.302 32.064C165.302 32.64 165.291 33.216 165.27 33.792C165.27 34.368 165.302 34.912 165.366 35.424C165.451 35.936 165.547 36.4053 165.654 36.832C165.761 37.2587 165.942 37.6 166.198 37.856C166.454 38.112 166.763 38.2827 167.126 38.368C167.489 38.4533 167.947 38.4 168.502 38.208C169.078 37.9947 169.729 37.6533 170.454 37.184L171.318 38.176C170.081 39.3067 169.046 40.096 168.214 40.544C167.574 40.9067 166.689 40.8427 165.558 40.352C164.449 39.8827 163.467 39.2213 162.614 38.368C161.782 37.4933 161.366 36.736 161.366 36.096V26.944H159.702ZM200.325 31.52H189.829L189.861 40.928L185.381 40V18.688L185.413 18.72L185.381 18.656H199.045L201.605 21.536H189.797V28.64H197.765L200.325 31.52ZM206.214 22.752C205.126 22.24 204.315 21.4613 203.782 20.416C203.824 20.0747 204.144 19.6373 204.742 19.104C205.339 18.5707 205.819 18.2613 206.182 18.176C207.27 18.6667 208.07 19.424 208.582 20.448C208.219 21.3653 207.43 22.1333 206.214 22.752ZM208.134 25.6V40.928L204.134 40.032V24.704L208.134 25.6ZM216.785 25.6V26.912C218.684 25.1413 220.348 24.2987 221.777 24.384C222.46 24.4267 223.655 25.28 225.361 26.944C227.089 28.5867 228.007 29.7067 228.113 30.304C228.199 30.8587 228.241 34.4 228.241 40.928L224.273 40.032C224.401 32.7147 224.348 28.8427 224.113 28.416C223.729 27.6907 223.089 27.4773 222.193 27.776C221.319 28.0533 220.401 28.5653 219.441 29.312C218.503 30.0587 217.617 30.9333 216.785 31.936V40.928L212.625 40.032V24.704L216.785 25.6ZM236.263 38.368C237.948 39.2213 239.986 38.8053 242.375 37.12V28.128C241.756 27.7653 240.892 27.52 239.783 27.392C238.908 27.3067 238.055 27.7547 237.223 28.736C236.391 29.696 235.762 30.816 235.335 32.096C234.908 33.376 234.748 34.6453 234.855 35.904C234.983 37.1413 235.452 37.9627 236.263 38.368ZM242.375 17.28L246.375 18.176C246.503 32.576 246.503 39.84 246.375 39.968C246.268 39.9893 245.714 40.1067 244.711 40.32C243.73 40.5547 243.1 40.6933 242.823 40.736C242.546 40.7787 241.97 40.8427 241.095 40.928C240.242 41.0133 239.559 41.0133 239.047 40.928C238.556 40.8427 237.938 40.6933 237.191 40.48C236.444 40.288 235.73 40 235.047 39.616C233.831 38.9547 232.892 38.144 232.231 37.184C231.57 36.224 231.218 35.2427 231.175 34.24C231.132 33.2373 231.25 32.224 231.527 31.2C231.804 30.1547 232.242 29.2053 232.839 28.352C233.458 27.4773 234.108 26.7093 234.791 26.048C235.495 25.3867 236.231 24.9173 236.999 24.64C237.767 24.3413 238.45 24.288 239.047 24.48C239.324 24.5653 239.612 24.6933 239.911 24.864C240.231 25.0133 240.487 25.152 240.679 25.28C240.892 25.408 241.18 25.6 241.543 25.856C241.927 26.112 242.204 26.2933 242.375 26.4V17.28ZM253.764 33.632L261.028 28.672C259.492 27.6907 258.18 27.328 257.092 27.584C256.026 27.84 255.204 28.512 254.628 29.6C254.052 30.6667 253.764 32.0107 253.764 33.632ZM254.5 36.704C255.098 37.4293 255.77 37.8773 256.516 38.048C257.263 38.2187 258.042 38.1227 258.852 37.76C259.684 37.376 260.378 37.0027 260.932 36.64C261.487 36.256 262.138 35.7547 262.884 35.136L263.524 35.776C263.93 36.224 264.335 36.672 264.74 37.12L265.38 37.76C263.524 39.1253 261.956 40.032 260.676 40.48C259.396 40.9493 258.127 40.9493 256.868 40.48C255.034 39.776 253.306 38.5387 251.684 36.768C250.724 35.7013 250.17 34.4427 250.02 32.992C249.871 31.52 250.052 30.1547 250.564 28.896C251.098 27.6373 251.908 26.5707 252.996 25.696C254.106 24.8 255.311 24.352 256.612 24.352C257.466 24.352 258.724 24.9067 260.388 26.016C262.074 27.104 263.471 28.1707 264.58 29.216C264.559 29.28 263.706 29.9413 262.02 31.2C260.356 32.4373 258.682 33.664 256.996 34.88L254.5 36.704ZM272.22 25.6V27.968C273.777 25.5147 275.1 24.288 276.188 24.288C276.721 24.288 277.617 24.5653 278.876 25.12C280.135 25.6533 281.191 26.208 282.044 26.784L279.836 29.984C278.513 29.0027 277.361 28.4693 276.38 28.384C275.42 28.2773 274.652 28.4693 274.076 28.96C273.5 29.4293 272.881 30.1973 272.22 31.264V40.928L268.22 40.032V24.704L272.22 25.6Z" fill="url(#paint3_linear_20_77)"/>
<defs>
<linearGradient id="paint0_linear_20_77" x1="5.22817" y1="30.0516" x2="348.999" y2="30.0516" gradientUnits="userSpaceOnUse">
<stop offset="0.1" stop-color="#D3975B"/>
<stop offset="0.27" stop-color="#EDC383"/>
<stop offset="0.41" stop-color="#FFE3BA"/>
<stop offset="0.49" stop-color="#FEE4BD"/>
<stop offset="0.56" stop-color="#FBE6C7"/>
<stop offset="0.6" stop-color="#F8E9D4"/>
<stop offset="0.76" stop-color="#F7E0C1"/>
<stop offset="0.81" stop-color="#F5D6A9"/>
<stop offset="0.85" stop-color="#F4D099"/>
<stop offset="1" stop-color="#EDC383"/>
</linearGradient>
<linearGradient id="paint1_linear_20_77" x1="11.6327" y1="32.1629" x2="44.9304" y2="24.4742" gradientUnits="userSpaceOnUse">
<stop offset="0.15" stop-color="#EDC383"/>
<stop offset="0.17" stop-color="#EEC588"/>
<stop offset="0.6" stop-color="#F8E9D4"/>
<stop offset="0.76" stop-color="#F7E0C1"/>
<stop offset="0.81" stop-color="#F5D6A9"/>
<stop offset="0.85" stop-color="#F4D099"/>
<stop offset="1" stop-color="#EDC383"/>
</linearGradient>
<linearGradient id="paint2_linear_20_77" x1="7894.27" y1="2642.3" x2="6957.61" y2="2467.18" gradientUnits="userSpaceOnUse">
<stop offset="0.15" stop-color="#EDC383"/>
<stop offset="0.17" stop-color="#EEC588"/>
<stop offset="0.6" stop-color="#F8E9D4"/>
<stop offset="0.76" stop-color="#F7E0C1"/>
<stop offset="0.81" stop-color="#F5D6A9"/>
<stop offset="0.85" stop-color="#F4D099"/>
<stop offset="1" stop-color="#EDC383"/>
</linearGradient>
<linearGradient id="paint3_linear_20_77" x1="177" y1="8" x2="177" y2="55" gradientUnits="userSpaceOnUse">
<stop stop-color="#10240F"/>
<stop offset="1" stop-color="#C52267"/>
</linearGradient>
</defs>
</svg>
