<svg width="132" height="144" viewBox="0 0 132 144" fill="none" xmlns="http://www.w3.org/2000/svg">
<g filter="url(#filter0_d_18_3)">
<g style="mix-blend-mode:multiply" opacity="0.6">
<path d="M120.466 58.4132C117.79 55.3737 114.852 52.5244 111.677 49.8913C89.1944 32.2784 64.5907 16.9277 38.3137 4.11885C27.055 -0.0129382 7.37038 -12.3438 7.37038 42.8544C7.37038 58.5423 6.35345 91.984 9.62211 105.993C10.0252 109.851 11.2062 113.612 13.1087 117.098C15.0699 120.39 30.0331 134.464 37.5147 135.239C52.0421 136.659 110.152 93.2751 119.885 83.5913C128.965 74.4238 132.088 69.7756 120.466 58.4132Z" fill="#8A7D63"/>
</g>
<path d="M8.1191 65.8151C8.1191 85.5978 4.02182 107.317 11.2965 118.938C13.3034 122.12 18.8221 129.106 26.5149 129.798C41.2316 131.181 101.269 88.9872 111.638 79.3725C122.006 69.7578 124.933 65.5384 107.791 51.2201C84.3863 34.6859 58.739 20.4567 31.3647 8.81858C19.9928 5.0142 8.1191 12.3462 8.1191 65.8151Z" fill="#053700"/>
<path d="M4 59.5189C4 84.6969 4.66897 122.533 19.3856 124.055C34.1023 125.577 97.2335 82.5527 107.602 73.1455C117.971 63.7383 120.479 61.0406 103.338 46.9298C80.0321 29.8816 54.5448 14.9907 27.3293 2.52231C15.7064 -1.48958 4 6.05005 4 59.5189Z" fill="#215700"/>
<path d="M8.60744 60.3501C8.60744 83.5222 8.60745 116.655 21.4845 118.038C34.3616 119.422 92.7265 81.7238 102.092 72.8699C111.457 64.0161 113.714 61.7335 98.2452 48.7295C77.1658 33.4105 54.0176 20.1571 29.2609 9.23304C18.7251 5.42866 8.60744 11.0315 8.60744 60.3501Z" fill="url(#paint0_radial_18_3)"/>
<path style="mix-blend-mode:screen" d="M9.61187 82.5545C9.02655 94.5902 11.0334 116.517 21.4855 117.97C31.9377 119.422 78.0945 92.515 102.093 72.8014C104.936 70.5188 106.942 66.4377 92.8111 74.5998C78.6798 82.762 37.7073 107.871 28.8438 108.148C19.9804 108.424 15.2978 98.4637 13.291 84.2838C11.2842 70.1038 9.86272 76.5367 9.61187 82.5545Z" fill="url(#paint1_radial_18_3)"/>
<path style="mix-blend-mode:screen" d="M9.43093 40.7748C9.43093 33.2352 11.7722 10.9623 22.8097 8.81799C33.8472 6.6737 79.8368 36.4862 86.2753 40.9823C92.7139 45.4784 81.76 46.3777 67.5451 39.5298C53.3301 32.6819 33.3455 21.0612 22.5589 31.5751C11.7722 42.089 9.26369 48.2452 9.43093 40.7748Z" fill="url(#paint2_linear_18_3)"/>
<path style="mix-blend-mode:screen" opacity="0.5" d="M66.4583 36.9715C78.9295 41.8676 90.4095 48.3309 100.491 56.1317C104.337 59.2444 108.852 63.8097 95.5573 72.2485C82.471 81.2993 68.4851 89.421 53.7485 96.5272C53.7485 96.5272 96.8115 71.2109 100.825 64.9855C101.745 63.533 102.414 61.3887 99.2365 58.0685C89.3053 50.0379 78.3096 42.9607 66.4583 36.9715Z" fill="url(#paint3_radial_18_3)"/>
</g>
<defs>
<filter id="filter0_d_18_3" x="0" y="0" width="132" height="143.273" filterUnits="userSpaceOnUse" color-interpolation-filters="sRGB">
<feFlood flood-opacity="0" result="BackgroundImageFix"/>
<feColorMatrix in="SourceAlpha" type="matrix" values="0 0 0 0 0 0 0 0 0 0 0 0 0 0 0 0 0 0 127 0" result="hardAlpha"/>
<feOffset dy="4"/>
<feGaussianBlur stdDeviation="2"/>
<feComposite in2="hardAlpha" operator="out"/>
<feColorMatrix type="matrix" values="0 0 0 0 0 0 0 0 0 0 0 0 0 0 0 0 0 0 0.25 0"/>
<feBlend mode="normal" in2="BackgroundImageFix" result="effect1_dropShadow_18_3"/>
<feBlend mode="normal" in="SourceGraphic" in2="effect1_dropShadow_18_3" result="shape"/>
</filter>
<radialGradient id="paint0_radial_18_3" cx="0" cy="0" r="1" gradientUnits="userSpaceOnUse" gradientTransform="translate(9659.21 19095.1) scale(1568.74 1724.56)">
<stop stop-color="#92FA8B"/>
<stop offset="0.68" stop-color="#00AC00"/>
<stop offset="1" stop-color="#287500"/>
</radialGradient>
<radialGradient id="paint1_radial_18_3" cx="0" cy="0" r="1" gradientUnits="userSpaceOnUse" gradientTransform="translate(10489.7 9046.79) scale(615.924 314.349)">
<stop offset="0.04" stop-color="#92FA8B"/>
<stop offset="0.18" stop-color="#4CA453"/>
<stop offset="0.95" stop-color="#3D7E00"/>
</radialGradient>
<linearGradient id="paint2_linear_18_3" x1="8452.85" y1="6267.74" x2="8475.14" y2="6455.89" gradientUnits="userSpaceOnUse">
<stop offset="0.03" stop-color="white"/>
<stop offset="0.19" stop-color="#92FA8B"/>
<stop offset="0.39" stop-color="#4CA453"/>
<stop offset="0.95" stop-color="#3D7E00"/>
</linearGradient>
<radialGradient id="paint3_radial_18_3" cx="0" cy="0" r="1" gradientUnits="userSpaceOnUse" gradientTransform="translate(5876.66 10961.3) scale(243.382 285.868)">
<stop offset="0.04" stop-color="#92FA8B"/>
<stop offset="0.18" stop-color="#4CA453"/>
<stop offset="0.95" stop-color="#3D7E00"/>
</radialGradient>
</defs>
</svg>
