<svg width="147" height="22" viewBox="0 0 147 22" fill="none" xmlns="http://www.w3.org/2000/svg">
<path d="M136.733 0.020117L10.8209 0.684348C8.17764 0.803733 5.68081 1.97878 3.85109 3.96444C2.02136 5.9501 1 8.59308 1 11.3422C1 14.0913 2.02136 16.7342 3.85109 18.7199C5.68081 20.7056 8.17764 21.8806 10.8209 22L136.733 21.3358C139.456 21.3358 142.068 20.2118 143.993 18.2112C145.918 16.2106 147 13.4972 147 10.6679C147 7.83857 145.918 5.12515 143.993 3.12453C142.068 1.12391 139.456 0 136.733 0V0.020117ZM136.733 18.1354L11.9831 18.7996C10.1439 18.7996 8.37997 18.0404 7.07943 16.6891C5.77889 15.3377 5.04825 13.5049 5.04825 11.5938C5.04825 9.68266 5.77889 7.84981 7.07943 6.49845C8.37997 5.14709 10.1439 4.38791 11.9831 4.38791L136.714 3.72368C138.553 3.72368 140.317 4.48286 141.618 5.83422C142.918 7.18558 143.649 9.01843 143.649 10.9295C143.649 12.8407 142.918 14.6735 141.618 16.0249C140.317 17.3762 138.553 18.1354 136.714 18.1354H136.733Z" fill="url(#paint0_linear_103_29)"/>
<path d="M136.568 0.462214L123.007 0.598543L87.186 1.24118C79.7661 1.24118 71.6875 1.4359 63.2409 1.41643C54.7942 1.39696 45.8051 1.41642 36.5253 1.31906H22.4217H15.1374C12.7397 1.1674 10.3324 1.31128 7.96939 1.74748C5.66628 2.40461 3.66906 3.86028 2.33182 5.85641C1.37759 7.36318 0.841864 9.09916 0.780216 10.8843C0.718568 12.6693 1.13325 14.4385 1.98124 16.0082C2.82922 17.5778 4.07961 18.8908 5.60268 19.8109C7.12575 20.7309 8.86601 21.2245 10.6429 21.2405C30.4034 20.9484 50.164 20.6953 68.7622 20.559L95.4777 20.4421C103.982 20.4421 112.003 20.4421 119.423 20.4421L130.059 20.5395H134.999C135.773 20.5885 136.549 20.5885 137.324 20.5395C138.069 20.5243 138.807 20.3929 139.513 20.15C140.824 19.7653 142.041 19.1116 143.088 18.2301C144.135 17.3486 144.989 16.2584 145.596 15.0285C146.52 13.1113 146.819 10.9501 146.45 8.85241C146.081 6.75468 145.064 4.82724 143.542 3.34433C142.507 2.38611 141.296 1.63881 139.978 1.1438L138.525 0.695917L137.42 0.579051L136.568 0.462214ZM136.568 0.306422H137.479H138.583C139.028 0.403789 139.513 0.579054 140.075 0.734843C141.43 1.22144 142.675 1.97631 143.736 2.95483C145.174 4.29754 146.196 6.02839 146.681 7.94009C147.267 10.3274 147.042 12.843 146.041 15.0869C145.427 16.4046 144.549 17.5808 143.463 18.5424C142.376 19.504 141.104 20.2302 139.726 20.6758C138.992 20.951 138.222 21.1151 137.44 21.1626C136.642 21.2501 135.84 21.2891 135.038 21.2795L130.097 21.3963L119.462 21.5911C112.061 21.7079 103.963 21.8248 95.5358 21.8637L68.8009 22C50.2802 22 30.5003 22 10.6816 22C8.08952 21.9793 5.59209 21.0181 3.64919 19.2932C2.19746 18.0389 1.11518 16.409 0.519806 14.5802C-0.0755685 12.7514 -0.161299 10.7937 0.271915 8.91939C0.705129 7.0451 1.64074 5.32588 2.97723 3.94827C4.31371 2.57066 6.00002 1.58727 7.85316 1.10485C10.2512 0.688308 12.6868 0.531642 15.1181 0.637499H22.3249L36.4285 0.423288C45.6888 0.286973 54.6392 0.0922322 63.144 0.0532851C71.6488 0.0143379 79.6692 -0.0440829 87.0891 0.0532851L123.007 0.22854L136.568 0.306422Z" fill="#4B4336"/>
<path d="M136.811 18.0328L124.146 18.1734C116.08 18.1734 104.662 18.5955 90.7694 18.8165C83.8525 18.917 76.3705 19.0175 68.4598 18.9974C60.5491 18.9773 52.2099 18.9974 43.5783 18.8768C34.9467 18.7563 26.0423 18.8768 16.9626 18.8768C14.683 18.8768 12.4423 19.0577 10.1041 18.8768C8.91843 18.6736 7.7992 18.1734 6.84461 17.42C5.89003 16.6667 5.12925 15.6832 4.62902 14.5559C4.14059 13.4079 3.93143 12.1542 4.01971 10.9038C4.108 9.65336 4.49107 8.44412 5.13561 7.38119C5.80299 6.31392 6.71242 5.43042 7.78521 4.80712C8.85801 4.18381 10.0619 3.83947 11.2927 3.80388C29.7249 3.50242 48.1376 3.26126 65.4008 3.12058L90.2823 3C98.2124 3 105.694 3 112.592 3L131.433 3.20095H135.525C136.847 3.12035 138.172 3.31163 139.422 3.76368C140.487 4.20039 141.438 4.8903 142.196 5.7773C142.955 6.66429 143.5 7.72336 143.786 8.8684C144.236 10.7141 143.97 12.6677 143.046 14.3147C142.374 15.5246 141.371 16.5032 140.162 17.1284C139.122 17.6772 137.978 17.9858 136.811 18.0328ZM136.811 17.872C137.895 17.7971 138.954 17.5035 139.928 17.0078C141.083 16.3908 142.033 15.4321 142.656 14.2545C143.526 12.6594 143.757 10.7771 143.299 9.00907C143.023 7.92599 142.495 6.92844 141.762 6.10223C141.029 5.27603 140.112 4.64592 139.091 4.26611C137.913 3.88976 136.674 3.75993 135.447 3.88425H131.375L112.514 4.28622C105.616 4.40681 98.1345 4.52739 90.2238 4.56758L65.3228 4.70825C48.0597 4.70825 29.6469 4.70825 11.2342 4.58767C9.58227 4.5927 7.99212 5.23603 6.77738 6.39077C5.56263 7.54551 4.81148 9.12782 4.67207 10.8257C4.53265 12.5235 5.0151 14.2136 6.02426 15.5626C7.03342 16.9116 8.49602 17.8216 10.1236 18.1131C12.3448 18.3543 14.6635 18.1131 16.9042 18.2538C25.9839 18.2538 34.8882 18.093 43.5198 17.9323C52.1514 17.7715 60.5102 17.5705 68.4208 17.5303C76.3315 17.4901 83.8135 17.5303 90.7304 17.5303C104.525 17.5303 116.06 17.8318 124.107 17.8318L136.811 17.872Z" fill="#4B4336"/>
<g style="mix-blend-mode:multiply">
<path d="M33.2918 4.06147C33.2918 4.06147 37.1829 10.209 33 19H34.1673C35.3162 16.6951 35.9422 14.1411 35.9962 11.5385C36.0502 8.93591 35.5307 6.35557 34.4786 4L33.2918 4.06147Z" fill="#704F00"/>
</g>
<g style="mix-blend-mode:multiply">
<path d="M59.388 4.04105C59.388 4.04105 64.5608 10.197 59 19H60.5519C62.0866 16.6975 62.9231 14.1428 62.9949 11.5388C63.0668 8.93489 62.3719 6.35352 60.9657 4L59.388 4.04105Z" fill="#704F00"/>
</g>
<g style="mix-blend-mode:multiply">
<path d="M87.8774 4.52677C87.8774 4.52677 91.9267 9.88525 88.3699 18.0812L89.4893 18.0173C90.4775 15.8703 90.949 13.5237 90.8664 11.1641C90.7838 8.80447 90.1493 6.49685 89.0134 4.42469L87.8774 4.52677Z" fill="#704F00"/>
</g>
<path d="M118.291 4.03831C118.291 4.03831 123 10.5 117 18H119C120.151 15.851 120.942 13.4666 120.996 11.0363C121.05 8.60591 120.529 6.19663 119.474 4L118.291 4.03831Z" fill="#482000"/>
<defs>
<linearGradient id="paint0_linear_103_29" x1="34.3664" y1="-6.44406" x2="106.432" y2="23.131" gradientUnits="userSpaceOnUse">
<stop stop-color="#7D725E"/>
<stop offset="0.4" stop-color="#B7A892"/>
<stop offset="0.54" stop-color="#F0EEE8"/>
<stop offset="0.78" stop-color="#9E907D"/>
<stop offset="1" stop-color="#6C614F"/>
</linearGradient>
</defs>
</svg>
