<svg width="31" height="39" viewBox="0 0 31 39" fill="none" xmlns="http://www.w3.org/2000/svg">
<path d="M18.0849 0.4758L11.7614 0.4758C11.7614 0.4758 11.5506 38.5478 11.7614 38.5478H18.0849C24.4084 38.5478 29.6568 30.1154 29.6568 19.575C29.6568 9.03461 24.4927 0.4758 18.0849 0.4758Z" fill="url(#paint0_linear_200_848)"/>
<path d="M18.0855 0.518202C15.9776 0.518202 13.8698 0.518202 11.762 0.518202C12.0175 2.02916 12.0742 3.56706 11.9306 5.09273C11.9306 8.2127 12.0571 11.3116 12.036 14.4316C12.036 22.4001 11.4037 30.4741 11.8885 38.4426C11.7409 38.4426 11.8885 38.4426 11.8885 38.4426H17.3477C22.4697 38.4426 25.779 34.3529 27.4864 29.7784C29.5884 24.0233 29.8753 17.7619 28.3084 11.8386C27.0437 6.84244 23.8398 0.581444 18.0855 0.518202ZM18.8653 0.180901C23.9452 0.180901 26.8962 4.98734 28.5824 9.28783C30.629 15.2402 30.7543 21.685 28.9408 27.7124C27.6128 32.287 24.7251 37.5783 19.6874 38.6323C16.9503 39.014 14.18 39.0989 11.4247 38.8853C11.1507 38.8853 11.8674 38.8853 11.7198 38.548C11.5299 35.9867 11.5299 33.4148 11.7198 30.8535C11.7198 24.5293 11.4669 18.3947 11.5512 12.1548C11.5512 8.48676 11.3404 3.72249 11.5512 0.0333521C13.2796 -0.0931328 17.3056 0.180901 18.9707 0.180901L18.8653 0.180901Z" fill="#D05900"/>
<path d="M23.4403 19.5122C23.4403 30.0526 18.255 38.4849 11.8683 38.4849C5.48162 38.4849 0.296387 30.0526 0.296387 19.5122C0.296387 8.97181 5.48162 0.53949 11.8683 0.53949C18.255 0.53949 23.4403 8.99289 23.4403 19.5122Z" fill="url(#paint1_linear_200_848)"/>
<path opacity="0.5" d="M0.378357 21.8516C0.514051 23.7707 0.846013 25.6709 1.36903 27.5224C3.32931 25.4143 5.31065 23.4959 7.292 21.4932L20.9085 7.66424C20.2333 6.23519 19.3606 4.90817 18.3159 3.72214C12.3578 9.77936 6.37862 15.8225 0.378357 21.8516Z" fill="url(#paint2_radial_200_848)"/>
<path d="M11.2143 0.517181C7.18841 0.875556 3.71051 4.60688 1.83455 10.0457C4.96818 6.88361 8.09477 3.70742 11.2143 0.517181Z" fill="url(#paint3_radial_200_848)"/>
<path style="mix-blend-mode:screen" d="M13.069 38.442L21.5003 29.7988C21.7251 29.1945 21.9359 28.5621 22.1327 27.9015L11.5935 38.5473C12.0878 38.5754 12.5837 38.54 13.069 38.442Z" fill="url(#paint4_radial_200_848)"/>
<path d="M20.5752 19.512C20.5752 28.4924 16.5282 35.7863 11.5537 35.7863C6.57927 35.7863 2.51117 28.4924 2.51117 19.512C2.51117 10.5316 6.55819 3.2587 11.5537 3.2587C16.5493 3.2587 20.5752 10.5316 20.5752 19.512Z" fill="url(#paint5_linear_200_848)"/>
<path opacity="0.5" d="M13.2163 3.5315C12.6807 3.34677 12.1177 3.2541 11.5511 3.25744C7.67271 3.25744 4.36343 7.64228 3.11981 13.7979C6.46422 10.3828 9.8297 6.96067 13.2163 3.5315Z" fill="url(#paint6_radial_200_848)"/>
<path opacity="0.5" d="M18.4229 8.99236C18.0607 8.25571 17.6376 7.55057 17.1582 6.88428C12.2891 11.7961 7.44111 16.7501 2.59311 21.6409C2.65893 22.6884 2.7927 23.7306 2.99358 24.7608C8.1156 19.4485 13.2798 14.2204 18.4229 8.99236Z" fill="url(#paint7_radial_200_848)"/>
<path opacity="0.3" d="M20.3855 16.328C20.1417 13.8071 19.4867 11.3432 18.4463 9.03409L2.99597 24.7182C3.40529 27.1071 4.23302 29.405 5.44106 31.5062L20.3855 16.328Z" fill="url(#paint8_radial_200_848)"/>
<path opacity="0.5" d="M9.02301 35.1319C9.79957 35.5544 10.6684 35.7789 11.5524 35.7854C15.768 35.7854 19.246 30.6627 20.2788 23.7061L9.02301 35.1319Z" fill="url(#paint9_radial_200_848)"/>
<path d="M20.6162 19.5119C20.6162 25.014 19.1197 35.2803 12.1849 36.0603C4.21736 36.9457 2.17277 24.0232 2.25708 18.4157C2.25708 13.2087 4.84971 1.67749 12.1849 2.87909C19.1197 3.68017 20.6373 14.0308 20.6162 19.5119ZM20.0682 19.6384C20.0682 14.4103 18.7403 5.49313 12.8594 3.84883C5.75607 2.0148 3.10021 13.272 2.78404 18.247C2.42571 23.6016 4.1752 36.0814 11.8898 35.4279C18.4663 34.8798 20.026 24.9929 20.0682 19.6384Z" fill="#D05900"/>
<path style="mix-blend-mode:screen" d="M19.1205 12.0283C18.8346 10.8596 18.4321 9.72259 17.9191 8.63431L3.03784 23.7492C3.20852 25.0377 3.46911 26.3127 3.81773 27.5648L19.1205 12.0283Z" fill="url(#paint10_linear_200_848)"/>
<path style="mix-blend-mode:screen" d="M7.10524 33.7196C11.4052 29.2926 15.7192 24.8937 20.0473 20.523C20.0473 20.2278 20.0473 19.9327 20.0473 19.6376C20.0473 19.3425 20.0473 18.7311 20.0473 18.2462L6.05133 32.4547C6.35678 32.9125 6.71007 33.3365 7.10524 33.7196Z" fill="url(#paint11_linear_200_848)"/>
<path style="mix-blend-mode:screen" d="M2.78325 21.2187C2.78325 21.5981 2.78325 21.9987 2.78325 22.3992L17.3272 7.64266L16.8003 6.84158L2.78325 21.2187Z" fill="url(#paint12_linear_200_848)"/>
<path style="mix-blend-mode:screen" d="M10.2669 1.02279C7.8007 3.51033 5.33454 6.01892 2.84731 8.50646C2.39598 9.54995 2.00884 10.62 1.68802 11.7108L4.13308 9.2443C5.39778 5.99786 7.42129 3.25735 10.4565 2.92006L12.3957 0.959554C11.6872 0.868453 10.9687 0.889794 10.2669 1.02279Z" fill="url(#paint13_radial_200_848)"/>
<path style="mix-blend-mode:screen" d="M17.2205 6.01945C17.7053 5.51352 18.1901 5.00758 18.696 4.52273C18.2633 4.00232 17.7911 3.51606 17.2837 3.06821L15.8504 4.52273C16.3602 4.97026 16.8197 5.47215 17.2205 6.01945Z" fill="url(#paint14_radial_200_848)"/>
<path style="mix-blend-mode:screen" d="M2.4032 21.0506C2.4032 20.0809 2.4032 19.1744 2.4032 18.4155V18.2258L0.674774 19.9755C0.674774 20.8609 0.674778 21.7674 0.843405 22.716L2.4032 21.0506Z" fill="url(#paint15_radial_200_848)"/>
<path style="mix-blend-mode:screen" d="M21.88 11.0156C21.4229 9.367 20.7645 7.78105 19.9197 6.29352L18.3599 7.89564C19.1046 9.50982 19.6496 11.2088 19.9829 12.955L21.88 11.0156Z" fill="url(#paint16_radial_200_848)"/>
<path style="mix-blend-mode:screen" d="M23.1852 19.7429C23.1852 19.7429 23.1852 19.5953 23.1852 19.511C23.1852 18.7732 23.1852 17.951 23.0587 17.1289L20.6768 19.5532C20.6768 20.3964 20.6768 21.3662 20.5504 22.3991L23.1852 19.7429Z" fill="url(#paint17_radial_200_848)"/>
<path style="mix-blend-mode:screen" d="M6.64021 36.4395L8.03137 35.0483C7.50675 34.6828 7.032 34.2505 6.61913 33.7624L5.27011 35.1115C5.67858 35.6014 6.13785 36.0465 6.64021 36.4395Z" fill="url(#paint18_radial_200_848)"/>
<path style="mix-blend-mode:screen" d="M20.5554 31.4433C20.998 30.4537 21.3851 29.4403 21.7147 28.4076L17.3093 32.8768C16.7664 33.6442 16.1047 34.3202 15.3491 34.8795L12.0609 38.2103C12.7777 38.1671 13.486 38.0325 14.1687 37.8097L20.5554 31.4433Z" fill="url(#paint19_radial_200_848)"/>
<path style="mix-blend-mode:screen" d="M4.04728 29.2082C3.42961 27.4786 2.98481 25.6921 2.71937 23.8748L1.15961 25.4769C1.48464 27.2419 1.97873 28.9714 2.63506 30.6417L4.04728 29.2082Z" fill="url(#paint20_radial_200_848)"/>
<path style="mix-blend-mode:multiply" d="M3.79694 19.3638C3.79694 10.7207 7.63318 3.67966 12.439 3.34237C12.1447 3.31129 11.848 3.31129 11.5537 3.34237C6.55819 3.34237 2.51117 10.6153 2.51117 19.5957C2.51117 28.5761 6.55819 35.8701 11.5537 35.8701C12.2805 35.8596 12.9975 35.7018 13.6616 35.4063C13.3739 35.428 13.085 35.428 12.7973 35.4063C7.82288 35.3852 3.79694 28.2177 3.79694 19.3638Z" fill="url(#paint21_linear_200_848)"/>
<g style="mix-blend-mode:multiply">
<path style="mix-blend-mode:multiply" d="M5.8626 19.5107C5.8626 11.5633 9.02433 4.94392 13.2189 3.5315C12.6833 3.34677 12.1203 3.2541 11.5537 3.25744C6.55819 3.25744 2.51117 10.5303 2.51117 19.5107C2.51117 28.4911 6.55819 35.7851 11.5537 35.7851C12.1215 35.7813 12.6844 35.6815 13.2189 35.49C9.02433 34.0776 5.8626 27.4793 5.8626 19.5107Z" fill="url(#paint22_linear_200_848)"/>
</g>
<path style="mix-blend-mode:multiply" d="M18.468 0.0969543L12.1445 0.0969543C18.468 0.0969543 23.3581 8.0444 23.3581 18.5637C23.3581 29.083 17.8146 38.9067 11.4279 38.9067H18.0043C25.0022 39.0332 29.9556 29.7365 29.9556 19.2172C29.9556 8.6979 24.8547 0.0969543 18.468 0.0969543Z" fill="url(#paint23_linear_200_848)"/>
<path style="mix-blend-mode:screen" d="M24.3244 2.73103C24.0306 2.44014 23.7209 2.16566 23.3969 1.90884L17.2421 1.90884C17.5661 2.16566 17.8758 2.44014 18.1696 2.73103L24.3244 2.73103Z" fill="url(#paint24_linear_200_848)"/>
<path style="mix-blend-mode:screen" d="M27.5101 7.28401C27.5101 7.11536 26.9199 6.12455 26.8145 5.97699L20.491 5.97699L21.1655 7.28401L27.5101 7.28401Z" fill="url(#paint25_linear_200_848)"/>
<path style="mix-blend-mode:screen" d="M28.8375 10.5307L28.0998 8.63344C25.9935 8.5168 23.8825 8.5168 21.7762 8.63344C21.7762 8.82318 22.4086 10.2778 22.4718 10.4886L28.8375 10.5307Z" fill="url(#paint26_linear_200_848)"/>
<path style="mix-blend-mode:screen" d="M30.0405 19.5742C30.0405 18.9418 30.0405 17.4662 30.0405 16.7705L23.5063 16.7705C23.5063 17.3608 23.6117 19.1526 23.6117 19.7639C23.5063 19.8061 30.0405 19.5742 30.0405 19.5742Z" fill="url(#paint27_linear_200_848)"/>
<path style="mix-blend-mode:screen" opacity="0.3" d="M29.0049 27.2055L29.321 25.8986C27.0657 25.8986 24.7892 25.8986 22.5549 25.8986C22.5549 26.3413 22.3231 26.805 22.1966 27.2477L29.0049 27.2055Z" fill="url(#paint28_linear_200_848)"/>
<path style="mix-blend-mode:screen" opacity="0.3" d="M27.931 30.3894L28.2472 29.6306L21.3546 29.6306L21.0595 30.3262C23.357 30.263 25.6546 30.3262 27.931 30.3894Z" fill="url(#paint29_linear_200_848)"/>
<path style="mix-blend-mode:screen" opacity="0.3" d="M26.4739 33.2977L26.7268 32.855H19.75L19.497 33.2977H26.4739Z" fill="url(#paint30_linear_200_848)"/>
<path style="mix-blend-mode:screen" opacity="0.5" d="M29.7421 23.3898C29.7421 22.926 29.8686 22.4833 29.9108 22.0406L23.1868 22.0406L22.9971 23.3898L29.7421 23.3898Z" fill="url(#paint31_linear_200_848)"/>
<path style="mix-blend-mode:screen" d="M29.7845 14.747C29.7845 14.2622 29.384 12.8287 29.2786 12.3649L22.9552 12.3649C22.9552 12.8287 23.3557 14.2411 23.4189 14.747L29.7845 14.747Z" fill="url(#paint32_linear_200_848)"/>
<path style="mix-blend-mode:screen" d="M26.1165 5.00845C26.1165 4.90304 25.3999 3.91225 25.3156 3.78577L19.1186 3.78577C19.1186 3.91225 19.8352 4.90304 19.9195 5.00845L26.1165 5.00845Z" fill="url(#paint33_linear_200_848)"/>
<path style="mix-blend-mode:screen" d="M19.2448 0.665717C17.6851 0.665717 16.1042 0.497057 14.5233 0.454895C14.8777 0.560734 15.2231 0.694677 15.5561 0.855438L21.3105 0.855438C20.6149 0.771115 19.9404 0.686798 19.2448 0.665717Z" fill="url(#paint34_linear_200_848)"/>
<g style="mix-blend-mode:multiply">
<g style="mix-blend-mode:multiply">
<path d="M22.0929 1.44477C20.1821 1.30626 18.2625 1.3486 16.3596 1.57124C16.3596 1.57124 16.7601 1.86635 17.0552 1.86635C17.7719 1.86635 21.6924 1.86636 22.7042 1.73988C22.9571 1.80312 22.3669 1.46585 22.0929 1.44477Z" fill="#D05900"/>
</g>
<g style="mix-blend-mode:multiply">
<path d="M24.3897 3.36296C22.478 3.24153 20.5593 3.2909 18.6564 3.51051C18.6564 3.51051 19.0569 3.80565 19.3309 3.80565C20.0687 3.80565 23.9892 3.80566 25.001 3.67917C25.2961 3.63701 24.6427 3.40512 24.3897 3.36296Z" fill="#D05900"/>
</g>
<g style="mix-blend-mode:multiply">
<path d="M26.0359 5.76618C24.1251 5.62767 22.2055 5.67001 20.3026 5.89265C20.3026 5.89265 20.7031 6.18776 20.9982 6.18776C21.7149 6.18776 25.6565 6.18777 26.6472 6.06129C26.9001 6.01913 26.3099 5.78726 26.0359 5.76618Z" fill="#D05900"/>
</g>
<g style="mix-blend-mode:multiply">
<path d="M27.698 8.52787C25.7793 8.40654 23.8537 8.4559 21.9437 8.67542C21.9437 8.67542 22.3442 8.97054 22.6393 8.97054C23.377 8.97054 27.2975 8.97054 28.2882 8.84406C28.5622 8.8019 27.951 8.57003 27.698 8.52787Z" fill="#D05900"/>
</g>
<g style="mix-blend-mode:multiply">
<path d="M28.5228 12.2173C26.6115 12.0997 24.6937 12.142 22.7895 12.3438C22.7895 12.3438 23.19 12.6389 23.464 12.6389C24.2017 12.6389 28.1223 12.639 29.134 12.5125C29.387 12.4914 28.7757 12.3438 28.5228 12.2173Z" fill="#D05900"/>
</g>
<g style="mix-blend-mode:multiply">
<path d="M29.2151 16.6658C27.3035 16.5447 25.3848 16.594 23.4818 16.8133C23.6756 16.9677 23.9098 17.0629 24.1563 17.0873C24.8941 17.0873 28.8147 17.0873 29.8264 16.9609C30.0794 16.9398 29.5102 16.6868 29.2151 16.6658Z" fill="#D05900"/>
</g>
<g style="mix-blend-mode:multiply">
<path d="M29.0914 21.7037C27.1801 21.5863 25.2623 21.6286 23.3581 21.8302C23.3581 21.8302 23.7585 22.1253 24.0326 22.1253C24.7703 22.1253 28.6909 22.1253 29.7026 21.9988C29.9556 21.9777 29.3443 21.7248 29.0914 21.7037Z" fill="#D05900"/>
</g>
<g style="mix-blend-mode:multiply">
<path d="M28.4582 25.8992C26.5469 25.7816 24.6292 25.824 22.7249 26.0257C22.7249 26.0257 23.1254 26.3208 23.3994 26.3208C24.1372 26.3208 28.0577 26.3208 29.0695 26.1943C29.3224 26.1733 28.7112 25.9203 28.4582 25.8992Z" fill="#D05900"/>
</g>
<g style="mix-blend-mode:multiply">
<path d="M27.4068 29.5037C25.4881 29.3824 23.5624 29.4318 21.6524 29.6513C21.6524 29.6513 22.0529 29.9464 22.348 29.9464C23.0857 29.9464 27.0063 29.9464 27.997 29.8199C28.2288 29.7778 27.6386 29.5459 27.4068 29.5037Z" fill="#D05900"/>
</g>
<g style="mix-blend-mode:multiply">
<path d="M25.9052 32.7917C23.9935 32.6707 22.0748 32.72 20.1719 32.9393C20.1719 32.9393 20.5724 33.2344 20.8675 33.2344C21.5842 33.2344 25.5258 33.2344 26.5165 33.1079C26.7694 33.0658 26.1582 32.8339 25.9052 32.7917Z" fill="#D05900"/>
</g>
<g style="mix-blend-mode:multiply">
<path d="M24.198 35.1323C22.2802 34.9939 20.3536 35.0362 18.4437 35.2588C18.4437 35.2588 18.8652 35.5539 19.1393 35.5539C19.877 35.5539 23.7975 35.5539 24.8093 35.4275C25.0622 35.4064 24.451 35.1534 24.198 35.1323Z" fill="#D05900"/>
</g>
<g style="mix-blend-mode:multiply">
<path d="M22.0929 36.9235C20.1812 36.8024 18.2626 36.8518 16.3596 37.071C16.3596 37.071 16.7601 37.3661 17.0552 37.3661C17.7719 37.3661 21.6924 37.3661 22.7042 37.2397C22.9571 37.1975 22.3669 36.9656 22.0929 36.9235Z" fill="#D05900"/>
</g>
</g>
<path d="M23.8176 19.511C23.8176 26.4255 21.0774 37.9989 12.6672 38.8421C2.59181 39.8329 -0.274833 24.5071 0.0202628 17.1921C0.399671 10.5517 4.2359 -1.52763 13.0677 0.200996C21.225 1.61341 24.0073 10.3408 23.8176 19.511ZM23.122 19.511C23.122 12.9548 20.7612 2.64637 13.2785 1.02315C5.39521 -0.600075 1.51682 10.0246 0.631534 16.117C-0.274831 23.3055 2.2124 38.2096 11.5501 38.2307C20.1921 38.2518 23.0588 26.2357 23.1852 19.511H23.122Z" fill="#D05900"/>
<path d="M4.61783 5.11264C4.61783 5.11264 7.35799 0.538079 11.8687 0.474837C16.3795 0.411595 21.2064 4.05857 22.724 13.1233C23.5437 17.4562 23.4142 21.9154 22.3446 26.1934C22.7845 21.6214 22.593 17.0107 21.7755 12.4909C20.4476 6.44072 17.054 1.40241 11.679 1.14944C7.80064 0.93863 4.61783 5.11264 4.61783 5.11264Z" fill="white"/>
<path style="mix-blend-mode:multiply" opacity="0.6" d="M28.5825 9.28793C26.8963 5.07177 23.9453 0.159929 18.8655 0.18101C17.8326 0.18101 15.7459 0.181006 13.891 0.0123596C14.1439 0.181006 14.3969 0.349652 14.6287 0.53938L18.0856 0.53938C23.8399 0.53938 27.0438 6.86364 28.3085 11.7544C29.8754 17.6777 29.5885 23.939 27.4865 29.6941C25.7159 34.2687 22.4698 38.2951 17.3478 38.3583H13.1322L11.3616 38.8432C14.1099 39.0576 16.8733 38.9728 19.6032 38.5902C24.6198 37.5362 27.5286 32.266 28.8565 27.6704C30.6883 21.6648 30.5925 15.2362 28.5825 9.28793Z" fill="url(#paint35_linear_200_848)"/>
<mask id="path-53-outside-1_200_848" maskUnits="userSpaceOnUse" x="4.21478" y="12" width="25" height="16" fill="black">
<rect fill="white" x="4.21478" y="12" width="25" height="16"/>
<path d="M5.93002 26.62L10.49 19.9L6.19002 13.58L6.37002 13.2H7.83002L11.43 18.6L15.03 13.2H16.49L16.67 13.58L12.37 19.9L16.93 26.62L16.75 27H15.29L11.43 21.2L7.57002 27H6.11002L5.93002 26.62ZM18.817 27V22.8C18.817 21.12 19.5504 20.1333 21.017 19.84L25.117 19.02C25.797 18.8867 26.137 18.44 26.137 17.68V16.08C26.137 15.1733 25.6837 14.72 24.777 14.72H19.217V13.9L20.117 13.2H24.757C26.797 13.2 27.817 14.22 27.817 16.26V17.56C27.817 19.24 27.0837 20.2267 25.617 20.52L21.517 21.34C20.837 21.4733 20.497 21.92 20.497 22.68V25.48H27.817V27H18.817Z"/>
</mask>
<path d="M5.93002 26.62L10.49 19.9L6.19002 13.58L6.37002 13.2H7.83002L11.43 18.6L15.03 13.2H16.49L16.67 13.58L12.37 19.9L16.93 26.62L16.75 27H15.29L11.43 21.2L7.57002 27H6.11002L5.93002 26.62ZM18.817 27V22.8C18.817 21.12 19.5504 20.1333 21.017 19.84L25.117 19.02C25.797 18.8867 26.137 18.44 26.137 17.68V16.08C26.137 15.1733 25.6837 14.72 24.777 14.72H19.217V13.9L20.117 13.2H24.757C26.797 13.2 27.817 14.22 27.817 16.26V17.56C27.817 19.24 27.0837 20.2267 25.617 20.52L21.517 21.34C20.837 21.4733 20.497 21.92 20.497 22.68V25.48H27.817V27H18.817Z" fill="#FCD01E"/>
<path d="M5.93002 26.62L5.10254 26.0585L4.78158 26.5315L5.02628 27.0481L5.93002 26.62ZM10.49 19.9L11.3175 20.4615L11.699 19.8993L11.3168 19.3375L10.49 19.9ZM6.19002 13.58L5.28628 13.1519L5.04123 13.6692L5.36324 14.1425L6.19002 13.58ZM6.37002 13.2V12.2H5.73718L5.46628 12.7719L6.37002 13.2ZM7.83002 13.2L8.66207 12.6453L8.3652 12.2H7.83002V13.2ZM11.43 18.6L10.598 19.1547L11.43 20.4028L12.2621 19.1547L11.43 18.6ZM15.03 13.2V12.2H14.4948L14.198 12.6453L15.03 13.2ZM16.49 13.2L17.3938 12.7719L17.1228 12.2H16.49V13.2ZM16.67 13.58L17.4968 14.1425L17.8188 13.6692L17.5738 13.1519L16.67 13.58ZM12.37 19.9L11.5432 19.3375L11.161 19.8993L11.5425 20.4615L12.37 19.9ZM16.93 26.62L17.8338 27.0481L18.0785 26.5315L17.7575 26.0585L16.93 26.62ZM16.75 27V28H17.3828L17.6538 27.4281L16.75 27ZM15.29 27L14.4575 27.554L14.7543 28H15.29V27ZM11.43 21.2L12.2625 20.646L11.43 19.3951L10.5975 20.646L11.43 21.2ZM7.57002 27V28H8.10571L8.40251 27.554L7.57002 27ZM6.11002 27L5.20628 27.4281L5.47719 28H6.11002V27ZM6.75749 27.1815L11.3175 20.4615L9.66254 19.3385L5.10254 26.0585L6.75749 27.1815ZM11.3168 19.3375L7.0168 13.0175L5.36324 14.1425L9.66324 20.4625L11.3168 19.3375ZM7.09376 14.0081L7.27376 13.6281L5.46628 12.7719L5.28628 13.1519L7.09376 14.0081ZM6.37002 14.2H7.83002V12.2H6.37002V14.2ZM6.99797 13.7547L10.598 19.1547L12.2621 18.0453L8.66207 12.6453L6.99797 13.7547ZM12.2621 19.1547L15.8621 13.7547L14.198 12.6453L10.598 18.0453L12.2621 19.1547ZM15.03 14.2H16.49V12.2H15.03V14.2ZM15.5863 13.6281L15.7663 14.0081L17.5738 13.1519L17.3938 12.7719L15.5863 13.6281ZM15.8432 13.0175L11.5432 19.3375L13.1968 20.4625L17.4968 14.1425L15.8432 13.0175ZM11.5425 20.4615L16.1025 27.1815L17.7575 26.0585L13.1975 19.3385L11.5425 20.4615ZM16.0263 26.1919L15.8463 26.5719L17.6538 27.4281L17.8338 27.0481L16.0263 26.1919ZM16.75 26H15.29V28H16.75V26ZM16.1225 26.446L12.2625 20.646L10.5975 21.754L14.4575 27.554L16.1225 26.446ZM10.5975 20.646L6.73753 26.446L8.40251 27.554L12.2625 21.754L10.5975 20.646ZM7.57002 26H6.11002V28H7.57002V26ZM7.01375 26.5719L6.83376 26.1919L5.02628 27.0481L5.20628 27.4281L7.01375 26.5719ZM18.817 27H17.817V28H18.817V27ZM21.017 19.84L21.2132 20.8206L21.017 19.84ZM25.117 19.02L24.9246 18.0387L24.9209 18.0394L25.117 19.02ZM19.217 14.72H18.217V15.72H19.217V14.72ZM19.217 13.9L18.6031 13.1106L18.217 13.4109V13.9H19.217ZM20.117 13.2V12.2H19.7739L19.5031 12.4106L20.117 13.2ZM25.617 20.52L25.8132 21.5006H25.8132L25.617 20.52ZM21.517 21.34L21.7095 22.3213L21.7132 22.3206L21.517 21.34ZM20.497 25.48H19.497V26.48H20.497V25.48ZM27.817 25.48H28.817V24.48H27.817V25.48ZM27.817 27V28H28.817V27H27.817ZM19.817 27V22.8H17.817V27H19.817ZM19.817 22.8C19.817 22.0974 19.9707 21.6642 20.1696 21.3965C20.3582 21.1428 20.6674 20.9297 21.2132 20.8206L20.8209 18.8594C19.9001 19.0436 19.1092 19.4705 18.5645 20.2035C18.03 20.9225 17.817 21.8226 17.817 22.8H19.817ZM21.2132 20.8206L25.3132 20.0006L24.9209 18.0394L20.8209 18.8594L21.2132 20.8206ZM25.3095 20.0013C25.8311 19.899 26.3268 19.6517 26.6778 19.1907C27.0202 18.7408 27.137 18.2022 27.137 17.68H25.137C25.137 17.797 25.1238 17.8738 25.1108 17.92C25.0984 17.964 25.0868 17.9787 25.0863 17.9793C25.0856 17.9803 25.0849 17.981 25.0837 17.9821C25.0823 17.9833 25.0781 17.9868 25.069 17.992C25.0507 18.0024 25.0073 18.0225 24.9246 18.0387L25.3095 20.0013ZM27.137 17.68V16.08H25.137V17.68H27.137ZM27.137 16.08C27.137 15.4725 26.9845 14.8332 26.5042 14.3529C26.0238 13.8725 25.3845 13.72 24.777 13.72V15.72C25.0762 15.72 25.117 15.7941 25.0899 15.7671C25.0629 15.7401 25.137 15.7808 25.137 16.08H27.137ZM24.777 13.72H19.217V15.72H24.777V13.72ZM20.217 14.72V13.9H18.217V14.72H20.217ZM19.831 14.6894L20.731 13.9894L19.5031 12.4106L18.6031 13.1106L19.831 14.6894ZM20.117 14.2H24.757V12.2H20.117V14.2ZM24.757 14.2C25.6229 14.2 26.0886 14.4158 26.3449 14.6721C26.6013 14.9284 26.817 15.3941 26.817 16.26H28.817C28.817 15.0859 28.5228 14.0216 27.7592 13.2579C26.9955 12.4942 25.9312 12.2 24.757 12.2V14.2ZM26.817 16.26V17.56H28.817V16.26H26.817ZM26.817 17.56C26.817 18.2626 26.6634 18.6958 26.4645 18.9635C26.2759 19.2172 25.9667 19.4303 25.4209 19.5394L25.8132 21.5006C26.734 21.3164 27.5249 20.8895 28.0696 20.1565C28.6041 19.4375 28.817 18.5374 28.817 17.56H26.817ZM25.4209 19.5394L21.3209 20.3594L21.7132 22.3206L25.8132 21.5006L25.4209 19.5394ZM21.3246 20.3587C20.803 20.461 20.3073 20.7083 19.9563 21.1693C19.6139 21.6192 19.497 22.1578 19.497 22.68H21.497C21.497 22.563 21.5103 22.4862 21.5233 22.44C21.5357 22.396 21.5473 22.3813 21.5478 22.3807C21.5485 22.3797 21.5492 22.379 21.5504 22.3779C21.5518 22.3767 21.556 22.3732 21.5651 22.368C21.5834 22.3576 21.6268 22.3375 21.7095 22.3213L21.3246 20.3587ZM19.497 22.68V25.48H21.497V22.68H19.497ZM20.497 26.48H27.817V24.48H20.497V26.48ZM26.817 25.48V27H28.817V25.48H26.817ZM27.817 26H18.817V28H27.817V26Z" fill="#300400" mask="url(#path-53-outside-1_200_848)"/>
<defs>
<linearGradient id="paint0_linear_200_848" x1="2131.32" y1="7567.66" x2="2131.32" y2="8267.42" gradientUnits="userSpaceOnUse">
<stop offset="0.11" stop-color="#FFFB74"/>
<stop offset="0.49" stop-color="#FFFA00"/>
<stop offset="0.93" stop-color="#FFC921"/>
</linearGradient>
<linearGradient id="paint1_linear_200_848" x1="2794.92" y1="7692.46" x2="2393.65" y2="7888.22" gradientUnits="userSpaceOnUse">
<stop offset="0.11" stop-color="#FFFB74"/>
<stop offset="0.49" stop-color="#FFFA00"/>
<stop offset="0.93" stop-color="#FFC921"/>
</linearGradient>
<radialGradient id="paint2_radial_200_848" cx="0" cy="0" r="1" gradientUnits="userSpaceOnUse" gradientTransform="translate(2559.35 4644.6) scale(646.117 756.447)">
<stop offset="0.39" stop-color="#F6C100"/>
<stop offset="1" stop-color="#EA6500"/>
</radialGradient>
<radialGradient id="paint3_radial_200_848" cx="0" cy="0" r="1" gradientUnits="userSpaceOnUse" gradientTransform="translate(1168.52 1857.72) scale(295.197 302.848)">
<stop offset="0.39" stop-color="#F6C100"/>
<stop offset="1" stop-color="#EA6500"/>
</radialGradient>
<radialGradient id="paint4_radial_200_848" cx="0" cy="0" r="1" gradientUnits="userSpaceOnUse" gradientTransform="translate(1323.14 2105.38) scale(331.683 338.654)">
<stop offset="0.15" stop-color="white"/>
<stop offset="1" stop-color="#FFFB62"/>
</radialGradient>
<linearGradient id="paint5_linear_200_848" x1="1973.66" y1="6564.09" x2="2269.91" y2="6817.01" gradientUnits="userSpaceOnUse">
<stop offset="0.11" stop-color="#FFFB74"/>
<stop offset="0.49" stop-color="#FFFA00"/>
<stop offset="0.93" stop-color="#FFC921"/>
</linearGradient>
<radialGradient id="paint6_radial_200_848" cx="0" cy="0" r="1" gradientUnits="userSpaceOnUse" gradientTransform="translate(1178.54 2238.95) scale(62.4082 65.7984)">
<stop offset="0.39" stop-color="#F6C100"/>
<stop offset="1" stop-color="#EA6500"/>
</radialGradient>
<radialGradient id="paint7_radial_200_848" cx="0" cy="0" r="1" gradientUnits="userSpaceOnUse" gradientTransform="translate(1774.34 3699.03) scale(118.471 135.115)">
<stop offset="0.39" stop-color="#F6C100"/>
<stop offset="1" stop-color="#EA6500"/>
</radialGradient>
<radialGradient id="paint8_radial_200_848" cx="0" cy="0" r="1" gradientUnits="userSpaceOnUse" gradientTransform="translate(1896.21 4606.89) scale(230.784 301.189)">
<stop offset="0.39" stop-color="#F6C100"/>
<stop offset="1" stop-color="#EA6500"/>
</radialGradient>
<radialGradient id="paint9_radial_200_848" cx="0" cy="0" r="1" gradientUnits="userSpaceOnUse" gradientTransform="translate(1232.91 2494.94) scale(149.38 161.897)">
<stop offset="0.39" stop-color="#F6C100"/>
<stop offset="1" stop-color="#EA6500"/>
</radialGradient>
<linearGradient id="paint10_linear_200_848" x1="1883.26" y1="3900.94" x2="1738.78" y2="3970.22" gradientUnits="userSpaceOnUse">
<stop offset="0.46" stop-color="white"/>
<stop offset="0.54" stop-color="#FFFFFB"/>
<stop offset="0.63" stop-color="#FFFFEF"/>
<stop offset="0.72" stop-color="#FFFEDB"/>
<stop offset="0.8" stop-color="#FFFDBF"/>
<stop offset="0.89" stop-color="#FFFC9B"/>
<stop offset="0.98" stop-color="#FFFB70"/>
<stop offset="1" stop-color="#FFFB62"/>
</linearGradient>
<linearGradient id="paint11_linear_200_848" x1="1668.77" y1="3252.17" x2="1546.21" y2="3314.95" gradientUnits="userSpaceOnUse">
<stop offset="0.46" stop-color="white"/>
<stop offset="0.54" stop-color="#FFFFFB"/>
<stop offset="0.63" stop-color="#FFFFEF"/>
<stop offset="0.72" stop-color="#FFFEDB"/>
<stop offset="0.8" stop-color="#FFFDBF"/>
<stop offset="0.89" stop-color="#FFFC9B"/>
<stop offset="0.98" stop-color="#FFFB70"/>
<stop offset="1" stop-color="#FFFB62"/>
</linearGradient>
<linearGradient id="paint12_linear_200_848" x1="1691.2" y1="3183.09" x2="1565.63" y2="3249.42" gradientUnits="userSpaceOnUse">
<stop offset="0.46" stop-color="white"/>
<stop offset="0.54" stop-color="#FFFFFB"/>
<stop offset="0.63" stop-color="#FFFFEF"/>
<stop offset="0.72" stop-color="#FFFEDB"/>
<stop offset="0.8" stop-color="#FFFDBF"/>
<stop offset="0.89" stop-color="#FFFC9B"/>
<stop offset="0.98" stop-color="#FFFB70"/>
<stop offset="1" stop-color="#FFFB62"/>
</linearGradient>
<radialGradient id="paint13_radial_200_848" cx="0" cy="0" r="1" gradientUnits="userSpaceOnUse" gradientTransform="translate(1225.5 2225.44) scale(27.1452 27.6671)">
<stop offset="0.15" stop-color="white"/>
<stop offset="1" stop-color="#FFFB62"/>
</radialGradient>
<radialGradient id="paint14_radial_200_848" cx="0" cy="0" r="1" gradientUnits="userSpaceOnUse" gradientTransform="translate(351.739 607.193) scale(1.95433 2.04698)">
<stop offset="0.15" stop-color="white"/>
<stop offset="1" stop-color="#FFFB62"/>
</radialGradient>
<radialGradient id="paint15_radial_200_848" cx="0" cy="0" r="1" gradientUnits="userSpaceOnUse" gradientTransform="translate(189.867 972.225) scale(1.37911 3.61822)">
<stop offset="0.15" stop-color="white"/>
<stop offset="1" stop-color="#FFFB62"/>
</radialGradient>
<radialGradient id="paint16_radial_200_848" cx="0" cy="0" r="1" gradientUnits="userSpaceOnUse" gradientTransform="translate(439.698 1387.64) scale(4.40853 8.42543)">
<stop offset="0.15" stop-color="white"/>
<stop offset="1" stop-color="#FFFB62"/>
</radialGradient>
<radialGradient id="paint17_radial_200_848" cx="0" cy="0" r="1" gradientUnits="userSpaceOnUse" gradientTransform="translate(336.951 1135.22) scale(2.58132 5.21439)">
<stop offset="0.15" stop-color="white"/>
<stop offset="1" stop-color="#FFFB62"/>
</radialGradient>
<radialGradient id="paint18_radial_200_848" cx="0" cy="0" r="1" gradientUnits="userSpaceOnUse" gradientTransform="translate(317.056 621.007) scale(1.75699 1.72036)">
<stop offset="0.15" stop-color="white"/>
<stop offset="1" stop-color="#FFFB62"/>
</radialGradient>
<radialGradient id="paint19_radial_200_848" cx="0" cy="0" r="1" gradientUnits="userSpaceOnUse" gradientTransform="translate(1160.31 2171.9) scale(22.1333 22.6971)">
<stop offset="0.15" stop-color="white"/>
<stop offset="1" stop-color="#FFFB62"/>
</radialGradient>
<radialGradient id="paint20_radial_200_848" cx="0" cy="0" r="1" gradientUnits="userSpaceOnUse" gradientTransform="translate(321.814 1483.63) scale(3.52903 8.35171)">
<stop offset="0.15" stop-color="white"/>
<stop offset="1" stop-color="#FFFB62"/>
</radialGradient>
<linearGradient id="paint21_linear_200_848" x1="1251.8" y1="6554.54" x2="1223.36" y2="7089.32" gradientUnits="userSpaceOnUse">
<stop offset="0.11" stop-color="#BC6300"/>
<stop offset="0.38" stop-color="#EDB500"/>
<stop offset="0.64" stop-color="#BC6300"/>
<stop offset="0.96" stop-color="#704000"/>
</linearGradient>
<linearGradient id="paint22_linear_200_848" x1="1198.89" y1="6521.82" x2="1198.89" y2="7034.13" gradientUnits="userSpaceOnUse">
<stop offset="0.11" stop-color="#BC6300"/>
<stop offset="0.38" stop-color="#EDB500"/>
<stop offset="0.64" stop-color="#BC6300"/>
<stop offset="0.96" stop-color="#704000"/>
</linearGradient>
<linearGradient id="paint23_linear_200_848" x1="20.7655" y1="1.59369" x2="20.7655" y2="37.6208" gradientUnits="userSpaceOnUse">
<stop offset="0.09" stop-color="white"/>
<stop offset="0.38" stop-color="#EDB500"/>
<stop offset="0.64" stop-color="#BC6300"/>
<stop offset="0.96" stop-color="#704000"/>
</linearGradient>
<linearGradient id="paint24_linear_200_848" x1="17.2421" y1="2.33048" x2="24.3244" y2="2.33048" gradientUnits="userSpaceOnUse">
<stop offset="0.06" stop-color="white"/>
<stop offset="0.19" stop-color="#FFFFF0"/>
<stop offset="0.45" stop-color="#FFFEC8"/>
<stop offset="0.81" stop-color="#FFFC88"/>
<stop offset="1" stop-color="#FFFB62"/>
</linearGradient>
<linearGradient id="paint25_linear_200_848" x1="847.055" y1="270.373" x2="870.148" y2="270.373" gradientUnits="userSpaceOnUse">
<stop offset="0.06" stop-color="white"/>
<stop offset="0.19" stop-color="#FFFFF0"/>
<stop offset="0.45" stop-color="#FFFEC8"/>
<stop offset="0.81" stop-color="#FFFC88"/>
<stop offset="1" stop-color="#FFFB62"/>
</linearGradient>
<linearGradient id="paint26_linear_200_848" x1="857.404" y1="412.788" x2="880.989" y2="412.788" gradientUnits="userSpaceOnUse">
<stop offset="0.06" stop-color="white"/>
<stop offset="0.19" stop-color="#FFFFF0"/>
<stop offset="0.45" stop-color="#FFFEC8"/>
<stop offset="0.81" stop-color="#FFFC88"/>
<stop offset="1" stop-color="#FFFB62"/>
</linearGradient>
<linearGradient id="paint27_linear_200_848" x1="801.735" y1="639.901" x2="822.318" y2="639.901" gradientUnits="userSpaceOnUse">
<stop offset="0.06" stop-color="white"/>
<stop offset="0.19" stop-color="#FFFFF0"/>
<stop offset="0.45" stop-color="#FFFEC8"/>
<stop offset="0.81" stop-color="#FFFC88"/>
<stop offset="1" stop-color="#FFFB62"/>
</linearGradient>
<linearGradient id="paint28_linear_200_848" x1="866.657" y1="311.547" x2="890.737" y2="311.547" gradientUnits="userSpaceOnUse">
<stop offset="0.06" stop-color="white"/>
<stop offset="0.19" stop-color="#FFFFF0"/>
<stop offset="0.45" stop-color="#FFFEC8"/>
<stop offset="0.81" stop-color="#FFFC88"/>
<stop offset="1" stop-color="#FFFB62"/>
</linearGradient>
<linearGradient id="paint29_linear_200_848" x1="869.134" y1="191.564" x2="893.644" y2="191.564" gradientUnits="userSpaceOnUse">
<stop offset="0.06" stop-color="white"/>
<stop offset="0.19" stop-color="#FFFFF0"/>
<stop offset="0.45" stop-color="#FFFEC8"/>
<stop offset="0.81" stop-color="#FFFC88"/>
<stop offset="1" stop-color="#FFFB62"/>
</linearGradient>
<linearGradient id="paint30_linear_200_848" x1="867.194" y1="127.972" x2="891.993" y2="127.972" gradientUnits="userSpaceOnUse">
<stop offset="0.06" stop-color="white"/>
<stop offset="0.19" stop-color="#FFFFF0"/>
<stop offset="0.45" stop-color="#FFFEC8"/>
<stop offset="0.81" stop-color="#FFFC88"/>
<stop offset="1" stop-color="#FFFB62"/>
</linearGradient>
<linearGradient id="paint31_linear_200_848" x1="845.309" y1="305.266" x2="867.778" y2="305.266" gradientUnits="userSpaceOnUse">
<stop offset="0.06" stop-color="white"/>
<stop offset="0.19" stop-color="#FFFFF0"/>
<stop offset="0.45" stop-color="#FFFEC8"/>
<stop offset="0.81" stop-color="#FFFC88"/>
<stop offset="1" stop-color="#FFFB62"/>
</linearGradient>
<linearGradient id="paint32_linear_200_848" x1="834.553" y1="502.066" x2="857.021" y2="502.066" gradientUnits="userSpaceOnUse">
<stop offset="0.06" stop-color="white"/>
<stop offset="0.19" stop-color="#FFFFF0"/>
<stop offset="0.45" stop-color="#FFFEC8"/>
<stop offset="0.81" stop-color="#FFFC88"/>
<stop offset="1" stop-color="#FFFB62"/>
</linearGradient>
<linearGradient id="paint33_linear_200_848" x1="838.37" y1="249.826" x2="861.603" y2="249.826" gradientUnits="userSpaceOnUse">
<stop offset="0.06" stop-color="white"/>
<stop offset="0.19" stop-color="#FFFFF0"/>
<stop offset="0.45" stop-color="#FFFEC8"/>
<stop offset="0.81" stop-color="#FFFC88"/>
<stop offset="1" stop-color="#FFFB62"/>
</linearGradient>
<linearGradient id="paint34_linear_200_848" x1="794.306" y1="80.3433" x2="816.16" y2="80.3433" gradientUnits="userSpaceOnUse">
<stop offset="0.06" stop-color="white"/>
<stop offset="0.19" stop-color="#FFFFF0"/>
<stop offset="0.45" stop-color="#FFFEC8"/>
<stop offset="0.81" stop-color="#FFFC88"/>
<stop offset="1" stop-color="#FFFB62"/>
</linearGradient>
<linearGradient id="paint35_linear_200_848" x1="2144.06" y1="8116.38" x2="2311.4" y2="8116.38" gradientUnits="userSpaceOnUse">
<stop offset="0.09" stop-color="white"/>
<stop offset="0.38" stop-color="#EDB500"/>
<stop offset="0.64" stop-color="#BC6300"/>
<stop offset="0.96" stop-color="#704000"/>
</linearGradient>
</defs>
</svg>
