<svg width="41" height="52" viewBox="0 0 41 52" fill="none" xmlns="http://www.w3.org/2000/svg">
<rect width="41" height="52" fill="#F5F5F5"/>
<rect width="360" height="640" transform="translate(-47 -503)" fill="white"/>
<g filter="url(#filter0_d_0_1)">
<rect x="-16" y="-13" width="300" height="80" rx="17" fill="#FEE4BD"/>
</g>
<path d="M36.9895 18.8548C36.8091 18.4839 36.5235 18.1744 36.1682 17.9648C35.813 17.7553 35.4039 17.6551 34.9921 17.6766L22.4562 18.3503L29.5238 8.01333C29.8307 7.58178 29.9627 7.04989 29.893 6.5249C29.8233 5.99991 29.5572 5.52087 29.1483 5.18436C28.7394 4.84786 28.2182 4.6789 27.6896 4.71157C27.1611 4.74424 26.6646 4.9761 26.3002 5.3604L4.6445 27.29C4.34172 27.5979 4.14125 27.9916 4.07039 28.4176C3.99952 28.8436 4.06173 29.2811 4.24852 29.6704C4.4353 30.0597 4.73759 30.3819 5.11418 30.5932C5.49076 30.8044 5.92333 30.8944 6.35292 30.8509L20.3046 29.4314L11.1885 43.7622C10.9107 44.2081 10.8102 44.742 10.9068 45.2584C11.0034 45.7748 11.29 46.2362 11.7102 46.5516C12.1303 46.8669 12.6534 47.0132 13.1762 46.9617C13.699 46.9101 14.1835 46.6644 14.534 46.2731L36.6345 21.1709C36.9171 20.8638 37.1019 20.4795 37.1651 20.067C37.2284 19.6544 37.1672 19.2324 36.9895 18.8548Z" fill="#003C80"/>
<path d="M27.915 6.50589L6.26411 28.4438C6.15634 28.541 6.08278 28.6704 6.05433 28.8127C6.02588 28.9551 6.04406 29.1028 6.10618 29.234C6.16831 29.3651 6.27105 29.4728 6.39919 29.541C6.52732 29.6092 6.67402 29.6342 6.81752 29.6124L22.2552 28.0459C22.389 28.017 22.5284 28.0294 22.655 28.0815C22.7816 28.1336 22.8893 28.223 22.9639 28.3377C23.0385 28.4525 23.0765 28.5872 23.0728 28.724C23.0691 28.8609 23.0238 28.9933 22.9431 29.1039L13.0284 44.6675C12.9189 44.8133 12.8718 44.9967 12.8975 45.1772C12.9232 45.3578 13.0195 45.5207 13.1653 45.6302C13.3111 45.7397 13.4945 45.7868 13.675 45.7611C13.8555 45.7354 14.0185 45.6391 14.128 45.4933L36.2302 20.3845C36.3264 20.285 36.3897 20.1584 36.4115 20.0217C36.4334 19.885 36.4126 19.7449 36.3522 19.6204C36.2917 19.4959 36.1945 19.393 36.0736 19.3256C35.9527 19.2582 35.814 19.2296 35.6763 19.2437L21.6867 19.9961C21.5562 20.009 21.4248 19.9836 21.3085 19.9231C21.1922 19.8625 21.096 19.7694 21.0318 19.655C20.9675 19.5407 20.938 19.4102 20.9467 19.2793C20.9555 19.1485 21.0021 19.023 21.081 18.9182L28.9745 7.37685C29.09 7.23634 29.145 7.0557 29.1273 6.87468C29.1096 6.69365 29.0207 6.52707 28.8802 6.41157C28.7397 6.29608 28.5591 6.24113 28.3781 6.25882C28.1971 6.27651 28.0305 6.36538 27.915 6.50589Z" fill="#91D9F8"/>
<path d="M6.81774 29.6124L22.2554 28.0459C22.3481 28.0345 22.4421 28.0424 22.5316 28.0692C22.621 28.0959 22.7039 28.141 22.7751 28.2014C22.8462 28.2619 22.9041 28.3364 22.9449 28.4203C22.9858 28.5043 23.0088 28.5958 23.0125 28.6891C25.7476 26.9059 32.7239 22.2825 32.1722 21.7852C31.4899 21.176 14.2523 26.0692 13.7604 24.0714C13.2684 22.0735 19.0717 16.2202 19.0717 16.2202C19.0717 16.2202 18.4156 16.5825 17.4427 17.0836L6.23825 28.4367C6.12287 28.534 6.04339 28.667 6.01248 28.8147C5.98157 28.9624 6.00101 29.1162 6.06772 29.2515C6.13442 29.3868 6.24454 29.4959 6.38048 29.5613C6.51643 29.6267 6.67038 29.6447 6.81774 29.6124Z" fill="#37B3E7"/>
<path d="M28.5838 24.9267C26.5812 26.1707 24.4614 27.2156 22.2551 28.0463C22.3889 28.0173 22.5283 28.0297 22.6549 28.0818C22.7814 28.1339 22.8892 28.2233 22.9638 28.3381C23.0384 28.4528 23.0764 28.5876 23.0727 28.7244C23.0689 28.8612 23.0237 28.9937 22.943 29.1043L13.3133 44.1781C13.145 44.5104 13.0025 44.8077 12.8856 45.0699C12.8953 45.1833 12.9319 45.2928 12.9924 45.3892C13.0528 45.4856 13.1354 45.5662 13.2333 45.6243C16.3616 42.2692 29.3461 25.6551 32.1491 21.9752C31.0691 23.0831 29.8739 24.0726 28.5838 24.9267Z" fill="white"/>
<path d="M24.4395 27.744C23.1651 27.8272 21.8964 27.9819 20.6394 28.2075L22.255 28.0463C22.3888 28.0173 22.5282 28.0297 22.6547 28.0818C22.7813 28.1339 22.8891 28.2233 22.9637 28.338C23.0383 28.4528 23.0763 28.5875 23.0725 28.7244C23.0688 28.8612 23.0236 28.9937 22.9429 29.1042L13.0282 44.6678C12.9479 44.7907 12.9099 44.9364 12.9198 45.0828C12.9298 45.2292 12.9872 45.3684 13.0833 45.4793C14.8394 42.0291 25.0589 27.91 24.4395 27.744Z" fill="#006AB6"/>
<path d="M6.20843 29.3304C9.25652 25.779 26.6514 8.8231 27.5367 7.78831C28.5381 6.65886 28.9729 7.38341 28.9729 7.38341C29.0893 7.24313 29.1452 7.06237 29.1283 6.8809C29.1114 6.69943 29.0231 6.53211 28.8828 6.41575C28.7425 6.29939 28.5618 6.24352 28.3804 6.26044C28.1989 6.27735 28.0316 6.36566 27.9152 6.50593L6.26429 28.4438C6.1493 28.5598 6.08027 28.7136 6.06999 28.8766C6.05972 29.0397 6.1089 29.2009 6.20843 29.3304Z" fill="#37B3E7"/>
<path d="M35.6761 19.2436L21.6865 19.996C21.556 20.0089 21.4246 19.9835 21.3083 19.923C21.192 19.8624 21.0958 19.7693 21.0316 19.655C20.9673 19.5406 20.9378 19.4101 20.9465 19.2792C20.9553 19.1484 21.0019 19.0229 21.0808 18.9181C21.0808 18.9181 19.6893 20.0689 19.7358 20.8082C19.7823 21.5475 35.3737 19.4072 36.3916 19.8337C36.3702 19.6625 36.2842 19.506 36.1512 19.3963C36.0182 19.2866 35.8482 19.232 35.6761 19.2436Z" fill="white"/>
<defs>
<filter id="filter0_d_0_1" x="-20" y="-13" width="308" height="88" filterUnits="userSpaceOnUse" color-interpolation-filters="sRGB">
<feFlood flood-opacity="0" result="BackgroundImageFix"/>
<feColorMatrix in="SourceAlpha" type="matrix" values="0 0 0 0 0 0 0 0 0 0 0 0 0 0 0 0 0 0 127 0" result="hardAlpha"/>
<feOffset dy="4"/>
<feGaussianBlur stdDeviation="2"/>
<feComposite in2="hardAlpha" operator="out"/>
<feColorMatrix type="matrix" values="0 0 0 0 0 0 0 0 0 0 0 0 0 0 0 0 0 0 0.25 0"/>
<feBlend mode="normal" in2="BackgroundImageFix" result="effect1_dropShadow_0_1"/>
<feBlend mode="normal" in="SourceGraphic" in2="effect1_dropShadow_0_1" result="shape"/>
</filter>
</defs>
</svg>
